<svg width="393" height="852" viewBox="0 0 393 852" fill="none" xmlns="http://www.w3.org/2000/svg">
<g clip-path="url(#clip0_92_92)">
<rect width="393" height="852" fill="#F3F3F3"/>
<path opacity="0.35" d="M63.3571 272.5V302.857C63.3571 307.858 63.3571 310.356 64.3303 312.266C65.1863 313.946 66.5512 315.315 68.2312 316.171C70.1393 317.143 72.6384 317.143 77.6291 317.143H93.7281C98.7188 317.143 101.214 317.143 103.122 316.171C104.802 315.315 106.172 313.945 107.028 312.265C108 310.357 108 307.862 108 302.871V286.772C108 281.781 108 279.282 107.028 277.374C106.172 275.694 104.803 274.329 103.123 273.473C101.213 272.5 98.7148 272.5 93.7143 272.5H63.3571ZM63.3571 272.5V254.643C63.3571 239.85 75.3495 227.857 90.1429 227.857M-17 272.5V302.857C-17 307.858 -17 310.356 -16.0268 312.266C-15.1708 313.946 -13.8059 315.315 -12.1259 316.171C-10.2179 317.143 -7.71878 317.143 -2.72809 317.143H13.3709C18.3616 317.143 20.8571 317.143 22.7652 316.171C24.4452 315.315 25.8146 313.945 26.6707 312.265C27.6429 310.357 27.6429 307.862 27.6429 302.871V286.772C27.6429 281.781 27.6429 279.282 26.6707 277.374C25.8146 275.694 24.446 274.329 22.766 273.473C20.8561 272.5 18.3576 272.5 13.3571 272.5H-17ZM-17 272.5V254.643C-17 239.85 -5.00762 227.857 9.78572 227.857" stroke="#1F1F1F" stroke-width="12" stroke-linecap="round" stroke-linejoin="round"/>
<path opacity="0.35" d="M329.643 545.5L329.643 515.143C329.643 510.142 329.643 507.644 328.67 505.734C327.814 504.054 326.449 502.685 324.769 501.829C322.861 500.857 320.362 500.857 315.371 500.857L299.272 500.857C294.281 500.857 291.786 500.857 289.878 501.829C288.198 502.685 286.828 504.055 285.972 505.735C285 507.643 285 510.138 285 515.129L285 531.228C285 536.219 285 538.718 285.972 540.626C286.828 542.306 288.197 543.671 289.877 544.527C291.787 545.5 294.285 545.5 299.286 545.5L329.643 545.5ZM329.643 545.5L329.643 563.357C329.643 578.15 317.65 590.143 302.857 590.143M410 545.5L410 515.143C410 510.142 410 507.644 409.027 505.734C408.171 504.054 406.806 502.685 405.126 501.829C403.218 500.857 400.719 500.857 395.728 500.857L379.629 500.857C374.638 500.857 372.143 500.857 370.235 501.829C368.555 502.685 367.185 504.055 366.329 505.735C365.357 507.643 365.357 510.138 365.357 515.129L365.357 531.228C365.357 536.219 365.357 538.718 366.329 540.626C367.185 542.306 368.554 543.671 370.234 544.527C372.144 545.5 374.642 545.5 379.643 545.5L410 545.5ZM410 545.5L410 563.357C410 578.15 398.008 590.143 383.214 590.143" stroke="#1F1F1F" stroke-width="12" stroke-linecap="round" stroke-linejoin="round"/>
</g>
<defs>
<clipPath id="clip0_92_92">
<rect width="393" height="852" fill="white"/>
</clipPath>
</defs>
</svg>
