<svg width="26" height="26" viewBox="0 0 26 26" fill="none" xmlns="http://www.w3.org/2000/svg">
<path fill-rule="evenodd" clip-rule="evenodd" d="M20.6785 4.5758C20.903 5.06957 20.6846 5.65178 20.1908 5.87623L19.2169 6.31894L21.9203 12.6125C21.9729 12.735 22 12.8668 22 13.0001C22 14.0784 21.5717 15.1126 20.8092 15.8751C20.0466 16.6376 19.0124 17.066 17.9341 17.066C16.8558 17.066 15.8216 16.6376 15.0591 15.8751C14.2966 15.1126 13.8682 14.0784 13.8682 13.0001C13.8682 12.8668 13.8954 12.735 13.948 12.6125L16.0289 7.768L13.4254 8.95141C13.4125 8.95761 13.3995 8.96354 13.3863 8.9692L9.32858 10.8136L12.0601 17.566C12.1075 17.683 12.1318 17.808 12.1318 17.9342C12.1318 19.0127 11.7034 20.0469 10.9409 20.8093C10.1784 21.5718 9.14423 22.0001 8.0659 22.0001C6.98756 22.0001 5.95338 21.5718 5.19087 20.8093C4.42837 20.0469 4 19.0127 4 17.9342C4 17.808 4.02433 17.683 4.07167 17.566L6.27044 12.1306C5.87787 12.1525 5.49406 11.9357 5.32156 11.5562C5.09713 11.0625 5.31546 10.4802 5.80922 10.2558L12.018 7.43365V4.98219C12.018 4.43981 12.4576 4.00012 13 4.00012C13.5424 4.00012 13.9821 4.43981 13.9821 4.98219V6.54086L17.4704 4.95526C17.508 4.93509 17.547 4.91735 17.5871 4.90219L19.378 4.08814C19.8718 3.86371 20.4541 4.08204 20.6785 4.5758ZM19.7748 12.5942L17.9341 8.30921L16.0935 12.5942H19.7748ZM8.0659 12.9299L6.22694 17.4758H9.90484L8.0659 12.9299Z" fill="#1F1F1F"/>
</svg>
