<svg width="18" height="19" viewBox="0 0 18 19" fill="none" xmlns="http://www.w3.org/2000/svg">
<path d="M1.75122 8.25172C1.51628 8.03446 1.6439 7.64169 1.96167 7.60401L6.46436 7.06995C6.59387 7.05459 6.70636 6.97326 6.76099 6.85483L8.66016 2.73749C8.79419 2.44691 9.20728 2.44686 9.34131 2.73744L11.2405 6.85475C11.2951 6.97317 11.4069 7.05472 11.5364 7.07008L16.0393 7.60401C16.3571 7.64169 16.4843 8.03458 16.2494 8.25184L12.9208 11.3306C12.8251 11.4191 12.7824 11.5509 12.8079 11.6788L13.6913 16.1261C13.7536 16.44 13.4196 16.6832 13.1404 16.5269L9.18386 14.3116C9.07006 14.2479 8.9318 14.2482 8.818 14.3119L4.86108 16.5263C4.58185 16.6826 4.24721 16.44 4.30957 16.1261L5.19311 11.6791C5.21852 11.5512 5.176 11.4191 5.08025 11.3305L1.75122 8.25172Z" stroke="#1F1F1F" stroke-width="1.5" stroke-linecap="round" stroke-linejoin="round"/>
</svg>
