<svg width="105" height="35" viewBox="0 0 105 35" fill="none" xmlns="http://www.w3.org/2000/svg">
<rect width="105" height="35" rx="17.5" fill="#1F1F1F"/>
<path d="M18.9225 25.5633C18.915 25.5633 18.9075 25.5633 18.8925 25.5633C17.6325 25.5558 16.7325 24.4233 16.095 23.4408C14.4675 20.9433 14.1375 17.8008 15.315 15.9783C16.1025 14.7558 17.3775 13.9983 18.6375 13.9983C19.29 13.9983 19.8 14.1783 20.25 14.3433C20.61 14.4708 20.9175 14.5833 21.24 14.5833C21.525 14.5833 21.7725 14.4858 22.0875 14.3658C22.5225 14.2008 23.055 13.9983 23.8275 13.9983C24.9375 13.9983 26.0775 14.5908 26.8725 15.5958C26.9775 15.7233 27.015 15.8958 26.985 16.0533C26.955 16.2183 26.85 16.3533 26.7075 16.4358C25.86 16.9008 25.395 17.7483 25.4625 18.7083C25.53 19.6833 26.13 20.5083 27.03 20.8458C27.1725 20.8983 27.2925 21.0108 27.3525 21.1533C27.4125 21.2958 27.4125 21.4608 27.345 21.5958C27.015 22.3308 26.85 22.6683 26.4225 23.3283C25.71 24.4233 24.81 25.5483 23.58 25.5633C23.0475 25.5633 22.6875 25.4058 22.3725 25.2558C22.0575 25.1133 21.75 25.0008 21.2625 24.9858C20.7375 24.9858 20.46 25.1133 20.1375 25.2558C19.8075 25.4058 19.4475 25.5633 18.9225 25.5633ZM18.6375 15.1233C17.7525 15.1233 16.845 15.6858 16.26 16.5858C15.465 17.8158 15.4725 20.4183 17.04 22.8258C17.5275 23.5758 18.18 24.4308 18.9075 24.4383C19.1775 24.4308 19.38 24.3558 19.6575 24.2358C20.025 24.0708 20.4825 23.8683 21.24 23.8608C21.9825 23.8458 22.4625 24.0633 22.83 24.2358C23.1 24.3633 23.28 24.4458 23.5575 24.4383C24.2625 24.4308 24.945 23.5158 25.47 22.7208C25.7475 22.2933 25.905 22.0233 26.0775 21.6408C25.0725 21.0483 24.4125 20.0058 24.33 18.7908C24.2475 17.6433 24.7125 16.5708 25.5675 15.8583C25.0425 15.3933 24.42 15.1308 23.82 15.1308C23.2575 15.1308 22.8825 15.2733 22.485 15.4233C22.11 15.5658 21.72 15.7158 21.2325 15.7158C20.715 15.7158 20.2875 15.5583 19.8675 15.4158C19.47 15.2583 19.0875 15.1233 18.6375 15.1233ZM20.865 13.8483C20.8425 13.8483 20.8125 13.8483 20.79 13.8483C20.5275 13.8408 20.3025 13.6458 20.2575 13.3833C20.1 12.5358 20.4 11.5608 21.0525 10.7658C21.6525 10.0383 22.6425 9.49828 23.52 9.43828C23.8275 9.42328 24.075 9.62579 24.1125 9.91829C24.24 10.7958 23.9625 11.7558 23.34 12.5583C22.7325 13.3458 21.765 13.8483 20.865 13.8483ZM22.9875 10.7133C22.5825 10.8783 22.185 11.1558 21.9225 11.4783C21.675 11.7783 21.4425 12.1983 21.3675 12.6333C21.7725 12.4983 22.1775 12.2283 22.455 11.8683C22.605 11.6808 22.89 11.2458 22.9875 10.7133Z" fill="white"/>
<path d="M40.958 20.638H37.066L36.422 22.5H34.364L37.878 12.714H40.16L43.674 22.5H41.602L40.958 20.638ZM40.426 19.07L39.012 14.982L37.598 19.07H40.426ZM46.9475 15.864C47.1995 15.5093 47.5448 15.2153 47.9835 14.982C48.4315 14.7393 48.9402 14.618 49.5095 14.618C50.1722 14.618 50.7695 14.7813 51.3015 15.108C51.8428 15.4347 52.2675 15.9013 52.5755 16.508C52.8928 17.1053 53.0515 17.8007 53.0515 18.594C53.0515 19.3873 52.8928 20.092 52.5755 20.708C52.2675 21.3147 51.8428 21.786 51.3015 22.122C50.7695 22.458 50.1722 22.626 49.5095 22.626C48.9402 22.626 48.4362 22.5093 47.9975 22.276C47.5682 22.0427 47.2182 21.7487 46.9475 21.394V26.196H44.9875V14.744H46.9475V15.864ZM51.0495 18.594C51.0495 18.1273 50.9515 17.726 50.7555 17.39C50.5688 17.0447 50.3168 16.7833 49.9995 16.606C49.6915 16.4287 49.3555 16.34 48.9915 16.34C48.6368 16.34 48.3008 16.4333 47.9835 16.62C47.6755 16.7973 47.4235 17.0587 47.2275 17.404C47.0408 17.7493 46.9475 18.1553 46.9475 18.622C46.9475 19.0887 47.0408 19.4947 47.2275 19.84C47.4235 20.1853 47.6755 20.4513 47.9835 20.638C48.3008 20.8153 48.6368 20.904 48.9915 20.904C49.3555 20.904 49.6915 20.8107 49.9995 20.624C50.3168 20.4373 50.5688 20.1713 50.7555 19.826C50.9515 19.4807 51.0495 19.07 51.0495 18.594ZM56.4358 15.864C56.6878 15.5093 57.0331 15.2153 57.4718 14.982C57.9198 14.7393 58.4284 14.618 58.9978 14.618C59.6604 14.618 60.2578 14.7813 60.7898 15.108C61.3311 15.4347 61.7558 15.9013 62.0638 16.508C62.3811 17.1053 62.5398 17.8007 62.5398 18.594C62.5398 19.3873 62.3811 20.092 62.0638 20.708C61.7558 21.3147 61.3311 21.786 60.7898 22.122C60.2578 22.458 59.6604 22.626 58.9978 22.626C58.4284 22.626 57.9244 22.5093 57.4858 22.276C57.0564 22.0427 56.7064 21.7487 56.4358 21.394V26.196H54.4758V14.744H56.4358V15.864ZM60.5378 18.594C60.5378 18.1273 60.4398 17.726 60.2438 17.39C60.0571 17.0447 59.8051 16.7833 59.4878 16.606C59.1798 16.4287 58.8438 16.34 58.4798 16.34C58.1251 16.34 57.7891 16.4333 57.4718 16.62C57.1638 16.7973 56.9118 17.0587 56.7158 17.404C56.5291 17.7493 56.4358 18.1553 56.4358 18.622C56.4358 19.0887 56.5291 19.4947 56.7158 19.84C56.9118 20.1853 57.1638 20.4513 57.4718 20.638C57.7891 20.8153 58.1251 20.904 58.4798 20.904C58.8438 20.904 59.1798 20.8107 59.4878 20.624C59.8051 20.4373 60.0571 20.1713 60.2438 19.826C60.4398 19.4807 60.5378 19.07 60.5378 18.594ZM65.924 12.14V22.5H63.964V12.14H65.924ZM75.0705 18.454C75.0705 18.734 75.0519 18.986 75.0145 19.21H69.3445C69.3912 19.77 69.5872 20.2087 69.9325 20.526C70.2779 20.8433 70.7025 21.002 71.2065 21.002C71.9345 21.002 72.4525 20.6893 72.7605 20.064H74.8745C74.6505 20.8107 74.2212 21.4267 73.5865 21.912C72.9519 22.388 72.1725 22.626 71.2485 22.626C70.5019 22.626 69.8299 22.4627 69.2325 22.136C68.6445 21.8 68.1825 21.3287 67.8465 20.722C67.5199 20.1153 67.3565 19.4153 67.3565 18.622C67.3565 17.8193 67.5199 17.1147 67.8465 16.508C68.1732 15.9013 68.6305 15.4347 69.2185 15.108C69.8065 14.7813 70.4832 14.618 71.2485 14.618C71.9859 14.618 72.6439 14.7767 73.2225 15.094C73.8105 15.4113 74.2632 15.864 74.5805 16.452C74.9072 17.0307 75.0705 17.698 75.0705 18.454ZM73.0405 17.894C73.0312 17.39 72.8492 16.9887 72.4945 16.69C72.1399 16.382 71.7059 16.228 71.1925 16.228C70.7072 16.228 70.2965 16.3773 69.9605 16.676C69.6339 16.9653 69.4332 17.3713 69.3585 17.894H73.0405ZM81.7971 12.728V22.5H79.8371V12.728H81.7971ZM87.1496 12.728C88.1762 12.728 89.0769 12.9287 89.8516 13.33C90.6356 13.7313 91.2376 14.3053 91.6576 15.052C92.0869 15.7893 92.3016 16.648 92.3016 17.628C92.3016 18.608 92.0869 19.4667 91.6576 20.204C91.2376 20.932 90.6356 21.4967 89.8516 21.898C89.0769 22.2993 88.1762 22.5 87.1496 22.5H83.7336V12.728H87.1496ZM87.0796 20.834C88.1062 20.834 88.8996 20.554 89.4596 19.994C90.0196 19.434 90.2996 18.6453 90.2996 17.628C90.2996 16.6107 90.0196 15.8173 89.4596 15.248C88.8996 14.6693 88.1062 14.38 87.0796 14.38H85.6936V20.834H87.0796Z" fill="white"/>
</svg>
