<svg width="23" height="22" viewBox="0 0 23 22" fill="none" xmlns="http://www.w3.org/2000/svg">
<path d="M16.1289 18.59C15.2306 19.4608 14.2497 19.3233 13.3056 18.9108C12.3064 18.4892 11.3897 18.4708 10.3356 18.9108C9.01558 19.4792 8.31891 19.3142 7.53058 18.59C3.05724 13.9792 3.71724 6.9575 8.79558 6.70083C10.0331 6.765 10.8947 7.37917 11.6189 7.43417C12.7006 7.21417 13.7364 6.58167 14.8914 6.66417C16.2756 6.77417 17.3206 7.32417 18.0081 8.31417C15.1481 10.0283 15.8264 13.7958 18.4481 14.85C17.9256 16.225 17.2472 17.5908 16.1197 18.5992L16.1289 18.59ZM11.5272 6.64583C11.3897 4.60167 13.0489 2.915 14.9556 2.75C15.2214 5.115 12.8106 6.875 11.5272 6.64583Z" fill="white"/>
</svg>
