<svg width="19" height="18" viewBox="0 0 19 18" fill="none" xmlns="http://www.w3.org/2000/svg">
<path d="M16.1445 6.27739L10.947 2.12239C10.1445 1.47739 8.84697 1.47739 8.05197 2.11489L2.85447 6.27739C2.26947 6.74239 1.89447 7.72489 2.02197 8.45989L3.01947 14.4299C3.19947 15.4949 4.21947 16.3574 5.29947 16.3574H13.6995C14.772 16.3574 15.7995 15.4874 15.9795 14.4299L16.977 8.45989C17.097 7.72489 16.722 6.74239 16.1445 6.27739ZM9.49947 11.6249C8.46447 11.6249 7.62447 10.7849 7.62447 9.74989C7.62447 8.71489 8.46447 7.87489 9.49947 7.87489C10.5345 7.87489 11.3745 8.71489 11.3745 9.74989C11.3745 10.7849 10.5345 11.6249 9.49947 11.6249Z" fill="white"/>
</svg>
