<svg width="30" height="30" viewBox="0 0 30 30" fill="none" xmlns="http://www.w3.org/2000/svg">
<rect width="30" height="30" rx="15" fill="#303030"/>
<path d="M13.663 20.0381C13.3966 20.3044 12.9576 20.3044 12.6913 20.0381L8.13953 15.4863C7.87321 15.22 7.87321 14.781 8.13953 14.5146L12.6913 9.96191C12.8285 9.82474 13.0038 9.75977 13.1776 9.75977C13.3514 9.75979 13.5258 9.82486 13.663 9.96191C13.9293 10.2282 13.9293 10.6673 13.663 10.9336L9.59753 15.001L13.663 19.0664C13.9293 19.3327 13.9293 19.7718 13.663 20.0381Z" fill="white" stroke="white" stroke-width="0.25"/>
<path d="M8.75293 15.6875C8.37639 15.6875 8.06543 15.3765 8.06543 15C8.06543 14.6235 8.37639 14.3125 8.75293 14.3125L21.375 14.3125C21.7515 14.3125 22.0625 14.6235 22.0625 15C22.0625 15.3765 21.7515 15.6875 21.375 15.6875L8.75293 15.6875Z" fill="white" stroke="white" stroke-width="0.25"/>
</svg>
