<svg width="70" height="64" viewBox="0 0 70 64" fill="none" xmlns="http://www.w3.org/2000/svg">
<path fill-rule="evenodd" clip-rule="evenodd" d="M18.3636 36.7906C16.3967 36.0582 12.0916 34.2567 8.16657 31.2505C4.55005 28.4833 1.2719 24.7033 0.298645 19.8514C-0.943776 13.6528 1.41829 2.49277 12.5642 0.319254C19.9139 -1.113 25.2367 2.48687 28.3683 6.9018C30.2543 6.01289 32.4547 5.48429 34.9994 5.48429C37.5441 5.48429 39.7476 6.0129 41.6336 6.9018C44.7651 2.48687 50.0878 -1.11338 57.4377 0.319254C68.5835 2.49277 70.9456 13.6529 69.7002 19.8514C68.7302 24.7035 65.452 28.4835 61.8353 31.2505C57.9045 34.2568 53.6056 36.0582 51.6383 36.7906L53.2818 40.4673C53.4315 40.801 53.3806 41.1908 53.1501 41.4772C52.9166 41.7666 52.5424 41.8995 52.1772 41.8286L51.4587 41.6898C51.6592 42.0885 51.8449 42.5108 51.9826 42.9301C52.258 43.7806 52.3089 44.6164 52.0574 45.2513C51.6562 46.2702 50.2581 47.5548 48.7942 48.8098C47.6057 49.8375 46.3692 50.8357 45.9951 51.7275C45.7735 52.2473 45.9262 53.0151 46.1148 53.7534C46.4531 55.0941 47.0549 56.3374 47.0549 56.3374C47.2914 56.8277 47.0848 57.4183 46.5849 57.6487C46.0849 57.8849 45.4891 57.6782 45.2526 57.185C45.2526 57.185 44.3125 55.233 44.0072 53.4286C43.8545 52.5102 43.8755 51.6272 44.1509 50.9745C44.606 49.8877 46.031 48.5795 47.483 47.3303C48.6596 46.3144 49.875 45.3576 50.2014 44.5367C50.2613 44.3801 50.2373 44.197 50.2014 43.9992C50.1475 43.6802 50.0247 43.3377 49.884 43.0069C49.5607 42.2657 49.1176 41.5688 48.8602 41.1818L46.3394 40.6916C45.9742 40.6208 45.6808 40.3579 45.576 40.0006C45.4742 39.6492 45.576 39.2712 45.8424 39.0172L48.7674 36.25C48.1746 35.7096 47.3244 34.8975 46.3604 33.8521C46.046 34.2507 45.7197 34.6376 45.3874 35.0127C42.1123 38.7218 38.2294 41.3088 36.4542 42.3896L38.7743 45.6647C38.9899 45.9659 39.0168 46.3587 38.8402 46.6865C38.6726 47.0084 38.3313 47.2151 37.9571 47.2151H35.3884C35.0591 47.5399 34.4902 48.1395 34.0322 48.8069C33.8227 49.1051 33.6371 49.4182 33.5173 49.7194C33.4454 49.9084 33.3856 50.0856 33.4155 50.248C33.5742 51.1162 34.5801 52.2856 35.5351 53.5083C36.7117 55.0085 37.8522 56.5648 38.0858 57.7194C38.2265 58.4134 38.0768 59.2846 37.7445 60.1558C37.0918 61.8657 35.7836 63.6021 35.7836 63.6021C35.4542 64.0422 34.8315 64.1278 34.3885 63.8059C33.9454 63.4781 33.8526 62.8638 34.1849 62.4268C34.1849 62.4268 35.0171 61.3223 35.6159 60.0672C35.9393 59.3791 36.2416 58.6586 36.1309 58.1063C35.9393 57.1583 34.9184 55.9387 33.9544 54.7131C32.7689 53.1982 31.6492 51.6744 31.4516 50.5905C31.3289 49.9202 31.5415 49.114 31.9845 48.3343C32.1971 47.9475 32.4635 47.5665 32.739 47.2151H32.0085C31.6343 47.2151 31.296 47.0083 31.1254 46.6864C30.9517 46.3586 30.9757 45.9659 31.1942 45.6646L33.5264 42.3718C31.7421 41.2792 27.8741 38.6893 24.6138 34.989C24.2845 34.6198 23.9612 34.233 23.6469 33.8402C22.6799 34.8886 21.8267 35.7096 21.2339 36.25L24.1588 39.0171C24.4253 39.2711 24.5271 39.6491 24.4223 40.0006C24.3205 40.3579 24.0211 40.6207 23.6559 40.6916L21.1381 41.1818C20.8776 41.5687 20.4405 42.2656 20.1172 43.0069C19.9735 43.3376 19.8538 43.6802 19.7939 43.9991C19.761 44.197 19.74 44.3801 19.7999 44.5366C20.1262 45.3576 21.3357 46.3144 22.5183 47.3303C23.9672 48.5794 25.3893 49.8877 25.8474 50.9745C26.1198 51.6271 26.1467 52.5101 25.9881 53.4285C25.6887 55.2329 24.7427 57.185 24.7427 57.185C24.5062 57.6781 23.9104 57.8849 23.4134 57.6486C22.9164 57.4183 22.7039 56.8277 22.9434 56.3374C22.9434 56.3374 23.5451 55.0942 23.8864 53.7534C24.0691 53.0151 24.2218 52.2473 24.0062 51.7275C23.632 50.8356 22.3895 49.8375 21.2041 48.8098C19.7431 47.5547 18.345 46.2701 17.9379 45.2513C17.6864 44.6163 17.7373 43.7806 18.0187 42.9301C18.1504 42.5107 18.342 42.0884 18.5426 41.6898L17.8241 41.8286C17.4589 41.8995 17.0846 41.7666 16.8512 41.4772C16.6176 41.1907 16.5667 40.8009 16.7194 40.4672L18.3636 36.7906ZM26.6262 7.88241C23.878 4.09649 19.2795 1.01637 12.9505 2.25372C3.15197 4.15848 1.16392 14.0217 2.25681 19.4702C3.13098 23.835 6.13674 27.2042 9.39098 29.6937C13.4865 32.8299 18.0192 34.5811 19.5305 35.1187C20.0964 34.6166 21.1891 33.6066 22.4495 32.2098C20.5095 29.3334 19.1324 25.9904 19.1324 22.3023C19.1324 18.9298 20.4137 14.3703 23.3387 10.8473C22.5992 9.55682 21.3238 8.39619 19.9946 7.63134C19.0306 7.07615 18.0396 6.72474 17.1984 6.74538C16.6476 6.7631 16.1866 6.33489 16.1716 5.79153C16.1566 5.24519 16.5907 4.79337 17.1446 4.77863C18.3001 4.74615 19.6803 5.16844 21.0005 5.92738C22.4465 6.76315 23.8177 7.98576 24.7487 9.36192C25.3265 8.82444 25.9526 8.33125 26.6262 7.88241ZM43.376 7.88241C48.6421 11.3554 50.8694 17.8609 50.8694 22.3025C50.8694 25.9998 49.4982 29.3516 47.5583 32.222C48.8187 33.6129 49.9054 34.6171 50.4713 35.119C51.9832 34.5816 56.5127 32.8304 60.6108 29.6941C63.8651 27.2046 66.8708 23.835 67.745 19.4706C68.8318 14.0221 66.8438 4.15848 57.0513 2.2541C50.7195 1.01675 46.1244 4.09649 43.376 7.88241ZM24.9946 11.9459C22.2972 15.0911 21.1296 19.2609 21.1296 22.3025C21.1296 26.7528 23.4138 30.6337 26.1172 33.6985C29.5241 37.5583 33.6256 40.1422 35.006 40.9574C36.3831 40.1482 40.4815 37.576 43.8855 33.7192C46.5919 30.6538 48.8732 26.7734 48.8732 22.302C48.8732 16.7501 44.9902 7.4533 34.9997 7.4533C30.8144 7.4533 27.7069 9.0834 25.5001 11.3898C25.4163 11.6261 25.2366 11.8298 24.9941 11.945L24.9946 11.9459ZM34.9847 43.7572L33.9249 45.2456H36.0415L34.9847 43.7572ZM20.0635 37.8686L19.3151 39.5312L21.3927 39.1266L20.0635 37.8686ZM49.938 37.8686L48.6087 39.1266L50.6834 39.5312L49.938 37.8686ZM60.1105 8.56123C59.6135 8.33088 59.395 7.74323 59.6285 7.25296C59.868 6.76274 60.4608 6.54716 60.9608 6.78341C62.0056 7.26478 63.0445 8.25702 63.8797 9.52394C65.0712 11.3401 65.8406 13.7056 65.7059 15.7521C65.67 16.2926 65.1939 16.703 64.6431 16.6705C64.0953 16.6321 63.6791 16.1626 63.7121 15.6222C63.8228 13.9714 63.1702 12.0637 62.2032 10.596C61.5954 9.67158 60.8709 8.91557 60.1105 8.56123ZM37.8518 12.0607C37.3039 12.0016 36.9087 11.5144 36.9626 10.9739C37.0225 10.4335 37.5164 10.0437 38.0643 10.1028C39.2139 10.2239 40.5222 10.8234 41.7286 11.7536C43.459 13.0855 44.9709 15.0759 45.5187 17.0516C45.6654 17.5743 45.3481 18.1146 44.8182 18.2624C44.2883 18.4041 43.7405 18.094 43.5937 17.5713C43.1536 15.9737 41.8993 14.3819 40.5011 13.3041C39.621 12.6307 38.687 12.1464 37.8518 12.0607Z" fill="#1F1F1F"/>
</svg>
