<svg width="40" height="41" viewBox="0 0 40 41" fill="none" xmlns="http://www.w3.org/2000/svg">
<g opacity="0.65" clip-path="url(#clip0_10_812)">
<path d="M21.8834 24.7666L24.2668 22.3833L33.8168 31.9333C34.4668 32.5833 34.4668 33.65 33.8168 34.3166C33.1668 34.9667 32.1001 34.9667 31.4334 34.3166L21.8834 24.7666ZM29.0334 15.2166L31.1501 13.1C32.6334 11.6166 32.4334 9.04998 30.6334 7.96665C24.1501 3.99998 15.5834 4.81665 9.96676 10.4166C16.5168 8.24998 23.8168 9.99998 29.0334 15.2166ZM9.91676 10.4666C4.31676 16.0833 3.50009 24.65 7.45009 31.1333C8.55009 32.9333 11.1001 33.15 12.5834 31.65L14.7001 29.5333C9.50009 24.3166 7.75009 17.0166 9.91676 10.4666ZM9.95009 10.4333L9.93343 10.45C9.30009 15.4666 11.8834 21.9166 17.1001 27.15L26.6501 17.6C21.4334 12.3833 14.9668 9.79998 9.95009 10.4333Z" fill="#1F1F1F"/>
</g>
<defs>
<clipPath id="clip0_10_812">
<rect width="40" height="40" fill="white" transform="translate(0 0.5)"/>
</clipPath>
</defs>
</svg>
