<svg width="24" height="22" viewBox="0 0 24 22" fill="none" xmlns="http://www.w3.org/2000/svg">
<path d="M16.9493 4.50694C16.836 4.50694 16.7239 4.53729 16.6217 4.60162C16.336 4.78005 16.251 5.15268 16.432 5.43551L16.469 5.49377L16.4973 5.54232L16.5219 5.59087L16.5441 5.64064L16.5638 5.69162L16.5811 5.7426L16.5958 5.79601L16.6081 5.84942L16.6168 5.9004L16.6266 5.98051L16.6291 6.05819L16.6266 6.13587L16.6192 6.21356L16.6057 6.29124L16.5872 6.3665L16.5626 6.44054L16.533 6.51337L16.4998 6.58256L16.4591 6.65174L16.416 6.71486L16.368 6.77676L16.315 6.83503L16.2572 6.88965L16.2448 6.89936L16.0638 7.04259L16.0355 7.06565L15.8545 7.22587L15.8286 7.25136L15.6574 7.42129L15.6328 7.44921L15.4727 7.62885L15.4493 7.65798L15.3015 7.84734L15.2793 7.87768L15.1426 8.07553L15.1229 8.10588L14.9998 8.31222L14.9813 8.345L14.8705 8.55741L14.8545 8.59019L14.7572 8.80988L14.7424 8.84387L14.6586 9.06843L14.6476 9.10363L14.5774 9.33303C14.4801 9.65225 14.6636 9.98971 14.9875 10.0856C15.0466 10.1038 15.1057 10.1111 15.1648 10.1111C15.4284 10.1111 15.6722 9.94237 15.7523 9.68141L15.8163 9.46899L15.8877 9.27843L15.9702 9.09271L16.0651 8.91186L16.1685 8.73828L16.2843 8.57078L16.4099 8.40934V8.41056L16.5454 8.25641L16.6894 8.11196L16.8434 7.97602L16.9074 7.92504L16.9062 7.92625C16.9284 7.91169 16.9505 7.89591 16.9702 7.8777L17.0096 7.84614L17.1537 7.7454L17.3089 7.64951L17.4702 7.56211L17.6365 7.482L17.804 7.41282L17.9776 7.35091L18.155 7.29872V7.29993L18.3311 7.25745L18.5133 7.22467L18.7116 7.19918C19.0478 7.1567 19.2855 6.85446 19.2424 6.52309C19.203 6.21721 18.9394 5.99509 18.6352 5.99509C18.6094 5.99509 18.5823 5.9963 18.5564 5.99995L18.3409 6.02665L18.3077 6.03151L18.0946 6.07035L18.0626 6.07763L17.8545 6.12618L17.8569 6.07277L17.8557 6.03029L17.8508 5.91012L17.8483 5.86764L17.8347 5.74869L17.8298 5.71227L17.815 5.62973L17.8089 5.6006L17.7904 5.51806L17.783 5.48893L17.7596 5.40761L17.751 5.37969L17.7239 5.29836L17.7141 5.27166L17.6833 5.19276L17.6722 5.16484L17.6377 5.08716L17.586 4.9852L17.5712 4.9585L17.5293 4.88567L17.5146 4.86018L17.4678 4.78856C17.352 4.60649 17.1537 4.50696 16.9505 4.50696L16.9493 4.50694ZM11.4604 5.50104H11.4555C11.1168 5.51075 10.8508 5.78871 10.8607 6.1213L10.8631 6.20627L10.8619 6.27303L10.8558 6.341L10.8471 6.40776L10.8336 6.47451L10.8163 6.54006L10.7966 6.60561L10.772 6.66873L10.7461 6.72942L10.7067 6.80588L10.6624 6.8775L10.6131 6.94669L10.5602 7.01223L10.5023 7.07414L10.4407 7.1324L10.4013 7.16396L10.3952 7.15182L10.3053 6.98796L10.2843 6.95033L10.1821 6.79254L10.1587 6.75855L10.0454 6.60803L10.0232 6.5789L9.93826 6.47816L9.91856 6.45631L9.82866 6.3592L9.80772 6.33857L9.71289 6.24632L9.69073 6.22569L9.59221 6.13829L9.5688 6.11887L9.46536 6.03754L9.44196 6.01934L9.33482 5.94165L9.30896 5.92466L9.19812 5.85305L9.17226 5.83727L9.05773 5.77051L9.03186 5.75594L8.91364 5.69525C8.82373 5.64913 8.72645 5.62607 8.63039 5.62607C8.40994 5.62607 8.19689 5.74381 8.08727 5.95016C7.93087 6.24512 8.0454 6.60926 8.34589 6.76463L8.44934 6.81803L8.53924 6.87023L8.62421 6.92485L8.70796 6.98554L8.78801 7.04866L8.86436 7.11663L8.93702 7.18703L9.00722 7.26228L9.07003 7.33754L9.15993 7.45649L9.23752 7.57909L9.30772 7.70532L9.36806 7.83763L9.41856 7.97357L9.4592 8.11195L9.49122 8.25275L9.51215 8.39598L9.52201 8.54042L9.52324 8.68486L9.51338 8.82809L9.49245 8.97132L9.46289 9.11333L9.42225 9.2517L9.3656 9.40829C9.24984 9.72144 9.41486 10.0674 9.73261 10.1815C9.80157 10.2058 9.87177 10.2167 9.94073 10.2167C10.1907 10.2167 10.426 10.065 10.5171 9.81979L10.5811 9.64378L10.5947 9.60373L10.6464 9.42408L10.6562 9.38282L10.6956 9.19953L10.703 9.15826L10.7289 8.97255L10.7338 8.93128L10.7461 8.74436L10.7474 8.70187V8.51495L10.7449 8.47247L10.7388 8.38021L10.8237 8.33652L10.8594 8.31588L10.9678 8.25034L11.0023 8.22728L11.1057 8.15445L11.139 8.12896L11.2363 8.04885L11.2683 8.02214L11.3594 7.93597L11.389 7.90683L11.4752 7.81459L11.5023 7.78303L11.5823 7.68593L11.607 7.65315L11.6796 7.54998L11.7018 7.51599L11.7671 7.40796L11.788 7.37276L11.8447 7.26109L11.8607 7.2271L11.9025 7.13486L11.9149 7.10451L11.9506 7.00983L11.9617 6.97828L11.9912 6.88117L12.0011 6.84961L12.0257 6.75251L12.0331 6.71974L12.0516 6.6202L12.0577 6.58743L12.0713 6.4879L12.075 6.45513L12.0836 6.35438L12.0848 6.32161L12.0873 6.22086V6.18687L12.0848 6.08613C12.075 5.75961 11.8016 5.49987 11.4715 5.49987L11.4604 5.50104ZM7.41865 7.21371H7.41742C7.18713 7.21371 6.96791 7.34359 6.86447 7.56329L6.82629 7.64462L6.79181 7.70531L6.75363 7.76357L6.71176 7.82062L6.66619 7.87402L6.61817 7.925L6.56644 7.97234L6.51102 8.01604L6.45314 8.0573L6.3928 8.09372L6.32999 8.12649L6.27211 8.1532L6.21053 8.17626L6.14896 8.19568L6.08615 8.21146L6.02334 8.22238V8.2236L5.95807 8.23088V8.23209L5.89403 8.23574V8.23695H5.83L5.76473 8.23331V8.23452L5.70069 8.22724L5.68591 8.22481L5.65266 8.21146L5.50857 8.16048L5.46793 8.14713L5.32138 8.10586L5.27827 8.09615L5.12926 8.0658L5.08739 8.05852L4.93591 8.03789L4.89281 8.03425L4.74133 8.02332L4.69822 8.02211L4.54551 8.02332L4.50364 8.02453L4.35093 8.03667L4.30783 8.04031L4.15758 8.06216L4.11571 8.07066L3.96669 8.10222L3.92482 8.11314L3.77827 8.15441L3.73763 8.16776L3.59478 8.22117L3.55537 8.23695L3.4162 8.29885L3.37803 8.31827L3.24379 8.38867L3.20684 8.41052L3.07753 8.49185L3.04305 8.51491L2.9199 8.60473L2.88665 8.63144L2.77088 8.72854L2.73886 8.75646L2.63049 8.86206C2.38911 9.09632 2.38542 9.47868 2.6231 9.71536C2.74256 9.83553 2.90142 9.89622 3.05906 9.89622C3.21423 9.89622 3.3694 9.83796 3.48886 9.72265L3.58246 9.63283L3.66497 9.56243L3.75364 9.49809L3.84601 9.44105L3.94207 9.38885L4.04182 9.34516L4.14404 9.30753L4.24872 9.27719L4.35586 9.25412L4.46424 9.23834L4.57261 9.22985H4.68222L4.79182 9.23713L4.9002 9.2517L5.00734 9.27355L5.11325 9.30268L5.21547 9.33909L5.31522 9.38279L5.41251 9.43376L5.50611 9.49081L5.59478 9.55393L5.67852 9.62312L5.75734 9.69837L5.83 9.7797L5.89773 9.86467L5.95808 9.95449L6.0135 10.0479L6.0603 10.1451L6.10956 10.2652C6.20562 10.5007 6.43467 10.6452 6.67853 10.6452C6.75365 10.6452 6.83124 10.6306 6.90513 10.6015C7.21917 10.4777 7.37189 10.1269 7.24625 9.81735L7.1896 9.67776L7.17236 9.63892L7.10586 9.50298L7.08615 9.46535L7.0098 9.33547L6.98763 9.29906L6.91251 9.1886L6.98517 9.15098L7.01965 9.13155L7.11325 9.07329L7.1465 9.05266L7.2364 8.98954L7.26842 8.96526L7.3534 8.89729L7.38295 8.8718L7.46423 8.79776L7.49256 8.76984L7.56891 8.69094L7.59477 8.66181L7.6662 8.57806L7.69083 8.54772L7.75487 8.45911L7.77704 8.42755L7.83738 8.3353L7.85709 8.30131L7.91005 8.20542L7.92729 8.17143L7.97408 8.0719C8.11694 7.76966 7.98394 7.41038 7.67729 7.2708C7.59354 7.23196 7.50609 7.21371 7.41865 7.21371ZM18.3794 9.77C18.0419 9.77121 17.7685 10.0419 17.7685 10.3757L17.7698 10.5104L17.771 10.5541L17.7821 10.6888L17.787 10.7313L17.8067 10.8661L17.8153 10.9085L17.8449 11.0396L17.856 11.0821L17.8954 11.212L17.9089 11.2533L17.9582 11.3795L17.9754 11.4195L18.0333 11.5421L18.053 11.581L18.1195 11.6987L18.1429 11.7351L18.218 11.848L18.2439 11.8844L18.3264 11.9913L18.3547 12.0252L18.4459 12.126L18.4754 12.1575L18.5739 12.2522L18.606 12.2814L18.7106 12.3687L18.7463 12.3955L18.8572 12.4756L18.8929 12.4998L19.0062 12.569L19.0431 12.5909L19.1614 12.6528L19.2008 12.671L19.3227 12.7256L19.3633 12.7414L19.489 12.7863L19.5296 12.7996L19.6589 12.8348L19.7008 12.8458L19.8313 12.8725L19.8744 12.8798L20.0074 12.898L20.0493 12.9016L20.1835 12.9113L20.2266 12.9125L20.3609 12.9113L20.404 12.9101L20.537 12.9004L20.5801 12.8955L20.7131 12.8761L20.755 12.8688L20.8855 12.8397L20.9274 12.83L21.0567 12.7924L21.0973 12.779L21.223 12.7329L21.2624 12.7171L21.3843 12.6625C21.6922 12.5241 21.8276 12.166 21.6885 11.8626C21.5863 11.6405 21.3634 11.5094 21.1306 11.5094C21.0456 11.5094 20.9594 11.5264 20.8781 11.564L20.7747 11.6089L20.6897 11.6405L20.6035 11.666L20.5136 11.6854L20.4249 11.6975L20.3338 11.7048H20.2427L20.1515 11.6987L20.0629 11.6866L19.973 11.6684L19.8855 11.6441L19.8006 11.6138L19.718 11.5774L19.638 11.5349L19.5604 11.4875L19.4853 11.4341L19.4151 11.3747L19.3486 11.3103L19.287 11.2423L19.2304 11.1695L19.1786 11.0918L19.1343 11.0117L19.0949 10.9292L19.0616 10.8442L19.0345 10.7556L19.0148 10.667L19.0013 10.576L18.9939 10.4849V10.3708C18.9927 10.0383 18.718 9.77 18.3818 9.77L18.3794 9.77ZM13.569 13.0277L13.5259 13.0289L13.3103 13.0387L13.2672 13.0423L13.0529 13.0666L13.0098 13.0726L12.798 13.1127L12.7561 13.1212L12.5468 13.1758L12.5061 13.188L12.3017 13.2559L12.2611 13.2717L12.0628 13.353L12.0234 13.3712L11.8313 13.4671L11.7931 13.4878L11.6071 13.5958L11.5714 13.6189L11.3941 13.7402C11.117 13.9308 11.048 14.3071 11.2401 14.5802C11.3596 14.7489 11.5505 14.8399 11.7438 14.8399C11.8645 14.8399 11.9865 14.8047 12.0924 14.7319L12.2525 14.6227L12.4015 14.5353L12.5554 14.4588L12.7155 14.392L12.8793 14.3374L13.0468 14.2949L13.2168 14.2622L13.3879 14.2427L13.5616 14.2355L13.734 14.2391L13.9064 14.2549L14.0776 14.2828L14.2451 14.3216L14.404 14.3714L14.5579 14.4297L14.7081 14.4989L14.8547 14.5778L14.9939 14.6664L15.1269 14.7635L15.2525 14.8691L15.3719 14.9832L15.4828 15.1058L15.585 15.2344L15.6774 15.3692L15.7722 15.5282C15.8855 15.7199 16.0911 15.8268 16.3017 15.8268C16.4064 15.8268 16.5123 15.8001 16.6096 15.7442C16.9015 15.5755 17 15.2065 16.8288 14.9189L16.7242 14.7428L16.702 14.7076L16.5862 14.5389L16.5616 14.5062L16.4347 14.3459L16.4076 14.3144L16.2697 14.1627L16.2414 14.1335L16.0936 13.9915L16.0628 13.9636L15.9052 13.8313L15.8732 13.8058L15.7069 13.6844L15.6724 13.6614L15.4988 13.5521L15.4631 13.5303L15.282 13.4319L15.2451 13.4137L15.0579 13.3276L15.0197 13.3118L14.8264 13.2377L14.7882 13.2244L14.5899 13.1637L14.5493 13.1528L14.3399 13.1042L14.298 13.0957L14.085 13.0605L14.0419 13.0557L13.8276 13.035L13.7845 13.0326L13.569 13.0277ZM11.0456 1.70894L11.2414 1.71987V1.72108L11.4372 1.74414L11.6305 1.77934L11.8214 1.82668L12.0074 1.88494L12.1921 1.95534L12.3694 2.03667L12.5369 2.12649L12.4212 2.31098L12.399 2.35104L12.3017 2.53675L12.282 2.57802L12.1995 2.76981L12.1823 2.81229L12.1145 3.01135L12.1022 3.05383L12.048 3.25654L12.0394 3.30023L12.0012 3.50658C11.9409 3.83552 12.1626 4.14989 12.4963 4.20815C12.5332 4.21544 12.569 4.21786 12.6059 4.21786C12.8965 4.21786 13.1552 4.01273 13.2081 3.72019L13.2414 3.5357L13.2833 3.3779L13.3374 3.22132L13.4015 3.0696L13.4778 2.92394L13.5653 2.78435L13.6626 2.65083L13.7709 2.5246L13.8867 2.40686L14.0123 2.29761V2.29883L14.1453 2.1993L14.2857 2.10948L14.4323 2.03058L14.5837 1.9626L14.7401 1.90677L14.9002 1.86186V1.86307L15.0653 1.82908V1.8303L15.2241 1.80966L15.3855 1.79995V1.80117L15.5468 1.80238V1.80359L15.7069 1.81695L15.8645 1.84244L16.0222 1.87885L16.1761 1.92619L16.3264 1.98445L16.4717 2.05364L16.6108 2.13254L16.7438 2.21993L16.8707 2.31825L16.9914 2.42507L17.117 2.55615C17.2303 2.67146 17.3904 2.74187 17.5591 2.74187C17.5997 2.74187 17.6404 2.73823 17.681 2.72973L17.9002 2.68603V2.68725L18.0973 2.66176L18.2968 2.65205L18.4963 2.65569V2.6569L18.6958 2.67511L18.8928 2.7091L19.0862 2.75644L19.2758 2.81834L19.4606 2.8936L19.6379 2.98099L19.8091 3.08295L19.9741 3.19705L20.1268 3.32086L20.2722 3.45802L20.4064 3.60367L20.5209 3.74933L20.6256 3.90227L20.7192 4.06249L20.8017 4.22878L20.8719 4.39993L20.9298 4.57593L20.9754 4.75436L21.0086 4.93764L21.0283 5.12093L21.0357 5.30664L21.0295 5.49114L21.0086 5.69506C21.0012 5.75817 21.0037 5.82008 21.016 5.87956C21.0591 6.08712 21.2118 6.26676 21.431 6.33472L21.5579 6.37478V6.37599L21.665 6.41605L21.7685 6.46338L21.8694 6.51679L21.9667 6.57748L22.0591 6.64303L22.149 6.71464L22.2327 6.79233L22.3116 6.87365L22.383 6.95862L22.4692 7.07514L22.5443 7.19652L22.6096 7.32276L22.6638 7.45385L22.7081 7.5898L22.7414 7.72696L22.7635 7.86897L22.7746 8.00977L22.7734 8.15179L22.7623 8.29259L22.7389 8.43339L22.7044 8.57055L22.6588 8.70528V8.70649L22.6034 8.83637L22.564 8.91162L22.3152 8.6276L22.2832 8.5924L21.9827 8.29987C21.8633 8.18334 21.7069 8.12508 21.5517 8.12508C21.3941 8.12508 21.2364 8.18456 21.1157 8.30351C20.8781 8.54141 20.8793 8.92377 21.1207 9.15803L21.4027 9.43477L21.6478 9.71395L21.8694 10.0113L22.0665 10.3245L22.2389 10.651L22.3854 10.9921L22.5037 11.3417L22.5936 11.6985L22.6551 12.0627L22.6884 12.4305L22.6921 12.7995L22.6662 13.1672L22.612 13.5314L22.5283 13.8919L22.4175 14.2439L22.2783 14.5862L22.112 14.9176L21.9409 15.2052L21.7487 15.4796L21.5369 15.7405L21.3066 15.9857L21.0603 16.2151L20.798 16.4263L20.5209 16.6193L20.2303 16.7917L19.9285 16.9434V16.9446L19.6157 17.0745V17.0757L19.2684 17.191C19.4901 16.6072 19.7499 16.0088 20.016 15.3922C20.149 15.0851 20.0049 14.7306 19.6933 14.5995C19.6145 14.5668 19.5332 14.551 19.4532 14.551C19.2143 14.551 18.9876 14.6881 18.8879 14.9188C18.4593 15.9104 18.0098 16.947 17.7192 17.946C17.484 18.7605 17.3559 19.5421 17.2512 20.2923H16.0689C15.7943 19.5871 15.4286 18.7969 14.7266 18.2555C14.4076 18.0103 14.0271 17.8234 13.6231 17.6753L13.8522 17.5163L13.8916 17.4872L14.133 17.2893L14.1699 17.2566L14.3953 17.0393C14.6379 16.8062 14.6416 16.4239 14.4051 16.1848C14.2857 16.0634 14.1256 16.0027 13.9667 16.0027C13.8128 16.0027 13.6576 16.0597 13.5382 16.1751L13.3313 16.3741L13.1281 16.5404L12.9113 16.6909L12.6835 16.822L12.4446 16.9349V16.9361L12.1983 17.0296L11.9433 17.1024V17.1036L11.6847 17.1558L11.5702 17.1704H11.5689C11.5308 17.1716 11.4926 17.1764 11.4569 17.1837L11.4544 17.1849L11.4224 17.1874V17.1886L11.1576 17.1995L10.8928 17.1886V17.1898L10.6305 17.1582L10.3719 17.106L10.1182 17.0332L9.87067 16.9397L9.63175 16.8281L9.40269 16.697L9.18594 16.5477L8.98151 16.3826V16.3838L8.79185 16.2018L8.62067 16.0088L8.4655 15.8048L8.32757 15.5876L8.20811 15.3618L8.10589 15.1275L8.02461 14.886L7.9618 14.6372L7.91993 14.3847L7.89776 14.131L7.89653 13.8749L7.91624 13.62L7.95565 13.3687L8.01599 13.1211L8.09604 12.8771L8.19456 12.6417L8.31279 12.4147L8.44826 12.1962L8.60097 11.9911L8.78693 11.7799C9.00737 11.5262 8.97905 11.145 8.72166 10.9278C8.60589 10.8294 8.46427 10.7809 8.32265 10.7809C8.15024 10.7809 7.97907 10.8525 7.85712 10.9909L7.65638 11.2203L7.62683 11.2579L7.44456 11.5031L7.41747 11.5432L7.25614 11.8017L7.23151 11.843L7.09235 12.1136L7.07141 12.1573L6.95318 12.4365L6.93717 12.4826L6.84235 12.7703L6.8288 12.8164L6.75737 13.1126L6.74752 13.1587L6.70072 13.4585L6.69456 13.5071L6.67486 13.7438C6.65885 13.7668 6.6453 13.7911 6.63175 13.8178L6.55786 13.9647L6.4852 14.0849L6.40269 14.1978L6.31032 14.3033L6.21057 14.4005L6.10096 14.4903L5.9852 14.5704L5.86328 14.6396L5.7352 14.6991L5.60219 14.7476L5.46672 14.7852V14.7864L5.32756 14.8119L5.18717 14.8265L5.04554 14.8289L4.90391 14.8204L4.76475 14.7998L4.62682 14.7682L4.49258 14.7245L4.36327 14.6699L4.23765 14.6056L4.11697 14.5291L4.02337 14.4599L3.93347 14.3835L3.84972 14.2997L3.77214 14.2111L3.70071 14.1176L3.63667 14.0193L3.58002 13.9161L3.53076 13.8093L3.48889 13.7001L3.45441 13.5884L3.42854 13.4731L3.4113 13.3578L3.40268 13.2401L3.40145 13.1235L3.40268 13.0798C3.4113 12.8055 3.33002 12.5227 3.06402 12.4013L2.90638 12.3285L2.76599 12.2545L2.63052 12.1731L2.49875 12.0845L2.3719 11.9898L2.25244 11.8903L2.13668 11.7823L2.02707 11.6694L1.92362 11.5504L1.8288 11.4291L1.70565 11.2482L1.5985 11.0637L1.50368 10.8707L1.42486 10.6729L1.35959 10.4689L1.31033 10.2602L1.27584 10.049L1.25737 9.83655L1.25491 9.62292L1.26845 9.41051L1.29678 9.19809L1.33988 8.98932L1.40023 8.78298L1.46673 8.60333C1.54062 8.43826 1.53939 8.24282 1.44703 8.0717L1.37313 7.93575L1.32264 7.81801L1.282 7.69542L1.25244 7.57161L1.23397 7.44537L1.22658 7.31671L1.23028 7.18926L1.24505 7.06181L1.27092 6.93558L1.30786 6.81298L1.35466 6.69403L1.41131 6.57993L1.47905 6.46948L1.5554 6.3663L1.64161 6.2692L1.73397 6.18059L1.83496 6.09926L1.9421 6.02765L2.0554 5.96453L2.17363 5.91112V5.91234L2.29678 5.86864L2.42239 5.83708L2.55417 5.81402V5.81524L2.63668 5.80674L2.72412 5.8031L2.81279 5.80431V5.80553L2.899 5.81159L2.9852 5.82252V5.82373L3.07141 5.83951L3.15639 5.86136L3.24013 5.88685L3.32141 5.9172L3.41747 5.95968C3.49875 5.99609 3.58373 6.01308 3.6687 6.01308C3.70318 6.01308 3.73767 6.01187 3.77092 6.0058H3.77338C4.10713 5.94754 4.33002 5.63559 4.27214 5.30665L4.24381 5.14279L4.2315 5.00077L4.23027 4.85997L4.24135 4.71917L4.26352 4.57837L4.298 4.44121L4.34234 4.30648L4.39899 4.17539L4.46549 4.05037L4.54308 3.93142L4.63051 3.81732L4.72534 3.71293L4.83002 3.61461L4.94086 3.526L5.06032 3.44589L5.18593 3.3767L5.31647 3.31723L5.45071 3.26868L5.58987 3.23105L5.7315 3.20434L5.87435 3.18978L6.01967 3.18614L6.14036 3.19221L6.26105 3.20677L6.38051 3.22983L6.49997 3.26018L6.6145 3.30024L6.7278 3.34636L6.83618 3.40098L6.94086 3.46289L7.01228 3.51144C7.10711 3.58063 7.28691 3.75177 7.31278 3.77969L7.3879 3.86951L7.47041 3.98604C7.58987 4.15233 7.77953 4.24093 7.97163 4.24093C8.09478 4.24093 8.21793 4.20573 8.32508 4.13048C8.60217 3.93748 8.66743 3.56121 8.47163 3.28811L8.3768 3.1558L8.35094 3.12182L8.32754 3.09511L8.33124 3.08904L8.46547 2.90576L8.61449 2.73097L8.77459 2.56954L8.94577 2.41902L9.12926 2.28065L9.32138 2.15684L9.52212 2.04639L9.73148 1.9505L9.947 1.87039L10.1674 1.80605L10.3916 1.7575L10.6194 1.72473V1.72594L10.8509 1.70895V1.71016L11.0456 1.70894ZM11.0616 0.5L10.8263 0.501214L10.7845 0.502428L10.5111 0.521848L10.4667 0.52549L10.1946 0.564332L10.1502 0.572828L9.88177 0.629876L9.83867 0.642014L9.57512 0.718482L9.53325 0.733048L9.27586 0.828937L9.23522 0.845931L8.98645 0.960029L8.94581 0.97945L8.70566 1.11175L8.66748 1.1336L8.43842 1.2829L8.40147 1.30839L8.18349 1.47225L8.14901 1.50017L7.94334 1.67981L7.91132 1.71016L7.7192 1.90437L7.68965 1.93714L7.51354 2.1447L7.48522 2.1799L7.383 2.31949L7.26231 2.2588L7.22413 2.24181L7.07142 2.17869L7.03201 2.16291L6.87561 2.11072L6.83497 2.09858L6.6761 2.05609L6.63423 2.0476L6.4729 2.01604L6.43103 2.00997L6.26724 1.99055L6.22413 1.98691L6.06034 1.97841L6.01354 1.9772L5.81896 1.98205L5.7697 1.98569L5.57635 2.00511L5.52709 2.0124L5.3362 2.04881L5.28817 2.05974L5.10098 2.11072L5.05295 2.12528L4.87069 2.19083L4.82512 2.21025L4.64901 2.29036L4.60468 2.31221L4.43473 2.40688L4.39285 2.43237L4.23276 2.5404L4.19212 2.56954L4.04064 2.6897L4.00369 2.72126L3.8633 2.85356L3.82758 2.88876L3.69827 3.03199L3.66625 3.06962L3.54926 3.22256L3.52093 3.26262L3.41749 3.42405L3.39163 3.46654L3.30172 3.63647L3.28079 3.68017L3.20443 3.85617L3.18719 3.90229L3.12561 4.08437L3.11207 4.1317L3.0665 4.31742L3.05665 4.36597L3.02586 4.55411L3.0197 4.60994L2.88793 4.59902L2.85345 4.59659L2.73029 4.59416L2.69458 4.59538L2.57266 4.60023L2.53695 4.60266L2.41502 4.61359L2.37069 4.61965L2.19089 4.65L2.13917 4.66092L1.96306 4.70583L1.91256 4.7204L1.74015 4.78109L1.69089 4.80051L1.52463 4.87455L1.47783 4.89761L1.31897 4.98622L1.27463 5.01414L1.12315 5.11489L1.08128 5.14644L0.939655 5.25933L0.900246 5.29453L0.768472 5.41955L0.732759 5.45718L0.613299 5.59312L0.580048 5.63318L0.472906 5.77883L0.443349 5.82253L0.348523 5.97668L0.323892 6.02159L0.242612 6.18424L0.221676 6.23158L0.155173 6.39908L0.137932 6.44764L0.0874381 6.62121L0.0738913 6.67098L0.0381773 6.84819L0.0295566 6.89917L0.00862068 7.0776L0.00492611 7.12979L0 7.30944L0.00123153 7.36163L0.0123153 7.54127L0.0172414 7.59225L0.0431031 7.77068L0.0529553 7.82166L0.0948266 7.99766L0.108373 8.04743L0.166254 8.21858L0.184727 8.26713L0.238915 8.39458L0.155173 8.67982L0.144089 8.72231L0.0911335 8.97478L0.0837444 9.01726L0.0492601 9.27216L0.0455656 9.31586L0.0295557 9.57318L0.0283242 9.61688L0.0320188 9.8742L0.0344818 9.9179L0.0566493 10.174L0.0628066 10.2177L0.103448 10.4726L0.112069 10.5151L0.171182 10.7651L0.183497 10.8076L0.261082 11.054L0.275861 11.0953L0.371921 11.3344L0.389162 11.3745L0.502464 11.6063L0.5234 11.6451L0.652711 11.8685L0.67611 11.9061L0.822661 12.1197L0.844828 12.1501L0.961822 12.2994L0.981526 12.3249L1.10591 12.4669L1.12808 12.4912L1.25985 12.6271L1.28325 12.6502L1.42241 12.78L1.44581 12.8007L1.59236 12.9233L1.61823 12.9427L1.7697 13.0568L1.7968 13.0762L1.95443 13.1818L1.98153 13.1988L2.14532 13.2959L2.17857 13.3153L2.19089 13.4707L2.19581 13.5132L2.21921 13.671L2.2266 13.7135L2.26231 13.87L2.2734 13.9113L2.31896 14.0642L2.33251 14.1043L2.39039 14.2548L2.4064 14.2937L2.47413 14.4393L2.49384 14.4769L2.57142 14.6177L2.59359 14.6542L2.68103 14.7889L2.70689 14.8241L2.80295 14.9515L2.83004 14.9855L2.93718 15.1069L2.96674 15.1373L3.08127 15.2514L3.11206 15.2805L3.23521 15.3849L3.26846 15.4116L3.39777 15.5087L3.43718 15.5354L3.59974 15.6373L3.64408 15.6628L3.81526 15.7514L3.86083 15.7733L4.0394 15.8473L4.08743 15.8655L4.27093 15.9238L4.32019 15.9384L4.50861 15.9821L4.55911 15.9918L4.74999 16.0197L4.80049 16.0245L4.99384 16.0367L5.04556 16.0379L5.23768 16.0343L5.2894 16.0306L5.48152 16.0112L5.53201 16.0039L5.72167 15.9675L5.77216 15.9566L5.95812 15.9044L6.00738 15.8886L6.18718 15.823L6.23521 15.8024L6.41009 15.7211L6.45566 15.698L6.62191 15.6021L6.66624 15.5754L6.82388 15.4662L6.86452 15.4358L6.90639 15.4019L6.95072 15.5329L6.96797 15.5779L7.08865 15.857L7.10959 15.9007L7.25245 16.1702L7.27708 16.2115L7.44087 16.4688L7.46796 16.5076L7.65269 16.7516L7.68348 16.788L7.88668 17.0162L7.91993 17.0514L8.1453 17.2675L8.18348 17.3002L8.42609 17.4969L8.4655 17.526L8.72412 17.7032L8.76599 17.7299L9.03693 17.8853L9.08126 17.9084L9.36574 18.0419L9.41131 18.0613L9.70441 18.1705L9.75244 18.1863L10.0542 18.2725L10.1022 18.2846L10.4101 18.3465L10.4593 18.355L10.7721 18.3915L10.8214 18.3951L11.1354 18.4072H11.1847L11.4987 18.3939L11.5714 18.3878C12.6108 18.6075 13.4495 18.8054 13.9717 19.2083C14.4852 19.604 14.745 20.2474 15.069 21.1067C15.1576 21.3434 15.3867 21.5 15.6428 21.5H17.7882C18.096 21.5 18.3559 21.2754 18.3953 20.9744C18.5074 20.1405 18.6145 19.3455 18.83 18.5262L19.2204 18.4521L19.2635 18.4424L19.633 18.3453L19.6736 18.3332L20.0357 18.2106L20.0763 18.1948L20.4273 18.0479L20.4667 18.0297L20.8079 17.8586L20.8448 17.8367L21.1724 17.6425L21.2094 17.6195L21.5222 17.4022L21.5567 17.3767L21.8522 17.1376L21.8842 17.1097L22.1626 16.8511L22.1933 16.8208L22.4532 16.544L22.4815 16.5113L22.7192 16.2175L22.7451 16.1835L22.9631 15.8728L22.9852 15.8364L23.1798 15.5123L23.202 15.4722L23.3879 15.0996L23.4076 15.0559L23.564 14.6699L23.58 14.6262L23.7057 14.2281L23.7192 14.1832L23.8128 13.7778L23.8214 13.7317L23.883 13.3202L23.8879 13.2729L23.9163 12.8577L23.9175 12.8104L23.9138 12.3953L23.9113 12.348L23.8744 11.9328L23.8682 11.8867L23.7993 11.4765L23.7894 11.4303L23.6872 11.0261L23.6736 10.9812L23.5406 10.5867L23.5234 10.5431L23.3584 10.1595L23.3387 10.117L23.2832 10.0102L23.3177 9.97013L23.3485 9.93371L23.4618 9.78077L23.4889 9.74072L23.5911 9.58049L23.6145 9.53923L23.7032 9.37051L23.7241 9.32681L23.798 9.15202L23.8153 9.10833L23.8756 8.92747L23.8892 8.88256L23.9347 8.69806L23.9446 8.65073L23.9754 8.4638L23.9815 8.41646L23.9975 8.22832L24 8.17977V7.99042L23.9988 7.94308L23.984 7.75372L23.9791 7.70639L23.9495 7.51946L23.9397 7.47212L23.8966 7.28763L23.883 7.24272L23.8239 7.06186L23.8079 7.01695L23.734 6.84216L23.7143 6.79847L23.6268 6.62975L23.6034 6.58726L23.5037 6.42583L23.4766 6.38577L23.3645 6.23283L23.3374 6.19884L23.2389 6.08353L23.2131 6.0544L23.1084 5.94516L23.08 5.91846L22.968 5.8165L22.9397 5.79101L22.8214 5.69633L22.7906 5.67327L22.6663 5.58466L22.6342 5.56402L22.5049 5.48391L22.4717 5.46449L22.3362 5.39288L22.3017 5.37589L22.2611 5.35646L22.2623 5.32369L22.2611 5.28242L22.2537 5.05544L22.25 5.01296L22.2254 4.78719L22.2192 4.74592L22.1798 4.52258L22.1699 4.48131L22.1145 4.26162L22.1022 4.22156L22.0308 4.0055L22.0172 3.96666L21.9298 3.75667L21.9126 3.71783L21.8116 3.51391L21.7919 3.47629L21.6773 3.28086L21.6539 3.24445L21.5259 3.05631L21.5012 3.02232L21.3596 2.84389L21.3313 2.81112L21.1663 2.63148L21.1355 2.5987L20.9581 2.43241L20.9236 2.40328L20.7352 2.24913L20.6983 2.22242L20.4988 2.08284L20.4606 2.05856L20.25 1.93475L20.2106 1.9129L19.9914 1.80366L19.9507 1.78545L19.7241 1.6932L19.681 1.67742L19.4483 1.60217L19.4052 1.58881L19.1675 1.53055L19.1231 1.52206L18.8818 1.48079L18.8362 1.47472L18.5924 1.45166L18.5468 1.44801L18.3017 1.44316H18.2574L18.0123 1.45651L17.9668 1.46015L17.7648 1.48564L17.6773 1.40796L17.6441 1.38004L17.4815 1.25502L17.4458 1.22953L17.2759 1.11665L17.2389 1.09359L17.0603 0.992839L17.0209 0.973418L16.8362 0.886024L16.7956 0.867818L16.6047 0.793776L16.564 0.77921L16.3682 0.71852L16.3251 0.707596L16.1256 0.661471L16.0825 0.652974L15.8793 0.620201L15.8362 0.615346L15.6318 0.597139L15.5874 0.594711L15.383 0.592283H15.3387L15.133 0.604422L15.0899 0.608063L14.8855 0.633553L14.8424 0.640836L14.633 0.683319L14.5887 0.69303L14.3842 0.750077L14.3411 0.764643L14.1416 0.836258L14.0998 0.853251L13.9052 0.93943L13.8645 0.958851L13.6786 1.0596L13.6392 1.08266L13.4606 1.19676L13.4237 1.22225L13.4052 1.23681L13.3756 1.21618L13.1761 1.09359L13.1429 1.07538L12.936 0.964922L12.9027 0.947929L12.6897 0.850824L12.6539 0.836259L12.4347 0.752506L12.399 0.740368L12.1749 0.669968L12.1392 0.659044L11.9113 0.603208L11.8732 0.594712L11.6429 0.552228L11.6047 0.546159L11.3719 0.518241L11.3338 0.5146L11.0998 0.501248L11.0616 0.5Z" fill="#1F1F1F"/>
</svg>
