<svg width="24" height="22" viewBox="0 0 24 22" fill="none" xmlns="http://www.w3.org/2000/svg">
<path d="M16.9342 4.53197C17.5952 4.53197 17.8471 5.6175 17.8471 6.14475C18.3507 6.02069 19.1377 5.8346 19.2322 6.54795C19.3266 7.19927 18.6026 7.23028 18.1619 7.32333C17.7211 7.44739 17.2804 7.6645 16.9027 7.94363C16.7453 8.06769 16.5564 8.25379 16.399 8.43988C16.0842 8.81206 15.8638 9.24627 15.7379 9.7115C15.5176 10.4559 14.3214 10.1147 14.5732 9.37033C14.6047 9.24627 14.6991 8.99815 14.7306 8.87409C14.9824 8.2848 15.3602 7.69551 15.8324 7.2613C16.0842 7.01318 16.4305 6.82709 16.5249 6.48592C16.6194 6.2378 16.6194 5.98968 16.5249 5.74156C16.2101 5.2143 16.2101 4.594 16.9342 4.53197ZM11.4567 5.52445C12.3696 5.55547 12.1178 6.73404 11.8345 7.29232C11.6141 7.75754 11.2049 8.16074 10.7327 8.40886C10.7642 8.81206 10.7012 9.27728 10.5753 9.68048C10.3864 10.673 8.90687 10.1767 9.41055 9.27728C9.44203 9.21525 9.47351 9.06018 9.47351 8.99815C9.53646 8.62597 9.50498 8.22277 9.34759 7.8816C9.22167 7.57145 9.03279 7.29232 8.78096 7.10623C8.68652 7.01318 8.5606 6.95115 8.43468 6.88912C7.42734 6.42389 8.4032 5.2143 9.19019 5.92765C9.69386 6.2378 10.1346 6.70303 10.3864 7.23029C10.6068 7.04419 10.7642 6.79607 10.8271 6.54795C10.8586 6.05171 10.8586 5.55547 11.4567 5.52445ZM7.42734 7.23029C8.718 7.44739 7.61621 8.9051 6.92367 9.21525C7.0181 9.33932 7.11254 9.5254 7.1755 9.64947C7.71065 10.5799 6.2626 11.1072 6.01076 10.0527C5.7904 9.64947 5.38117 9.33931 4.90898 9.24627C4.53122 9.18424 4.09051 9.27728 3.77571 9.49439C3.05168 10.3938 1.91842 9.49439 2.79985 8.71901C2.92577 8.59495 3.11464 8.47089 3.27204 8.37785C4.05903 7.91262 4.94045 7.94363 5.7904 8.22277C5.82188 8.22277 5.88484 8.22277 5.91632 8.22277H5.97928H6.04224C6.32555 8.19175 6.57739 8.03668 6.73479 7.81957C6.89219 7.57145 7.04958 7.19927 7.42734 7.23029ZM18.3507 9.77353C18.9488 9.77353 18.9488 10.3318 19.0118 10.766C19.0748 11.0451 19.2322 11.2623 19.4525 11.4483C19.7358 11.6655 20.1136 11.7585 20.4913 11.6965C20.7117 11.6655 20.9006 11.5104 21.1209 11.5104C21.9709 11.5724 21.8764 12.6579 21.0894 12.782C20.9635 12.813 20.8061 12.875 20.6802 12.875C20.1451 12.9681 19.6099 12.875 19.1377 12.6579C18.6655 12.4408 18.2878 12.0376 18.0359 11.6034C17.7526 11.0451 17.4378 9.83556 18.3507 9.77353ZM13.5658 13.0301C14.2899 13.0301 15.0454 13.2472 15.675 13.6504C16.2101 14.0226 17.4693 15.1391 16.6194 15.7284C15.9898 16.0696 15.7065 15.3252 15.3917 14.9841C15.0454 14.6429 14.5732 14.3948 14.101 14.2707C13.6603 14.1777 13.1566 14.2087 12.7474 14.3948C12.59 14.4568 12.4011 14.5499 12.2752 14.6119C11.6456 15.2632 10.6697 14.2707 11.4252 13.7435C11.9919 13.3093 12.7789 13.0301 13.5658 13.0301ZM11.0475 0.531015C9.6309 0.5 8.18285 1.18233 7.36438 2.36091C5.53857 1.36842 3.20908 2.60903 3.0202 4.65603C0.942557 4.43892 -0.631419 6.57897 0.250008 8.43988C-0.379583 10.2698 0.470364 12.4408 2.20174 13.3403C2.29618 15.6664 5.09785 16.876 6.92367 15.4183C7.45882 17.0621 9.06427 18.3027 10.8271 18.3957C11.4567 18.4578 12.1178 18.3027 12.6215 17.9615C12.9992 17.7754 13.251 17.2792 13.6918 17.2792C14.2269 17.2482 14.5102 17.9615 14.1325 18.3027C13.8177 18.5818 13.3455 18.954 14.0066 19.2021C14.6676 19.6053 14.5732 20.2877 15.1083 21.0941C15.4231 21.5593 17.2804 21.4973 17.8156 21.4973C18.9488 21.3422 18.3822 19.4192 18.8544 18.5198C23.356 17.8064 25.4651 12.5959 22.6949 9.02916C22.569 8.87409 22.3172 8.59495 22.1598 8.47089C21.5931 7.94363 22.4745 7.04419 23.0097 7.60247C23.7337 8.2848 24.143 9.15322 23.9541 7.44739C23.7652 6.54795 23.1356 5.74156 22.2857 5.33836C22.3486 3.01223 20.1451 1.08929 17.7841 1.46147C17.0915 0.810152 16.1157 0.5 15.1713 0.593045C13.9751 0.686091 12.6529 1.46147 12.527 2.73309C12.4011 3.50847 11.1734 3.29136 11.3308 2.51598C11.3623 2.39192 11.3938 2.17482 11.4252 2.05076C11.4882 1.80264 11.6141 1.5235 11.74 1.30639C11.8345 1.08929 12.1178 0.903197 12.0863 0.655076C11.9919 0.5 11.803 0.56203 11.6771 0.5C11.4567 0.56203 11.2364 0.531015 11.0475 0.531015Z" fill="#1F1F1F"/>
</svg>
