<svg width="16" height="16" viewBox="0 0 16 16" fill="none" xmlns="http://www.w3.org/2000/svg">
<path d="M5.33334 3.83398C5.06 3.83398 4.83334 3.60732 4.83334 3.33398V1.33398C4.83334 1.06065 5.06 0.833984 5.33334 0.833984C5.60667 0.833984 5.83334 1.06065 5.83334 1.33398V3.33398C5.83334 3.60732 5.60667 3.83398 5.33334 3.83398Z" fill="#1F1F1F"/>
<path d="M10.6667 3.83398C10.3933 3.83398 10.1667 3.60732 10.1667 3.33398V1.33398C10.1667 1.06065 10.3933 0.833984 10.6667 0.833984C10.94 0.833984 11.1667 1.06065 11.1667 1.33398V3.33398C11.1667 3.60732 10.94 3.83398 10.6667 3.83398Z" fill="#1F1F1F"/>
<path d="M5.66667 9.66753C5.58 9.66753 5.49333 9.64753 5.41333 9.6142C5.32667 9.58087 5.26 9.53419 5.19333 9.47419C5.07333 9.34752 5 9.18086 5 9.00086C5 8.91419 5.02 8.82752 5.05333 8.74752C5.08667 8.66752 5.13333 8.5942 5.19333 8.52753C5.26 8.46753 5.32667 8.42085 5.41333 8.38752C5.65333 8.28752 5.95333 8.34086 6.14 8.52753C6.26 8.6542 6.33333 8.82753 6.33333 9.00086C6.33333 9.04086 6.32667 9.08753 6.32 9.1342C6.31333 9.1742 6.3 9.2142 6.28 9.2542C6.26667 9.2942 6.24667 9.33419 6.22 9.37419C6.2 9.40752 6.16667 9.44085 6.14 9.47419C6.01333 9.59419 5.84 9.66753 5.66667 9.66753Z" fill="#1F1F1F"/>
<path d="M7.99999 9.66658C7.91333 9.66658 7.82666 9.64659 7.74666 9.61326C7.65999 9.57992 7.59333 9.53324 7.52666 9.47324C7.40666 9.34658 7.33333 9.17992 7.33333 8.99992C7.33333 8.91325 7.35333 8.82658 7.38666 8.74658C7.42 8.66658 7.46666 8.59325 7.52666 8.52659C7.59333 8.46659 7.65999 8.41991 7.74666 8.38657C7.98666 8.27991 8.28666 8.33992 8.47333 8.52659C8.59333 8.65325 8.66666 8.82658 8.66666 8.99992C8.66666 9.03992 8.65999 9.08659 8.65333 9.13326C8.64666 9.17326 8.63333 9.21325 8.61333 9.25325C8.59999 9.29325 8.58 9.33325 8.55333 9.37325C8.53333 9.40658 8.49999 9.43991 8.47333 9.47324C8.34666 9.59324 8.17333 9.66658 7.99999 9.66658Z" fill="#1F1F1F"/>
<path d="M10.3333 9.66658C10.2467 9.66658 10.16 9.64659 10.08 9.61326C9.99334 9.57992 9.92667 9.53324 9.86001 9.47324C9.83334 9.43991 9.80667 9.40658 9.78 9.37325C9.75334 9.33325 9.73334 9.29325 9.72001 9.25325C9.70001 9.21325 9.68667 9.17326 9.68001 9.13326C9.67334 9.08659 9.66667 9.03992 9.66667 8.99992C9.66667 8.82658 9.74001 8.65325 9.86001 8.52659C9.92667 8.46659 9.99334 8.41991 10.08 8.38657C10.3267 8.27991 10.62 8.33992 10.8067 8.52659C10.9267 8.65325 11 8.82658 11 8.99992C11 9.03992 10.9933 9.08659 10.9867 9.13326C10.98 9.17326 10.9667 9.21325 10.9467 9.25325C10.9333 9.29325 10.9133 9.33325 10.8867 9.37325C10.8667 9.40658 10.8333 9.43991 10.8067 9.47324C10.68 9.59324 10.5067 9.66658 10.3333 9.66658Z" fill="#1F1F1F"/>
<path d="M5.66667 12.0008C5.58 12.0008 5.49333 11.9808 5.41333 11.9475C5.33333 11.9141 5.26 11.8674 5.19333 11.8074C5.07333 11.6808 5 11.5074 5 11.3341C5 11.2474 5.02 11.1608 5.05333 11.0808C5.08667 10.9941 5.13333 10.9208 5.19333 10.8608C5.44 10.6141 5.89333 10.6141 6.14 10.8608C6.26 10.9874 6.33333 11.1608 6.33333 11.3341C6.33333 11.5074 6.26 11.6808 6.14 11.8074C6.01333 11.9274 5.84 12.0008 5.66667 12.0008Z" fill="#1F1F1F"/>
<path d="M7.99999 12.0008C7.82666 12.0008 7.65333 11.9274 7.52666 11.8074C7.40666 11.6808 7.33333 11.5074 7.33333 11.3341C7.33333 11.2474 7.35333 11.1608 7.38666 11.0808C7.42 10.9941 7.46666 10.9208 7.52666 10.8608C7.77333 10.6141 8.22666 10.6141 8.47333 10.8608C8.53333 10.9208 8.57999 10.9941 8.61333 11.0808C8.64666 11.1608 8.66666 11.2474 8.66666 11.3341C8.66666 11.5074 8.59333 11.6808 8.47333 11.8074C8.34666 11.9274 8.17333 12.0008 7.99999 12.0008Z" fill="#1F1F1F"/>
<path d="M10.3333 11.9999C10.16 11.9999 9.98667 11.9266 9.86001 11.8066C9.80001 11.7466 9.75334 11.6733 9.72001 11.5866C9.68667 11.5066 9.66667 11.4199 9.66667 11.3333C9.66667 11.2466 9.68667 11.1599 9.72001 11.0799C9.75334 10.9933 9.80001 10.9199 9.86001 10.8599C10.0133 10.7066 10.2467 10.6333 10.46 10.6799C10.5067 10.6866 10.5467 10.6999 10.5867 10.7199C10.6267 10.7333 10.6667 10.7533 10.7067 10.78C10.74 10.8 10.7733 10.8333 10.8067 10.8599C10.9267 10.9866 11 11.1599 11 11.3333C11 11.5066 10.9267 11.6799 10.8067 11.8066C10.68 11.9266 10.5067 11.9999 10.3333 11.9999Z" fill="#1F1F1F"/>
<path d="M13.6667 6.56055H2.33334C2.06 6.56055 1.83334 6.33388 1.83334 6.06055C1.83334 5.78721 2.06 5.56055 2.33334 5.56055H13.6667C13.94 5.56055 14.1667 5.78721 14.1667 6.06055C14.1667 6.33388 13.94 6.56055 13.6667 6.56055Z" fill="#1F1F1F"/>
<path d="M10.6667 15.1673H5.33333C2.9 15.1673 1.5 13.7673 1.5 11.334V5.66732C1.5 3.23398 2.9 1.83398 5.33333 1.83398H10.6667C13.1 1.83398 14.5 3.23398 14.5 5.66732V11.334C14.5 13.7673 13.1 15.1673 10.6667 15.1673ZM5.33333 2.83398C3.42667 2.83398 2.5 3.76065 2.5 5.66732V11.334C2.5 13.2407 3.42667 14.1673 5.33333 14.1673H10.6667C12.5733 14.1673 13.5 13.2407 13.5 11.334V5.66732C13.5 3.76065 12.5733 2.83398 10.6667 2.83398H5.33333Z" fill="#1F1F1F"/>
</svg>
