<svg width="26" height="26" viewBox="0 0 26 26" fill="none" xmlns="http://www.w3.org/2000/svg">
<g clip-path="url(#clip0_10_1525)">
<path d="M14.1443 5.34987C14.0364 5.13927 13.8724 4.96253 13.6706 4.83911C13.4687 4.71569 13.2366 4.65039 13 4.65039C12.7634 4.65039 12.5313 4.71569 12.3294 4.83911C12.1275 4.96253 11.9636 5.13927 11.8557 5.34987L4.78427 19.4927C4.68564 19.6884 4.63868 19.9061 4.64786 20.1252C4.65703 20.3441 4.72203 20.557 4.83668 20.7439C4.95133 20.9307 5.11182 21.0851 5.30293 21.1923C5.49402 21.2997 5.70938 21.3564 5.92856 21.357H20.0714C20.2906 21.3564 20.5059 21.2997 20.697 21.1923C20.8882 21.0851 21.0486 20.9307 21.1633 20.7439C21.2779 20.557 21.3429 20.3441 21.3521 20.1252C21.3613 19.9061 21.3143 19.6884 21.2157 19.4927L14.1443 5.34987Z" stroke="#1F1F1F" stroke-linecap="round" stroke-linejoin="round"/>
<path d="M13 10.4286V14.6072" stroke="#1F1F1F" stroke-linecap="round" stroke-linejoin="round"/>
<path d="M12.9999 18.1429C12.8224 18.1429 12.6785 17.999 12.6785 17.8214C12.6785 17.6439 12.8224 17.5 12.9999 17.5" stroke="#1F1F1F" stroke-linecap="round" stroke-linejoin="round"/>
<path d="M12.9999 18.1429C13.1774 18.1429 13.3213 17.999 13.3213 17.8214C13.3213 17.6439 13.1774 17.5 12.9999 17.5" stroke="#1F1F1F" stroke-linecap="round" stroke-linejoin="round"/>
</g>
<defs>
<clipPath id="clip0_10_1525">
<rect width="18" height="18" fill="white" transform="translate(4 4)"/>
</clipPath>
</defs>
</svg>
