<svg width="361" height="84" viewBox="0 0 361 84" fill="none" xmlns="http://www.w3.org/2000/svg">
<rect width="361" height="84" rx="15" fill="#1F1F1F"/>
<mask id="mask0_17_9033" style="mask-type:alpha" maskUnits="userSpaceOnUse" x="0" y="0" width="361" height="84">
<rect width="361" height="84" rx="15" fill="#1F1F1F"/>
</mask>
<g mask="url(#mask0_17_9033)">
<path d="M88 52.7173V30.4161C88 26.268 84.684 22.9002 80.5997 22.9002H49.0168C48.5719 22.9002 48.208 22.5306 48.208 22.0788V14.8504C48.208 14.1111 47.3588 13.7415 46.833 14.2754L41.5355 18.6289C41.3738 18.7932 41.0907 18.7932 40.9289 18.6289L35.6314 14.2343C35.1057 13.7415 34.2565 14.0701 34.2565 14.8093V22.0377C34.2565 22.4895 33.8925 22.8591 33.4477 22.8591H32.3154C29.1612 22.8591 26.654 25.4466 26.654 28.609V33.3321C24.3894 33.4553 22.5696 35.3856 22.5696 37.7266V37.8498H22.4483C20.0624 37.8498 18.0809 39.8212 18.0809 42.2854C18.0809 44.7086 20.022 46.7211 22.4483 46.7211H26.6135V56.0851C24.3489 56.2083 22.5292 58.1386 22.5292 60.4796V60.5618H22.4079C20.022 60.5618 18.0404 62.5332 18.0404 64.9974C18.0404 67.4206 19.9815 69.433 22.4079 69.433H26.5731V78.0989C24.3085 78.2221 22.4887 80.1524 22.4887 82.4934V82.5755H22.3674C19.9815 82.5755 18 84.5469 18 87.0112C18 89.4343 19.9411 91.4468 22.3674 91.4468H26.5326V97.6484C26.5326 101.714 29.7678 105 33.7712 105H80.6401C84.6436 105 87.8787 101.714 87.8787 97.6484V74.5668C87.8787 74.4847 87.8787 74.4025 87.8382 74.3204V70.3776H87.8787V56.9476H87.8382V53.0048C88 52.8816 88 52.7995 88 52.7173ZM22.4483 44.5443C21.2351 44.5443 20.2241 43.5176 20.2241 42.2854C20.2241 41.0533 21.2351 40.0266 22.4483 40.0266H24.6724V37.7677C24.6724 36.6177 25.5217 35.6731 26.6135 35.5088C26.6944 35.5088 26.7753 35.5088 26.8966 35.5088C28.1098 35.5088 29.1207 36.5356 29.1207 37.7677V40.0266H31.3449C32.5581 40.0266 33.569 41.0533 33.569 42.2854C33.569 43.5176 32.5581 44.5443 31.3449 44.5443H26.6135H22.4483ZM22.4483 67.2563C21.2351 67.2563 20.2241 66.2295 20.2241 64.9974C20.2241 63.7653 21.2351 62.7385 22.4483 62.7385H24.6724V60.4796C24.6724 59.3297 25.5217 58.3851 26.6135 58.2208C26.6944 58.2208 26.7753 58.2208 26.8966 58.2208C28.1098 58.2208 29.1207 59.2475 29.1207 60.4796V62.7385H31.3449C32.5581 62.7385 33.569 63.7653 33.569 64.9974C33.569 66.2295 32.5581 67.2563 31.3449 67.2563H26.6135H22.4483ZM22.4483 89.27C21.2351 89.27 20.2241 88.2433 20.2241 87.0112C20.2241 85.779 21.2351 84.7523 22.4483 84.7523H24.6724V82.4934C24.6724 81.3434 25.5217 80.3988 26.6135 80.2345C26.6944 80.2345 26.7753 80.2345 26.8966 80.2345C28.1098 80.2345 29.1207 81.2613 29.1207 82.4934V84.7523H31.3449C32.5581 84.7523 33.569 85.779 33.569 87.0112C33.569 88.2433 32.5581 89.27 31.3449 89.27H26.6135H22.4483ZM72.3501 61.3421C71.5413 63.026 69.8429 64.9974 67.9827 66.9688C65.9607 69.1044 63.6961 71.199 62.119 72.8008L57.8325 77.1542L54.2738 73.6633C49.9873 69.4741 43.0318 64.2171 42.7891 57.6869C42.6274 53.128 46.186 50.171 50.2704 50.2531C53.9099 50.2942 55.4466 52.1424 57.8325 54.4834C59.814 52.3888 61.1889 50.5817 64.2623 50.212C69.9642 49.5138 75.2213 55.4691 72.3501 61.3421Z" fill="white"/>
</g>
<path d="M148.728 38.1C147.941 38.1 147.241 37.94 146.628 37.62C146.015 37.2867 145.495 36.84 145.068 36.28C144.641 35.72 144.315 35.0867 144.088 34.38C143.875 33.66 143.768 32.92 143.768 32.16C143.768 31.08 143.981 30.04 144.408 29.04C144.848 28.0267 145.435 27.12 146.168 26.32C146.915 25.5067 147.768 24.8667 148.728 24.4C149.688 23.9333 150.701 23.7 151.768 23.7C153.061 23.7 154.068 23.9867 154.788 24.56C155.508 25.1333 155.988 25.88 156.228 26.8L154.988 27.52C154.761 26.6533 154.341 26.0133 153.728 25.6C153.128 25.1733 152.381 24.96 151.488 24.96C150.621 24.96 149.801 25.1667 149.028 25.58C148.268 25.98 147.595 26.5267 147.008 27.22C146.435 27.9 145.981 28.6667 145.648 29.52C145.328 30.36 145.168 31.2133 145.168 32.08C145.168 32.9467 145.328 33.74 145.648 34.46C145.968 35.18 146.421 35.76 147.008 36.2C147.608 36.6267 148.308 36.84 149.108 36.84C149.908 36.84 150.715 36.6267 151.528 36.2C152.355 35.76 153.201 35.0867 154.068 34.18L153.748 35.66C152.935 36.4867 152.108 37.1 151.268 37.5C150.428 37.9 149.581 38.1 148.728 38.1ZM154.288 32.1H151.328L151.548 31.02H155.708L154.228 38H153.028L154.288 32.1ZM158.939 27.58H160.219L159.679 30.08C160.199 29.3333 160.792 28.7333 161.459 28.28C162.125 27.8267 162.792 27.5867 163.459 27.56C163.565 27.56 163.659 27.5667 163.739 27.58C163.819 27.58 163.885 27.5867 163.939 27.6L163.679 28.78C162.825 28.8067 162.019 29.06 161.259 29.54C160.499 30.02 159.899 30.68 159.459 31.52L158.099 38H156.739L158.939 27.58ZM167.36 38.2C166.6 38.2 165.94 38 165.38 37.6C164.82 37.2 164.393 36.6667 164.1 36C163.807 35.3333 163.66 34.6133 163.66 33.84C163.66 33.0133 163.813 32.22 164.12 31.46C164.44 30.6867 164.867 30 165.4 29.4C165.947 28.7867 166.567 28.3 167.26 27.94C167.953 27.58 168.68 27.4 169.44 27.4C170.28 27.4 170.973 27.6333 171.52 28.1C172.067 28.5533 172.453 29.1067 172.68 29.76L173.16 27.58H174.52L172.68 36.22C172.667 36.26 172.653 36.3067 172.64 36.36C172.64 36.4 172.64 36.44 172.64 36.48C172.64 36.6933 172.767 36.8 173.02 36.8L172.76 38C172.653 38.0133 172.553 38.0267 172.46 38.04C172.38 38.0533 172.3 38.06 172.22 38.06C171.913 38.0467 171.68 37.9667 171.52 37.82C171.373 37.66 171.3 37.4733 171.3 37.26C171.3 37.18 171.307 37.0933 171.32 37C171.333 36.9067 171.353 36.78 171.38 36.62C171.42 36.46 171.467 36.2467 171.52 35.98C170.987 36.66 170.34 37.2 169.58 37.6C168.833 38 168.093 38.2 167.36 38.2ZM167.92 37C168.253 37 168.607 36.9333 168.98 36.8C169.367 36.6667 169.74 36.4867 170.1 36.26C170.46 36.02 170.78 35.74 171.06 35.42C171.353 35.1 171.567 34.7667 171.7 34.42L172.36 31.2C172.307 30.72 172.147 30.2867 171.88 29.9C171.613 29.5133 171.28 29.2 170.88 28.96C170.48 28.72 170.04 28.6 169.56 28.6C168.96 28.6 168.393 28.7467 167.86 29.04C167.327 29.3333 166.847 29.7267 166.42 30.22C166.007 30.7133 165.68 31.26 165.44 31.86C165.2 32.4467 165.08 33.04 165.08 33.64C165.08 34.2533 165.2 34.8133 165.44 35.32C165.68 35.8267 166.007 36.2333 166.42 36.54C166.847 36.8467 167.347 37 167.92 37ZM176.015 36.62C176.015 36.54 176.021 36.46 176.035 36.38C176.048 36.2867 176.061 36.2 176.075 36.12L177.655 28.66H176.275L176.515 27.58H177.875L178.635 24.06H179.995L179.235 27.58H181.515L181.275 28.66H179.015L177.575 35.44C177.535 35.5867 177.508 35.7 177.495 35.78C177.481 35.86 177.475 35.9333 177.475 36C177.475 36.2933 177.568 36.5133 177.755 36.66C177.941 36.7933 178.168 36.86 178.435 36.86C178.688 36.86 178.921 36.8267 179.135 36.76C179.348 36.6933 179.535 36.6267 179.695 36.56C179.868 36.4933 179.981 36.44 180.035 36.4L180.155 37.5C180.035 37.5667 179.855 37.6533 179.615 37.76C179.375 37.8667 179.095 37.9533 178.775 38.02C178.455 38.0867 178.115 38.12 177.755 38.12C177.261 38.12 176.848 38 176.515 37.76C176.181 37.5067 176.015 37.1267 176.015 36.62ZM183.86 27.58H185.22L183.02 38H181.66L183.86 27.58ZM184.76 23.4H186.12L185.7 25.4H184.34L184.76 23.4ZM186.698 36.62C186.698 36.54 186.705 36.46 186.718 36.38C186.732 36.2867 186.745 36.2 186.758 36.12L188.338 28.66H186.958L187.198 27.58H188.558L189.318 24.06H190.678L189.918 27.58H192.198L191.958 28.66H189.698L188.258 35.44C188.218 35.5867 188.192 35.7 188.178 35.78C188.165 35.86 188.158 35.9333 188.158 36C188.158 36.2933 188.252 36.5133 188.438 36.66C188.625 36.7933 188.852 36.86 189.118 36.86C189.372 36.86 189.605 36.8267 189.818 36.76C190.032 36.6933 190.218 36.6267 190.378 36.56C190.552 36.4933 190.665 36.44 190.718 36.4L190.838 37.5C190.718 37.5667 190.538 37.6533 190.298 37.76C190.058 37.8667 189.778 37.9533 189.458 38.02C189.138 38.0867 188.798 38.12 188.438 38.12C187.945 38.12 187.532 38 187.198 37.76C186.865 37.5067 186.698 37.1267 186.698 36.62ZM195.344 38.2C193.717 38.2 192.904 37.3067 192.904 35.52C192.904 35.2533 192.924 34.9733 192.964 34.68C193.004 34.3733 193.057 34.0467 193.124 33.7L194.444 27.58H195.784L194.544 33.46C194.411 34.06 194.344 34.58 194.344 35.02C194.344 36.34 194.917 37 196.064 37C196.571 37 197.077 36.8867 197.584 36.66C198.091 36.42 198.571 36.0867 199.024 35.66C199.491 35.22 199.877 34.7133 200.184 34.14L201.584 27.58H202.944L201.124 36.08C201.111 36.16 201.097 36.2333 201.084 36.3C201.071 36.3667 201.064 36.42 201.064 36.46C201.064 36.6867 201.191 36.8 201.444 36.8L201.184 38C201.077 38.0133 200.977 38.0267 200.884 38.04C200.791 38.0533 200.704 38.0533 200.624 38.04C200.344 38.0267 200.131 37.9533 199.984 37.82C199.837 37.6733 199.764 37.4867 199.764 37.26C199.764 37.1933 199.771 37.1133 199.784 37.02C199.797 36.9133 199.824 36.7533 199.864 36.54C199.904 36.3267 199.964 36.0267 200.044 35.64C199.431 36.44 198.704 37.0667 197.864 37.52C197.037 37.9733 196.197 38.2 195.344 38.2ZM207.771 38.2C206.997 38.2 206.331 38 205.771 37.6C205.211 37.2 204.784 36.6667 204.491 36C204.197 35.3333 204.051 34.6133 204.051 33.84C204.051 33.0133 204.204 32.22 204.511 31.46C204.831 30.6867 205.257 30 205.791 29.4C206.337 28.7867 206.957 28.3 207.651 27.94C208.357 27.58 209.091 27.4 209.851 27.4C210.677 27.4 211.364 27.6333 211.911 28.1C212.457 28.5533 212.844 29.1067 213.071 29.76L214.431 23.4H215.791L213.071 36.22C213.057 36.2733 213.044 36.32 213.031 36.36C213.031 36.4 213.031 36.4333 213.031 36.46C213.031 36.6867 213.157 36.8 213.411 36.8L213.151 38C213.044 38.0133 212.944 38.0267 212.851 38.04C212.757 38.0533 212.671 38.0533 212.591 38.04C212.297 38.0267 212.071 37.9467 211.911 37.8C211.764 37.6533 211.691 37.4667 211.691 37.24C211.691 37.1733 211.697 37.1 211.711 37.02C211.724 36.9267 211.744 36.8 211.771 36.64C211.811 36.4667 211.857 36.2467 211.911 35.98C211.377 36.66 210.731 37.2 209.971 37.6C209.224 38 208.491 38.2 207.771 38.2ZM208.331 37C208.651 37 208.997 36.9333 209.371 36.8C209.757 36.6667 210.131 36.4867 210.491 36.26C210.851 36.02 211.171 35.74 211.451 35.42C211.744 35.1 211.957 34.7667 212.091 34.42L212.751 31.2C212.697 30.72 212.531 30.2867 212.251 29.9C211.971 29.5 211.631 29.1867 211.231 28.96C210.831 28.72 210.404 28.6 209.951 28.6C209.351 28.6 208.777 28.7467 208.231 29.04C207.697 29.3333 207.224 29.7267 206.811 30.22C206.397 30.7 206.071 31.24 205.831 31.84C205.591 32.4267 205.471 33.02 205.471 33.62C205.471 34.2467 205.584 34.8133 205.811 35.32C206.051 35.8267 206.384 36.2333 206.811 36.54C207.251 36.8467 207.757 37 208.331 37ZM220.084 38.2C219.231 38.2 218.504 38.0067 217.904 37.62C217.304 37.22 216.844 36.6867 216.524 36.02C216.204 35.3533 216.037 34.6067 216.024 33.78C216.024 32.9533 216.171 32.16 216.464 31.4C216.771 30.64 217.197 29.96 217.744 29.36C218.304 28.76 218.957 28.2867 219.704 27.94C220.451 27.58 221.264 27.4 222.144 27.4C222.797 27.4 223.384 27.5067 223.904 27.72C224.424 27.9333 224.831 28.2467 225.124 28.66C225.431 29.0733 225.584 29.5933 225.584 30.22C225.597 31.2733 225.144 32.0533 224.224 32.56C223.317 33.0533 221.924 33.3 220.044 33.3C219.631 33.3 219.171 33.2933 218.664 33.28C218.171 33.2533 217.604 33.2133 216.964 33.16L217.164 32.2C217.804 32.24 218.351 32.2733 218.804 32.3C219.271 32.3133 219.704 32.32 220.104 32.32C221.171 32.32 222.011 32.24 222.624 32.08C223.237 31.9067 223.677 31.66 223.944 31.34C224.224 31.02 224.357 30.6467 224.344 30.22C224.344 29.8067 224.237 29.4733 224.024 29.22C223.811 28.9533 223.531 28.76 223.184 28.64C222.851 28.52 222.471 28.46 222.044 28.46C221.351 28.46 220.717 28.6133 220.144 28.92C219.584 29.2133 219.097 29.6133 218.684 30.12C218.271 30.6133 217.951 31.1733 217.724 31.8C217.511 32.4267 217.404 33.0667 217.404 33.72C217.417 34.3467 217.531 34.92 217.744 35.44C217.957 35.96 218.277 36.38 218.704 36.7C219.144 37.0067 219.684 37.16 220.324 37.16C221.017 37.16 221.664 36.9867 222.264 36.64C222.877 36.2933 223.357 35.82 223.704 35.22L224.824 35.56C224.517 36.08 224.117 36.54 223.624 36.94C223.131 37.3267 222.584 37.6333 221.984 37.86C221.384 38.0867 220.751 38.2 220.084 38.2ZM240.708 24.04V33.84C240.708 35.2 240.314 36.26 239.528 37.02C238.741 37.7667 237.688 38.14 236.368 38.14C235.034 38.14 233.954 37.7533 233.128 36.98C232.314 36.2067 231.908 35.1267 231.908 33.74H234.708C234.721 34.34 234.861 34.8067 235.128 35.14C235.408 35.4733 235.808 35.64 236.327 35.64C236.834 35.64 237.221 35.48 237.488 35.16C237.754 34.84 237.888 34.4 237.888 33.84V24.04H240.708ZM248.894 38.18C247.827 38.18 246.867 37.9467 246.014 37.48C245.16 37 244.487 36.3267 243.994 35.46C243.514 34.5933 243.274 33.5933 243.274 32.46C243.274 31.3267 243.52 30.3267 244.014 29.46C244.52 28.5933 245.207 27.9267 246.074 27.46C246.94 26.98 247.907 26.74 248.974 26.74C250.04 26.74 251.007 26.98 251.874 27.46C252.74 27.9267 253.42 28.5933 253.914 29.46C254.42 30.3267 254.674 31.3267 254.674 32.46C254.674 33.5933 254.414 34.5933 253.894 35.46C253.387 36.3267 252.694 37 251.814 37.48C250.947 37.9467 249.974 38.18 248.894 38.18ZM248.894 35.74C249.4 35.74 249.874 35.62 250.314 35.38C250.767 35.1267 251.127 34.7533 251.394 34.26C251.66 33.7667 251.794 33.1667 251.794 32.46C251.794 31.4067 251.514 30.6 250.954 30.04C250.407 29.4667 249.734 29.18 248.934 29.18C248.134 29.18 247.46 29.4667 246.914 30.04C246.38 30.6 246.114 31.4067 246.114 32.46C246.114 33.5133 246.374 34.3267 246.894 34.9C247.427 35.46 248.094 35.74 248.894 35.74ZM267.188 26.92V38H264.368V36.6C264.008 37.08 263.534 37.46 262.948 37.74C262.374 38.0067 261.748 38.14 261.068 38.14C260.201 38.14 259.434 37.96 258.768 37.6C258.101 37.2267 257.574 36.6867 257.188 35.98C256.814 35.26 256.628 34.4067 256.628 33.42V26.92H259.428V33.02C259.428 33.9 259.648 34.58 260.088 35.06C260.528 35.5267 261.128 35.76 261.888 35.76C262.661 35.76 263.268 35.5267 263.708 35.06C264.148 34.58 264.368 33.9 264.368 33.02V26.92H267.188ZM272.75 28.64C273.11 28.0533 273.577 27.5933 274.15 27.26C274.737 26.9267 275.404 26.76 276.15 26.76V29.7H275.41C274.53 29.7 273.864 29.9067 273.41 30.32C272.97 30.7333 272.75 31.4533 272.75 32.48V38H269.95V26.92H272.75V28.64ZM284.176 26.76C285.496 26.76 286.563 27.18 287.376 28.02C288.19 28.8467 288.596 30.0067 288.596 31.5V38H285.796V31.88C285.796 31 285.576 30.3267 285.136 29.86C284.696 29.38 284.096 29.14 283.336 29.14C282.563 29.14 281.95 29.38 281.496 29.86C281.056 30.3267 280.836 31 280.836 31.88V38H278.036V26.92H280.836V28.3C281.21 27.82 281.683 27.4467 282.256 27.18C282.843 26.9 283.483 26.76 284.176 26.76ZM290.539 32.42C290.539 31.3 290.759 30.3067 291.199 29.44C291.652 28.5733 292.259 27.9067 293.019 27.44C293.792 26.9733 294.652 26.74 295.599 26.74C296.426 26.74 297.146 26.9067 297.759 27.24C298.386 27.5733 298.886 27.9933 299.259 28.5V26.92H302.079V38H299.259V36.38C298.899 36.9 298.399 37.3333 297.759 37.68C297.132 38.0133 296.406 38.18 295.579 38.18C294.646 38.18 293.792 37.94 293.019 37.46C292.259 36.98 291.652 36.3067 291.199 35.44C290.759 34.56 290.539 33.5533 290.539 32.42ZM299.259 32.46C299.259 31.78 299.126 31.2 298.859 30.72C298.592 30.2267 298.232 29.8533 297.779 29.6C297.326 29.3333 296.839 29.2 296.319 29.2C295.799 29.2 295.319 29.3267 294.879 29.58C294.439 29.8333 294.079 30.2067 293.799 30.7C293.532 31.18 293.399 31.7533 293.399 32.42C293.399 33.0867 293.532 33.6733 293.799 34.18C294.079 34.6733 294.439 35.0533 294.879 35.32C295.332 35.5867 295.812 35.72 296.319 35.72C296.839 35.72 297.326 35.5933 297.779 35.34C298.232 35.0733 298.592 34.7 298.859 34.22C299.126 33.7267 299.259 33.14 299.259 32.46ZM307.614 23.2V38H304.814V23.2H307.614Z" fill="white"/>
<path opacity="0.75" d="M229.264 58.26H231.704V59H228.354V52.03H229.264V58.26ZM232.33 56.24C232.33 55.68 232.444 55.19 232.67 54.77C232.897 54.3433 233.207 54.0133 233.6 53.78C234 53.5467 234.444 53.43 234.93 53.43C235.41 53.43 235.827 53.5333 236.18 53.74C236.534 53.9467 236.797 54.2067 236.97 54.52V53.52H237.89V59H236.97V57.98C236.79 58.3 236.52 58.5667 236.16 58.78C235.807 58.9867 235.394 59.09 234.92 59.09C234.434 59.09 233.994 58.97 233.6 58.73C233.207 58.49 232.897 58.1533 232.67 57.72C232.444 57.2867 232.33 56.7933 232.33 56.24ZM236.97 56.25C236.97 55.8367 236.887 55.4767 236.72 55.17C236.554 54.8633 236.327 54.63 236.04 54.47C235.76 54.3033 235.45 54.22 235.11 54.22C234.77 54.22 234.46 54.3 234.18 54.46C233.9 54.62 233.677 54.8533 233.51 55.16C233.344 55.4667 233.26 55.8267 233.26 56.24C233.26 56.66 233.344 57.0267 233.51 57.34C233.677 57.6467 233.9 57.8833 234.18 58.05C234.46 58.21 234.77 58.29 235.11 58.29C235.45 58.29 235.76 58.21 236.04 58.05C236.327 57.8833 236.554 57.6467 236.72 57.34C236.887 57.0267 236.97 56.6633 236.97 56.25ZM241.368 59.09C240.948 59.09 240.572 59.02 240.238 58.88C239.905 58.7333 239.642 58.5333 239.448 58.28C239.255 58.02 239.148 57.7233 239.128 57.39H240.068C240.095 57.6633 240.222 57.8867 240.448 58.06C240.682 58.2333 240.985 58.32 241.358 58.32C241.705 58.32 241.978 58.2433 242.178 58.09C242.378 57.9367 242.478 57.7433 242.478 57.51C242.478 57.27 242.372 57.0933 242.158 56.98C241.945 56.86 241.615 56.7433 241.168 56.63C240.762 56.5233 240.428 56.4167 240.168 56.31C239.915 56.1967 239.695 56.0333 239.508 55.82C239.328 55.6 239.238 55.3133 239.238 54.96C239.238 54.68 239.322 54.4233 239.488 54.19C239.655 53.9567 239.892 53.7733 240.198 53.64C240.505 53.5 240.855 53.43 241.248 53.43C241.855 53.43 242.345 53.5833 242.718 53.89C243.092 54.1967 243.292 54.6167 243.318 55.15H242.408C242.388 54.8633 242.272 54.6333 242.058 54.46C241.852 54.2867 241.572 54.2 241.218 54.2C240.892 54.2 240.632 54.27 240.438 54.41C240.245 54.55 240.148 54.7333 240.148 54.96C240.148 55.14 240.205 55.29 240.318 55.41C240.438 55.5233 240.585 55.6167 240.758 55.69C240.938 55.7567 241.185 55.8333 241.498 55.92C241.892 56.0267 242.212 56.1333 242.458 56.24C242.705 56.34 242.915 56.4933 243.088 56.7C243.268 56.9067 243.362 57.1767 243.368 57.51C243.368 57.81 243.285 58.08 243.118 58.32C242.952 58.56 242.715 58.75 242.408 58.89C242.108 59.0233 241.762 59.09 241.368 59.09ZM245.763 54.27V57.5C245.763 57.7667 245.819 57.9567 245.933 58.07C246.046 58.1767 246.243 58.23 246.523 58.23H247.193V59H246.373C245.866 59 245.486 58.8833 245.233 58.65C244.979 58.4167 244.853 58.0333 244.853 57.5V54.27H244.143V53.52H244.853V52.14H245.763V53.52H247.193V54.27H245.763ZM253.131 52.03C253.891 52.03 254.548 52.1733 255.101 52.46C255.661 52.74 256.088 53.1433 256.381 53.67C256.681 54.1967 256.831 54.8167 256.831 55.53C256.831 56.2433 256.681 56.8633 256.381 57.39C256.088 57.91 255.661 58.31 255.101 58.59C254.548 58.8633 253.891 59 253.131 59H250.961V52.03H253.131ZM253.131 58.25C254.031 58.25 254.718 58.0133 255.191 57.54C255.665 57.06 255.901 56.39 255.901 55.53C255.901 54.6633 255.661 53.9867 255.181 53.5C254.708 53.0133 254.025 52.77 253.131 52.77H251.871V58.25H253.131ZM260.422 59.09C259.908 59.09 259.442 58.9733 259.022 58.74C258.608 58.5067 258.282 58.1767 258.042 57.75C257.808 57.3167 257.692 56.8167 257.692 56.25C257.692 55.69 257.812 55.1967 258.052 54.77C258.298 54.3367 258.632 54.0067 259.052 53.78C259.472 53.5467 259.942 53.43 260.462 53.43C260.982 53.43 261.452 53.5467 261.872 53.78C262.292 54.0067 262.622 54.3333 262.862 54.76C263.108 55.1867 263.232 55.6833 263.232 56.25C263.232 56.8167 263.105 57.3167 262.852 57.75C262.605 58.1767 262.268 58.5067 261.842 58.74C261.415 58.9733 260.942 59.09 260.422 59.09ZM260.422 58.29C260.748 58.29 261.055 58.2133 261.342 58.06C261.628 57.9067 261.858 57.6767 262.032 57.37C262.212 57.0633 262.302 56.69 262.302 56.25C262.302 55.81 262.215 55.4367 262.042 55.13C261.868 54.8233 261.642 54.5967 261.362 54.45C261.082 54.2967 260.778 54.22 260.452 54.22C260.118 54.22 259.812 54.2967 259.532 54.45C259.258 54.5967 259.038 54.8233 258.872 55.13C258.705 55.4367 258.622 55.81 258.622 56.25C258.622 56.6967 258.702 57.0733 258.862 57.38C259.028 57.6867 259.248 57.9167 259.522 58.07C259.795 58.2167 260.095 58.29 260.422 58.29ZM267.098 53.42C267.765 53.42 268.305 53.6233 268.718 54.03C269.132 54.43 269.338 55.01 269.338 55.77V59H268.438V55.9C268.438 55.3533 268.302 54.9367 268.028 54.65C267.755 54.3567 267.382 54.21 266.908 54.21C266.428 54.21 266.045 54.36 265.758 54.66C265.478 54.96 265.338 55.3967 265.338 55.97V59H264.428V53.52H265.338V54.3C265.518 54.02 265.762 53.8033 266.068 53.65C266.382 53.4967 266.725 53.42 267.098 53.42ZM275.825 56.05C275.825 56.2233 275.815 56.4067 275.795 56.6H271.415C271.448 57.14 271.631 57.5633 271.965 57.87C272.305 58.17 272.715 58.32 273.195 58.32C273.588 58.32 273.915 58.23 274.175 58.05C274.441 57.8633 274.628 57.6167 274.735 57.31H275.715C275.568 57.8367 275.275 58.2667 274.835 58.6C274.395 58.9267 273.848 59.09 273.195 59.09C272.675 59.09 272.208 58.9733 271.795 58.74C271.388 58.5067 271.068 58.1767 270.835 57.75C270.601 57.3167 270.485 56.8167 270.485 56.25C270.485 55.6833 270.598 55.1867 270.825 54.76C271.051 54.3333 271.368 54.0067 271.775 53.78C272.188 53.5467 272.661 53.43 273.195 53.43C273.715 53.43 274.175 53.5433 274.575 53.77C274.975 53.9967 275.281 54.31 275.495 54.71C275.715 55.1033 275.825 55.55 275.825 56.05ZM274.885 55.86C274.885 55.5133 274.808 55.2167 274.655 54.97C274.501 54.7167 274.291 54.5267 274.025 54.4C273.765 54.2667 273.475 54.2 273.155 54.2C272.695 54.2 272.301 54.3467 271.975 54.64C271.655 54.9333 271.471 55.34 271.425 55.86H274.885ZM283.202 52.03V57.18C283.202 57.7533 283.025 58.2133 282.672 58.56C282.319 58.9 281.852 59.07 281.272 59.07C280.685 59.07 280.215 58.8967 279.862 58.55C279.509 58.1967 279.332 57.7167 279.332 57.11H280.242C280.249 57.45 280.335 57.7267 280.502 57.94C280.675 58.1533 280.932 58.26 281.272 58.26C281.612 58.26 281.865 58.16 282.032 57.96C282.199 57.7533 282.282 57.4933 282.282 57.18V52.03H283.202ZM284.655 56.24C284.655 55.68 284.768 55.19 284.995 54.77C285.221 54.3433 285.531 54.0133 285.925 53.78C286.325 53.5467 286.768 53.43 287.255 53.43C287.735 53.43 288.151 53.5333 288.505 53.74C288.858 53.9467 289.121 54.2067 289.295 54.52V53.52H290.215V59H289.295V57.98C289.115 58.3 288.845 58.5667 288.485 58.78C288.131 58.9867 287.718 59.09 287.245 59.09C286.758 59.09 286.318 58.97 285.925 58.73C285.531 58.49 285.221 58.1533 284.995 57.72C284.768 57.2867 284.655 56.7933 284.655 56.24ZM289.295 56.25C289.295 55.8367 289.211 55.4767 289.045 55.17C288.878 54.8633 288.651 54.63 288.365 54.47C288.085 54.3033 287.775 54.22 287.435 54.22C287.095 54.22 286.785 54.3 286.505 54.46C286.225 54.62 286.001 54.8533 285.835 55.16C285.668 55.4667 285.585 55.8267 285.585 56.24C285.585 56.66 285.668 57.0267 285.835 57.34C286.001 57.6467 286.225 57.8833 286.505 58.05C286.785 58.21 287.095 58.29 287.435 58.29C287.775 58.29 288.085 58.21 288.365 58.05C288.651 57.8833 288.878 57.6467 289.045 57.34C289.211 57.0267 289.295 56.6633 289.295 56.25ZM294.422 53.42C295.089 53.42 295.629 53.6233 296.042 54.03C296.456 54.43 296.662 55.01 296.662 55.77V59H295.762V55.9C295.762 55.3533 295.626 54.9367 295.352 54.65C295.079 54.3567 294.706 54.21 294.232 54.21C293.752 54.21 293.369 54.36 293.082 54.66C292.802 54.96 292.662 55.3967 292.662 55.97V59H291.752V53.52H292.662V54.3C292.842 54.02 293.086 53.8033 293.392 53.65C293.706 53.4967 294.049 53.42 294.422 53.42ZM300.555 58.27C301.402 57.59 302.065 57.0333 302.545 56.6C303.025 56.16 303.428 55.7033 303.755 55.23C304.088 54.75 304.255 54.28 304.255 53.82C304.255 53.3867 304.148 53.0467 303.935 52.8C303.728 52.5467 303.392 52.42 302.925 52.42C302.472 52.42 302.118 52.5633 301.865 52.85C301.618 53.13 301.485 53.5067 301.465 53.98H300.585C300.612 53.2333 300.838 52.6567 301.265 52.25C301.692 51.8433 302.242 51.64 302.915 51.64C303.602 51.64 304.145 51.83 304.545 52.21C304.952 52.59 305.155 53.1133 305.155 53.78C305.155 54.3333 304.988 54.8733 304.655 55.4C304.328 55.92 303.955 56.38 303.535 56.78C303.115 57.1733 302.578 57.6333 301.925 58.16H305.365V58.92H300.555V58.27ZM306.177 52.6V51.77H308.057V59H307.137V52.6H306.177Z" fill="white"/>
<path d="M331.807 35.7822C332.146 35.4429 332.704 35.4429 333.043 35.7822L338.477 41.2148C338.948 41.6863 339.217 42.3249 339.217 43C339.217 43.6722 338.958 44.3107 338.476 44.7842L338.477 44.7852L333.037 50.2246C332.871 50.3796 332.654 50.4755 332.425 50.4756C332.204 50.4756 331.981 50.3929 331.807 50.2188C331.468 49.8795 331.468 49.3207 331.807 48.9814L337.24 43.5488C337.542 43.2465 337.542 42.7545 337.24 42.4521L331.807 37.0186C331.468 36.6793 331.468 36.1215 331.807 35.7822Z" fill="white" stroke="white" stroke-width="0.5"/>
</svg>
