<svg width="176" height="132" viewBox="0 0 176 132" fill="none" xmlns="http://www.w3.org/2000/svg">
<rect width="176" height="132" rx="15" fill="white"/>
<mask id="mask0_17_9043" style="mask-type:alpha" maskUnits="userSpaceOnUse" x="0" y="0" width="176" height="132">
<rect width="176" height="132" rx="15" fill="white"/>
</mask>
<g mask="url(#mask0_17_9043)">
<path d="M141.088 62.187C139.705 62.6809 138.604 63.471 138.463 63.5698C137.476 64.2894 136.784 65.0514 136.319 65.6299L113.983 58.1798C112.318 57.6295 110.497 58.3774 109.707 59.9436L95.5973 88.1634C95.3575 88.6573 95.2305 89.1935 95.2305 89.7438C95.2305 99.4796 103.132 107.381 112.868 107.381C122.604 107.381 130.505 99.4796 130.505 89.7438C130.505 89.1935 130.378 88.6573 130.138 88.1634L119.838 67.5629L134.061 72.3039C134.16 76.6921 136.954 80.5723 141.102 82.0397V142.67H109.34V149.725H179.89V142.67H148.143V82.0538C150.019 81.3766 151.684 80.1772 152.912 78.611L171.382 84.763L159.092 109.342C158.852 109.836 158.725 110.373 158.725 110.923C158.725 120.659 166.627 128.56 176.363 128.56C186.098 128.56 194 120.659 194 110.923C194 110.373 193.873 109.836 193.633 109.342L179.523 81.1226C179.1 80.2901 178.366 79.6551 177.477 79.3588L155.184 71.9229C155.155 70.9634 154.93 67.8592 152.545 65.1501C150.951 63.3441 149.116 62.5257 148.143 62.187C147.226 61.9048 144.136 61.0865 141.088 62.187ZM112.868 100.34C108.395 100.326 104.43 97.5042 102.934 93.2854H122.801C121.306 97.5042 117.341 100.326 112.868 100.34ZM121.263 86.2304H104.472L112.868 69.4254L121.263 86.2304ZM144.615 75.6479C142.668 75.6479 141.088 74.0676 141.088 72.1204C141.088 70.1733 142.668 68.593 144.615 68.593C146.562 68.593 148.143 70.1733 148.143 72.1204C148.143 74.0676 146.562 75.6479 144.615 75.6479ZM176.363 90.5904L184.758 107.395H167.967L176.363 90.5904ZM186.296 114.45C184.814 118.669 180.835 121.491 176.363 121.505C171.89 121.491 167.925 118.669 166.429 114.45H186.296Z" fill="#1F1F1F"/>
<path d="M186.296 114.451C184.814 118.67 180.835 121.492 176.363 121.506C171.89 121.492 167.925 118.67 166.429 114.451H186.296Z" fill="#1F1F1F"/>
<path d="M122.801 93.2852C121.32 97.504 117.341 100.326 112.868 100.34C108.395 100.326 104.43 97.504 102.935 93.2852H122.801Z" fill="#1F1F1F"/>
<path d="M144.615 79.0348C148.434 79.0348 151.529 75.9393 151.529 72.1209C151.529 68.3025 148.434 65.207 144.615 65.207C140.797 65.207 137.701 68.3025 137.701 72.1209C137.701 75.9393 140.797 79.0348 144.615 79.0348Z" fill="white"/>
</g>
<path d="M21.454 34.108C20.698 34.108 20.032 33.958 19.456 33.658C18.892 33.358 18.412 32.956 18.016 32.452C17.632 31.948 17.338 31.378 17.134 30.742C16.942 30.106 16.846 29.458 16.846 28.798C16.846 28.078 16.954 27.358 17.17 26.638C17.398 25.906 17.722 25.21 18.142 24.55C18.562 23.89 19.06 23.308 19.636 22.804C20.224 22.288 20.884 21.886 21.616 21.598C22.36 21.298 23.158 21.148 24.01 21.148C25.162 21.148 26.068 21.412 26.728 21.94C27.4 22.468 27.838 23.134 28.042 23.938L26.98 24.514C26.824 23.938 26.584 23.488 26.26 23.164C25.948 22.828 25.582 22.6 25.162 22.48C24.754 22.348 24.316 22.282 23.848 22.282C22.936 22.282 22.12 22.48 21.4 22.876C20.692 23.26 20.092 23.77 19.6 24.406C19.12 25.03 18.748 25.72 18.484 26.476C18.232 27.22 18.106 27.958 18.106 28.69C18.106 29.458 18.244 30.172 18.52 30.832C18.808 31.48 19.216 32.002 19.744 32.398C20.284 32.782 20.932 32.974 21.688 32.974C22.144 32.974 22.618 32.89 23.11 32.722C23.614 32.554 24.1 32.296 24.568 31.948C25.036 31.6 25.45 31.15 25.81 30.598L26.746 31.138C26.338 31.798 25.834 32.35 25.234 32.794C24.634 33.238 24.004 33.568 23.344 33.784C22.696 34 22.066 34.108 21.454 34.108ZM31.8805 34.18C31.0645 34.18 30.3865 34.006 29.8465 33.658C29.3065 33.298 28.9045 32.818 28.6405 32.218C28.3765 31.618 28.2445 30.958 28.2445 30.238C28.2445 29.446 28.3885 28.702 28.6765 28.006C28.9765 27.31 29.3785 26.698 29.8825 26.17C30.3865 25.63 30.9685 25.21 31.6285 24.91C32.3005 24.61 33.0025 24.46 33.7345 24.46C34.5385 24.46 35.2105 24.64 35.7505 25C36.3025 25.36 36.7105 25.84 36.9745 26.44C37.2385 27.028 37.3705 27.688 37.3705 28.42C37.3705 29.212 37.2265 29.956 36.9385 30.652C36.6505 31.348 36.2485 31.96 35.7325 32.488C35.2285 33.016 34.6465 33.43 33.9865 33.73C33.3265 34.03 32.6245 34.18 31.8805 34.18ZM32.0965 33.1C32.6005 33.1 33.0925 32.992 33.5725 32.776C34.0525 32.548 34.4785 32.23 34.8505 31.822C35.2345 31.414 35.5405 30.94 35.7685 30.4C35.9965 29.848 36.1105 29.248 36.1105 28.6C36.1105 28.024 36.0085 27.508 35.8045 27.052C35.6125 26.584 35.3245 26.218 34.9405 25.954C34.5685 25.678 34.0945 25.54 33.5185 25.54C33.0145 25.54 32.5225 25.654 32.0425 25.882C31.5625 26.11 31.1305 26.434 30.7465 26.854C30.3745 27.262 30.0745 27.742 29.8465 28.294C29.6185 28.834 29.5045 29.428 29.5045 30.076C29.5045 30.652 29.6005 31.174 29.7925 31.642C29.9965 32.098 30.2905 32.458 30.6745 32.722C31.0585 32.974 31.5325 33.1 32.0965 33.1ZM41.2809 34.18C40.5489 34.18 39.8769 34.06 39.2649 33.82C38.6529 33.58 38.1549 33.232 37.7709 32.776L38.4909 31.948C38.8989 32.38 39.3429 32.698 39.8229 32.902C40.3029 33.106 40.8249 33.208 41.3889 33.208C41.9289 33.208 42.4029 33.13 42.8109 32.974C43.2189 32.806 43.5369 32.578 43.7649 32.29C44.0049 31.99 44.1249 31.642 44.1249 31.246C44.1249 30.79 43.9269 30.472 43.5309 30.292C43.1469 30.1 42.5829 29.902 41.8389 29.698C41.2749 29.53 40.8009 29.374 40.4169 29.23C40.0329 29.074 39.7449 28.882 39.5529 28.654C39.3729 28.414 39.2829 28.084 39.2829 27.664C39.2829 27.004 39.4569 26.44 39.8049 25.972C40.1649 25.492 40.6449 25.12 41.2449 24.856C41.8449 24.592 42.5169 24.46 43.2609 24.46C43.9689 24.46 44.5749 24.58 45.0789 24.82C45.5829 25.06 45.9729 25.366 46.2489 25.738L45.4929 26.458C45.2409 26.098 44.9169 25.834 44.5209 25.666C44.1249 25.498 43.6689 25.414 43.1529 25.414C42.6849 25.414 42.2469 25.486 41.8389 25.63C41.4309 25.774 41.1009 25.99 40.8489 26.278C40.6089 26.566 40.4889 26.932 40.4889 27.376C40.4889 27.772 40.6329 28.054 40.9209 28.222C41.2209 28.378 41.7069 28.546 42.3789 28.726C43.0149 28.906 43.5549 29.092 43.9989 29.284C44.4549 29.464 44.7969 29.692 45.0249 29.968C45.2529 30.244 45.3669 30.61 45.3669 31.066C45.3669 31.678 45.1929 32.218 44.8449 32.686C44.5089 33.154 44.0349 33.52 43.4229 33.784C42.8109 34.048 42.0969 34.18 41.2809 34.18ZM47.4148 32.758C47.4148 32.686 47.4208 32.614 47.4328 32.542C47.4448 32.458 47.4568 32.38 47.4688 32.308L48.8908 25.594H47.6488L47.8648 24.622H49.0888L49.7728 21.454H50.9968L50.3128 24.622H52.3648L52.1488 25.594H50.1148L48.8188 31.696C48.7828 31.828 48.7588 31.93 48.7468 32.002C48.7348 32.074 48.7288 32.14 48.7288 32.2C48.7288 32.464 48.8128 32.662 48.9808 32.794C49.1488 32.914 49.3528 32.974 49.5928 32.974C49.8208 32.974 50.0308 32.944 50.2228 32.884C50.4148 32.824 50.5828 32.764 50.7268 32.704C50.8828 32.644 50.9848 32.596 51.0328 32.56L51.1408 33.55C51.0328 33.61 50.8708 33.688 50.6548 33.784C50.4388 33.88 50.1868 33.958 49.8988 34.018C49.6108 34.078 49.3048 34.108 48.9808 34.108C48.5368 34.108 48.1648 34 47.8648 33.784C47.5648 33.556 47.4148 33.214 47.4148 32.758ZM53.2168 29.662L53.4508 28.528H58.4548L58.2208 29.662H53.2168ZM64.1658 34.18C63.4098 34.18 62.7798 33.988 62.2758 33.604C61.7838 33.22 61.4358 32.746 61.2318 32.182L60.8358 34H59.7558L62.5458 20.86H63.7698L62.5458 26.584C63.0738 25.948 63.6558 25.438 64.2918 25.054C64.9398 24.658 65.6238 24.46 66.3438 24.46C67.0518 24.46 67.6398 24.646 68.1078 25.018C68.5758 25.378 68.9238 25.852 69.1518 26.44C69.3918 27.028 69.5117 27.646 69.5117 28.294C69.5117 29.086 69.3618 29.836 69.0618 30.544C68.7618 31.24 68.3538 31.864 67.8378 32.416C67.3338 32.968 66.7638 33.4 66.1278 33.712C65.4918 34.024 64.8378 34.18 64.1658 34.18ZM64.1298 33.1C64.6458 33.1 65.1498 32.974 65.6418 32.722C66.1338 32.47 66.5718 32.128 66.9558 31.696C67.3398 31.252 67.6458 30.76 67.8738 30.22C68.1018 29.668 68.2158 29.098 68.2158 28.51C68.2158 27.994 68.1198 27.508 67.9278 27.052C67.7358 26.596 67.4598 26.23 67.0998 25.954C66.7518 25.678 66.3078 25.54 65.7678 25.54C65.3238 25.54 64.8858 25.648 64.4538 25.864C64.0338 26.068 63.6438 26.344 63.2838 26.692C62.9238 27.04 62.5878 27.418 62.2758 27.826L61.6278 30.94C61.6518 31.348 61.7778 31.72 62.0058 32.056C62.2458 32.38 62.5458 32.638 62.9058 32.83C63.2778 33.01 63.6858 33.1 64.1298 33.1ZM74.3681 34.18C73.6001 34.18 72.9461 34.006 72.4061 33.658C71.8661 33.298 71.4521 32.818 71.1641 32.218C70.8761 31.618 70.7261 30.946 70.7141 30.202C70.7141 29.458 70.8461 28.744 71.1101 28.06C71.3861 27.376 71.7701 26.764 72.2621 26.224C72.7661 25.684 73.3541 25.258 74.0261 24.946C74.6981 24.622 75.4301 24.46 76.2221 24.46C76.8101 24.46 77.3381 24.556 77.8061 24.748C78.2741 24.94 78.6401 25.222 78.9041 25.594C79.1801 25.966 79.3181 26.434 79.3181 26.998C79.3301 27.946 78.9221 28.648 78.0941 29.104C77.2781 29.548 76.0241 29.77 74.3321 29.77C73.9601 29.77 73.5461 29.764 73.0901 29.752C72.6461 29.728 72.1361 29.692 71.5601 29.644L71.7401 28.78C72.3161 28.816 72.8081 28.846 73.2161 28.87C73.6361 28.882 74.0261 28.888 74.3861 28.888C75.3461 28.888 76.1021 28.816 76.6541 28.672C77.2061 28.516 77.6021 28.294 77.8421 28.006C78.0941 27.718 78.2141 27.382 78.2021 26.998C78.2021 26.626 78.1061 26.326 77.9141 26.098C77.7221 25.858 77.4701 25.684 77.1581 25.576C76.8581 25.468 76.5161 25.414 76.1321 25.414C75.5081 25.414 74.9381 25.552 74.4221 25.828C73.9181 26.092 73.4801 26.452 73.1081 26.908C72.7361 27.352 72.4481 27.856 72.2441 28.42C72.0521 28.984 71.9561 29.56 71.9561 30.148C71.9681 30.712 72.0701 31.228 72.2621 31.696C72.4541 32.164 72.7421 32.542 73.1261 32.83C73.5221 33.106 74.0081 33.244 74.5841 33.244C75.2081 33.244 75.7901 33.088 76.3301 32.776C76.8821 32.464 77.3141 32.038 77.6261 31.498L78.6341 31.804C78.3581 32.272 77.9981 32.686 77.5541 33.046C77.1101 33.394 76.6181 33.67 76.0781 33.874C75.5381 34.078 74.9681 34.18 74.3681 34.18ZM82.0209 24.622H83.1549L82.6869 26.746C83.0229 26.29 83.4189 25.894 83.8749 25.558C84.3429 25.21 84.8409 24.94 85.3689 24.748C85.8969 24.556 86.4189 24.46 86.9349 24.46C87.4269 24.46 87.8169 24.55 88.1049 24.73C88.4049 24.91 88.6209 25.168 88.7529 25.504C88.8969 25.828 88.9689 26.224 88.9689 26.692C88.9689 26.968 88.9449 27.256 88.8969 27.556C88.8609 27.856 88.8069 28.174 88.7349 28.51L87.5829 34H86.3589L87.4749 28.762C87.5349 28.462 87.5769 28.186 87.6009 27.934C87.6369 27.682 87.6549 27.448 87.6549 27.232C87.6549 26.668 87.5349 26.254 87.2949 25.99C87.0669 25.714 86.7189 25.576 86.2509 25.576C85.8069 25.576 85.3389 25.696 84.8469 25.936C84.3669 26.164 83.9169 26.482 83.4969 26.89C83.0769 27.286 82.7349 27.742 82.4709 28.258L81.2649 34H80.0409L82.0209 24.622ZM94.0556 34.18C93.2876 34.18 92.6336 34.006 92.0936 33.658C91.5536 33.298 91.1396 32.818 90.8516 32.218C90.5636 31.618 90.4136 30.946 90.4016 30.202C90.4016 29.458 90.5336 28.744 90.7976 28.06C91.0736 27.376 91.4576 26.764 91.9496 26.224C92.4536 25.684 93.0416 25.258 93.7136 24.946C94.3856 24.622 95.1176 24.46 95.9096 24.46C96.4976 24.46 97.0256 24.556 97.4936 24.748C97.9616 24.94 98.3276 25.222 98.5916 25.594C98.8676 25.966 99.0056 26.434 99.0056 26.998C99.0176 27.946 98.6096 28.648 97.7816 29.104C96.9656 29.548 95.7116 29.77 94.0196 29.77C93.6476 29.77 93.2336 29.764 92.7776 29.752C92.3336 29.728 91.8236 29.692 91.2476 29.644L91.4276 28.78C92.0036 28.816 92.4956 28.846 92.9036 28.87C93.3236 28.882 93.7136 28.888 94.0736 28.888C95.0336 28.888 95.7896 28.816 96.3416 28.672C96.8936 28.516 97.2896 28.294 97.5296 28.006C97.7816 27.718 97.9016 27.382 97.8896 26.998C97.8896 26.626 97.7936 26.326 97.6016 26.098C97.4096 25.858 97.1576 25.684 96.8456 25.576C96.5456 25.468 96.2036 25.414 95.8196 25.414C95.1956 25.414 94.6256 25.552 94.1096 25.828C93.6056 26.092 93.1676 26.452 92.7956 26.908C92.4236 27.352 92.1356 27.856 91.9316 28.42C91.7396 28.984 91.6436 29.56 91.6436 30.148C91.6556 30.712 91.7576 31.228 91.9496 31.696C92.1416 32.164 92.4296 32.542 92.8136 32.83C93.2096 33.106 93.6956 33.244 94.2716 33.244C94.8956 33.244 95.4776 33.088 96.0176 32.776C96.5696 32.464 97.0016 32.038 97.3136 31.498L98.3216 31.804C98.0456 32.272 97.6856 32.686 97.2416 33.046C96.7976 33.394 96.3056 33.67 95.7656 33.874C95.2256 34.078 94.6556 34.18 94.0556 34.18ZM101.836 25.594H100.612L100.81 24.622H102.052L102.088 24.37C102.184 23.926 102.34 23.488 102.556 23.056C102.772 22.624 103.048 22.228 103.384 21.868C103.72 21.508 104.11 21.22 104.554 21.004C105.01 20.788 105.514 20.68 106.066 20.68C106.474 20.68 106.84 20.728 107.164 20.824C107.488 20.92 107.758 21.034 107.974 21.166C108.202 21.298 108.376 21.418 108.496 21.526L107.758 22.408C107.59 22.228 107.344 22.078 107.02 21.958C106.696 21.826 106.324 21.76 105.904 21.76C105.424 21.76 105.004 21.892 104.644 22.156C104.296 22.408 104.008 22.732 103.78 23.128C103.564 23.524 103.414 23.926 103.33 24.334L103.276 24.622H107.74L105.742 34H104.518L106.3 25.594H103.06L101.278 34H100.054L101.836 25.594ZM109.079 32.758C109.079 32.686 109.085 32.614 109.097 32.542C109.109 32.458 109.121 32.38 109.133 32.308L110.555 25.594H109.313L109.529 24.622H110.753L111.437 21.454H112.661L111.977 24.622H114.029L113.813 25.594H111.779L110.483 31.696C110.447 31.828 110.423 31.93 110.411 32.002C110.399 32.074 110.393 32.14 110.393 32.2C110.393 32.464 110.477 32.662 110.645 32.794C110.813 32.914 111.017 32.974 111.257 32.974C111.485 32.974 111.695 32.944 111.887 32.884C112.079 32.824 112.247 32.764 112.391 32.704C112.547 32.644 112.649 32.596 112.697 32.56L112.805 33.55C112.697 33.61 112.535 33.688 112.319 33.784C112.103 33.88 111.851 33.958 111.563 34.018C111.275 34.078 110.969 34.108 110.645 34.108C110.201 34.108 109.829 34 109.529 33.784C109.229 33.556 109.079 33.214 109.079 32.758ZM24.946 55.606H19.942L19.114 58H16.468L20.986 45.418H23.92L28.438 58H25.774L24.946 55.606ZM24.262 53.59L22.444 48.334L20.626 53.59H24.262ZM35.6528 47.884C36.8408 47.884 37.8008 48.262 38.5328 49.018C39.2648 49.762 39.6308 50.806 39.6308 52.15V58H37.1108V52.492C37.1108 51.7 36.9128 51.094 36.5168 50.674C36.1208 50.242 35.5808 50.026 34.8968 50.026C34.2008 50.026 33.6488 50.242 33.2408 50.674C32.8448 51.094 32.6468 51.7 32.6468 52.492V58H30.1268V48.028H32.6468V49.27C32.9828 48.838 33.4088 48.502 33.9248 48.262C34.4528 48.01 35.0288 47.884 35.6528 47.884ZM41.3792 52.978C41.3792 51.97 41.5772 51.076 41.9732 50.296C42.3812 49.516 42.9272 48.916 43.6112 48.496C44.3072 48.076 45.0812 47.866 45.9332 47.866C46.6772 47.866 47.3252 48.016 47.8772 48.316C48.4412 48.616 48.8912 48.994 49.2272 49.45V48.028H51.7652V58H49.2272V56.542C48.9032 57.01 48.4532 57.4 47.8772 57.712C47.3132 58.012 46.6592 58.162 45.9152 58.162C45.0752 58.162 44.3072 57.946 43.6112 57.514C42.9272 57.082 42.3812 56.476 41.9732 55.696C41.5772 54.904 41.3792 53.998 41.3792 52.978ZM49.2272 53.014C49.2272 52.402 49.1072 51.88 48.8672 51.448C48.6272 51.004 48.3032 50.668 47.8952 50.44C47.4872 50.2 47.0492 50.08 46.5812 50.08C46.1132 50.08 45.6812 50.194 45.2852 50.422C44.8892 50.65 44.5652 50.986 44.3132 51.43C44.0732 51.862 43.9532 52.378 43.9532 52.978C43.9532 53.578 44.0732 54.106 44.3132 54.562C44.5652 55.006 44.8892 55.348 45.2852 55.588C45.6932 55.828 46.1252 55.948 46.5812 55.948C47.0492 55.948 47.4872 55.834 47.8952 55.606C48.3032 55.366 48.6272 55.03 48.8672 54.598C49.1072 54.154 49.2272 53.626 49.2272 53.014ZM56.7464 44.68V58H54.2264V44.68H56.7464ZM68.7761 48.028L62.6021 62.716H59.9201L62.0801 57.748L58.0841 48.028H60.9101L63.4841 54.994L66.0941 48.028H68.7761ZM73.9506 58.162C73.1346 58.162 72.4026 58.018 71.7546 57.73C71.1066 57.43 70.5906 57.028 70.2066 56.524C69.8346 56.02 69.6306 55.462 69.5946 54.85H72.1326C72.1806 55.234 72.3666 55.552 72.6906 55.804C73.0266 56.056 73.4406 56.182 73.9326 56.182C74.4126 56.182 74.7846 56.086 75.0486 55.894C75.3246 55.702 75.4626 55.456 75.4626 55.156C75.4626 54.832 75.2946 54.592 74.9586 54.436C74.6346 54.268 74.1126 54.088 73.3926 53.896C72.6486 53.716 72.0366 53.53 71.5566 53.338C71.0886 53.146 70.6806 52.852 70.3326 52.456C69.9966 52.06 69.8286 51.526 69.8286 50.854C69.8286 50.302 69.9846 49.798 70.2966 49.342C70.6206 48.886 71.0766 48.526 71.6646 48.262C72.2646 47.998 72.9666 47.866 73.7706 47.866C74.9586 47.866 75.9066 48.166 76.6146 48.766C77.3226 49.354 77.7126 50.152 77.7846 51.16H75.3726C75.3366 50.764 75.1686 50.452 74.8686 50.224C74.5806 49.984 74.1906 49.864 73.6986 49.864C73.2426 49.864 72.8886 49.948 72.6366 50.116C72.3966 50.284 72.2766 50.518 72.2766 50.818C72.2766 51.154 72.4446 51.412 72.7806 51.592C73.1166 51.76 73.6386 51.934 74.3466 52.114C75.0666 52.294 75.6606 52.48 76.1286 52.672C76.5966 52.864 76.9986 53.164 77.3346 53.572C77.6826 53.968 77.8626 54.496 77.8746 55.156C77.8746 55.732 77.7126 56.248 77.3886 56.704C77.0766 57.16 76.6206 57.52 76.0206 57.784C75.4326 58.036 74.7426 58.162 73.9506 58.162ZM81.2212 46.84C80.7772 46.84 80.4052 46.702 80.1052 46.426C79.8172 46.138 79.6732 45.784 79.6732 45.364C79.6732 44.944 79.8172 44.596 80.1052 44.32C80.4052 44.032 80.7772 43.888 81.2212 43.888C81.6652 43.888 82.0312 44.032 82.3192 44.32C82.6192 44.596 82.7692 44.944 82.7692 45.364C82.7692 45.784 82.6192 46.138 82.3192 46.426C82.0312 46.702 81.6652 46.84 81.2212 46.84ZM82.4632 48.028V58H79.9432V48.028H82.4632ZM88.7689 58.162C87.9529 58.162 87.2209 58.018 86.5729 57.73C85.9249 57.43 85.4089 57.028 85.0249 56.524C84.6529 56.02 84.4489 55.462 84.4129 54.85H86.9509C86.9989 55.234 87.1849 55.552 87.5089 55.804C87.8449 56.056 88.2589 56.182 88.7509 56.182C89.2309 56.182 89.6029 56.086 89.8669 55.894C90.1429 55.702 90.2809 55.456 90.2809 55.156C90.2809 54.832 90.1129 54.592 89.7769 54.436C89.4529 54.268 88.9309 54.088 88.2109 53.896C87.4669 53.716 86.8549 53.53 86.3749 53.338C85.9069 53.146 85.4989 52.852 85.1509 52.456C84.8149 52.06 84.6469 51.526 84.6469 50.854C84.6469 50.302 84.8029 49.798 85.1149 49.342C85.4389 48.886 85.8949 48.526 86.4829 48.262C87.0829 47.998 87.7849 47.866 88.5889 47.866C89.7769 47.866 90.7249 48.166 91.4329 48.766C92.1409 49.354 92.5309 50.152 92.6029 51.16H90.1909C90.1549 50.764 89.9869 50.452 89.6869 50.224C89.3989 49.984 89.0089 49.864 88.5169 49.864C88.0609 49.864 87.7069 49.948 87.4549 50.116C87.2149 50.284 87.0949 50.518 87.0949 50.818C87.0949 51.154 87.2629 51.412 87.5989 51.592C87.9349 51.76 88.4569 51.934 89.1649 52.114C89.8849 52.294 90.4789 52.48 90.9469 52.672C91.4149 52.864 91.8169 53.164 92.1529 53.572C92.5009 53.968 92.6809 54.496 92.6929 55.156C92.6929 55.732 92.5309 56.248 92.2069 56.704C91.8949 57.16 91.4389 57.52 90.8389 57.784C90.2509 58.036 89.5609 58.162 88.7689 58.162Z" fill="#1F1F1F"/>
<path d="M146.807 33.2822C147.146 32.9429 147.704 32.9429 148.043 33.2822L153.477 38.7148C153.948 39.1863 154.217 39.8249 154.217 40.5C154.217 41.1722 153.958 41.8107 153.476 42.2842L153.477 42.2852L148.037 47.7246C147.871 47.8796 147.653 47.9755 147.425 47.9756C147.204 47.9756 146.981 47.8929 146.807 47.7188C146.468 47.3795 146.468 46.8207 146.807 46.4814L152.24 41.0488C152.542 40.7465 152.542 40.2545 152.24 39.9521L146.807 34.5186C146.468 34.1793 146.468 33.6215 146.807 33.2822Z" fill="#1F1F1F" stroke="#1F1F1F" stroke-width="0.5"/>
<path opacity="0.75" d="M17.68 113.26H20.12V114H16.77V107.03H17.68V113.26ZM20.7464 111.24C20.7464 110.68 20.8597 110.19 21.0864 109.77C21.3131 109.343 21.6231 109.013 22.0164 108.78C22.4164 108.547 22.8597 108.43 23.3464 108.43C23.8264 108.43 24.2431 108.533 24.5964 108.74C24.9497 108.947 25.2131 109.207 25.3864 109.52V108.52H26.3064V114H25.3864V112.98C25.2064 113.3 24.9364 113.567 24.5764 113.78C24.2231 113.987 23.8097 114.09 23.3364 114.09C22.8497 114.09 22.4097 113.97 22.0164 113.73C21.6231 113.49 21.3131 113.153 21.0864 112.72C20.8597 112.287 20.7464 111.793 20.7464 111.24ZM25.3864 111.25C25.3864 110.837 25.3031 110.477 25.1364 110.17C24.9697 109.863 24.7431 109.63 24.4564 109.47C24.1764 109.303 23.8664 109.22 23.5264 109.22C23.1864 109.22 22.8764 109.3 22.5964 109.46C22.3164 109.62 22.0931 109.853 21.9264 110.16C21.7597 110.467 21.6764 110.827 21.6764 111.24C21.6764 111.66 21.7597 112.027 21.9264 112.34C22.0931 112.647 22.3164 112.883 22.5964 113.05C22.8764 113.21 23.1864 113.29 23.5264 113.29C23.8664 113.29 24.1764 113.21 24.4564 113.05C24.7431 112.883 24.9697 112.647 25.1364 112.34C25.3031 112.027 25.3864 111.663 25.3864 111.25ZM29.7842 114.09C29.3642 114.09 28.9876 114.02 28.6542 113.88C28.3209 113.733 28.0576 113.533 27.8642 113.28C27.6709 113.02 27.5642 112.723 27.5442 112.39H28.4842C28.5109 112.663 28.6376 112.887 28.8642 113.06C29.0976 113.233 29.4009 113.32 29.7742 113.32C30.1209 113.32 30.3942 113.243 30.5942 113.09C30.7942 112.937 30.8942 112.743 30.8942 112.51C30.8942 112.27 30.7876 112.093 30.5742 111.98C30.3609 111.86 30.0309 111.743 29.5842 111.63C29.1776 111.523 28.8442 111.417 28.5842 111.31C28.3309 111.197 28.1109 111.033 27.9242 110.82C27.7442 110.6 27.6542 110.313 27.6542 109.96C27.6542 109.68 27.7376 109.423 27.9042 109.19C28.0709 108.957 28.3076 108.773 28.6142 108.64C28.9209 108.5 29.2709 108.43 29.6642 108.43C30.2709 108.43 30.7609 108.583 31.1342 108.89C31.5076 109.197 31.7076 109.617 31.7342 110.15H30.8242C30.8042 109.863 30.6876 109.633 30.4742 109.46C30.2676 109.287 29.9876 109.2 29.6342 109.2C29.3076 109.2 29.0476 109.27 28.8542 109.41C28.6609 109.55 28.5642 109.733 28.5642 109.96C28.5642 110.14 28.6209 110.29 28.7342 110.41C28.8542 110.523 29.0009 110.617 29.1742 110.69C29.3542 110.757 29.6009 110.833 29.9142 110.92C30.3076 111.027 30.6276 111.133 30.8742 111.24C31.1209 111.34 31.3309 111.493 31.5042 111.7C31.6842 111.907 31.7776 112.177 31.7842 112.51C31.7842 112.81 31.7009 113.08 31.5342 113.32C31.3676 113.56 31.1309 113.75 30.8242 113.89C30.5242 114.023 30.1776 114.09 29.7842 114.09ZM34.1788 109.27V112.5C34.1788 112.767 34.2355 112.957 34.3488 113.07C34.4622 113.177 34.6588 113.23 34.9388 113.23H35.6088V114H34.7888C34.2822 114 33.9022 113.883 33.6488 113.65C33.3955 113.417 33.2688 113.033 33.2688 112.5V109.27H32.5588V108.52H33.2688V107.14H34.1788V108.52H35.6088V109.27H34.1788ZM41.5474 107.03C42.3074 107.03 42.9641 107.173 43.5174 107.46C44.0774 107.74 44.5041 108.143 44.7974 108.67C45.0974 109.197 45.2474 109.817 45.2474 110.53C45.2474 111.243 45.0974 111.863 44.7974 112.39C44.5041 112.91 44.0774 113.31 43.5174 113.59C42.9641 113.863 42.3074 114 41.5474 114H39.3774V107.03H41.5474ZM41.5474 113.25C42.4474 113.25 43.1341 113.013 43.6074 112.54C44.0808 112.06 44.3174 111.39 44.3174 110.53C44.3174 109.663 44.0774 108.987 43.5974 108.5C43.1241 108.013 42.4408 107.77 41.5474 107.77H40.2874V113.25H41.5474ZM48.8377 114.09C48.3244 114.09 47.8577 113.973 47.4377 113.74C47.0244 113.507 46.6977 113.177 46.4577 112.75C46.2244 112.317 46.1077 111.817 46.1077 111.25C46.1077 110.69 46.2277 110.197 46.4677 109.77C46.7144 109.337 47.0477 109.007 47.4677 108.78C47.8877 108.547 48.3577 108.43 48.8777 108.43C49.3977 108.43 49.8677 108.547 50.2877 108.78C50.7077 109.007 51.0377 109.333 51.2777 109.76C51.5244 110.187 51.6477 110.683 51.6477 111.25C51.6477 111.817 51.5211 112.317 51.2677 112.75C51.0211 113.177 50.6844 113.507 50.2577 113.74C49.8311 113.973 49.3577 114.09 48.8377 114.09ZM48.8377 113.29C49.1644 113.29 49.4711 113.213 49.7577 113.06C50.0444 112.907 50.2744 112.677 50.4477 112.37C50.6277 112.063 50.7177 111.69 50.7177 111.25C50.7177 110.81 50.6311 110.437 50.4577 110.13C50.2844 109.823 50.0577 109.597 49.7777 109.45C49.4977 109.297 49.1944 109.22 48.8677 109.22C48.5344 109.22 48.2277 109.297 47.9477 109.45C47.6744 109.597 47.4544 109.823 47.2877 110.13C47.1211 110.437 47.0377 110.81 47.0377 111.25C47.0377 111.697 47.1177 112.073 47.2777 112.38C47.4444 112.687 47.6644 112.917 47.9377 113.07C48.2111 113.217 48.5111 113.29 48.8377 113.29ZM55.5142 108.42C56.1809 108.42 56.7209 108.623 57.1342 109.03C57.5476 109.43 57.7542 110.01 57.7542 110.77V114H56.8542V110.9C56.8542 110.353 56.7176 109.937 56.4442 109.65C56.1709 109.357 55.7976 109.21 55.3242 109.21C54.8442 109.21 54.4609 109.36 54.1742 109.66C53.8942 109.96 53.7542 110.397 53.7542 110.97V114H52.8442V108.52H53.7542V109.3C53.9342 109.02 54.1776 108.803 54.4842 108.65C54.7976 108.497 55.1409 108.42 55.5142 108.42ZM64.2407 111.05C64.2407 111.223 64.2307 111.407 64.2107 111.6H59.8307C59.864 112.14 60.0474 112.563 60.3807 112.87C60.7207 113.17 61.1307 113.32 61.6107 113.32C62.004 113.32 62.3307 113.23 62.5907 113.05C62.8574 112.863 63.044 112.617 63.1507 112.31H64.1307C63.984 112.837 63.6907 113.267 63.2507 113.6C62.8107 113.927 62.264 114.09 61.6107 114.09C61.0907 114.09 60.624 113.973 60.2107 113.74C59.804 113.507 59.484 113.177 59.2507 112.75C59.0174 112.317 58.9007 111.817 58.9007 111.25C58.9007 110.683 59.014 110.187 59.2407 109.76C59.4674 109.333 59.784 109.007 60.1907 108.78C60.604 108.547 61.0774 108.43 61.6107 108.43C62.1307 108.43 62.5907 108.543 62.9907 108.77C63.3907 108.997 63.6974 109.31 63.9107 109.71C64.1307 110.103 64.2407 110.55 64.2407 111.05ZM63.3007 110.86C63.3007 110.513 63.224 110.217 63.0707 109.97C62.9174 109.717 62.7074 109.527 62.4407 109.4C62.1807 109.267 61.8907 109.2 61.5707 109.2C61.1107 109.2 60.7174 109.347 60.3907 109.64C60.0707 109.933 59.8874 110.34 59.8407 110.86H63.3007ZM71.6179 107.03V112.18C71.6179 112.753 71.4412 113.213 71.0879 113.56C70.7346 113.9 70.2679 114.07 69.6879 114.07C69.1012 114.07 68.6312 113.897 68.2779 113.55C67.9246 113.197 67.7479 112.717 67.7479 112.11H68.6579C68.6646 112.45 68.7512 112.727 68.9179 112.94C69.0912 113.153 69.3479 113.26 69.6879 113.26C70.0279 113.26 70.2812 113.16 70.4479 112.96C70.6146 112.753 70.6979 112.493 70.6979 112.18V107.03H71.6179ZM78.2706 108.52V114H77.3606V113.19C77.1873 113.47 76.944 113.69 76.6306 113.85C76.324 114.003 75.984 114.08 75.6106 114.08C75.184 114.08 74.8006 113.993 74.4606 113.82C74.1206 113.64 73.8506 113.373 73.6506 113.02C73.4573 112.667 73.3606 112.237 73.3606 111.73V108.52H74.2606V111.61C74.2606 112.15 74.3973 112.567 74.6706 112.86C74.944 113.147 75.3173 113.29 75.7906 113.29C76.2773 113.29 76.6606 113.14 76.9406 112.84C77.2206 112.54 77.3606 112.103 77.3606 111.53V108.52H78.2706ZM80.7171 106.6V114H79.8071V106.6H80.7171ZM84.5441 107.6V106.77H86.4241V114H85.5041V107.6H84.5441ZM87.7472 107.6V106.77H89.6272V114H88.7072V107.6H87.7472Z" fill="#1F1F1F"/>
</svg>
