<svg width="176" height="132" viewBox="0 0 176 132" fill="none" xmlns="http://www.w3.org/2000/svg">
<rect width="176" height="132" rx="15" fill="white"/>
<mask id="mask0_53_4575" style="mask-type:alpha" maskUnits="userSpaceOnUse" x="0" y="0" width="176" height="132">
<rect width="176" height="132" rx="15" fill="white"/>
</mask>
<g mask="url(#mask0_53_4575)">
<path d="M168.652 95.0984C168.317 94.8263 166.411 93.2978 163.606 93.2978C163.606 93.2978 163.02 93.2978 162.496 93.3816C158.916 93.8841 156.152 96.7944 155.712 100.312C157.199 100.375 158.665 100.835 159.963 101.757C160.465 102.113 160.591 102.824 160.235 103.327C159.879 103.829 159.167 103.955 158.665 103.599C156.068 101.778 152.467 102.406 150.645 105.023C150.415 105.337 150.08 105.504 149.724 105.504C149.494 105.504 149.285 105.442 149.075 105.295C148.573 104.939 148.447 104.227 148.803 103.725C149.955 102.092 151.609 101.003 153.43 100.563C153.744 96.1034 156.969 92.3137 161.324 91.3297C160.36 88.4612 157.66 86.4722 154.54 86.4722C150.583 86.4722 147.358 89.6966 147.358 93.6537V116.266C147.379 116.308 147.4 116.35 147.421 116.392C148.112 117.774 149.305 118.779 150.771 119.26C152.237 119.742 153.786 119.616 155.168 118.925C155.733 118.653 156.403 118.863 156.696 119.428C156.969 119.993 156.759 120.663 156.194 120.935C155.063 121.522 153.828 121.794 152.593 121.794C151.755 121.794 150.918 121.668 150.08 121.396C149.075 121.061 148.175 120.558 147.379 119.888V142.229C147.882 142.396 148.405 142.501 148.95 142.522C152.111 142.669 154.791 140.219 154.938 137.078C154.959 136.45 155.482 135.969 156.11 136.01C156.738 136.031 157.22 136.576 157.178 137.183C156.99 141.454 153.451 144.783 149.201 144.783C149.075 144.783 148.95 144.783 148.824 144.783C148.321 144.762 147.84 144.699 147.358 144.574V148.51C147.358 152.467 150.583 155.692 154.54 155.692C157.66 155.692 160.36 153.703 161.324 150.834C159.293 150.374 157.45 149.306 156.047 147.735C155.629 147.275 155.67 146.563 156.131 146.144C156.592 145.725 157.304 145.767 157.722 146.228C159.041 147.694 160.863 148.615 162.81 148.803C162.81 148.803 163.355 148.845 163.606 148.845C167.982 148.845 171.541 145.286 171.541 140.91C171.541 140.617 171.52 140.324 171.499 140.009C171.164 140.051 170.808 140.051 170.473 140.051C169.301 140.051 168.128 139.863 167.019 139.486C166.432 139.298 166.118 138.649 166.307 138.062C166.495 137.476 167.144 137.162 167.731 137.35C168.61 137.644 169.531 137.79 170.473 137.79C170.976 137.79 171.478 137.748 171.96 137.664C172.002 137.664 172.148 137.623 172.19 137.623C176.189 136.806 179.1 133.268 179.1 129.185C179.1 126.547 177.885 124.076 175.854 122.443C174.221 123.364 172.379 123.867 170.494 123.867C170.411 123.867 170.306 123.846 170.222 123.825C169.05 125.521 167.479 126.924 165.595 127.929C165.427 128.012 165.239 128.054 165.071 128.054C164.674 128.054 164.276 127.845 164.066 127.447C163.773 126.903 163.983 126.212 164.527 125.918C167.102 124.558 168.987 122.254 169.824 119.47C170.683 116.685 170.39 113.733 169.029 111.158C168.736 110.613 168.945 109.922 169.489 109.629C170.034 109.336 170.725 109.545 171.018 110.09C172.672 113.188 173.007 116.748 171.981 120.119C171.834 120.6 171.667 121.061 171.457 121.522C172.776 121.375 174.054 120.914 175.163 120.182C175.184 120.182 175.226 120.14 175.247 120.119C177.634 118.507 179.079 115.827 179.079 112.958C179.079 108.875 176.168 105.316 172.169 104.499C171.876 104.437 171.604 104.248 171.436 103.997C171.269 103.746 171.227 103.432 171.29 103.118C171.436 102.489 171.52 101.861 171.52 101.212C171.52 100.417 171.395 99.7884 171.311 99.3697C171.311 99.3697 171.185 98.8672 171.018 98.3856C170.285 96.4384 168.652 95.0984 168.652 95.0984ZM164.087 136.618C163.878 136.827 163.606 136.911 163.313 136.911C162.999 136.911 162.705 136.785 162.475 136.555C160.612 134.545 159.586 131.928 159.586 129.164C159.586 128.536 160.088 128.033 160.716 128.033C161.345 128.033 161.847 128.536 161.847 129.164C161.847 131.341 162.664 133.414 164.129 135.005C164.569 135.466 164.548 136.178 164.087 136.618Z" fill="#1F1F1F"/>
<path d="M121.082 98.4274C120.893 98.909 120.789 99.4115 120.789 99.4115C120.684 99.8093 120.579 100.458 120.579 101.254C120.579 101.882 120.663 102.531 120.81 103.159C120.873 103.452 120.831 103.767 120.663 104.039C120.496 104.29 120.244 104.478 119.93 104.541C115.931 105.358 113.021 108.896 113.021 113C113.021 115.868 114.445 118.548 116.853 120.161C116.873 120.161 116.915 120.202 116.936 120.223C118.067 120.956 119.323 121.417 120.642 121.563C120.454 121.103 120.265 120.642 120.119 120.161C119.093 116.79 119.428 113.23 121.082 110.132C121.375 109.587 122.066 109.378 122.61 109.671C123.155 109.964 123.364 110.655 123.071 111.199C121.71 113.775 121.417 116.727 122.275 119.512C123.134 122.296 125.018 124.578 127.573 125.96C128.117 126.253 128.326 126.944 128.033 127.489C127.824 127.866 127.447 128.096 127.028 128.096C126.84 128.096 126.672 128.054 126.505 127.97C124.62 126.965 123.071 125.563 121.878 123.867C121.794 123.888 121.689 123.908 121.605 123.908C119.721 123.908 117.878 123.427 116.245 122.485C114.193 124.118 113 126.588 113 129.227C113 133.309 115.91 136.869 119.909 137.664C119.951 137.664 120.098 137.706 120.14 137.706C120.621 137.79 121.124 137.832 121.626 137.832C122.568 137.832 123.49 137.685 124.369 137.392C124.955 137.204 125.604 137.518 125.793 138.104C125.981 138.69 125.667 139.339 125.081 139.528C123.971 139.905 122.82 140.093 121.626 140.093C121.291 140.093 120.935 140.072 120.6 140.051C120.558 140.344 120.558 140.638 120.558 140.952C120.558 145.328 124.118 148.887 128.494 148.887C128.745 148.887 129.289 148.845 129.289 148.845C131.258 148.657 133.058 147.735 134.377 146.27C134.796 145.809 135.508 145.767 135.968 146.186C136.429 146.605 136.471 147.317 136.052 147.777C134.628 149.348 132.786 150.415 130.776 150.876C131.739 153.744 134.44 155.734 137.56 155.734C141.517 155.734 144.741 152.509 144.741 148.552V144.616C144.26 144.72 143.778 144.804 143.276 144.825C143.15 144.825 143.024 144.825 142.899 144.825C138.669 144.825 135.131 141.496 134.922 137.225C134.901 136.597 135.382 136.073 135.989 136.052C136.618 136.031 137.141 136.513 137.162 137.12C137.308 140.282 139.988 142.71 143.15 142.564C143.694 142.543 144.218 142.438 144.72 142.271V119.867C143.946 120.537 143.024 121.04 142.019 121.375C141.203 121.647 140.344 121.773 139.507 121.773C138.272 121.773 137.036 121.48 135.906 120.914C135.34 120.642 135.131 119.951 135.403 119.407C135.675 118.842 136.366 118.632 136.932 118.904C138.293 119.595 139.863 119.721 141.328 119.239C142.794 118.758 143.988 117.732 144.679 116.371C144.699 116.329 144.72 116.287 144.741 116.245V93.6328C144.741 89.6756 141.517 86.4512 137.56 86.4512C134.44 86.4512 131.739 88.4402 130.776 91.3087C135.11 92.3137 138.355 96.0824 138.669 100.542C140.47 101.003 142.145 102.071 143.297 103.704C143.653 104.206 143.527 104.918 143.024 105.274C142.836 105.421 142.606 105.483 142.375 105.483C142.019 105.483 141.663 105.316 141.454 105.002C139.633 102.406 136.031 101.757 133.435 103.578C132.933 103.934 132.221 103.808 131.865 103.306C131.509 102.803 131.634 102.092 132.137 101.736C133.435 100.835 134.922 100.354 136.387 100.291C135.968 96.7734 133.184 93.8631 129.603 93.3606C129.08 93.2768 128.494 93.2768 128.494 93.2768C125.688 93.2768 123.783 94.8262 123.448 95.0774C123.469 95.0984 121.836 96.4384 121.082 98.4274ZM127.97 135.005C129.457 133.414 130.253 131.32 130.253 129.164C130.253 128.536 130.755 128.033 131.383 128.033C132.011 128.033 132.514 128.536 132.514 129.164C132.514 131.907 131.488 134.524 129.624 136.555C129.394 136.785 129.101 136.911 128.787 136.911C128.515 136.911 128.243 136.806 128.012 136.618C127.573 136.178 127.552 135.466 127.97 135.005Z" fill="#1F1F1F"/>
<path fill-rule="evenodd" clip-rule="evenodd" d="M120.642 82.4311C121.417 82.4311 122.024 83.0592 122.024 83.813C122.045 87.0373 122.087 90.2617 122.108 93.4861C122.652 92.9836 123.657 92.167 125.123 91.6227C126.567 91.0992 127.824 91.0783 128.557 91.1202V83.8339C128.557 83.0592 129.185 82.452 129.938 82.452H131.53L125.29 76.2964L119.051 82.4311H120.642Z" fill="#1F1F1F"/>
<path fill-rule="evenodd" clip-rule="evenodd" d="M173.07 82.431L166.83 76.2754L160.591 82.431H162.182C162.957 82.431 163.564 83.0592 163.564 83.8129V91.0992C164.297 91.0573 165.553 91.0782 166.998 91.6017C168.484 92.146 169.468 92.9417 170.013 93.4651C170.034 90.2407 170.076 87.0164 170.097 83.792C170.097 83.0173 170.725 82.4101 171.478 82.4101H173.07V82.431Z" fill="#1F1F1F"/>
<path fill-rule="evenodd" clip-rule="evenodd" d="M141.433 73.1556C142.208 73.1556 142.815 73.7838 142.815 74.5375C142.815 78.3063 142.815 82.075 142.815 85.8438C143.234 85.9694 143.841 86.1997 144.49 86.6813C145.348 87.3304 145.809 88.105 146.039 88.5238C146.332 88.0213 146.835 87.2675 147.652 86.5766C148.28 86.0532 148.908 85.7182 149.368 85.5088C149.368 81.8447 149.368 78.2016 149.368 74.5375C149.368 73.7628 149.997 73.1556 150.75 73.1556H152.342L146.102 67L139.863 73.1556H141.433Z" fill="#1F1F1F"/>
</g>
<path d="M21.31 34.09C20.602 34.09 19.972 33.946 19.42 33.658C18.868 33.358 18.4 32.956 18.016 32.452C17.632 31.948 17.338 31.378 17.134 30.742C16.942 30.094 16.846 29.428 16.846 28.744C16.846 27.772 17.038 26.836 17.422 25.936C17.818 25.024 18.346 24.208 19.006 23.488C19.678 22.756 20.446 22.18 21.31 21.76C22.174 21.34 23.086 21.13 24.046 21.13C25.21 21.13 26.116 21.388 26.764 21.904C27.412 22.42 27.844 23.092 28.06 23.92L26.944 24.568C26.74 23.788 26.362 23.212 25.81 22.84C25.27 22.456 24.598 22.264 23.794 22.264C23.014 22.264 22.276 22.45 21.58 22.822C20.896 23.182 20.29 23.674 19.762 24.298C19.246 24.91 18.838 25.6 18.538 26.368C18.25 27.124 18.106 27.892 18.106 28.672C18.106 29.452 18.25 30.166 18.538 30.814C18.826 31.462 19.234 31.984 19.762 32.38C20.302 32.764 20.932 32.956 21.652 32.956C22.372 32.956 23.098 32.764 23.83 32.38C24.574 31.984 25.336 31.378 26.116 30.562L25.828 31.894C25.096 32.638 24.352 33.19 23.596 33.55C22.84 33.91 22.078 34.09 21.31 34.09ZM26.314 28.69H23.65L23.848 27.718H27.592L26.26 34H25.18L26.314 28.69ZM30.4994 24.622H31.6514L31.1654 26.872C31.6334 26.2 32.1674 25.66 32.7674 25.252C33.3674 24.844 33.9674 24.628 34.5674 24.604C34.6634 24.604 34.7474 24.61 34.8194 24.622C34.8914 24.622 34.9514 24.628 34.9994 24.64L34.7654 25.702C33.9974 25.726 33.2714 25.954 32.5874 26.386C31.9034 26.818 31.3634 27.412 30.9674 28.168L29.7434 34H28.5194L30.4994 24.622ZM38.3317 34.18C37.5157 34.18 36.8377 34.006 36.2977 33.658C35.7577 33.298 35.3557 32.818 35.0917 32.218C34.8277 31.618 34.6957 30.958 34.6957 30.238C34.6957 29.446 34.8397 28.702 35.1277 28.006C35.4277 27.31 35.8297 26.698 36.3337 26.17C36.8377 25.63 37.4197 25.21 38.0797 24.91C38.7517 24.61 39.4537 24.46 40.1857 24.46C40.9897 24.46 41.6617 24.64 42.2017 25C42.7537 25.36 43.1617 25.84 43.4257 26.44C43.6897 27.028 43.8217 27.688 43.8217 28.42C43.8217 29.212 43.6777 29.956 43.3897 30.652C43.1017 31.348 42.6997 31.96 42.1837 32.488C41.6797 33.016 41.0977 33.43 40.4377 33.73C39.7777 34.03 39.0757 34.18 38.3317 34.18ZM38.5477 33.1C39.0517 33.1 39.5437 32.992 40.0237 32.776C40.5037 32.548 40.9297 32.23 41.3017 31.822C41.6857 31.414 41.9917 30.94 42.2197 30.4C42.4477 29.848 42.5617 29.248 42.5617 28.6C42.5617 28.024 42.4597 27.508 42.2557 27.052C42.0637 26.584 41.7757 26.218 41.3917 25.954C41.0197 25.678 40.5457 25.54 39.9697 25.54C39.4657 25.54 38.9737 25.654 38.4937 25.882C38.0137 26.11 37.5817 26.434 37.1977 26.854C36.8257 27.262 36.5257 27.742 36.2977 28.294C36.0697 28.834 35.9557 29.428 35.9557 30.076C35.9557 30.652 36.0517 31.174 36.2437 31.642C36.4477 32.098 36.7417 32.458 37.1257 32.722C37.5097 32.974 37.9837 33.1 38.5477 33.1ZM45.2196 24.622H46.4796L47.9916 32.866C48.4716 32.302 48.9156 31.72 49.3236 31.12C49.7436 30.508 50.1216 29.902 50.4576 29.302L49.3776 24.622H50.6376L51.3216 27.736C51.5736 27.208 51.8016 26.686 52.0056 26.17C52.2096 25.642 52.3836 25.126 52.5276 24.622H53.6976C53.4816 25.39 53.1996 26.164 52.8516 26.944C52.5156 27.724 52.1256 28.504 51.6816 29.284L52.4556 32.866C52.8756 32.338 53.2716 31.798 53.6436 31.246C54.0156 30.694 54.3576 30.142 54.6696 29.59C54.9936 29.026 55.2876 28.468 55.5516 27.916C55.8276 27.352 56.0676 26.794 56.2716 26.242C56.4876 25.69 56.6676 25.15 56.8116 24.622H57.9996C57.5436 26.182 56.8776 27.748 56.0016 29.32C55.1376 30.892 54.0816 32.452 52.8336 34H51.5196L50.7996 30.688C50.4516 31.252 50.0736 31.81 49.6656 32.362C49.2696 32.914 48.8376 33.46 48.3696 34H47.0556L45.2196 24.622ZM58.7175 32.758C58.7175 32.686 58.7235 32.614 58.7355 32.542C58.7475 32.458 58.7595 32.38 58.7715 32.308L60.1935 25.594H58.9515L59.1675 24.622H60.3915L61.0755 21.454H62.2995L61.6155 24.622H63.6675L63.4515 25.594H61.4175L60.1215 31.696C60.0855 31.828 60.0615 31.93 60.0495 32.002C60.0375 32.074 60.0315 32.14 60.0315 32.2C60.0315 32.464 60.1155 32.662 60.2835 32.794C60.4515 32.914 60.6555 32.974 60.8955 32.974C61.1235 32.974 61.3335 32.944 61.5255 32.884C61.7175 32.824 61.8855 32.764 62.0295 32.704C62.1855 32.644 62.2875 32.596 62.3355 32.56L62.4435 33.55C62.3355 33.61 62.1735 33.688 61.9575 33.784C61.7415 33.88 61.4895 33.958 61.2015 34.018C60.9135 34.078 60.6075 34.108 60.2835 34.108C59.8395 34.108 59.4675 34 59.1675 33.784C58.8675 33.556 58.7175 33.214 58.7175 32.758ZM66.5887 20.86H67.8127L66.5527 26.746C67.0567 26.05 67.6627 25.498 68.3707 25.09C69.0907 24.67 69.8167 24.46 70.5487 24.46C71.0527 24.46 71.4607 24.562 71.7727 24.766C72.0967 24.958 72.3307 25.234 72.4747 25.594C72.6187 25.942 72.6907 26.362 72.6907 26.854C72.6907 27.094 72.6727 27.358 72.6367 27.646C72.6127 27.922 72.5647 28.21 72.4927 28.51L71.3407 34H70.1167L71.2327 28.762C71.2807 28.498 71.3167 28.252 71.3407 28.024C71.3767 27.796 71.3947 27.586 71.3947 27.394C71.3947 26.794 71.2627 26.344 70.9987 26.044C70.7467 25.732 70.3687 25.576 69.8647 25.576C69.4447 25.576 69.0007 25.696 68.5327 25.936C68.0647 26.164 67.6267 26.482 67.2187 26.89C66.8107 27.286 66.4807 27.742 66.2287 28.258L65.0227 34H63.7987L66.5887 20.86ZM30.94 45.436V58H28.42V49.828L25.054 58H23.146L19.762 49.828V58H17.242V45.436H20.104L24.1 54.778L28.096 45.436H30.94ZM34.7095 46.84C34.2655 46.84 33.8935 46.702 33.5935 46.426C33.3055 46.138 33.1615 45.784 33.1615 45.364C33.1615 44.944 33.3055 44.596 33.5935 44.32C33.8935 44.032 34.2655 43.888 34.7095 43.888C35.1535 43.888 35.5195 44.032 35.8075 44.32C36.1075 44.596 36.2575 44.944 36.2575 45.364C36.2575 45.784 36.1075 46.138 35.8075 46.426C35.5195 46.702 35.1535 46.84 34.7095 46.84ZM35.9515 48.028V58H33.4315V48.028H35.9515ZM43.9672 47.884C45.1552 47.884 46.1152 48.262 46.8472 49.018C47.5792 49.762 47.9452 50.806 47.9452 52.15V58H45.4252V52.492C45.4252 51.7 45.2272 51.094 44.8312 50.674C44.4352 50.242 43.8952 50.026 43.2112 50.026C42.5152 50.026 41.9632 50.242 41.5552 50.674C41.1592 51.094 40.9612 51.7 40.9612 52.492V58H38.4412V48.028H40.9612V49.27C41.2972 48.838 41.7232 48.502 42.2392 48.262C42.7672 48.01 43.3432 47.884 43.9672 47.884ZM49.6936 52.978C49.6936 51.97 49.8916 51.076 50.2876 50.296C50.6956 49.516 51.2476 48.916 51.9436 48.496C52.6396 48.076 53.4136 47.866 54.2656 47.866C54.9136 47.866 55.5316 48.01 56.1196 48.298C56.7076 48.574 57.1756 48.946 57.5236 49.414V44.68H60.0796V58H57.5236V56.524C57.2116 57.016 56.7736 57.412 56.2096 57.712C55.6456 58.012 54.9916 58.162 54.2476 58.162C53.4076 58.162 52.6396 57.946 51.9436 57.514C51.2476 57.082 50.6956 56.476 50.2876 55.696C49.8916 54.904 49.6936 53.998 49.6936 52.978ZM57.5416 53.014C57.5416 52.402 57.4216 51.88 57.1816 51.448C56.9416 51.004 56.6176 50.668 56.2096 50.44C55.8016 50.2 55.3636 50.08 54.8956 50.08C54.4276 50.08 53.9956 50.194 53.5996 50.422C53.2036 50.65 52.8796 50.986 52.6276 51.43C52.3876 51.862 52.2676 52.378 52.2676 52.978C52.2676 53.578 52.3876 54.106 52.6276 54.562C52.8796 55.006 53.2036 55.348 53.5996 55.588C54.0076 55.828 54.4396 55.948 54.8956 55.948C55.3636 55.948 55.8016 55.834 56.2096 55.606C56.6176 55.366 56.9416 55.03 57.1816 54.598C57.4216 54.154 57.5416 53.626 57.5416 53.014ZM66.3568 58.162C65.5408 58.162 64.8088 58.018 64.1608 57.73C63.5128 57.43 62.9968 57.028 62.6128 56.524C62.2408 56.02 62.0368 55.462 62.0008 54.85H64.5388C64.5868 55.234 64.7728 55.552 65.0968 55.804C65.4328 56.056 65.8468 56.182 66.3388 56.182C66.8188 56.182 67.1908 56.086 67.4548 55.894C67.7308 55.702 67.8688 55.456 67.8688 55.156C67.8688 54.832 67.7008 54.592 67.3648 54.436C67.0408 54.268 66.5188 54.088 65.7988 53.896C65.0548 53.716 64.4428 53.53 63.9628 53.338C63.4948 53.146 63.0868 52.852 62.7388 52.456C62.4028 52.06 62.2348 51.526 62.2348 50.854C62.2348 50.302 62.3908 49.798 62.7028 49.342C63.0268 48.886 63.4828 48.526 64.0708 48.262C64.6708 47.998 65.3728 47.866 66.1768 47.866C67.3648 47.866 68.3128 48.166 69.0208 48.766C69.7288 49.354 70.1188 50.152 70.1908 51.16H67.7788C67.7428 50.764 67.5748 50.452 67.2748 50.224C66.9868 49.984 66.5968 49.864 66.1048 49.864C65.6488 49.864 65.2948 49.948 65.0428 50.116C64.8028 50.284 64.6828 50.518 64.6828 50.818C64.6828 51.154 64.8508 51.412 65.1868 51.592C65.5228 51.76 66.0448 51.934 66.7528 52.114C67.4728 52.294 68.0668 52.48 68.5348 52.672C69.0028 52.864 69.4048 53.164 69.7408 53.572C70.0888 53.968 70.2688 54.496 70.2808 55.156C70.2808 55.732 70.1188 56.248 69.7948 56.704C69.4828 57.16 69.0268 57.52 68.4268 57.784C67.8388 58.036 67.1488 58.162 66.3568 58.162ZM81.6194 52.798C81.6194 53.158 81.5954 53.482 81.5474 53.77H74.2574C74.3174 54.49 74.5694 55.054 75.0134 55.462C75.4574 55.87 76.0034 56.074 76.6514 56.074C77.5874 56.074 78.2534 55.672 78.6494 54.868H81.3674C81.0794 55.828 80.5274 56.62 79.7114 57.244C78.8954 57.856 77.8934 58.162 76.7054 58.162C75.7454 58.162 74.8814 57.952 74.1134 57.532C73.3574 57.1 72.7634 56.494 72.3314 55.714C71.9114 54.934 71.7014 54.034 71.7014 53.014C71.7014 51.982 71.9114 51.076 72.3314 50.296C72.7514 49.516 73.3394 48.916 74.0954 48.496C74.8514 48.076 75.7214 47.866 76.7054 47.866C77.6534 47.866 78.4994 48.07 79.2434 48.478C79.9994 48.886 80.5814 49.468 80.9894 50.224C81.4094 50.968 81.6194 51.826 81.6194 52.798ZM79.0094 52.078C78.9974 51.43 78.7634 50.914 78.3074 50.53C77.8514 50.134 77.2934 49.936 76.6334 49.936C76.0094 49.936 75.4814 50.128 75.0494 50.512C74.6294 50.884 74.3714 51.406 74.2754 52.078H79.0094ZM86.3928 50.098V54.922C86.3928 55.258 86.4708 55.504 86.6268 55.66C86.7948 55.804 87.0708 55.876 87.4548 55.876H88.6248V58H87.0408C84.9168 58 83.8548 56.968 83.8548 54.904V50.098H82.6668V48.028H83.8548V45.562H86.3928V48.028H88.6248V50.098H86.3928Z" fill="#1F1F1F"/>
<path d="M146.807 33.2817C147.146 32.9424 147.704 32.9424 148.043 33.2817L153.477 38.7144C153.948 39.1858 154.217 39.8244 154.217 40.4995C154.217 41.1717 153.958 41.8102 153.476 42.2837L153.477 42.2847L148.037 47.7241C147.871 47.8791 147.654 47.9751 147.425 47.9751C147.204 47.9751 146.981 47.8925 146.807 47.7183C146.468 47.379 146.468 46.8203 146.807 46.481L152.24 41.0483C152.542 40.746 152.542 40.254 152.24 39.9517L146.807 34.5181C146.468 34.1788 146.468 33.621 146.807 33.2817Z" fill="#1F1F1F" stroke="#1F1F1F" stroke-width="0.5"/>
<path opacity="0.75" d="M17.68 113.26H20.12V114H16.77V107.03H17.68V113.26ZM20.7464 111.24C20.7464 110.68 20.8597 110.19 21.0864 109.77C21.3131 109.343 21.6231 109.013 22.0164 108.78C22.4164 108.547 22.8597 108.43 23.3464 108.43C23.8264 108.43 24.2431 108.533 24.5964 108.74C24.9497 108.947 25.2131 109.207 25.3864 109.52V108.52H26.3064V114H25.3864V112.98C25.2064 113.3 24.9364 113.567 24.5764 113.78C24.2231 113.987 23.8097 114.09 23.3364 114.09C22.8497 114.09 22.4097 113.97 22.0164 113.73C21.6231 113.49 21.3131 113.153 21.0864 112.72C20.8597 112.287 20.7464 111.793 20.7464 111.24ZM25.3864 111.25C25.3864 110.837 25.3031 110.477 25.1364 110.17C24.9697 109.863 24.7431 109.63 24.4564 109.47C24.1764 109.303 23.8664 109.22 23.5264 109.22C23.1864 109.22 22.8764 109.3 22.5964 109.46C22.3164 109.62 22.0931 109.853 21.9264 110.16C21.7597 110.467 21.6764 110.827 21.6764 111.24C21.6764 111.66 21.7597 112.027 21.9264 112.34C22.0931 112.647 22.3164 112.883 22.5964 113.05C22.8764 113.21 23.1864 113.29 23.5264 113.29C23.8664 113.29 24.1764 113.21 24.4564 113.05C24.7431 112.883 24.9697 112.647 25.1364 112.34C25.3031 112.027 25.3864 111.663 25.3864 111.25ZM29.7842 114.09C29.3642 114.09 28.9876 114.02 28.6542 113.88C28.3209 113.733 28.0576 113.533 27.8642 113.28C27.6709 113.02 27.5642 112.723 27.5442 112.39H28.4842C28.5109 112.663 28.6376 112.887 28.8642 113.06C29.0976 113.233 29.4009 113.32 29.7742 113.32C30.1209 113.32 30.3942 113.243 30.5942 113.09C30.7942 112.937 30.8942 112.743 30.8942 112.51C30.8942 112.27 30.7876 112.093 30.5742 111.98C30.3609 111.86 30.0309 111.743 29.5842 111.63C29.1776 111.523 28.8442 111.417 28.5842 111.31C28.3309 111.197 28.1109 111.033 27.9242 110.82C27.7442 110.6 27.6542 110.313 27.6542 109.96C27.6542 109.68 27.7376 109.423 27.9042 109.19C28.0709 108.957 28.3076 108.773 28.6142 108.64C28.9209 108.5 29.2709 108.43 29.6642 108.43C30.2709 108.43 30.7609 108.583 31.1342 108.89C31.5076 109.197 31.7076 109.617 31.7342 110.15H30.8242C30.8042 109.863 30.6876 109.633 30.4742 109.46C30.2676 109.287 29.9876 109.2 29.6342 109.2C29.3076 109.2 29.0476 109.27 28.8542 109.41C28.6609 109.55 28.5642 109.733 28.5642 109.96C28.5642 110.14 28.6209 110.29 28.7342 110.41C28.8542 110.523 29.0009 110.617 29.1742 110.69C29.3542 110.757 29.6009 110.833 29.9142 110.92C30.3076 111.027 30.6276 111.133 30.8742 111.24C31.1209 111.34 31.3309 111.493 31.5042 111.7C31.6842 111.907 31.7776 112.177 31.7842 112.51C31.7842 112.81 31.7009 113.08 31.5342 113.32C31.3676 113.56 31.1309 113.75 30.8242 113.89C30.5242 114.023 30.1776 114.09 29.7842 114.09ZM34.1788 109.27V112.5C34.1788 112.767 34.2355 112.957 34.3488 113.07C34.4622 113.177 34.6588 113.23 34.9388 113.23H35.6088V114H34.7888C34.2822 114 33.9022 113.883 33.6488 113.65C33.3955 113.417 33.2688 113.033 33.2688 112.5V109.27H32.5588V108.52H33.2688V107.14H34.1788V108.52H35.6088V109.27H34.1788ZM41.5474 107.03C42.3074 107.03 42.9641 107.173 43.5174 107.46C44.0774 107.74 44.5041 108.143 44.7974 108.67C45.0974 109.197 45.2474 109.817 45.2474 110.53C45.2474 111.243 45.0974 111.863 44.7974 112.39C44.5041 112.91 44.0774 113.31 43.5174 113.59C42.9641 113.863 42.3074 114 41.5474 114H39.3774V107.03H41.5474ZM41.5474 113.25C42.4474 113.25 43.1341 113.013 43.6074 112.54C44.0808 112.06 44.3174 111.39 44.3174 110.53C44.3174 109.663 44.0774 108.987 43.5974 108.5C43.1241 108.013 42.4408 107.77 41.5474 107.77H40.2874V113.25H41.5474ZM48.8377 114.09C48.3244 114.09 47.8577 113.973 47.4377 113.74C47.0244 113.507 46.6977 113.177 46.4577 112.75C46.2244 112.317 46.1077 111.817 46.1077 111.25C46.1077 110.69 46.2277 110.197 46.4677 109.77C46.7144 109.337 47.0477 109.007 47.4677 108.78C47.8877 108.547 48.3577 108.43 48.8777 108.43C49.3977 108.43 49.8677 108.547 50.2877 108.78C50.7077 109.007 51.0377 109.333 51.2777 109.76C51.5244 110.187 51.6477 110.683 51.6477 111.25C51.6477 111.817 51.5211 112.317 51.2677 112.75C51.0211 113.177 50.6844 113.507 50.2577 113.74C49.8311 113.973 49.3577 114.09 48.8377 114.09ZM48.8377 113.29C49.1644 113.29 49.4711 113.213 49.7577 113.06C50.0444 112.907 50.2744 112.677 50.4477 112.37C50.6277 112.063 50.7177 111.69 50.7177 111.25C50.7177 110.81 50.6311 110.437 50.4577 110.13C50.2844 109.823 50.0577 109.597 49.7777 109.45C49.4977 109.297 49.1944 109.22 48.8677 109.22C48.5344 109.22 48.2277 109.297 47.9477 109.45C47.6744 109.597 47.4544 109.823 47.2877 110.13C47.1211 110.437 47.0377 110.81 47.0377 111.25C47.0377 111.697 47.1177 112.073 47.2777 112.38C47.4444 112.687 47.6644 112.917 47.9377 113.07C48.2111 113.217 48.5111 113.29 48.8377 113.29ZM55.5142 108.42C56.1809 108.42 56.7209 108.623 57.1342 109.03C57.5476 109.43 57.7542 110.01 57.7542 110.77V114H56.8542V110.9C56.8542 110.353 56.7176 109.937 56.4442 109.65C56.1709 109.357 55.7976 109.21 55.3242 109.21C54.8442 109.21 54.4609 109.36 54.1742 109.66C53.8942 109.96 53.7542 110.397 53.7542 110.97V114H52.8442V108.52H53.7542V109.3C53.9342 109.02 54.1776 108.803 54.4842 108.65C54.7976 108.497 55.1409 108.42 55.5142 108.42ZM64.2407 111.05C64.2407 111.223 64.2307 111.407 64.2107 111.6H59.8307C59.864 112.14 60.0474 112.563 60.3807 112.87C60.7207 113.17 61.1307 113.32 61.6107 113.32C62.004 113.32 62.3307 113.23 62.5907 113.05C62.8574 112.863 63.044 112.617 63.1507 112.31H64.1307C63.984 112.837 63.6907 113.267 63.2507 113.6C62.8107 113.927 62.264 114.09 61.6107 114.09C61.0907 114.09 60.624 113.973 60.2107 113.74C59.804 113.507 59.484 113.177 59.2507 112.75C59.0174 112.317 58.9007 111.817 58.9007 111.25C58.9007 110.683 59.014 110.187 59.2407 109.76C59.4674 109.333 59.784 109.007 60.1907 108.78C60.604 108.547 61.0774 108.43 61.6107 108.43C62.1307 108.43 62.5907 108.543 62.9907 108.77C63.3907 108.997 63.6974 109.31 63.9107 109.71C64.1307 110.103 64.2407 110.55 64.2407 111.05ZM63.3007 110.86C63.3007 110.513 63.224 110.217 63.0707 109.97C62.9174 109.717 62.7074 109.527 62.4407 109.4C62.1807 109.267 61.8907 109.2 61.5707 109.2C61.1107 109.2 60.7174 109.347 60.3907 109.64C60.0707 109.933 59.8874 110.34 59.8407 110.86H63.3007ZM75.1779 107.08V114H74.2679V108.84L71.9679 114H71.3279L69.0179 108.83V114H68.1079V107.08H69.0879L71.6479 112.8L74.2079 107.08H75.1779ZM76.3812 111.24C76.3812 110.68 76.4945 110.19 76.7212 109.77C76.9478 109.343 77.2578 109.013 77.6512 108.78C78.0512 108.547 78.4945 108.43 78.9812 108.43C79.4612 108.43 79.8778 108.533 80.2312 108.74C80.5845 108.947 80.8478 109.207 81.0212 109.52V108.52H81.9412V114H81.0212V112.98C80.8412 113.3 80.5712 113.567 80.2112 113.78C79.8578 113.987 79.4445 114.09 78.9712 114.09C78.4845 114.09 78.0445 113.97 77.6512 113.73C77.2578 113.49 76.9478 113.153 76.7212 112.72C76.4945 112.287 76.3812 111.793 76.3812 111.24ZM81.0212 111.25C81.0212 110.837 80.9378 110.477 80.7712 110.17C80.6045 109.863 80.3778 109.63 80.0912 109.47C79.8112 109.303 79.5012 109.22 79.1612 109.22C78.8212 109.22 78.5112 109.3 78.2312 109.46C77.9512 109.62 77.7278 109.853 77.5612 110.16C77.3945 110.467 77.3112 110.827 77.3112 111.24C77.3112 111.66 77.3945 112.027 77.5612 112.34C77.7278 112.647 77.9512 112.883 78.2312 113.05C78.5112 113.21 78.8212 113.29 79.1612 113.29C79.5012 113.29 79.8112 113.21 80.0912 113.05C80.3778 112.883 80.6045 112.647 80.7712 112.34C80.9378 112.027 81.0212 111.663 81.0212 111.25ZM84.389 109.41C84.549 109.097 84.7757 108.853 85.069 108.68C85.369 108.507 85.7323 108.42 86.159 108.42V109.36H85.919C84.899 109.36 84.389 109.913 84.389 111.02V114H83.479V108.52H84.389V109.41ZM89.4855 107.6V106.77H91.3655V114H90.4455V107.6H89.4855Z" fill="#1F1F1F"/>
</svg>
