<svg width="177" height="132" viewBox="0 0 177 132" fill="none" xmlns="http://www.w3.org/2000/svg">
<rect width="177" height="132" rx="15" fill="white"/>
<mask id="mask0_53_4602" style="mask-type:alpha" maskUnits="userSpaceOnUse" x="0" y="0" width="177" height="132">
<rect width="177" height="132" rx="15" fill="white"/>
</mask>
<g mask="url(#mask0_53_4602)">
<path d="M18.75 34C18.75 41.9416 25.2533 48.4 33.25 48.4C39.6336 48.4 45.0022 44.2564 46.9344 38.5576L54.9964 33.91L55 34C55 45.9304 45.2632 55.6 33.25 55.6C21.2368 55.6 11.5 45.9304 11.5 34C11.5 22.0696 21.2368 12.4 33.25 12.4C37.1795 12.4 40.8553 13.4512 44.0344 15.2584L36.0231 19.8772C35.1241 19.7044 34.1997 19.6 33.25 19.6C25.2533 19.6 18.75 26.0584 18.75 34ZM33.25 26.8C29.2444 26.8 26 30.0256 26 34C26 37.9744 29.2444 41.2 33.25 41.2C37.2556 41.2 40.5 37.9744 40.5 34L40.4928 33.946L52.6727 26.926C56.2107 24.892 62.4747 25.7164 66.1251 27.4984L84 17.1916L72.5522 11.5432L73.1649 -1.532L55.2393 8.8C54.9855 12.8356 52.5785 18.6496 49.0586 20.6836L36.7952 27.754C35.744 27.1672 34.5441 26.8 33.25 26.8ZM62.2319 33.6796L62.25 34C62.25 49.8796 49.2399 62.8 33.25 62.8C17.2601 62.8 4.25 49.8796 4.25 34C4.25 18.1204 17.2601 5.2 33.25 5.2C38.5969 5.2 43.5921 6.6688 47.8986 9.1852C49.1094 7.0756 49.4501 3.6268 48.4279 1.3372C43.806 -0.7832 38.6766 -2 33.25 -2C13.2291 -2 -3 14.1172 -3 34C-3 53.8828 13.2291 70 33.25 70C52.2196 70 67.7636 55.5244 69.3441 37.0888C68.253 35.35 65.4799 33.2692 62.2319 33.6796Z" fill="#1F1F1F"/>
</g>
<path d="M147.807 21.7817C148.146 21.4424 148.704 21.4424 149.043 21.7817L154.477 27.2144C154.948 27.6858 155.217 28.3244 155.217 28.9995C155.217 29.6717 154.958 30.3102 154.476 30.7837L154.477 30.7847L149.037 36.2241C148.871 36.3791 148.654 36.4751 148.425 36.4751C148.204 36.4751 147.981 36.3925 147.807 36.2183C147.468 35.879 147.468 35.3203 147.807 34.981L153.24 29.5483C153.542 29.246 153.542 28.754 153.24 28.4517L147.807 23.0181C147.468 22.6788 147.468 22.121 147.807 21.7817Z" fill="#1F1F1F" stroke="#1F1F1F" stroke-width="0.5"/>
<path d="M134.665 65.108C133.717 65.108 132.865 64.958 132.109 64.658C131.365 64.346 130.705 63.878 130.129 63.254L130.975 62.228C131.143 62.456 131.353 62.678 131.605 62.894C131.857 63.098 132.151 63.284 132.487 63.452C132.823 63.62 133.189 63.752 133.585 63.848C133.993 63.944 134.437 63.992 134.917 63.992C135.637 63.992 136.261 63.89 136.789 63.686C137.317 63.482 137.725 63.188 138.013 62.804C138.301 62.408 138.445 61.94 138.445 61.4C138.445 60.944 138.325 60.584 138.085 60.32C137.845 60.056 137.491 59.834 137.023 59.654C136.555 59.474 135.985 59.3 135.313 59.132C134.617 58.94 134.029 58.742 133.549 58.538C133.069 58.322 132.703 58.052 132.451 57.728C132.199 57.392 132.073 56.954 132.073 56.414C132.073 55.754 132.205 55.16 132.469 54.632C132.733 54.104 133.099 53.654 133.567 53.282C134.035 52.91 134.581 52.628 135.205 52.436C135.829 52.232 136.507 52.13 137.239 52.13C137.779 52.13 138.271 52.19 138.715 52.31C139.159 52.418 139.561 52.586 139.921 52.814C140.281 53.03 140.593 53.294 140.857 53.606L140.047 54.614C139.927 54.41 139.765 54.23 139.561 54.074C139.357 53.906 139.123 53.762 138.859 53.642C138.607 53.522 138.325 53.426 138.013 53.354C137.701 53.282 137.365 53.246 137.005 53.246C136.201 53.246 135.535 53.372 135.007 53.624C134.479 53.864 134.083 54.194 133.819 54.614C133.567 55.034 133.441 55.508 133.441 56.036C133.441 56.432 133.543 56.75 133.747 56.99C133.963 57.23 134.281 57.428 134.701 57.584C135.133 57.74 135.673 57.902 136.321 58.07C137.065 58.25 137.695 58.454 138.211 58.682C138.739 58.91 139.141 59.21 139.417 59.582C139.693 59.942 139.831 60.422 139.831 61.022C139.831 61.718 139.693 62.324 139.417 62.84C139.153 63.356 138.787 63.782 138.319 64.118C137.851 64.454 137.299 64.706 136.663 64.874C136.039 65.03 135.373 65.108 134.665 65.108ZM144.942 65.18C144.174 65.18 143.52 65.006 142.98 64.658C142.44 64.298 142.026 63.818 141.738 63.218C141.45 62.618 141.3 61.946 141.288 61.202C141.288 60.458 141.42 59.744 141.684 59.06C141.96 58.376 142.344 57.764 142.836 57.224C143.34 56.684 143.928 56.258 144.6 55.946C145.272 55.622 146.004 55.46 146.796 55.46C147.384 55.46 147.912 55.556 148.38 55.748C148.848 55.94 149.214 56.222 149.478 56.594C149.754 56.966 149.892 57.434 149.892 57.998C149.904 58.946 149.496 59.648 148.668 60.104C147.852 60.548 146.598 60.77 144.906 60.77C144.534 60.77 144.12 60.764 143.664 60.752C143.22 60.728 142.71 60.692 142.134 60.644L142.314 59.78C142.89 59.816 143.382 59.846 143.79 59.87C144.21 59.882 144.6 59.888 144.96 59.888C145.92 59.888 146.676 59.816 147.228 59.672C147.78 59.516 148.176 59.294 148.416 59.006C148.668 58.718 148.788 58.382 148.776 57.998C148.776 57.626 148.68 57.326 148.488 57.098C148.296 56.858 148.044 56.684 147.732 56.576C147.432 56.468 147.09 56.414 146.706 56.414C146.082 56.414 145.512 56.552 144.996 56.828C144.492 57.092 144.054 57.452 143.682 57.908C143.31 58.352 143.022 58.856 142.818 59.42C142.626 59.984 142.53 60.56 142.53 61.148C142.542 61.712 142.644 62.228 142.836 62.696C143.028 63.164 143.316 63.542 143.7 63.83C144.096 64.106 144.582 64.244 145.158 64.244C145.782 64.244 146.364 64.088 146.904 63.776C147.456 63.464 147.888 63.038 148.2 62.498L149.208 62.804C148.932 63.272 148.572 63.686 148.128 64.046C147.684 64.394 147.192 64.67 146.652 64.874C146.112 65.078 145.542 65.18 144.942 65.18ZM152.379 65.108C151.935 65.108 151.587 64.994 151.335 64.766C151.083 64.538 150.957 64.214 150.957 63.794C150.957 63.71 150.963 63.626 150.975 63.542C150.999 63.458 151.017 63.374 151.029 63.29L153.441 51.86H154.665L152.325 62.876C152.313 62.936 152.301 62.99 152.289 63.038C152.289 63.086 152.289 63.14 152.289 63.2C152.289 63.728 152.571 63.992 153.135 63.992C153.267 63.992 153.423 63.974 153.603 63.938C153.795 63.902 153.969 63.854 154.125 63.794L154.089 64.784C153.861 64.88 153.579 64.958 153.243 65.018C152.919 65.078 152.631 65.108 152.379 65.108ZM157.539 56.594H156.315L156.513 55.622H157.755L157.791 55.37C157.947 54.602 158.187 53.942 158.511 53.39C158.847 52.838 159.249 52.418 159.717 52.13C160.185 51.83 160.689 51.68 161.229 51.68C161.577 51.68 161.901 51.734 162.201 51.842C162.513 51.95 162.777 52.094 162.993 52.274L162.435 53.156C162.315 53.024 162.141 52.922 161.913 52.85C161.697 52.778 161.475 52.742 161.247 52.742C160.719 52.742 160.263 52.964 159.879 53.408C159.495 53.852 159.213 54.494 159.033 55.334L158.979 55.622H161.409L161.211 56.594H158.763L156.171 68.816H154.947L157.539 56.594ZM93.0081 78.47V81.62H97.2381V83.618H93.0081V86.948H97.7781V89H90.4881V76.418H97.7781V78.47H93.0081ZM104.64 81.098H102.894V89H100.338V81.098H99.2042V79.028H100.338V78.524C100.338 77.3 100.686 76.4 101.382 75.824C102.078 75.248 103.128 74.978 104.532 75.014V77.138C103.92 77.126 103.494 77.228 103.254 77.444C103.014 77.66 102.894 78.05 102.894 78.614V79.028H104.64V81.098ZM110.845 81.098H109.099V89H106.543V81.098H105.409V79.028H106.543V78.524C106.543 77.3 106.891 76.4 107.587 75.824C108.283 75.248 109.333 74.978 110.737 75.014V77.138C110.125 77.126 109.699 77.228 109.459 77.444C109.219 77.66 109.099 78.05 109.099 78.614V79.028H110.845V81.098ZM113.756 77.84C113.312 77.84 112.94 77.702 112.64 77.426C112.352 77.138 112.208 76.784 112.208 76.364C112.208 75.944 112.352 75.596 112.64 75.32C112.94 75.032 113.312 74.888 113.756 74.888C114.2 74.888 114.566 75.032 114.854 75.32C115.154 75.596 115.304 75.944 115.304 76.364C115.304 76.784 115.154 77.138 114.854 77.426C114.566 77.702 114.2 77.84 113.756 77.84ZM114.998 79.028V89H112.478V79.028H114.998ZM116.84 84.014C116.84 82.982 117.05 82.082 117.47 81.314C117.89 80.534 118.472 79.934 119.216 79.514C119.96 79.082 120.812 78.866 121.772 78.866C123.008 78.866 124.028 79.178 124.832 79.802C125.648 80.414 126.194 81.278 126.47 82.394H123.752C123.608 81.962 123.362 81.626 123.014 81.386C122.678 81.134 122.258 81.008 121.754 81.008C121.034 81.008 120.464 81.272 120.044 81.8C119.624 82.316 119.414 83.054 119.414 84.014C119.414 84.962 119.624 85.7 120.044 86.228C120.464 86.744 121.034 87.002 121.754 87.002C122.774 87.002 123.44 86.546 123.752 85.634H126.47C126.194 86.714 125.648 87.572 124.832 88.208C124.016 88.844 122.996 89.162 121.772 89.162C120.812 89.162 119.96 88.952 119.216 88.532C118.472 88.1 117.89 87.5 117.47 86.732C117.05 85.952 116.84 85.046 116.84 84.014ZM127.668 83.978C127.668 82.97 127.866 82.076 128.262 81.296C128.67 80.516 129.216 79.916 129.9 79.496C130.596 79.076 131.37 78.866 132.222 78.866C132.966 78.866 133.614 79.016 134.166 79.316C134.73 79.616 135.18 79.994 135.516 80.45V79.028H138.054V89H135.516V87.542C135.192 88.01 134.742 88.4 134.166 88.712C133.602 89.012 132.948 89.162 132.204 89.162C131.364 89.162 130.596 88.946 129.9 88.514C129.216 88.082 128.67 87.476 128.262 86.696C127.866 85.904 127.668 84.998 127.668 83.978ZM135.516 84.014C135.516 83.402 135.396 82.88 135.156 82.448C134.916 82.004 134.592 81.668 134.184 81.44C133.776 81.2 133.338 81.08 132.87 81.08C132.402 81.08 131.97 81.194 131.574 81.422C131.178 81.65 130.854 81.986 130.602 82.43C130.362 82.862 130.242 83.378 130.242 83.978C130.242 84.578 130.362 85.106 130.602 85.562C130.854 86.006 131.178 86.348 131.574 86.588C131.982 86.828 132.414 86.948 132.87 86.948C133.338 86.948 133.776 86.834 134.184 86.606C134.592 86.366 134.916 86.03 135.156 85.598C135.396 85.154 135.516 84.626 135.516 84.014ZM139.867 84.014C139.867 82.982 140.077 82.082 140.497 81.314C140.917 80.534 141.499 79.934 142.243 79.514C142.987 79.082 143.839 78.866 144.799 78.866C146.035 78.866 147.055 79.178 147.859 79.802C148.675 80.414 149.221 81.278 149.497 82.394H146.779C146.635 81.962 146.389 81.626 146.041 81.386C145.705 81.134 145.285 81.008 144.781 81.008C144.061 81.008 143.491 81.272 143.071 81.8C142.651 82.316 142.441 83.054 142.441 84.014C142.441 84.962 142.651 85.7 143.071 86.228C143.491 86.744 144.061 87.002 144.781 87.002C145.801 87.002 146.467 86.546 146.779 85.634H149.497C149.221 86.714 148.675 87.572 147.859 88.208C147.043 88.844 146.023 89.162 144.799 89.162C143.839 89.162 142.987 88.952 142.243 88.532C141.499 88.1 140.917 87.5 140.497 86.732C140.077 85.952 139.867 85.046 139.867 84.014ZM160.884 79.028L154.71 93.716H152.028L154.188 88.748L150.192 79.028H153.018L155.592 85.994L158.202 79.028H160.884Z" fill="#1F1F1F"/>
<path opacity="0.75" d="M61.3519 111.26H63.7919V112H60.4419V105.03H61.3519V111.26ZM64.4183 109.24C64.4183 108.68 64.5316 108.19 64.7583 107.77C64.9849 107.343 65.2949 107.013 65.6883 106.78C66.0883 106.547 66.5316 106.43 67.0183 106.43C67.4983 106.43 67.9149 106.533 68.2683 106.74C68.6216 106.947 68.8849 107.207 69.0583 107.52V106.52H69.9783V112H69.0583V110.98C68.8783 111.3 68.6083 111.567 68.2483 111.78C67.8949 111.987 67.4816 112.09 67.0083 112.09C66.5216 112.09 66.0816 111.97 65.6883 111.73C65.2949 111.49 64.9849 111.153 64.7583 110.72C64.5316 110.287 64.4183 109.793 64.4183 109.24ZM69.0583 109.25C69.0583 108.837 68.9749 108.477 68.8083 108.17C68.6416 107.863 68.4149 107.63 68.1283 107.47C67.8483 107.303 67.5383 107.22 67.1983 107.22C66.8583 107.22 66.5483 107.3 66.2683 107.46C65.9883 107.62 65.7649 107.853 65.5983 108.16C65.4316 108.467 65.3483 108.827 65.3483 109.24C65.3483 109.66 65.4316 110.027 65.5983 110.34C65.7649 110.647 65.9883 110.883 66.2683 111.05C66.5483 111.21 66.8583 111.29 67.1983 111.29C67.5383 111.29 67.8483 111.21 68.1283 111.05C68.4149 110.883 68.6416 110.647 68.8083 110.34C68.9749 110.027 69.0583 109.663 69.0583 109.25ZM73.4561 112.09C73.0361 112.09 72.6594 112.02 72.3261 111.88C71.9928 111.733 71.7294 111.533 71.5361 111.28C71.3428 111.02 71.2361 110.723 71.2161 110.39H72.1561C72.1828 110.663 72.3094 110.887 72.5361 111.06C72.7694 111.233 73.0728 111.32 73.4461 111.32C73.7928 111.32 74.0661 111.243 74.2661 111.09C74.4661 110.937 74.5661 110.743 74.5661 110.51C74.5661 110.27 74.4594 110.093 74.2461 109.98C74.0328 109.86 73.7028 109.743 73.2561 109.63C72.8494 109.523 72.5161 109.417 72.2561 109.31C72.0028 109.197 71.7828 109.033 71.5961 108.82C71.4161 108.6 71.3261 108.313 71.3261 107.96C71.3261 107.68 71.4094 107.423 71.5761 107.19C71.7428 106.957 71.9794 106.773 72.2861 106.64C72.5928 106.5 72.9428 106.43 73.3361 106.43C73.9428 106.43 74.4328 106.583 74.8061 106.89C75.1794 107.197 75.3794 107.617 75.4061 108.15H74.4961C74.4761 107.863 74.3594 107.633 74.1461 107.46C73.9394 107.287 73.6594 107.2 73.3061 107.2C72.9794 107.2 72.7194 107.27 72.5261 107.41C72.3328 107.55 72.2361 107.733 72.2361 107.96C72.2361 108.14 72.2928 108.29 72.4061 108.41C72.5261 108.523 72.6728 108.617 72.8461 108.69C73.0261 108.757 73.2728 108.833 73.5861 108.92C73.9794 109.027 74.2994 109.133 74.5461 109.24C74.7928 109.34 75.0028 109.493 75.1761 109.7C75.3561 109.907 75.4494 110.177 75.4561 110.51C75.4561 110.81 75.3728 111.08 75.2061 111.32C75.0394 111.56 74.8028 111.75 74.4961 111.89C74.1961 112.023 73.8494 112.09 73.4561 112.09ZM77.8507 107.27V110.5C77.8507 110.767 77.9074 110.957 78.0207 111.07C78.134 111.177 78.3307 111.23 78.6107 111.23H79.2807V112H78.4607C77.954 112 77.574 111.883 77.3207 111.65C77.0674 111.417 76.9407 111.033 76.9407 110.5V107.27H76.2307V106.52H76.9407V105.14H77.8507V106.52H79.2807V107.27H77.8507ZM85.2193 105.03C85.9793 105.03 86.636 105.173 87.1893 105.46C87.7493 105.74 88.176 106.143 88.4693 106.67C88.7693 107.197 88.9193 107.817 88.9193 108.53C88.9193 109.243 88.7693 109.863 88.4693 110.39C88.176 110.91 87.7493 111.31 87.1893 111.59C86.636 111.863 85.9793 112 85.2193 112H83.0493V105.03H85.2193ZM85.2193 111.25C86.1193 111.25 86.806 111.013 87.2793 110.54C87.7526 110.06 87.9893 109.39 87.9893 108.53C87.9893 107.663 87.7493 106.987 87.2693 106.5C86.796 106.013 86.1126 105.77 85.2193 105.77H83.9593V111.25H85.2193ZM92.5096 112.09C91.9963 112.09 91.5296 111.973 91.1096 111.74C90.6963 111.507 90.3696 111.177 90.1296 110.75C89.8963 110.317 89.7796 109.817 89.7796 109.25C89.7796 108.69 89.8996 108.197 90.1396 107.77C90.3863 107.337 90.7196 107.007 91.1396 106.78C91.5596 106.547 92.0296 106.43 92.5496 106.43C93.0696 106.43 93.5396 106.547 93.9596 106.78C94.3796 107.007 94.7096 107.333 94.9496 107.76C95.1963 108.187 95.3196 108.683 95.3196 109.25C95.3196 109.817 95.1929 110.317 94.9396 110.75C94.6929 111.177 94.3563 111.507 93.9296 111.74C93.5029 111.973 93.0296 112.09 92.5096 112.09ZM92.5096 111.29C92.8363 111.29 93.1429 111.213 93.4296 111.06C93.7163 110.907 93.9463 110.677 94.1196 110.37C94.2996 110.063 94.3896 109.69 94.3896 109.25C94.3896 108.81 94.3029 108.437 94.1296 108.13C93.9563 107.823 93.7296 107.597 93.4496 107.45C93.1696 107.297 92.8663 107.22 92.5396 107.22C92.2063 107.22 91.8996 107.297 91.6196 107.45C91.3463 107.597 91.1263 107.823 90.9596 108.13C90.7929 108.437 90.7096 108.81 90.7096 109.25C90.7096 109.697 90.7896 110.073 90.9496 110.38C91.1163 110.687 91.3363 110.917 91.6096 111.07C91.8829 111.217 92.1829 111.29 92.5096 111.29ZM99.1861 106.42C99.8528 106.42 100.393 106.623 100.806 107.03C101.219 107.43 101.426 108.01 101.426 108.77V112H100.526V108.9C100.526 108.353 100.389 107.937 100.116 107.65C99.8428 107.357 99.4694 107.21 98.9961 107.21C98.5161 107.21 98.1328 107.36 97.8461 107.66C97.5661 107.96 97.4261 108.397 97.4261 108.97V112H96.5161V106.52H97.4261V107.3C97.6061 107.02 97.8494 106.803 98.1561 106.65C98.4694 106.497 98.8128 106.42 99.1861 106.42ZM107.913 109.05C107.913 109.223 107.903 109.407 107.883 109.6H103.503C103.536 110.14 103.719 110.563 104.053 110.87C104.393 111.17 104.803 111.32 105.283 111.32C105.676 111.32 106.003 111.23 106.263 111.05C106.529 110.863 106.716 110.617 106.823 110.31H107.803C107.656 110.837 107.363 111.267 106.923 111.6C106.483 111.927 105.936 112.09 105.283 112.09C104.763 112.09 104.296 111.973 103.883 111.74C103.476 111.507 103.156 111.177 102.923 110.75C102.689 110.317 102.573 109.817 102.573 109.25C102.573 108.683 102.686 108.187 102.913 107.76C103.139 107.333 103.456 107.007 103.863 106.78C104.276 106.547 104.749 106.43 105.283 106.43C105.803 106.43 106.263 106.543 106.663 106.77C107.063 106.997 107.369 107.31 107.583 107.71C107.803 108.103 107.913 108.55 107.913 109.05ZM106.973 108.86C106.973 108.513 106.896 108.217 106.743 107.97C106.589 107.717 106.379 107.527 106.113 107.4C105.853 107.267 105.563 107.2 105.243 107.2C104.783 107.2 104.389 107.347 104.063 107.64C103.743 107.933 103.559 108.34 103.513 108.86H106.973ZM116.66 105.03L114.39 109.37V112H113.48V109.37L111.2 105.03H112.21L113.93 108.56L115.65 105.03H116.66ZM122.62 109.05C122.62 109.223 122.61 109.407 122.59 109.6H118.21C118.243 110.14 118.426 110.563 118.76 110.87C119.1 111.17 119.51 111.32 119.99 111.32C120.383 111.32 120.71 111.23 120.97 111.05C121.236 110.863 121.423 110.617 121.53 110.31H122.51C122.363 110.837 122.07 111.267 121.63 111.6C121.19 111.927 120.643 112.09 119.99 112.09C119.47 112.09 119.003 111.973 118.59 111.74C118.183 111.507 117.863 111.177 117.63 110.75C117.396 110.317 117.28 109.817 117.28 109.25C117.28 108.683 117.393 108.187 117.62 107.76C117.846 107.333 118.163 107.007 118.57 106.78C118.983 106.547 119.456 106.43 119.99 106.43C120.51 106.43 120.97 106.543 121.37 106.77C121.77 106.997 122.076 107.31 122.29 107.71C122.51 108.103 122.62 108.55 122.62 109.05ZM121.68 108.86C121.68 108.513 121.603 108.217 121.45 107.97C121.296 107.717 121.086 107.527 120.82 107.4C120.56 107.267 120.27 107.2 119.95 107.2C119.49 107.2 119.096 107.347 118.77 107.64C118.45 107.933 118.266 108.34 118.22 108.86H121.68ZM125.761 112.09C125.341 112.09 124.964 112.02 124.631 111.88C124.297 111.733 124.034 111.533 123.841 111.28C123.647 111.02 123.541 110.723 123.521 110.39H124.461C124.487 110.663 124.614 110.887 124.841 111.06C125.074 111.233 125.377 111.32 125.751 111.32C126.097 111.32 126.371 111.243 126.571 111.09C126.771 110.937 126.871 110.743 126.871 110.51C126.871 110.27 126.764 110.093 126.551 109.98C126.337 109.86 126.007 109.743 125.561 109.63C125.154 109.523 124.821 109.417 124.561 109.31C124.307 109.197 124.087 109.033 123.901 108.82C123.721 108.6 123.631 108.313 123.631 107.96C123.631 107.68 123.714 107.423 123.881 107.19C124.047 106.957 124.284 106.773 124.591 106.64C124.897 106.5 125.247 106.43 125.641 106.43C126.247 106.43 126.737 106.583 127.111 106.89C127.484 107.197 127.684 107.617 127.711 108.15H126.801C126.781 107.863 126.664 107.633 126.451 107.46C126.244 107.287 125.964 107.2 125.611 107.2C125.284 107.2 125.024 107.27 124.831 107.41C124.637 107.55 124.541 107.733 124.541 107.96C124.541 108.14 124.597 108.29 124.711 108.41C124.831 108.523 124.977 108.617 125.151 108.69C125.331 108.757 125.577 108.833 125.891 108.92C126.284 109.027 126.604 109.133 126.851 109.24C127.097 109.34 127.307 109.493 127.481 109.7C127.661 109.907 127.754 110.177 127.761 110.51C127.761 110.81 127.677 111.08 127.511 111.32C127.344 111.56 127.107 111.75 126.801 111.89C126.501 112.023 126.154 112.09 125.761 112.09ZM130.155 107.27V110.5C130.155 110.767 130.212 110.957 130.325 111.07C130.439 111.177 130.635 111.23 130.915 111.23H131.585V112H130.765C130.259 112 129.879 111.883 129.625 111.65C129.372 111.417 129.245 111.033 129.245 110.5V107.27H128.535V106.52H129.245V105.14H130.155V106.52H131.585V107.27H130.155ZM137.688 109.05C137.688 109.223 137.678 109.407 137.658 109.6H133.278C133.311 110.14 133.495 110.563 133.828 110.87C134.168 111.17 134.578 111.32 135.058 111.32C135.451 111.32 135.778 111.23 136.038 111.05C136.305 110.863 136.491 110.617 136.598 110.31H137.578C137.431 110.837 137.138 111.267 136.698 111.6C136.258 111.927 135.711 112.09 135.058 112.09C134.538 112.09 134.071 111.973 133.658 111.74C133.251 111.507 132.931 111.177 132.698 110.75C132.465 110.317 132.348 109.817 132.348 109.25C132.348 108.683 132.461 108.187 132.688 107.76C132.915 107.333 133.231 107.007 133.638 106.78C134.051 106.547 134.525 106.43 135.058 106.43C135.578 106.43 136.038 106.543 136.438 106.77C136.838 106.997 137.145 107.31 137.358 107.71C137.578 108.103 137.688 108.55 137.688 109.05ZM136.748 108.86C136.748 108.513 136.671 108.217 136.518 107.97C136.365 107.717 136.155 107.527 135.888 107.4C135.628 107.267 135.338 107.2 135.018 107.2C134.558 107.2 134.165 107.347 133.838 107.64C133.518 107.933 133.335 108.34 133.288 108.86H136.748ZM139.799 107.41C139.959 107.097 140.186 106.853 140.479 106.68C140.779 106.507 141.142 106.42 141.569 106.42V107.36H141.329C140.309 107.36 139.799 107.913 139.799 109.02V112H138.889V106.52H139.799V107.41ZM142.28 109.24C142.28 108.68 142.393 108.19 142.62 107.77C142.846 107.343 143.156 107.013 143.55 106.78C143.95 106.547 144.396 106.43 144.89 106.43C145.316 106.43 145.713 106.53 146.08 106.73C146.446 106.923 146.726 107.18 146.92 107.5V104.6H147.84V112H146.92V110.97C146.74 111.297 146.473 111.567 146.12 111.78C145.766 111.987 145.353 112.09 144.88 112.09C144.393 112.09 143.95 111.97 143.55 111.73C143.156 111.49 142.846 111.153 142.62 110.72C142.393 110.287 142.28 109.793 142.28 109.24ZM146.92 109.25C146.92 108.837 146.836 108.477 146.67 108.17C146.503 107.863 146.276 107.63 145.99 107.47C145.71 107.303 145.4 107.22 145.06 107.22C144.72 107.22 144.41 107.3 144.13 107.46C143.85 107.62 143.626 107.853 143.46 108.16C143.293 108.467 143.21 108.827 143.21 109.24C143.21 109.66 143.293 110.027 143.46 110.34C143.626 110.647 143.85 110.883 144.13 111.05C144.41 111.21 144.72 111.29 145.06 111.29C145.4 111.29 145.71 111.21 145.99 111.05C146.276 110.883 146.503 110.647 146.67 110.34C146.836 110.027 146.92 109.663 146.92 109.25ZM149.037 109.24C149.037 108.68 149.151 108.19 149.377 107.77C149.604 107.343 149.914 107.013 150.307 106.78C150.707 106.547 151.151 106.43 151.637 106.43C152.117 106.43 152.534 106.533 152.887 106.74C153.241 106.947 153.504 107.207 153.677 107.52V106.52H154.597V112H153.677V110.98C153.497 111.3 153.227 111.567 152.867 111.78C152.514 111.987 152.101 112.09 151.627 112.09C151.141 112.09 150.701 111.97 150.307 111.73C149.914 111.49 149.604 111.153 149.377 110.72C149.151 110.287 149.037 109.793 149.037 109.24ZM153.677 109.25C153.677 108.837 153.594 108.477 153.427 108.17C153.261 107.863 153.034 107.63 152.747 107.47C152.467 107.303 152.157 107.22 151.817 107.22C151.477 107.22 151.167 107.3 150.887 107.46C150.607 107.62 150.384 107.853 150.217 108.16C150.051 108.467 149.967 108.827 149.967 109.24C149.967 109.66 150.051 110.027 150.217 110.34C150.384 110.647 150.607 110.883 150.887 111.05C151.167 111.21 151.477 111.29 151.817 111.29C152.157 111.29 152.467 111.21 152.747 111.05C153.034 110.883 153.261 110.647 153.427 110.34C153.594 110.027 153.677 109.663 153.677 109.25ZM160.855 106.52L157.555 114.58H156.615L157.695 111.94L155.485 106.52H156.495L158.215 110.96L159.915 106.52H160.855Z" fill="#1F1F1F"/>
</svg>
