<svg width="177" height="132" viewBox="0 0 177 132" fill="none" xmlns="http://www.w3.org/2000/svg">
<rect width="177" height="132" rx="15" fill="white"/>
<mask id="mask0_53_4592" style="mask-type:alpha" maskUnits="userSpaceOnUse" x="0" y="0" width="177" height="132">
<rect width="177" height="132" rx="15" fill="white"/>
</mask>
<g mask="url(#mask0_53_4592)">
<path fill-rule="evenodd" clip-rule="evenodd" d="M45.1363 7.09672C48.8949 2.60589 51.5624 -1.15671 57.261 -1.88495C68.052 -3.34144 77.9942 9.28145 72.5381 21.783C70.9619 25.3028 67.8095 29.5509 64.2933 33.6776C60.4134 38.1684 56.1697 42.6593 53.2598 46.0577L50.9561 48.6066C47.6824 52.2478 42.4688 52.3692 39.0739 48.728L38.3464 47.8783C30.3441 38.8967 17.1282 27.7303 16.7644 13.8937C16.4007 4.18374 23.1905 -2.00632 30.9503 -1.88495C37.7402 -1.76358 40.6501 2.12039 45.1363 7.09672ZM10.3383 3.57688C11.5508 6.48985 7.9134 12.8013 7.42841 15.5929C7.06467 17.5349 6.94342 19.4769 7.06466 21.4188C7.30716 23.8463 7.30716 26.1524 6.45843 27.973C6.21593 28.5799 6.21593 29.1868 6.57968 29.6723C6.70092 29.7936 6.82217 29.915 6.94342 29.915C7.54965 30.2791 8.51963 30.1578 8.88337 29.4295C10.4596 26.8807 10.2171 23.7249 9.9746 21.0547C9.85335 20.2051 9.85335 18.6272 9.7321 17.4135C9.48961 14.986 12.8845 13.8937 13.9758 16.1998V16.3211C14.7032 17.899 15.9157 23.7249 16.5219 27.4875C17.6132 35.0127 15.4307 40.5959 13.2483 44.7226C11.6721 47.6356 5.48845 55.7677 2.09354 57.5883C1.60855 57.831 1.12356 57.9524 0.638569 57.831C-1.30138 57.4669 -6.39376 51.5196 -6.87875 49.699C-7.12125 49.0921 -7 48.3638 -6.51501 47.757C-5.78753 46.786 -3.36259 44.4799 -2.39261 42.2952C-0.695149 38.0471 -1.54388 30.7646 -1.30139 27.3662C-0.937644 22.2685 4.39723 5.27611 6.94342 2.72726C7.79215 1.75627 9.7321 2.12039 10.3383 3.57688ZM84.0566 2.84863C86.6028 5.39749 91.9376 22.2685 92.3014 27.4875C92.5439 31.0074 91.5739 38.1684 93.3926 42.4165C94.3626 44.7226 96.7875 46.9074 97.515 47.8783C98 48.3638 98.1212 49.0921 97.8788 49.8203C97.3938 51.6409 92.1801 57.5883 90.3614 57.9524C89.8764 58.0738 89.3915 57.9524 88.9065 57.7096C85.5116 55.7677 79.3279 47.6356 77.7517 44.844C75.5693 40.8387 73.3868 35.1341 74.4781 27.6089C75.0843 23.8463 76.2968 18.1417 77.0243 16.4425V16.3211C78.1155 14.015 81.5104 15.1074 81.2679 17.5349C81.1467 18.7486 81.0254 20.3265 81.0254 21.1761C80.7829 23.8463 80.5404 27.002 82.1166 29.5509C82.4804 30.1578 83.4504 30.4005 84.0566 30.0364C84.1778 29.915 84.2991 29.915 84.4203 29.7936C84.7841 29.3081 84.7841 28.7013 84.5416 28.0944C83.6928 26.1524 83.6928 23.8463 83.9353 21.5402C84.0566 19.5982 83.9353 17.6562 83.5716 15.7143C82.9654 12.8013 79.3279 6.61122 80.6617 3.69825C81.0254 2.12039 83.0866 1.75627 84.0566 2.84863Z" fill="#1F1F1F"/>
</g>
<path d="M147.807 21.7817C148.146 21.4424 148.704 21.4424 149.043 21.7817L154.477 27.2144C154.948 27.6858 155.217 28.3244 155.217 28.9995C155.217 29.6717 154.958 30.3102 154.476 30.7837L154.477 30.7847L149.037 36.2241C148.871 36.3791 148.654 36.4751 148.425 36.4751C148.204 36.4751 147.981 36.3925 147.807 36.2183C147.468 35.879 147.468 35.3203 147.807 34.981L153.24 29.5483C153.542 29.246 153.542 28.754 153.24 28.4517L147.807 23.0181C147.468 22.6788 147.468 22.121 147.807 21.7817Z" fill="#1F1F1F" stroke="#1F1F1F" stroke-width="0.5"/>
<path d="M134.665 65.108C133.717 65.108 132.865 64.958 132.109 64.658C131.365 64.346 130.705 63.878 130.129 63.254L130.975 62.228C131.143 62.456 131.353 62.678 131.605 62.894C131.857 63.098 132.151 63.284 132.487 63.452C132.823 63.62 133.189 63.752 133.585 63.848C133.993 63.944 134.437 63.992 134.917 63.992C135.637 63.992 136.261 63.89 136.789 63.686C137.317 63.482 137.725 63.188 138.013 62.804C138.301 62.408 138.445 61.94 138.445 61.4C138.445 60.944 138.325 60.584 138.085 60.32C137.845 60.056 137.491 59.834 137.023 59.654C136.555 59.474 135.985 59.3 135.313 59.132C134.617 58.94 134.029 58.742 133.549 58.538C133.069 58.322 132.703 58.052 132.451 57.728C132.199 57.392 132.073 56.954 132.073 56.414C132.073 55.754 132.205 55.16 132.469 54.632C132.733 54.104 133.099 53.654 133.567 53.282C134.035 52.91 134.581 52.628 135.205 52.436C135.829 52.232 136.507 52.13 137.239 52.13C137.779 52.13 138.271 52.19 138.715 52.31C139.159 52.418 139.561 52.586 139.921 52.814C140.281 53.03 140.593 53.294 140.857 53.606L140.047 54.614C139.927 54.41 139.765 54.23 139.561 54.074C139.357 53.906 139.123 53.762 138.859 53.642C138.607 53.522 138.325 53.426 138.013 53.354C137.701 53.282 137.365 53.246 137.005 53.246C136.201 53.246 135.535 53.372 135.007 53.624C134.479 53.864 134.083 54.194 133.819 54.614C133.567 55.034 133.441 55.508 133.441 56.036C133.441 56.432 133.543 56.75 133.747 56.99C133.963 57.23 134.281 57.428 134.701 57.584C135.133 57.74 135.673 57.902 136.321 58.07C137.065 58.25 137.695 58.454 138.211 58.682C138.739 58.91 139.141 59.21 139.417 59.582C139.693 59.942 139.831 60.422 139.831 61.022C139.831 61.718 139.693 62.324 139.417 62.84C139.153 63.356 138.787 63.782 138.319 64.118C137.851 64.454 137.299 64.706 136.663 64.874C136.039 65.03 135.373 65.108 134.665 65.108ZM144.942 65.18C144.174 65.18 143.52 65.006 142.98 64.658C142.44 64.298 142.026 63.818 141.738 63.218C141.45 62.618 141.3 61.946 141.288 61.202C141.288 60.458 141.42 59.744 141.684 59.06C141.96 58.376 142.344 57.764 142.836 57.224C143.34 56.684 143.928 56.258 144.6 55.946C145.272 55.622 146.004 55.46 146.796 55.46C147.384 55.46 147.912 55.556 148.38 55.748C148.848 55.94 149.214 56.222 149.478 56.594C149.754 56.966 149.892 57.434 149.892 57.998C149.904 58.946 149.496 59.648 148.668 60.104C147.852 60.548 146.598 60.77 144.906 60.77C144.534 60.77 144.12 60.764 143.664 60.752C143.22 60.728 142.71 60.692 142.134 60.644L142.314 59.78C142.89 59.816 143.382 59.846 143.79 59.87C144.21 59.882 144.6 59.888 144.96 59.888C145.92 59.888 146.676 59.816 147.228 59.672C147.78 59.516 148.176 59.294 148.416 59.006C148.668 58.718 148.788 58.382 148.776 57.998C148.776 57.626 148.68 57.326 148.488 57.098C148.296 56.858 148.044 56.684 147.732 56.576C147.432 56.468 147.09 56.414 146.706 56.414C146.082 56.414 145.512 56.552 144.996 56.828C144.492 57.092 144.054 57.452 143.682 57.908C143.31 58.352 143.022 58.856 142.818 59.42C142.626 59.984 142.53 60.56 142.53 61.148C142.542 61.712 142.644 62.228 142.836 62.696C143.028 63.164 143.316 63.542 143.7 63.83C144.096 64.106 144.582 64.244 145.158 64.244C145.782 64.244 146.364 64.088 146.904 63.776C147.456 63.464 147.888 63.038 148.2 62.498L149.208 62.804C148.932 63.272 148.572 63.686 148.128 64.046C147.684 64.394 147.192 64.67 146.652 64.874C146.112 65.078 145.542 65.18 144.942 65.18ZM152.379 65.108C151.935 65.108 151.587 64.994 151.335 64.766C151.083 64.538 150.957 64.214 150.957 63.794C150.957 63.71 150.963 63.626 150.975 63.542C150.999 63.458 151.017 63.374 151.029 63.29L153.441 51.86H154.665L152.325 62.876C152.313 62.936 152.301 62.99 152.289 63.038C152.289 63.086 152.289 63.14 152.289 63.2C152.289 63.728 152.571 63.992 153.135 63.992C153.267 63.992 153.423 63.974 153.603 63.938C153.795 63.902 153.969 63.854 154.125 63.794L154.089 64.784C153.861 64.88 153.579 64.958 153.243 65.018C152.919 65.078 152.631 65.108 152.379 65.108ZM157.539 56.594H156.315L156.513 55.622H157.755L157.791 55.37C157.947 54.602 158.187 53.942 158.511 53.39C158.847 52.838 159.249 52.418 159.717 52.13C160.185 51.83 160.689 51.68 161.229 51.68C161.577 51.68 161.901 51.734 162.201 51.842C162.513 51.95 162.777 52.094 162.993 52.274L162.435 53.156C162.315 53.024 162.141 52.922 161.913 52.85C161.697 52.778 161.475 52.742 161.247 52.742C160.719 52.742 160.263 52.964 159.879 53.408C159.495 53.852 159.213 54.494 159.033 55.334L158.979 55.622H161.409L161.211 56.594H158.763L156.171 68.816H154.947L157.539 56.594ZM45.0695 82.7C45.0695 81.464 45.3455 80.36 45.8975 79.388C46.4615 78.404 47.2235 77.642 48.1835 77.102C49.1555 76.55 50.2415 76.274 51.4415 76.274C52.8455 76.274 54.0755 76.634 55.1315 77.354C56.1875 78.074 56.9255 79.07 57.3455 80.342H54.4475C54.1595 79.742 53.7515 79.292 53.2235 78.992C52.7075 78.692 52.1075 78.542 51.4235 78.542C50.6915 78.542 50.0375 78.716 49.4615 79.064C48.8975 79.4 48.4535 79.88 48.1295 80.504C47.8175 81.128 47.6615 81.86 47.6615 82.7C47.6615 83.528 47.8175 84.26 48.1295 84.896C48.4535 85.52 48.8975 86.006 49.4615 86.354C50.0375 86.69 50.6915 86.858 51.4235 86.858C52.1075 86.858 52.7075 86.708 53.2235 86.408C53.7515 86.096 54.1595 85.64 54.4475 85.04H57.3455C56.9255 86.324 56.1875 87.326 55.1315 88.046C54.0875 88.754 52.8575 89.108 51.4415 89.108C50.2415 89.108 49.1555 88.838 48.1835 88.298C47.2235 87.746 46.4615 86.984 45.8975 86.012C45.3455 85.04 45.0695 83.936 45.0695 82.7ZM63.9259 89.162C62.9659 89.162 62.1019 88.952 61.3339 88.532C60.5659 88.1 59.9599 87.494 59.5159 86.714C59.0839 85.934 58.8679 85.034 58.8679 84.014C58.8679 82.994 59.0899 82.094 59.5339 81.314C59.9899 80.534 60.6079 79.934 61.3879 79.514C62.1679 79.082 63.0379 78.866 63.9979 78.866C64.9579 78.866 65.8279 79.082 66.6079 79.514C67.3879 79.934 67.9999 80.534 68.4439 81.314C68.8999 82.094 69.1279 82.994 69.1279 84.014C69.1279 85.034 68.8939 85.934 68.4259 86.714C67.9699 87.494 67.3459 88.1 66.5539 88.532C65.7739 88.952 64.8979 89.162 63.9259 89.162ZM63.9259 86.966C64.3819 86.966 64.8079 86.858 65.2039 86.642C65.6119 86.414 65.9359 86.078 66.1759 85.634C66.4159 85.19 66.5359 84.65 66.5359 84.014C66.5359 83.066 66.2839 82.34 65.7799 81.836C65.2879 81.32 64.6819 81.062 63.9619 81.062C63.2419 81.062 62.6359 81.32 62.1439 81.836C61.6639 82.34 61.4239 83.066 61.4239 84.014C61.4239 84.962 61.6579 85.694 62.1259 86.21C62.6059 86.714 63.2059 86.966 63.9259 86.966ZM83.3604 78.884C84.5844 78.884 85.5684 79.262 86.3124 80.018C87.0684 80.762 87.4464 81.806 87.4464 83.15V89H84.9264V83.492C84.9264 82.712 84.7284 82.118 84.3324 81.71C83.9364 81.29 83.3964 81.08 82.7124 81.08C82.0284 81.08 81.4824 81.29 81.0744 81.71C80.6784 82.118 80.4804 82.712 80.4804 83.492V89H77.9604V83.492C77.9604 82.712 77.7624 82.118 77.3664 81.71C76.9704 81.29 76.4304 81.08 75.7464 81.08C75.0504 81.08 74.4984 81.29 74.0904 81.71C73.6944 82.118 73.4964 82.712 73.4964 83.492V89H70.9764V79.028H73.4964V80.234C73.8204 79.814 74.2344 79.484 74.7384 79.244C75.2544 79.004 75.8184 78.884 76.4304 78.884C77.2104 78.884 77.9064 79.052 78.5184 79.388C79.1304 79.712 79.6044 80.18 79.9404 80.792C80.2644 80.216 80.7324 79.754 81.3444 79.406C81.9684 79.058 82.6404 78.884 83.3604 78.884ZM92.3577 80.468C92.6817 80.012 93.1257 79.634 93.6897 79.334C94.2657 79.022 94.9197 78.866 95.6517 78.866C96.5037 78.866 97.2717 79.076 97.9557 79.496C98.6517 79.916 99.1977 80.516 99.5937 81.296C100.002 82.064 100.206 82.958 100.206 83.978C100.206 84.998 100.002 85.904 99.5937 86.696C99.1977 87.476 98.6517 88.082 97.9557 88.514C97.2717 88.946 96.5037 89.162 95.6517 89.162C94.9197 89.162 94.2717 89.012 93.7077 88.712C93.1557 88.412 92.7057 88.034 92.3577 87.578V93.752H89.8377V79.028H92.3577V80.468ZM97.6317 83.978C97.6317 83.378 97.5057 82.862 97.2537 82.43C97.0137 81.986 96.6897 81.65 96.2817 81.422C95.8857 81.194 95.4537 81.08 94.9857 81.08C94.5297 81.08 94.0977 81.2 93.6897 81.44C93.2937 81.668 92.9697 82.004 92.7177 82.448C92.4777 82.892 92.3577 83.414 92.3577 84.014C92.3577 84.614 92.4777 85.136 92.7177 85.58C92.9697 86.024 93.2937 86.366 93.6897 86.606C94.0977 86.834 94.5297 86.948 94.9857 86.948C95.4537 86.948 95.8857 86.828 96.2817 86.588C96.6897 86.348 97.0137 86.006 97.2537 85.562C97.5057 85.118 97.6317 84.59 97.6317 83.978ZM101.389 83.978C101.389 82.97 101.587 82.076 101.983 81.296C102.391 80.516 102.937 79.916 103.621 79.496C104.317 79.076 105.091 78.866 105.943 78.866C106.687 78.866 107.335 79.016 107.887 79.316C108.451 79.616 108.901 79.994 109.237 80.45V79.028H111.775V89H109.237V87.542C108.913 88.01 108.463 88.4 107.887 88.712C107.323 89.012 106.669 89.162 105.925 89.162C105.085 89.162 104.317 88.946 103.621 88.514C102.937 88.082 102.391 87.476 101.983 86.696C101.587 85.904 101.389 84.998 101.389 83.978ZM109.237 84.014C109.237 83.402 109.117 82.88 108.877 82.448C108.637 82.004 108.313 81.668 107.905 81.44C107.497 81.2 107.059 81.08 106.591 81.08C106.123 81.08 105.691 81.194 105.295 81.422C104.899 81.65 104.575 81.986 104.323 82.43C104.083 82.862 103.963 83.378 103.963 83.978C103.963 84.578 104.083 85.106 104.323 85.562C104.575 86.006 104.899 86.348 105.295 86.588C105.703 86.828 106.135 86.948 106.591 86.948C107.059 86.948 107.497 86.834 107.905 86.606C108.313 86.366 108.637 86.03 108.877 85.598C109.117 85.154 109.237 84.626 109.237 84.014ZM118.052 89.162C117.236 89.162 116.504 89.018 115.856 88.73C115.208 88.43 114.692 88.028 114.308 87.524C113.936 87.02 113.732 86.462 113.696 85.85H116.234C116.282 86.234 116.468 86.552 116.792 86.804C117.128 87.056 117.542 87.182 118.034 87.182C118.514 87.182 118.886 87.086 119.15 86.894C119.426 86.702 119.564 86.456 119.564 86.156C119.564 85.832 119.396 85.592 119.06 85.436C118.736 85.268 118.214 85.088 117.494 84.896C116.75 84.716 116.138 84.53 115.658 84.338C115.19 84.146 114.782 83.852 114.434 83.456C114.098 83.06 113.93 82.526 113.93 81.854C113.93 81.302 114.086 80.798 114.398 80.342C114.722 79.886 115.178 79.526 115.766 79.262C116.366 78.998 117.068 78.866 117.872 78.866C119.06 78.866 120.008 79.166 120.716 79.766C121.424 80.354 121.814 81.152 121.886 82.16H119.474C119.438 81.764 119.27 81.452 118.97 81.224C118.682 80.984 118.292 80.864 117.8 80.864C117.344 80.864 116.99 80.948 116.738 81.116C116.498 81.284 116.378 81.518 116.378 81.818C116.378 82.154 116.546 82.412 116.882 82.592C117.218 82.76 117.74 82.934 118.448 83.114C119.168 83.294 119.762 83.48 120.23 83.672C120.698 83.864 121.1 84.164 121.436 84.572C121.784 84.968 121.964 85.496 121.976 86.156C121.976 86.732 121.814 87.248 121.49 87.704C121.178 88.16 120.722 88.52 120.122 88.784C119.534 89.036 118.844 89.162 118.052 89.162ZM127.861 89.162C127.045 89.162 126.313 89.018 125.665 88.73C125.017 88.43 124.501 88.028 124.117 87.524C123.745 87.02 123.541 86.462 123.505 85.85H126.043C126.091 86.234 126.277 86.552 126.601 86.804C126.937 87.056 127.351 87.182 127.843 87.182C128.323 87.182 128.695 87.086 128.959 86.894C129.235 86.702 129.373 86.456 129.373 86.156C129.373 85.832 129.205 85.592 128.869 85.436C128.545 85.268 128.023 85.088 127.303 84.896C126.559 84.716 125.947 84.53 125.467 84.338C124.999 84.146 124.591 83.852 124.243 83.456C123.907 83.06 123.739 82.526 123.739 81.854C123.739 81.302 123.895 80.798 124.207 80.342C124.531 79.886 124.987 79.526 125.575 79.262C126.175 78.998 126.877 78.866 127.681 78.866C128.869 78.866 129.817 79.166 130.525 79.766C131.233 80.354 131.623 81.152 131.695 82.16H129.283C129.247 81.764 129.079 81.452 128.779 81.224C128.491 80.984 128.101 80.864 127.609 80.864C127.153 80.864 126.799 80.948 126.547 81.116C126.307 81.284 126.187 81.518 126.187 81.818C126.187 82.154 126.355 82.412 126.691 82.592C127.027 82.76 127.549 82.934 128.257 83.114C128.977 83.294 129.571 83.48 130.039 83.672C130.507 83.864 130.909 84.164 131.245 84.572C131.593 84.968 131.773 85.496 131.785 86.156C131.785 86.732 131.623 87.248 131.299 87.704C130.987 88.16 130.531 88.52 129.931 88.784C129.343 89.036 128.653 89.162 127.861 89.162ZM135.131 77.84C134.687 77.84 134.315 77.702 134.015 77.426C133.727 77.138 133.583 76.784 133.583 76.364C133.583 75.944 133.727 75.596 134.015 75.32C134.315 75.032 134.687 74.888 135.131 74.888C135.575 74.888 135.941 75.032 136.229 75.32C136.529 75.596 136.679 75.944 136.679 76.364C136.679 76.784 136.529 77.138 136.229 77.426C135.941 77.702 135.575 77.84 135.131 77.84ZM136.373 79.028V89H133.853V79.028H136.373ZM143.291 89.162C142.331 89.162 141.467 88.952 140.699 88.532C139.931 88.1 139.325 87.494 138.881 86.714C138.449 85.934 138.233 85.034 138.233 84.014C138.233 82.994 138.455 82.094 138.899 81.314C139.355 80.534 139.973 79.934 140.753 79.514C141.533 79.082 142.403 78.866 143.363 78.866C144.323 78.866 145.193 79.082 145.973 79.514C146.753 79.934 147.365 80.534 147.809 81.314C148.265 82.094 148.493 82.994 148.493 84.014C148.493 85.034 148.259 85.934 147.791 86.714C147.335 87.494 146.711 88.1 145.919 88.532C145.139 88.952 144.263 89.162 143.291 89.162ZM143.291 86.966C143.747 86.966 144.173 86.858 144.569 86.642C144.977 86.414 145.301 86.078 145.541 85.634C145.781 85.19 145.901 84.65 145.901 84.014C145.901 83.066 145.649 82.34 145.145 81.836C144.653 81.32 144.047 81.062 143.327 81.062C142.607 81.062 142.001 81.32 141.509 81.836C141.029 82.34 140.789 83.066 140.789 84.014C140.789 84.962 141.023 85.694 141.491 86.21C141.971 86.714 142.571 86.966 143.291 86.966ZM155.868 78.884C157.056 78.884 158.016 79.262 158.748 80.018C159.48 80.762 159.846 81.806 159.846 83.15V89H157.326V83.492C157.326 82.7 157.128 82.094 156.732 81.674C156.336 81.242 155.796 81.026 155.112 81.026C154.416 81.026 153.864 81.242 153.456 81.674C153.06 82.094 152.862 82.7 152.862 83.492V89H150.342V79.028H152.862V80.27C153.198 79.838 153.624 79.502 154.14 79.262C154.668 79.01 155.244 78.884 155.868 78.884Z" fill="#1F1F1F"/>
<path opacity="0.75" d="M80.3851 111.26H82.8251V112H79.4751V105.03H80.3851V111.26ZM83.4515 109.24C83.4515 108.68 83.5648 108.19 83.7915 107.77C84.0182 107.343 84.3282 107.013 84.7215 106.78C85.1215 106.547 85.5648 106.43 86.0515 106.43C86.5315 106.43 86.9482 106.533 87.3015 106.74C87.6548 106.947 87.9182 107.207 88.0915 107.52V106.52H89.0115V112H88.0915V110.98C87.9115 111.3 87.6415 111.567 87.2815 111.78C86.9282 111.987 86.5148 112.09 86.0415 112.09C85.5548 112.09 85.1148 111.97 84.7215 111.73C84.3282 111.49 84.0182 111.153 83.7915 110.72C83.5648 110.287 83.4515 109.793 83.4515 109.24ZM88.0915 109.25C88.0915 108.837 88.0082 108.477 87.8415 108.17C87.6748 107.863 87.4482 107.63 87.1615 107.47C86.8815 107.303 86.5715 107.22 86.2315 107.22C85.8915 107.22 85.5815 107.3 85.3015 107.46C85.0215 107.62 84.7982 107.853 84.6315 108.16C84.4648 108.467 84.3815 108.827 84.3815 109.24C84.3815 109.66 84.4648 110.027 84.6315 110.34C84.7982 110.647 85.0215 110.883 85.3015 111.05C85.5815 111.21 85.8915 111.29 86.2315 111.29C86.5715 111.29 86.8815 111.21 87.1615 111.05C87.4482 110.883 87.6748 110.647 87.8415 110.34C88.0082 110.027 88.0915 109.663 88.0915 109.25ZM92.4893 112.09C92.0693 112.09 91.6926 112.02 91.3593 111.88C91.026 111.733 90.7626 111.533 90.5693 111.28C90.376 111.02 90.2693 110.723 90.2493 110.39H91.1893C91.216 110.663 91.3426 110.887 91.5693 111.06C91.8026 111.233 92.106 111.32 92.4793 111.32C92.826 111.32 93.0993 111.243 93.2993 111.09C93.4993 110.937 93.5993 110.743 93.5993 110.51C93.5993 110.27 93.4926 110.093 93.2793 109.98C93.066 109.86 92.736 109.743 92.2893 109.63C91.8826 109.523 91.5493 109.417 91.2893 109.31C91.036 109.197 90.816 109.033 90.6293 108.82C90.4493 108.6 90.3593 108.313 90.3593 107.96C90.3593 107.68 90.4426 107.423 90.6093 107.19C90.776 106.957 91.0126 106.773 91.3193 106.64C91.626 106.5 91.976 106.43 92.3693 106.43C92.976 106.43 93.466 106.583 93.8393 106.89C94.2126 107.197 94.4126 107.617 94.4393 108.15H93.5293C93.5093 107.863 93.3926 107.633 93.1793 107.46C92.9726 107.287 92.6926 107.2 92.3393 107.2C92.0126 107.2 91.7526 107.27 91.5593 107.41C91.366 107.55 91.2693 107.733 91.2693 107.96C91.2693 108.14 91.326 108.29 91.4393 108.41C91.5593 108.523 91.706 108.617 91.8793 108.69C92.0593 108.757 92.306 108.833 92.6193 108.92C93.0126 109.027 93.3326 109.133 93.5793 109.24C93.826 109.34 94.036 109.493 94.2093 109.7C94.3893 109.907 94.4826 110.177 94.4893 110.51C94.4893 110.81 94.406 111.08 94.2393 111.32C94.0726 111.56 93.836 111.75 93.5293 111.89C93.2293 112.023 92.8826 112.09 92.4893 112.09ZM96.8839 107.27V110.5C96.8839 110.767 96.9406 110.957 97.0539 111.07C97.1672 111.177 97.3639 111.23 97.6439 111.23H98.3139V112H97.4939C96.9872 112 96.6072 111.883 96.3539 111.65C96.1006 111.417 95.9739 111.033 95.9739 110.5V107.27H95.2639V106.52H95.9739V105.14H96.8839V106.52H98.3139V107.27H96.8839ZM104.252 105.03C105.013 105.03 105.669 105.173 106.223 105.46C106.783 105.74 107.209 106.143 107.503 106.67C107.803 107.197 107.953 107.817 107.953 108.53C107.953 109.243 107.803 109.863 107.503 110.39C107.209 110.91 106.783 111.31 106.223 111.59C105.669 111.863 105.013 112 104.252 112H102.083V105.03H104.252ZM104.252 111.25C105.153 111.25 105.839 111.013 106.312 110.54C106.786 110.06 107.023 109.39 107.023 108.53C107.023 107.663 106.783 106.987 106.303 106.5C105.829 106.013 105.146 105.77 104.252 105.77H102.993V111.25H104.252ZM111.543 112.09C111.029 112.09 110.563 111.973 110.143 111.74C109.729 111.507 109.403 111.177 109.163 110.75C108.929 110.317 108.813 109.817 108.813 109.25C108.813 108.69 108.933 108.197 109.173 107.77C109.419 107.337 109.753 107.007 110.173 106.78C110.593 106.547 111.063 106.43 111.583 106.43C112.103 106.43 112.573 106.547 112.993 106.78C113.413 107.007 113.743 107.333 113.983 107.76C114.229 108.187 114.353 108.683 114.353 109.25C114.353 109.817 114.226 110.317 113.973 110.75C113.726 111.177 113.389 111.507 112.963 111.74C112.536 111.973 112.063 112.09 111.543 112.09ZM111.543 111.29C111.869 111.29 112.176 111.213 112.463 111.06C112.749 110.907 112.979 110.677 113.153 110.37C113.333 110.063 113.423 109.69 113.423 109.25C113.423 108.81 113.336 108.437 113.163 108.13C112.989 107.823 112.763 107.597 112.483 107.45C112.203 107.297 111.899 107.22 111.573 107.22C111.239 107.22 110.933 107.297 110.653 107.45C110.379 107.597 110.159 107.823 109.993 108.13C109.826 108.437 109.743 108.81 109.743 109.25C109.743 109.697 109.823 110.073 109.983 110.38C110.149 110.687 110.369 110.917 110.643 111.07C110.916 111.217 111.216 111.29 111.543 111.29ZM118.219 106.42C118.886 106.42 119.426 106.623 119.839 107.03C120.253 107.43 120.459 108.01 120.459 108.77V112H119.559V108.9C119.559 108.353 119.423 107.937 119.149 107.65C118.876 107.357 118.503 107.21 118.029 107.21C117.549 107.21 117.166 107.36 116.879 107.66C116.599 107.96 116.459 108.397 116.459 108.97V112H115.549V106.52H116.459V107.3C116.639 107.02 116.883 106.803 117.189 106.65C117.503 106.497 117.846 106.42 118.219 106.42ZM126.946 109.05C126.946 109.223 126.936 109.407 126.916 109.6H122.536C122.569 110.14 122.752 110.563 123.086 110.87C123.426 111.17 123.836 111.32 124.316 111.32C124.709 111.32 125.036 111.23 125.296 111.05C125.562 110.863 125.749 110.617 125.856 110.31H126.836C126.689 110.837 126.396 111.267 125.956 111.6C125.516 111.927 124.969 112.09 124.316 112.09C123.796 112.09 123.329 111.973 122.916 111.74C122.509 111.507 122.189 111.177 121.956 110.75C121.722 110.317 121.606 109.817 121.606 109.25C121.606 108.683 121.719 108.187 121.946 107.76C122.172 107.333 122.489 107.007 122.896 106.78C123.309 106.547 123.782 106.43 124.316 106.43C124.836 106.43 125.296 106.543 125.696 106.77C126.096 106.997 126.402 107.31 126.616 107.71C126.836 108.103 126.946 108.55 126.946 109.05ZM126.006 108.86C126.006 108.513 125.929 108.217 125.776 107.97C125.622 107.717 125.412 107.527 125.146 107.4C124.886 107.267 124.596 107.2 124.276 107.2C123.816 107.2 123.422 107.347 123.096 107.64C122.776 107.933 122.592 108.34 122.546 108.86H126.006ZM135.103 105.03V105.77H133.203V112H132.293V105.77H130.383V105.03H135.103ZM138.613 112.09C138.1 112.09 137.633 111.973 137.213 111.74C136.8 111.507 136.473 111.177 136.233 110.75C136 110.317 135.883 109.817 135.883 109.25C135.883 108.69 136.003 108.197 136.243 107.77C136.49 107.337 136.823 107.007 137.243 106.78C137.663 106.547 138.133 106.43 138.653 106.43C139.173 106.43 139.643 106.547 140.063 106.78C140.483 107.007 140.813 107.333 141.053 107.76C141.3 108.187 141.423 108.683 141.423 109.25C141.423 109.817 141.296 110.317 141.043 110.75C140.796 111.177 140.46 111.507 140.033 111.74C139.606 111.973 139.133 112.09 138.613 112.09ZM138.613 111.29C138.94 111.29 139.246 111.213 139.533 111.06C139.82 110.907 140.05 110.677 140.223 110.37C140.403 110.063 140.493 109.69 140.493 109.25C140.493 108.81 140.406 108.437 140.233 108.13C140.06 107.823 139.833 107.597 139.553 107.45C139.273 107.297 138.97 107.22 138.643 107.22C138.31 107.22 138.003 107.297 137.723 107.45C137.45 107.597 137.23 107.823 137.063 108.13C136.896 108.437 136.813 108.81 136.813 109.25C136.813 109.697 136.893 110.073 137.053 110.38C137.22 110.687 137.44 110.917 137.713 111.07C137.986 111.217 138.286 111.29 138.613 111.29ZM142.28 109.24C142.28 108.68 142.393 108.19 142.62 107.77C142.846 107.343 143.156 107.013 143.55 106.78C143.95 106.547 144.396 106.43 144.89 106.43C145.316 106.43 145.713 106.53 146.08 106.73C146.446 106.923 146.726 107.18 146.92 107.5V104.6H147.84V112H146.92V110.97C146.74 111.297 146.473 111.567 146.12 111.78C145.766 111.987 145.353 112.09 144.88 112.09C144.393 112.09 143.95 111.97 143.55 111.73C143.156 111.49 142.846 111.153 142.62 110.72C142.393 110.287 142.28 109.793 142.28 109.24ZM146.92 109.25C146.92 108.837 146.836 108.477 146.67 108.17C146.503 107.863 146.276 107.63 145.99 107.47C145.71 107.303 145.4 107.22 145.06 107.22C144.72 107.22 144.41 107.3 144.13 107.46C143.85 107.62 143.626 107.853 143.46 108.16C143.293 108.467 143.21 108.827 143.21 109.24C143.21 109.66 143.293 110.027 143.46 110.34C143.626 110.647 143.85 110.883 144.13 111.05C144.41 111.21 144.72 111.29 145.06 111.29C145.4 111.29 145.71 111.21 145.99 111.05C146.276 110.883 146.503 110.647 146.67 110.34C146.836 110.027 146.92 109.663 146.92 109.25ZM149.037 109.24C149.037 108.68 149.151 108.19 149.377 107.77C149.604 107.343 149.914 107.013 150.307 106.78C150.707 106.547 151.151 106.43 151.637 106.43C152.117 106.43 152.534 106.533 152.887 106.74C153.241 106.947 153.504 107.207 153.677 107.52V106.52H154.597V112H153.677V110.98C153.497 111.3 153.227 111.567 152.867 111.78C152.514 111.987 152.101 112.09 151.627 112.09C151.141 112.09 150.701 111.97 150.307 111.73C149.914 111.49 149.604 111.153 149.377 110.72C149.151 110.287 149.037 109.793 149.037 109.24ZM153.677 109.25C153.677 108.837 153.594 108.477 153.427 108.17C153.261 107.863 153.034 107.63 152.747 107.47C152.467 107.303 152.157 107.22 151.817 107.22C151.477 107.22 151.167 107.3 150.887 107.46C150.607 107.62 150.384 107.853 150.217 108.16C150.051 108.467 149.967 108.827 149.967 109.24C149.967 109.66 150.051 110.027 150.217 110.34C150.384 110.647 150.607 110.883 150.887 111.05C151.167 111.21 151.477 111.29 151.817 111.29C152.157 111.29 152.467 111.21 152.747 111.05C153.034 110.883 153.261 110.647 153.427 110.34C153.594 110.027 153.677 109.663 153.677 109.25ZM160.855 106.52L157.555 114.58H156.615L157.695 111.94L155.485 106.52H156.495L158.215 110.96L159.915 106.52H160.855Z" fill="#1F1F1F"/>
</svg>
