<svg width="25" height="24" viewBox="0 0 25 24" fill="none" xmlns="http://www.w3.org/2000/svg">
<path d="M21.5 22.75H3.5C3.09 22.75 2.75 22.41 2.75 22C2.75 21.59 3.09 21.25 3.5 21.25H21.5C21.91 21.25 22.25 21.59 22.25 22C22.25 22.41 21.91 22.75 21.5 22.75Z" fill="#1F1F1F"/>
<path d="M6.1 8.38086H4.5C3.95 8.38086 3.5 8.83086 3.5 9.38086V18.0009C3.5 18.5509 3.95 19.0009 4.5 19.0009H6.1C6.65 19.0009 7.1 18.5509 7.1 18.0009V9.38086C7.1 8.82086 6.65 8.38086 6.1 8.38086Z" fill="#1F1F1F"/>
<path d="M13.3 5.18945H11.7C11.15 5.18945 10.7 5.63945 10.7 6.18945V17.9995C10.7 18.5495 11.15 18.9995 11.7 18.9995H13.3C13.85 18.9995 14.3 18.5495 14.3 17.9995V6.18945C14.3 5.63945 13.85 5.18945 13.3 5.18945Z" fill="#1F1F1F"/>
<path d="M20.5 2H18.9C18.35 2 17.9 2.45 17.9 3V18C17.9 18.55 18.35 19 18.9 19H20.5C21.05 19 21.5 18.55 21.5 18V3C21.5 2.45 21.05 2 20.5 2Z" fill="#1F1F1F"/>
</svg>
