<svg width="51" height="51" viewBox="0 0 51 51" fill="none" xmlns="http://www.w3.org/2000/svg">
<path d="M25.8169 9.01506C25.8151 8.24915 25.7085 7.48707 25.5 6.75C35.8506 6.76135 44.2384 15.1662 44.2499 25.5C44.2835 35.8385 35.8553 44.2156 25.5 44.2493C15.1447 44.2828 6.78366 35.8396 6.75 25.5011C9.066 25.9924 11.48 25.4961 13.3123 23.999C15.2004 22.4692 16.2894 20.1653 16.2712 17.7376C16.27 17.1916 16.221 16.6473 16.125 16.1097C18.2455 16.9505 20.6467 16.6752 22.5225 15.3784C24.6034 13.9278 25.8355 11.5488 25.8169 9.01506Z" stroke="#1F1F1F" stroke-width="4" stroke-linecap="round" stroke-linejoin="round"/>
<path d="M6.75407 15.0875V15.0833H6.75V15.0874L6.75407 15.0875Z" stroke="#1F1F1F" stroke-width="4" stroke-linecap="round" stroke-linejoin="round"/>
<path d="M17.1707 6.75417V6.75H17.1667V6.75407L17.1707 6.75417Z" stroke="#1F1F1F" stroke-width="4" stroke-linecap="round" stroke-linejoin="round"/>
<path d="M8.8374 6.75417V6.75H8.83333V6.75407L8.8374 6.75417Z" stroke="#1F1F1F" stroke-width="4" stroke-linecap="round" stroke-linejoin="round"/>
<path d="M21.3374 35.9208V35.9167H21.3333V35.9207L21.3374 35.9208Z" stroke="#1F1F1F" stroke-width="4" stroke-linecap="round" stroke-linejoin="round"/>
<path d="M31.7541 31.7542V31.75H31.75V31.7541L31.7541 31.7542Z" stroke="#1F1F1F" stroke-width="4" stroke-linecap="round" stroke-linejoin="round"/>
<path d="M23.4207 25.5042V25.5H23.4167V25.5041L23.4207 25.5042Z" stroke="#1F1F1F" stroke-width="4" stroke-linecap="round" stroke-linejoin="round"/>
<path d="M33.8374 21.3375V21.3333H33.8333V21.3374L33.8374 21.3375Z" stroke="#1F1F1F" stroke-width="4" stroke-linecap="round" stroke-linejoin="round"/>
<path d="M6.75407 15.0875V15.0833H6.75V15.0874L6.75407 15.0875Z" stroke="#1F1F1F" stroke-width="4" stroke-linecap="round" stroke-linejoin="round"/>
<path d="M17.1707 6.75417V6.75H17.1667V6.75407L17.1707 6.75417Z" stroke="#1F1F1F" stroke-width="4" stroke-linecap="round" stroke-linejoin="round"/>
<path d="M8.8374 6.75417V6.75H8.83333V6.75407L8.8374 6.75417Z" stroke="#1F1F1F" stroke-width="4" stroke-linecap="round" stroke-linejoin="round"/>
</svg>
