<svg width="12" height="12" viewBox="0 0 12 12" fill="none" xmlns="http://www.w3.org/2000/svg">
<path d="M5.35368 1.05395C5.59279 0.479046 6.40721 0.479045 6.64632 1.05395L7.68733 3.55682C7.78813 3.79919 8.01606 3.96479 8.27771 3.98576L10.9798 4.20239C11.6004 4.25214 11.8521 5.0267 11.3792 5.43177L9.32054 7.19525C9.12119 7.36602 9.03413 7.63396 9.09503 7.88929L9.72399 10.526C9.86847 11.1317 9.20959 11.6104 8.67822 11.2858L6.36488 9.87287C6.14087 9.73604 5.85913 9.73604 5.63512 9.87287L3.32178 11.2858C2.79041 11.6104 2.13153 11.1317 2.27601 10.526L2.90497 7.88929C2.96587 7.63396 2.87881 7.36602 2.67946 7.19525L0.620774 5.43177C0.147898 5.0267 0.399566 4.25214 1.02022 4.20239L3.72229 3.98576C3.98394 3.96479 4.21187 3.79919 4.31267 3.55682L5.35368 1.05395Z" fill="#1F1F1F"/>
</svg>
