<svg width="65" height="65" viewBox="0 0 65 65" fill="none" xmlns="http://www.w3.org/2000/svg">
<rect width="65" height="65" rx="32.5" fill="#E9ECEF"/>
<g clip-path="url(#clip0_10_655)">
<path fill-rule="evenodd" clip-rule="evenodd" d="M45 32.5C45 25.5964 39.4036 20 32.5 20C25.5964 20 20 25.5964 20 32.5C20 39.4036 25.5964 45 32.5 45C39.4036 45 45 39.4036 45 32.5ZM36.9803 35.7806C37.1405 35.1854 37.7528 34.8328 38.348 34.9929C38.9432 35.1531 39.2959 35.7655 39.1357 36.3607C38.3482 39.287 35.6775 41.4423 32.5005 41.4423C29.3235 41.4423 26.6527 39.287 25.8652 36.3607C25.7051 35.7655 26.0577 35.1531 26.6529 34.9929C27.2482 34.8328 27.8605 35.1854 28.0207 35.7806C28.5525 37.7569 30.3582 39.2102 32.5005 39.2102C34.6427 39.2102 36.4484 37.7569 36.9803 35.7806ZM37.333 26.9508C39.1048 24.7769 40.9754 26.3215 41 27.9866C41 30.4654 38.0341 32.5 37.333 32.5C36.632 32.5 33.6661 30.4654 33.6661 27.9866C33.6907 26.3215 35.5614 24.7769 37.333 26.9508ZM24.1661 27.9866C24.1907 26.3215 26.0614 24.7769 27.8331 26.9508C29.6048 24.7769 31.4754 26.3215 31.5 27.9866C31.5 30.4654 28.5341 32.5 27.8331 32.5C27.132 32.5 24.1661 30.4654 24.1661 27.9866Z" fill="#1F1F1F"/>
</g>
<defs>
<clipPath id="clip0_10_655">
<rect width="25" height="25" fill="white" transform="translate(20 20)"/>
</clipPath>
</defs>
</svg>
