<svg width="40" height="40" viewBox="0 0 40 40" fill="none" xmlns="http://www.w3.org/2000/svg">
<rect x="0.5" y="0.5" width="39" height="39" rx="19.5" fill="#FFE6E6"/>
<rect x="0.5" y="0.5" width="39" height="39" rx="19.5" stroke="#FF4B4B"/>
<path d="M15.5 15.5V24.35C15.5 25.1901 15.5 25.6098 15.6635 25.9307C15.8073 26.2129 16.0366 26.4429 16.3188 26.5867C16.6394 26.75 17.0592 26.75 17.8977 26.75H22.1023C22.9408 26.75 23.36 26.75 23.6805 26.5867C23.9628 26.4429 24.1929 26.2129 24.3367 25.9307C24.5 25.6101 24.5 25.1908 24.5 24.3523V15.5M15.5 15.5H17M15.5 15.5H14M17 15.5H23M17 15.5C17 14.8011 17 14.4518 17.1142 14.1761C17.2664 13.8086 17.5582 13.5164 17.9258 13.3642C18.2014 13.25 18.5511 13.25 19.25 13.25H20.75C21.4489 13.25 21.7984 13.25 22.074 13.3642C22.4416 13.5164 22.7335 13.8086 22.8857 14.1761C22.9999 14.4518 23 14.8011 23 15.5M23 15.5H24.5M24.5 15.5H26" stroke="#FF4B4B" stroke-width="1.5" stroke-linecap="round" stroke-linejoin="round"/>
</svg>
