<svg width="18" height="19" viewBox="0 0 18 19" fill="none" xmlns="http://www.w3.org/2000/svg">
<path d="M4.5 5V13.85C4.5 14.6901 4.5 15.1098 4.66349 15.4307C4.8073 15.7129 5.0366 15.9429 5.31885 16.0867C5.6394 16.25 6.05925 16.25 6.89768 16.25H11.1023C11.9408 16.25 12.36 16.25 12.6805 16.0867C12.9628 15.9429 13.1929 15.7129 13.3367 15.4307C13.5 15.1101 13.5 14.6908 13.5 13.8523V5M4.5 5H6M4.5 5H3M6 5H12M6 5C6 4.30109 6 3.9518 6.11418 3.67615C6.26642 3.30861 6.55824 3.01642 6.92578 2.86418C7.20144 2.75 7.55109 2.75 8.25 2.75H9.75C10.4489 2.75 10.7984 2.75 11.074 2.86418C11.4416 3.01642 11.7335 3.30861 11.8857 3.67615C11.9999 3.9518 12 4.30109 12 5M12 5H13.5M13.5 5H15" stroke="#FF4B4B" stroke-width="1.5" stroke-linecap="round" stroke-linejoin="round"/>
</svg>
