<svg width="40" height="40" viewBox="0 0 40 40" fill="none" xmlns="http://www.w3.org/2000/svg">
<rect width="40" height="40" rx="20" fill="white"/>
<path d="M20.0002 12.2502C24.2803 12.2503 27.7502 15.7202 27.7502 20.0002C27.7501 24.2803 24.2803 27.7501 20.0002 27.7502C15.7202 27.7502 12.2503 24.2803 12.2502 20.0002C12.2502 15.7201 15.7201 12.2502 20.0002 12.2502Z" stroke="#1F1F1F" stroke-width="1.5" stroke-linecap="round" stroke-linejoin="round"/>
<mask id="path-3-inside-1_113_521" fill="white">
<path d="M16.0769 20H23.9229Z"/>
</mask>
<path d="M16.0769 19C15.5246 19 15.0769 19.4477 15.0769 20C15.0769 20.5523 15.5246 21 16.0769 21V20V19ZM23.9229 21C24.4752 21 24.9229 20.5523 24.9229 20C24.9229 19.4477 24.4752 19 23.9229 19V20V21ZM16.0769 20V21H23.9229V20V19H16.0769V20Z" fill="#1F1F1F" mask="url(#path-3-inside-1_113_521)"/>
</svg>
