<svg width="61" height="30" viewBox="0 0 61 30" fill="none" xmlns="http://www.w3.org/2000/svg">
<rect width="61" height="30" rx="15" fill="white"/>
<path d="M10.268 11.764V14.212H13.148V15.328H10.268V17.884H13.508V19H8.9V10.648H13.508V11.764H10.268ZM14.737 15.664C14.737 15 14.873 14.412 15.145 13.9C15.425 13.388 15.801 12.992 16.273 12.712C16.753 12.424 17.285 12.28 17.869 12.28C18.301 12.28 18.725 12.376 19.141 12.568C19.565 12.752 19.901 13 20.149 13.312V10.12H21.529V19H20.149V18.004C19.925 18.324 19.613 18.588 19.213 18.796C18.821 19.004 18.369 19.108 17.857 19.108C17.281 19.108 16.753 18.964 16.273 18.676C15.801 18.38 15.425 17.972 15.145 17.452C14.873 16.924 14.737 16.328 14.737 15.664ZM20.149 15.688C20.149 15.232 20.053 14.836 19.861 14.5C19.677 14.164 19.433 13.908 19.129 13.732C18.825 13.556 18.497 13.468 18.145 13.468C17.793 13.468 17.465 13.556 17.161 13.732C16.857 13.9 16.609 14.152 16.417 14.488C16.233 14.816 16.141 15.208 16.141 15.664C16.141 16.12 16.233 16.52 16.417 16.864C16.609 17.208 16.857 17.472 17.161 17.656C17.473 17.832 17.801 17.92 18.145 17.92C18.497 17.92 18.825 17.832 19.129 17.656C19.433 17.48 19.677 17.224 19.861 16.888C20.053 16.544 20.149 16.144 20.149 15.688ZM24.0218 11.512C23.7738 11.512 23.5658 11.428 23.3978 11.26C23.2298 11.092 23.1458 10.884 23.1458 10.636C23.1458 10.388 23.2298 10.18 23.3978 10.012C23.5658 9.844 23.7738 9.76 24.0218 9.76C24.2618 9.76 24.4658 9.844 24.6338 10.012C24.8018 10.18 24.8858 10.388 24.8858 10.636C24.8858 10.884 24.8018 11.092 24.6338 11.26C24.4658 11.428 24.2618 11.512 24.0218 11.512ZM24.6938 12.388V19H23.3258V12.388H24.6938ZM28.0858 13.504V17.164C28.0858 17.412 28.1418 17.592 28.2538 17.704C28.3738 17.808 28.5738 17.86 28.8538 17.86H29.6938V19H28.6138C27.9978 19 27.5258 18.856 27.1978 18.568C26.8698 18.28 26.7058 17.812 26.7058 17.164V13.504H25.9258V12.388H26.7058V10.744H28.0858V12.388H29.6938V13.504H28.0858Z" fill="#1F1F1F"/>
<path d="M50.6083 15.875H41.3917C40.5167 15.875 40.1667 16.2483 40.1667 17.1758V19.5325C40.1667 20.46 40.5167 20.8333 41.3917 20.8333H50.6083C51.4833 20.8333 51.8333 20.46 51.8333 19.5325V17.1758C51.8333 16.2483 51.4833 15.875 50.6083 15.875Z" fill="#1F1F1F"/>
<path d="M50.6083 9.16602H41.3917C40.5167 9.16602 40.1667 9.53935 40.1667 10.4668V12.8235C40.1667 13.751 40.5167 14.1243 41.3917 14.1243H50.6083C51.4833 14.1243 51.8333 13.751 51.8333 12.8235V10.4668C51.8333 9.53935 51.4833 9.16602 50.6083 9.16602Z" fill="#1F1F1F"/>
</svg>
