<svg width="17" height="16" viewBox="0 0 17 16" fill="none" xmlns="http://www.w3.org/2000/svg">
<path d="M10.5 15.1673H6.5C2.88 15.1673 1.33334 13.6207 1.33334 10.0007V6.00065C1.33334 2.38065 2.88 0.833984 6.5 0.833984H10.5C14.12 0.833984 15.6667 2.38065 15.6667 6.00065V10.0007C15.6667 13.6207 14.12 15.1673 10.5 15.1673ZM6.5 1.83398C3.42667 1.83398 2.33334 2.92732 2.33334 6.00065V10.0007C2.33334 13.074 3.42667 14.1673 6.5 14.1673H10.5C13.5733 14.1673 14.6667 13.074 14.6667 10.0007V6.00065C14.6667 2.92732 13.5733 1.83398 10.5 1.83398H6.5Z" fill="#1F1F1F"/>
<path d="M10.8333 7C10.0067 7 9.33334 6.32667 9.33334 5.5C9.33334 4.67333 10.0067 4 10.8333 4C11.66 4 12.3333 4.67333 12.3333 5.5C12.3333 6.32667 11.66 7 10.8333 7ZM10.8333 5C10.56 5 10.3333 5.22667 10.3333 5.5C10.3333 5.77333 10.56 6 10.8333 6C11.1067 6 11.3333 5.77333 11.3333 5.5C11.3333 5.22667 11.1067 5 10.8333 5Z" fill="#1F1F1F"/>
<path d="M6.16666 7C5.34 7 4.66666 6.32667 4.66666 5.5C4.66666 4.67333 5.34 4 6.16666 4C6.99333 4 7.66666 4.67333 7.66666 5.5C7.66666 6.32667 6.99333 7 6.16666 7ZM6.16666 5C5.89333 5 5.66666 5.22667 5.66666 5.5C5.66666 5.77333 5.89333 6 6.16666 6C6.44 6 6.66666 5.77333 6.66666 5.5C6.66666 5.22667 6.44 5 6.16666 5Z" fill="#1F1F1F"/>
<path d="M8.5 12.9672C6.56667 12.9672 5 11.3939 5 9.46719C5 8.86052 5.49333 8.36719 6.1 8.36719H10.9C11.5067 8.36719 12 8.86052 12 9.46719C12 11.3939 10.4333 12.9672 8.5 12.9672ZM6.1 9.36719C6.04667 9.36719 6 9.41385 6 9.46719C6 10.8472 7.12 11.9672 8.5 11.9672C9.88 11.9672 11 10.8472 11 9.46719C11 9.41385 10.9533 9.36719 10.9 9.36719H6.1Z" fill="#1F1F1F"/>
</svg>
