<svg width="26" height="26" viewBox="0 0 26 26" fill="none" xmlns="http://www.w3.org/2000/svg">
<g clip-path="url(#clip0_10_1594)">
<path d="M11.7378 18.2211C11.72 18.3917 11.5678 18.5156 11.3972 18.4978C10.6 18.4145 9.88668 18.9933 9.80334 19.79C9.79279 19.8906 9.79279 19.9917 9.80334 20.0917C9.82056 20.2622 9.69723 20.4145 9.52668 20.4322C9.51556 20.4322 9.50556 20.4339 9.4939 20.4339C9.33501 20.4339 9.20223 20.3139 9.18556 20.1561C9.12112 19.5511 9.32723 18.9483 9.7489 18.5095C10.2411 17.6506 9.94334 16.5556 9.08501 16.0639C9.07168 16.0561 9.05834 16.0489 9.04445 16.0417C8.8939 15.9606 8.83723 15.7722 8.91834 15.6217C8.99945 15.4711 9.18779 15.4145 9.33834 15.4956C10.2356 15.9778 10.7322 16.9728 10.5778 17.9795C10.8617 17.8828 11.1628 17.8495 11.4606 17.8806C11.6306 17.8983 11.7545 18.0506 11.7367 18.2206L11.7378 18.2211ZM21.5783 12.8017C21.5328 13.3911 21.3417 13.96 21.0228 14.4583C21.7056 15.7678 21.1983 17.3828 19.8889 18.0656C19.5561 18.2389 19.1906 18.3406 18.8161 18.3639C19.3011 19.7256 18.59 21.2222 17.2283 21.7072C17.185 21.7228 17.1411 21.7372 17.0972 21.75C16.6833 22.5433 15.8517 23.0289 14.9572 22.9989C14.8345 22.9989 14.7111 22.9906 14.5895 22.9733C13.955 22.9033 13.3789 22.5717 12.9995 22.0583C12.6206 22.5711 12.0445 22.9028 11.4106 22.9733C10.5072 23.0989 9.40501 22.765 8.90223 21.7495C7.51668 21.3372 6.72834 19.88 7.14056 18.4945C7.1539 18.4506 7.16779 18.4067 7.18334 18.3633C5.70945 18.2722 4.5889 17.0039 4.68001 15.53C4.70334 15.1556 4.80501 14.7906 4.97834 14.4578C3.91001 12.7895 4.39556 10.5711 6.0639 9.50279C6.15112 9.44668 6.24112 9.39445 6.33334 9.34612C6.32501 9.22668 6.33001 9.10612 6.34779 8.98779C6.4439 8.36723 6.88779 7.85723 7.4889 7.67612C7.06779 6.12945 7.98001 4.53445 9.52668 4.11334C9.63334 4.08445 9.74223 4.06112 9.85168 4.04445C10.5145 2.99779 11.9 2.68612 12.9467 3.34834C12.9645 3.35945 12.9822 3.37112 13 3.38334C14.0272 2.69112 15.4211 2.96279 16.1133 3.99001C16.1256 4.00834 16.1372 4.02612 16.1489 4.04445C17.7333 4.28667 18.8217 5.76779 18.5795 7.35223C18.5628 7.46167 18.54 7.56945 18.5106 7.67612C19.1117 7.85723 19.5556 8.36723 19.6517 8.98779C19.67 9.10612 19.675 9.22668 19.6661 9.34612C20.9345 10.0145 21.6856 11.3717 21.5772 12.8011L21.5783 12.8017ZM14.6917 10.225C13.9472 10.4389 13.455 11.1767 13.3078 12.3022C13.2861 12.4722 13.1306 12.5917 12.9606 12.57C12.8211 12.5522 12.7111 12.4422 12.6928 12.3022C12.5456 11.1767 12.0545 10.4389 11.3089 10.225C11.1622 10.1833 11.0106 10.1628 10.8578 10.1633C10.23 10.1778 9.63945 10.4667 9.24223 10.9533C8.70501 11.605 8.63834 12.4517 9.06001 13.2756C9.30723 13.7595 9.8489 14.1695 10.4756 14.6456C11.2589 15.2395 12.2139 15.9633 13 17.1289C13.7861 15.9639 14.7411 15.24 15.5245 14.6456C16.1517 14.17 16.6933 13.76 16.94 13.2756C17.3611 12.4511 17.2945 11.6045 16.7578 10.9528C16.2395 10.3245 15.3895 10.025 14.6911 10.2256L14.6917 10.225ZM12.69 21.1922V17.7972C11.93 16.5272 10.9589 15.7906 10.1006 15.14C9.41279 14.6189 8.8189 14.1683 8.50723 13.5578C8.42612 13.3995 8.35723 13.2345 8.30223 13.0656C7.86056 12.8095 7.32668 12.7667 6.85001 12.95C6.69057 13.0122 6.51056 12.9339 6.44834 12.7739C6.38612 12.6139 6.46445 12.4345 6.62445 12.3722C6.62612 12.3717 6.62723 12.3711 6.6289 12.3706C7.12112 12.1817 7.6639 12.1672 8.16557 12.33C8.13334 11.685 8.34723 11.0517 8.76445 10.5589C9.20945 10.0139 9.84445 9.65834 10.5411 9.56223C10.5983 9.47279 10.6472 9.37834 10.6872 9.27945C10.8156 8.96279 10.8461 8.61556 10.7745 8.28112C10.3472 8.44779 9.87668 8.46779 9.43668 8.33723C9.27223 8.2889 9.1789 8.11612 9.22723 7.95223C9.27556 7.78834 9.44834 7.69445 9.61223 7.74279C10.3811 7.97001 11.1883 7.53112 11.4156 6.76223C11.4328 6.70445 11.4461 6.64556 11.4556 6.58667C11.4833 6.41779 11.6428 6.30334 11.8122 6.33112C11.9811 6.3589 12.0956 6.51834 12.0678 6.68779C11.9856 7.18668 11.7233 7.63834 11.3306 7.95779C11.4872 8.46779 11.4633 9.01667 11.2622 9.51112C11.2539 9.53223 11.245 9.5539 11.2361 9.5739C11.8267 9.67223 12.3517 10.0067 12.6911 10.5V3.92334C11.9656 3.40167 10.9539 3.56723 10.4322 4.29279C10.0589 4.81279 10.0267 5.5039 10.3506 6.05612C10.4372 6.2039 10.3872 6.3939 10.2395 6.48056C10.0917 6.56723 9.90168 6.51723 9.81501 6.36945C9.52834 5.88223 9.43668 5.30445 9.55945 4.75223C8.36556 5.1539 7.72334 6.44779 8.12501 7.64223C8.14279 7.69556 8.16279 7.74779 8.18445 7.79945C8.25112 7.95723 8.17668 8.1389 8.0189 8.20556C7.98501 8.22001 7.94834 8.22779 7.91168 8.22945C7.35668 8.25334 6.92612 8.72223 6.95001 9.27723C6.96723 9.68501 7.23001 10.0422 7.6139 10.1806C7.77279 10.2445 7.85057 10.4245 7.78668 10.5839C7.72612 10.735 7.5589 10.8139 7.4039 10.7639C7.01112 10.6222 6.68834 10.335 6.50168 9.96112C5.08556 10.79 4.60945 12.6106 5.43834 14.0267C5.83223 14.6995 6.47501 15.1906 7.22779 15.3939C7.39334 15.4389 7.49056 15.6095 7.44556 15.7745C7.4089 15.9095 7.28668 16.0033 7.14668 16.0033C7.11945 16.0033 7.09223 15.9995 7.06556 15.9922C6.43501 15.8217 5.86334 15.4817 5.41168 15.01C5.0339 16.0795 5.59445 17.2522 6.6639 17.6306C6.97612 17.7406 7.31001 17.7739 7.63723 17.7272C7.80668 17.7033 7.96334 17.8217 7.98723 17.9911C7.99723 18.0622 7.98223 18.1345 7.94501 18.1956C7.3689 19.1367 7.66445 20.3667 8.60557 20.9428C8.78723 21.0539 8.98612 21.1356 9.19334 21.1845C9.29057 21.2072 9.37112 21.2756 9.4089 21.3678C9.77223 22.245 10.6678 22.4489 11.3239 22.3578C11.8967 22.2789 12.5945 21.925 12.6889 21.1917L12.69 21.1922ZM20.5878 15.0106C20.1367 15.4828 19.5645 15.8222 18.9339 15.9928C18.9072 16 18.88 16.0033 18.8528 16.0039C18.6817 16.0039 18.5428 15.8645 18.5428 15.6933C18.5428 15.5533 18.6367 15.4311 18.7717 15.3945C20.3561 14.9661 21.2933 13.335 20.865 11.7506C20.6617 10.9978 20.1706 10.355 19.4978 9.96112C19.3111 10.335 18.9883 10.6222 18.5956 10.7639C18.4328 10.8178 18.2572 10.73 18.2033 10.5678C18.1511 10.4106 18.2311 10.24 18.3856 10.1806C18.9083 9.99223 19.1795 9.41612 18.9911 8.89334C18.8528 8.5089 18.4956 8.24668 18.0878 8.22945C17.9167 8.22223 17.7839 8.07779 17.7911 7.90667C17.7928 7.87001 17.8006 7.83334 17.815 7.79945C18.3039 6.63834 17.7589 5.30056 16.5978 4.81168C16.5456 4.79001 16.4928 4.77001 16.4395 4.75168C16.5622 5.30334 16.4711 5.88168 16.1839 6.3689C16.0972 6.51668 15.9072 6.56612 15.7595 6.48001C15.6117 6.3939 15.5622 6.20334 15.6483 6.05556C16.1006 5.28445 15.8422 4.29279 15.0711 3.84112C14.5189 3.51723 13.8278 3.54945 13.3078 3.92279V10.5C13.6006 10.0806 14.0272 9.77334 14.5178 9.6289C14.5983 9.60612 14.68 9.58779 14.7622 9.5739C14.7533 9.55279 14.7445 9.53112 14.7361 9.51112C14.535 9.01667 14.5111 8.46779 14.6678 7.95779C14.275 7.6389 14.0128 7.18723 13.9306 6.68779C13.9028 6.5189 14.0172 6.35945 14.1861 6.33112C14.355 6.30334 14.5145 6.41779 14.5428 6.58667C14.6733 7.37779 15.42 7.91334 16.2106 7.78279C16.27 7.77279 16.3295 7.75945 16.3872 7.74223C16.5517 7.6939 16.7245 7.78779 16.7728 7.95223C16.8211 8.11667 16.7272 8.28945 16.5628 8.33779C16.1228 8.46779 15.6522 8.44779 15.225 8.28167C15.1533 8.61556 15.1839 8.96334 15.3122 9.28001C15.3522 9.37834 15.4011 9.47334 15.4583 9.56279C16.155 9.65834 16.79 10.0145 17.235 10.5595C17.6522 11.0528 17.8661 11.6856 17.8339 12.3306C18.3356 12.1678 18.8783 12.1822 19.3706 12.3711C19.5311 12.4311 19.6122 12.6095 19.5528 12.77C19.4928 12.9306 19.3145 13.0117 19.1539 12.9522C19.1522 12.9517 19.1511 12.9511 19.1495 12.9506C18.6728 12.7672 18.1389 12.81 17.6972 13.0661C17.6422 13.2356 17.5733 13.4 17.4922 13.5583C17.1806 14.1689 16.5867 14.6189 15.8989 15.1406C15.0406 15.7911 14.0689 16.5272 13.3095 17.7978V21.1922C13.4039 21.9261 14.1011 22.2795 14.6739 22.3595C15.33 22.4506 16.2256 22.2461 16.5889 21.3695C16.6272 21.2772 16.7072 21.2089 16.8045 21.1861C17.8789 20.9345 18.5461 19.8595 18.2945 18.7856C18.2456 18.5778 18.1645 18.3795 18.0528 18.1978C17.9639 18.0517 18.01 17.8606 18.1567 17.7717C18.2178 17.7345 18.29 17.7195 18.3611 17.7295C19.4839 17.89 20.5239 17.1095 20.6839 15.9872C20.7306 15.6589 20.6972 15.3239 20.5867 15.0111L20.5878 15.0106ZM16.6611 15.4945C15.7633 15.9767 15.2667 16.9722 15.4217 17.9795C15.1378 17.8828 14.8367 17.8489 14.5389 17.8806C14.3683 17.8983 14.2445 18.0506 14.2622 18.2211C14.28 18.3917 14.4322 18.5156 14.6028 18.4978C15.4 18.4145 16.1133 18.9933 16.1967 19.79C16.2072 19.8906 16.2072 19.9917 16.1967 20.0917C16.1795 20.2622 16.3028 20.4145 16.4733 20.4322C16.4845 20.4322 16.4945 20.4339 16.5061 20.4339C16.665 20.4339 16.7978 20.3139 16.8145 20.1561C16.8789 19.5511 16.6733 18.9483 16.2517 18.5095C15.7595 17.6506 16.0572 16.5556 16.9156 16.0639C16.9289 16.0561 16.9422 16.0489 16.9561 16.0417C17.1067 15.9606 17.1633 15.7722 17.0822 15.6217C17.0011 15.4711 16.8128 15.4145 16.6622 15.4956V15.4945H16.6611Z" fill="black"/>
</g>
<defs>
<clipPath id="clip0_10_1594">
<rect width="20" height="20" fill="white" transform="translate(3 3)"/>
</clipPath>
</defs>
</svg>
