<svg width="18" height="19" viewBox="0 0 18 19" fill="none" xmlns="http://www.w3.org/2000/svg">
<path d="M6.75 5L9 2.75M9 2.75L11.25 5M9 2.75V10.25M5.25017 8C4.55126 8 4.2018 8 3.92615 8.11418C3.55861 8.26642 3.26642 8.55861 3.11418 8.92615C3 9.2018 3 9.55109 3 10.25V13.85C3 14.6901 3 15.1098 3.16349 15.4307C3.3073 15.7129 3.5366 15.9429 3.81885 16.0867C4.1394 16.25 4.55925 16.25 5.39768 16.25H12.6027C13.4411 16.25 13.8604 16.25 14.1809 16.0867C14.4632 15.9429 14.6929 15.7129 14.8367 15.4307C15 15.1101 15 14.6908 15 13.8523V10.25C15 9.55109 14.9999 9.2018 14.8857 8.92615C14.7335 8.55861 14.4416 8.26642 14.074 8.11418C13.7984 8 13.4489 8 12.75 8" stroke="#1F1F1F" stroke-width="1.5" stroke-linecap="round" stroke-linejoin="round"/>
</svg>
