<svg width="65" height="65" viewBox="0 0 65 65" fill="none" xmlns="http://www.w3.org/2000/svg">
<rect width="65" height="65" rx="32.5" fill="#E9ECEF"/>
<path d="M41.6978 28.3437L34.8749 22.8854C33.5415 21.8229 31.4582 21.8125 30.1353 22.875L23.3124 28.3437C22.3332 29.125 21.7395 30.6875 21.9478 31.9167L23.2603 39.7708C23.5624 41.5312 25.1978 42.9167 26.979 42.9167H38.0207C39.7811 42.9167 41.4478 41.5 41.7499 39.7604L43.0624 31.9062C43.2499 30.6875 42.6561 29.125 41.6978 28.3437ZM33.2811 38.75C33.2811 39.1771 32.927 39.5312 32.4999 39.5312C32.0728 39.5312 31.7186 39.1771 31.7186 38.75V35.625C31.7186 35.1979 32.0728 34.8437 32.4999 34.8437C32.927 34.8437 33.2811 35.1979 33.2811 35.625V38.75Z" fill="#1F1F1F"/>
</svg>
