<svg width="29" height="28" viewBox="0 0 29 28" fill="none" xmlns="http://www.w3.org/2000/svg">
<circle opacity="0.25" cx="14.75" cy="14" r="14" fill="#1F1F1F"/>
<path d="M19.0586 12.2717L15.5652 9.47708C14.8825 8.93308 13.8159 8.92775 13.1385 9.47175L9.64522 12.2717C9.14388 12.6717 8.83988 13.4717 8.94655 14.1011L9.61855 18.1224C9.77322 19.0238 10.6105 19.7331 11.5225 19.7331H17.1759C18.0772 19.7331 18.9306 19.0077 19.0852 18.1171L19.7572 14.0957C19.8532 13.4717 19.5492 12.6717 19.0586 12.2717ZM14.7492 17.5998C14.7492 17.8184 14.5679 17.9998 14.3492 17.9998C14.1305 17.9998 13.9492 17.8184 13.9492 17.5998V15.9997C13.9492 15.7811 14.1305 15.5997 14.3492 15.5997C14.5679 15.5997 14.7492 15.7811 14.7492 15.9997V17.5998Z" fill="#1F1F1F"/>
</svg>
