<svg width="26" height="26" viewBox="0 0 26 26" fill="none" xmlns="http://www.w3.org/2000/svg">
<path d="M19 8.20007C19 7.78003 18.9997 7.56986 18.918 7.40942C18.8461 7.2683 18.7318 7.15365 18.5906 7.08175C18.4302 7 18.2197 7 17.7997 7H8.19971C7.77967 7 7.56986 7 7.40942 7.08175C7.2683 7.15365 7.15365 7.2683 7.08175 7.40942C7 7.56986 7 7.78003 7 8.20007V8.75302C7 8.93646 7 9.02825 7.02072 9.11457C7.0391 9.19109 7.06947 9.26419 7.1106 9.3313C7.15696 9.40696 7.22193 9.47193 7.35156 9.60156L11.1486 13.3986C11.2783 13.5283 11.3428 13.5928 11.3892 13.6685C11.4303 13.7356 11.4611 13.809 11.4795 13.8855C11.5 13.9709 11.5 14.0616 11.5 14.2414V17.8083C11.5 18.4512 11.5 18.7728 11.6354 18.9664C11.7536 19.1355 11.9361 19.2482 12.1401 19.2784C12.3739 19.3129 12.6615 19.1693 13.2366 18.8818L13.8366 18.5818C14.0774 18.4614 14.1975 18.401 14.2854 18.3112C14.3632 18.2317 14.4227 18.1364 14.459 18.0313C14.5 17.9124 14.5 17.7775 14.5 17.5083V14.2469C14.5 14.0635 14.5 13.9718 14.5207 13.8855C14.5391 13.809 14.5695 13.7356 14.6106 13.6685C14.6567 13.5933 14.721 13.529 14.849 13.401L14.8516 13.3986L18.6486 9.60156C18.7783 9.47185 18.8428 9.40699 18.8892 9.3313C18.9303 9.26419 18.9611 9.19109 18.9795 9.11457C19 9.02913 19 8.93833 19 8.7586V8.20007Z" stroke="#1F1F1F" stroke-width="1.5" stroke-linecap="round" stroke-linejoin="round"/>
</svg>
