<svg width="65" height="65" viewBox="0 0 65 65" fill="none" xmlns="http://www.w3.org/2000/svg">
<rect width="65" height="65" rx="32.5" fill="#E9ECEF"/>
<g clip-path="url(#clip0_10_666)">
<path d="M43.8979 27.1218L41.625 24.8478L42.6114 23.8614C42.7109 23.7653 42.7903 23.6503 42.8449 23.5232C42.8995 23.3961 42.9282 23.2595 42.9294 23.1212C42.9306 22.9828 42.9043 22.8457 42.8519 22.7177C42.7995 22.5896 42.7222 22.4733 42.6244 22.3755C42.5265 22.2777 42.4102 22.2004 42.2822 22.148C42.1542 22.0956 42.017 22.0693 41.8787 22.0705C41.7404 22.0717 41.6037 22.1004 41.4766 22.155C41.3496 22.2096 41.2346 22.289 41.1385 22.3884L40.1521 23.3749L37.8781 21.102C37.1614 20.419 36.2093 20.038 35.2193 20.038C34.2292 20.038 33.2771 20.419 32.5604 21.102C32.211 21.4511 31.9338 21.8657 31.7447 22.322C31.5556 22.7783 31.4582 23.2674 31.4582 23.7614C31.4582 24.2553 31.5556 24.7444 31.7447 25.2007C31.9338 25.657 32.211 26.0716 32.5604 26.4207L34.8333 28.6936L28.6937 34.8332L26.4198 32.5603C25.703 31.8773 24.751 31.4963 23.7609 31.4963C22.7709 31.4963 21.8188 31.8773 21.1021 32.5603C20.7527 32.9094 20.4755 33.324 20.2863 33.7803C20.0972 34.2366 19.9999 34.7257 19.9999 35.2197C19.9999 35.7136 20.0972 36.2027 20.2863 36.6591C20.4755 37.1154 20.7527 37.5299 21.1021 37.8791L23.375 40.152L22.3885 41.1384C22.289 41.2345 22.2097 41.3495 22.1551 41.4766C22.1005 41.6036 22.0718 41.7403 22.0706 41.8786C22.0694 42.017 22.0957 42.1541 22.1481 42.2821C22.2005 42.4102 22.2778 42.5265 22.3756 42.6243C22.4734 42.7221 22.5897 42.7994 22.7177 42.8518C22.8458 42.9042 22.9829 42.9305 23.1212 42.9293C23.2595 42.9281 23.3962 42.8994 23.5233 42.8448C23.6504 42.7902 23.7654 42.7108 23.8614 42.6114L24.8479 41.6249L27.1219 43.8978C27.471 44.2471 27.8855 44.5241 28.3417 44.7132C28.7979 44.9022 29.2869 44.9995 29.7807 44.9995C30.2745 44.9995 30.7635 44.9022 31.2197 44.7132C31.676 44.5241 32.0905 44.2471 32.4396 43.8978C32.789 43.5488 33.0661 43.1343 33.2552 42.6781C33.4443 42.2218 33.5417 41.7328 33.5417 41.239C33.5417 40.7451 33.4443 40.2561 33.2552 39.7999C33.0661 39.3436 32.789 38.9291 32.4396 38.5801L30.1667 36.3072L36.3125 30.1666L38.5854 32.4395C38.9345 32.7887 39.349 33.0658 39.8052 33.2548C40.2614 33.4439 40.7504 33.5412 41.2443 33.5412C41.7381 33.5412 42.2271 33.4439 42.6833 33.2548C43.1395 33.0658 43.554 32.7887 43.9031 32.4395C44.2525 32.0904 44.5297 31.676 44.7188 31.2197C44.9079 30.7635 45.0052 30.2745 45.0052 29.7806C45.0052 29.2868 44.9079 28.7977 44.7188 28.3415C44.5297 27.8853 44.2525 27.4708 43.9031 27.1218H43.8979Z" fill="#1F1F1F"/>
</g>
<defs>
<clipPath id="clip0_10_666">
<rect width="25" height="25" fill="white" transform="translate(20 20)"/>
</clipPath>
</defs>
</svg>
