<svg width="17" height="16" viewBox="0 0 17 16" fill="none" xmlns="http://www.w3.org/2000/svg">
<path d="M7.16 15.1664C7.02667 15.1664 6.92 15.1398 6.84 15.1064C6.57333 15.0064 6.12 14.6798 6.12 13.6464V9.34643H4.56C3.66667 9.34643 3.34667 8.92643 3.23333 8.67976C3.12 8.42643 3.02 7.91309 3.60667 7.23976L8.65333 1.50643C9.33333 0.733093 9.88667 0.786427 10.1533 0.886427C10.42 0.986427 10.8733 1.31309 10.8733 2.34643V6.64643H12.4333C13.3267 6.64643 13.6467 7.06643 13.76 7.31309C13.8733 7.56643 13.9733 8.07976 13.3867 8.75309L8.34 14.4864C7.86667 15.0264 7.45333 15.1664 7.16 15.1664ZM9.78667 1.82643C9.76667 1.85309 9.62667 1.91976 9.40667 2.17309L4.36 7.90643C4.17333 8.11976 4.14667 8.25309 4.14667 8.27976C4.16 8.28643 4.28 8.35309 4.56 8.35309H6.62C6.89333 8.35309 7.12 8.57976 7.12 8.85309V13.6531C7.12 13.9864 7.18 14.1331 7.20667 14.1731C7.22667 14.1464 7.36667 14.0798 7.58667 13.8264L12.6333 8.09309C12.82 7.87976 12.8467 7.74643 12.8467 7.71976C12.8333 7.71309 12.7133 7.64643 12.4333 7.64643H10.3733C10.1 7.64643 9.87333 7.41976 9.87333 7.14643V2.34643C9.88 2.01309 9.81333 1.87309 9.78667 1.82643Z" fill="#1F1F1F"/>
</svg>
