<svg width="19" height="19" viewBox="0 0 19 19" fill="none" xmlns="http://www.w3.org/2000/svg">
<path d="M13.25 9.5C13.25 11.5711 11.5711 13.25 9.5 13.25C7.42893 13.25 5.75 11.5711 5.75 9.5C5.75 7.42893 7.42893 5.75 9.5 5.75" stroke="white" stroke-width="1.5" stroke-linecap="round"/>
<path d="M11 2.15003C10.5153 2.05165 10.0137 2 9.5 2C5.35786 2 2 5.35786 2 9.5C2 13.6421 5.35786 17 9.5 17C13.6421 17 17 13.6421 17 9.5C17 8.9863 16.9484 8.48466 16.85 8" stroke="white" stroke-width="1.5" stroke-linecap="round"/>
<path d="M8.96967 8.96967C8.67678 9.26256 8.67678 9.73744 8.96967 10.0303C9.26256 10.3232 9.73744 10.3232 10.0303 10.0303L8.96967 8.96967ZM15.2682 3.73184L14.5425 3.92118C14.611 4.18387 14.8161 4.389 15.0788 4.45754L15.2682 3.73184ZM14.8809 2.24755L14.1552 2.4369V2.4369L14.8809 2.24755ZM14.2235 2.14254L14.7539 2.67287V2.67287L14.2235 2.14254ZM13.3615 3.00458L12.8312 2.47425V2.47425L13.3615 3.00458ZM12.7086 5.11347L11.9829 5.30281L11.9829 5.30281L12.7086 5.11347ZM16.7524 4.11911L16.5631 4.84481L16.7524 4.11911ZM16.8575 4.77647L16.3271 4.24614V4.24614L16.8575 4.77647ZM15.9954 5.63851L16.5257 6.16884V6.16884L15.9954 5.63851ZM13.8865 6.2914L13.6972 7.0171L13.8865 6.2914ZM12.9523 6.04765L12.422 5.51732L8.96967 8.96967L9.5 9.5L10.0303 10.0303L13.4827 6.57798L12.9523 6.04765ZM15.2682 3.73184L15.9939 3.54249L15.6066 2.05821L14.8809 2.24755L14.1552 2.4369L14.5425 3.92118L15.2682 3.73184ZM14.2235 2.14254L13.6932 1.61221L12.8312 2.47425L13.3615 3.00458L13.8918 3.53491L14.7539 2.67287L14.2235 2.14254ZM12.7086 5.11347L11.9829 5.30281L12.2266 6.237L12.9523 6.04765L13.6781 5.85831L13.4343 4.92412L12.7086 5.11347ZM15.2682 3.73184L15.0788 4.45754L16.5631 4.84481L16.7524 4.11911L16.9418 3.3934L15.4575 3.00613L15.2682 3.73184ZM16.8575 4.77647L16.3271 4.24614L15.4651 5.10818L15.9954 5.63851L16.5257 6.16884L17.3878 5.3068L16.8575 4.77647ZM13.8865 6.2914L14.0759 5.56569L13.1417 5.32195L12.9523 6.04765L12.763 6.77336L13.6972 7.0171L13.8865 6.2914ZM15.9954 5.63851L15.4651 5.10818C15.039 5.53425 14.488 5.67322 14.0759 5.56569L13.8865 6.2914L13.6972 7.0171C14.7004 7.27886 15.7823 6.91233 16.5257 6.16884L15.9954 5.63851ZM16.7524 4.11911L16.5631 4.84481C16.4887 4.82541 16.4118 4.78086 16.3515 4.71121C16.2934 4.64415 16.2647 4.57037 16.2546 4.5072C16.2346 4.38181 16.2826 4.29068 16.3271 4.24614L16.8575 4.77647L17.3878 5.3068C17.6619 5.03272 17.7963 4.64915 17.7358 4.27058C17.6731 3.87778 17.3949 3.51162 16.9418 3.3934L16.7524 4.11911ZM13.3615 3.00458L12.8312 2.47425C12.0877 3.21774 11.7211 4.29958 11.9829 5.30281L12.7086 5.11347L13.4343 4.92412C13.3268 4.51198 13.4658 3.96098 13.8918 3.53491L13.3615 3.00458ZM14.8809 2.24755L15.6066 2.05821C15.4884 1.60511 15.1222 1.32694 14.7294 1.26419C14.3508 1.20372 13.9673 1.33814 13.6932 1.61221L14.2235 2.14254L14.7539 2.67287C14.7093 2.71741 14.6182 2.76544 14.4928 2.74541C14.4296 2.73532 14.3559 2.70664 14.2888 2.64853C14.2191 2.5882 14.1746 2.51128 14.1552 2.4369L14.8809 2.24755Z" fill="white"/>
</svg>
