<svg width="26" height="26" viewBox="0 0 26 26" fill="none" xmlns="http://www.w3.org/2000/svg">
<g clip-path="url(#clip0_10_1471)">
<path d="M17.743 11.3793C19.0404 10.5734 19.836 9.12769 19.8409 7.56869V4.48092H20.5606C20.9572 4.48092 21.2803 4.14847 21.2803 3.74046C21.2803 3.33245 20.9572 3 20.5606 3H4.71971C4.32313 3 4 3.33245 4 3.74046C4 4.14847 4.32313 4.48092 4.71971 4.48092H5.43941V7.56869C5.44431 9.12769 6.23745 10.5734 7.53733 11.3793L9.04039 12.3061V12.9484L7.53733 13.8752C6.2399 14.6811 5.44431 16.1268 5.43941 17.6858V20.7736H4.71971C4.32313 20.7786 4 21.1111 4 21.5191C4 21.9271 4.32313 22.2595 4.71971 22.2595H13.6157C14.0122 22.2595 14.3354 21.9271 14.3354 21.5191C14.3354 21.1111 14.0122 20.7786 13.6157 20.7786H6.88127V17.6908C6.88127 16.6507 7.41493 15.6886 8.27907 15.1496L9.78213 14.2228C10.2154 13.9533 10.4798 13.4722 10.4823 12.9534V12.3112C10.4823 11.7923 10.2154 11.3113 9.78213 11.0418L8.27907 10.115C7.41248 9.576 6.88372 8.6139 6.88127 7.57373V4.48092H18.4015V7.56869C18.3966 8.60886 17.8678 9.57096 17.0037 10.1099L15.5006 11.0368C15.0673 11.3063 14.8029 11.7873 14.8005 12.3061V12.9484C14.8005 13.4672 15.0673 13.9508 15.5006 14.2177L17.0037 15.1446C17.1334 15.2252 17.2558 15.3158 17.3709 15.4141C17.6769 15.676 18.1297 15.6357 18.3843 15.3209C18.6389 15.006 18.5998 14.5401 18.2938 14.2782C18.12 14.1296 17.9364 13.9936 17.7405 13.8727L16.2375 12.9459V12.3036L17.7405 11.3768L17.743 11.3793Z" fill="#1F1F1F"/>
<path d="M13.3586 10.8252L16.2595 9.03445C16.6928 8.76748 16.9572 8.28644 16.9596 7.76509V7.07248C16.9596 6.45795 16.4749 5.96179 15.88 5.96179H9.40024C8.80293 5.96179 8.32068 6.45795 8.32068 7.07248V7.76509C8.32068 8.28644 8.58751 8.76748 9.0208 9.03445L11.9217 10.8252V11.1475C11.9217 11.5555 12.2448 11.888 12.6414 11.888C13.0379 11.888 13.3611 11.5555 13.3611 11.1475V10.8252H13.3586ZM9.76009 7.44271H15.5202V7.76509L12.6389 9.5432L9.75764 7.76509V7.44271H9.76009Z" fill="#1F1F1F"/>
<path d="M13.3586 14.1119C13.3586 15.0992 11.9192 15.0992 11.9192 14.1119C11.9192 13.1246 13.3586 13.1246 13.3586 14.1119Z" fill="#1F1F1F"/>
<path d="M21.8188 19.4211L20.5116 17.4037C20.2913 17.0637 19.8433 16.9705 19.5128 17.1972C19.1824 17.4239 19.0918 17.8848 19.3121 18.2248L20.4871 20.0356L19.3146 21.8465C19.0942 22.1865 19.1824 22.6474 19.5128 22.874C19.8433 23.1007 20.2913 23.0101 20.5116 22.6675L21.8188 20.6501C22.0612 20.2774 22.0612 19.7913 21.8188 19.4186V19.4211Z" fill="#1F1F1F"/>
<path d="M16.9107 17.4037C16.6904 17.0637 16.2424 16.9705 15.9119 17.1972C15.5814 17.4239 15.4933 17.8848 15.7112 18.2248L16.8862 20.0356L15.7136 21.8465C15.4933 22.1865 15.5814 22.6474 15.9144 22.874C16.2448 23.1007 16.6928 23.0101 16.9131 22.6675L18.2204 20.6501C18.4652 20.2774 18.4652 19.7913 18.2204 19.4186L16.9131 17.4012L16.9107 17.4037Z" fill="#1F1F1F"/>
</g>
<defs>
<clipPath id="clip0_10_1471">
<rect width="18" height="20" fill="white" transform="translate(4 3)"/>
</clipPath>
</defs>
</svg>
