<svg width="65" height="65" viewBox="0 0 65 65" fill="none" xmlns="http://www.w3.org/2000/svg">
<rect x="0.75" y="0.75" width="63.5" height="63.5" rx="31.75" fill="#1F1F1F" fill-opacity="0.1"/>
<rect x="0.75" y="0.75" width="63.5" height="63.5" rx="31.75" stroke="#1F1F1F" stroke-width="1.5"/>
<path fill-rule="evenodd" clip-rule="evenodd" d="M29.6161 29.36L32.1237 27.094C33.2904 26.0397 34.8615 25.5512 36.4204 25.7582L39.7373 26.1985L44.3414 23.7099C44.6388 23.5491 45 23.7645 45 24.1026V32.5636C45 33.1398 44.7221 33.6805 44.2536 34.0158L41.153 36.2344L37.7975 33.4189C38.4716 33.1799 39.0473 32.7857 39.5223 32.293C39.9502 31.8493 39.9373 31.1428 39.4936 30.7149C39.05 30.2871 38.3434 30.2999 37.9155 30.7436C37.5834 31.0881 37.1996 31.3093 36.7505 31.3972C36.3591 31.4739 35.8608 31.4602 35.2341 31.2681L34.4367 30.599L32.2143 32.3975C31.3413 33.104 30.0578 32.953 29.3725 32.0632C28.736 31.2366 28.8421 30.0595 29.6161 29.36ZM28.1196 27.7038L29.92 26.0768C29.1556 25.8682 28.3458 25.8255 27.5457 25.964L24.2679 26.5315L20.6723 24.5965C20.3684 24.4329 20 24.653 20 24.9981L20 32.5628C20 33.1662 20.2983 33.7305 20.7968 34.0703L30.5378 40.7105C31.7988 41.5702 33.4616 41.5543 34.7059 40.6705L39.1802 37.4929L34.411 33.4912L33.6186 34.1326C31.7708 35.6279 29.0543 35.3083 27.604 33.4251C26.2568 31.6756 26.4812 29.1843 28.1196 27.7038Z" fill="#1F1F1F"/>
</svg>
