<svg width="65" height="65" viewBox="0 0 65 65" fill="none" xmlns="http://www.w3.org/2000/svg">
<rect width="65" height="65" rx="32.5" fill="#E9ECEF"/>
<path fill-rule="evenodd" clip-rule="evenodd" d="M22.149 29.2298L21.4007 35.965C21.1297 38.4032 23.0384 40.5357 25.4917 40.5357C27.0508 40.5357 28.4761 39.6548 29.1734 38.2604L29.8214 36.9643H35.1785L35.8265 38.2604C36.5238 39.6548 37.9491 40.5357 39.5082 40.5357C41.9616 40.5357 43.8701 38.4032 43.5993 35.965L42.8509 29.2298C42.5494 26.5168 40.2562 24.4643 37.5265 24.4643H27.4734C24.7437 24.4643 22.4505 26.5168 22.149 29.2298ZM27.8125 27.8125C28.4289 27.8125 28.9285 28.3122 28.9285 28.9286V29.896H29.8959C30.5123 29.896 31.012 30.3957 31.012 31.0121C31.012 31.6285 30.5123 32.1281 29.8959 32.1281H28.9285V33.0952C28.9285 33.7116 28.4289 34.2113 27.8125 34.2113C27.1961 34.2113 26.6964 33.7116 26.6964 33.0952V32.1281H25.7293C25.1129 32.1281 24.6132 31.6285 24.6132 31.0121C24.6132 30.3957 25.1129 29.896 25.7293 29.896H26.6964V28.9286C26.6964 28.3122 27.1961 27.8125 27.8125 27.8125ZM36.5457 33.2442C37.1621 33.2442 37.6618 32.7445 37.6618 32.1281C37.6618 31.5117 37.1621 31.0121 36.5457 31.0121C35.9293 31.0121 35.4297 31.5117 35.4297 32.1281C35.4297 32.7445 35.9293 33.2442 36.5457 33.2442ZM39.8939 29.3611C39.8939 29.9775 39.3943 30.4771 38.7778 30.4771C38.1616 30.4771 37.6618 29.9775 37.6618 29.3611C37.6618 28.7447 38.1616 28.245 38.7778 28.245C39.3943 28.245 39.8939 28.7447 39.8939 29.3611Z" fill="#1F1F1F"/>
</svg>
