<svg width="16" height="17" viewBox="0 0 16 17" fill="none" xmlns="http://www.w3.org/2000/svg">
<circle cx="8" cy="8.5" r="7.25" stroke="#1F1F1F" stroke-width="1.5"/>
<path d="M8.00674 6.20602C7.80941 6.20602 7.64407 6.14468 7.51074 6.02202C7.38274 5.89402 7.31874 5.73668 7.31874 5.55002C7.31874 5.36335 7.38274 5.20868 7.51074 5.08602C7.64407 4.95802 7.80941 4.89402 8.00674 4.89402C8.20407 4.89402 8.36674 4.95802 8.49474 5.08602C8.62807 5.20868 8.69474 5.36335 8.69474 5.55002C8.69474 5.73668 8.62807 5.89402 8.49474 6.02202C8.36674 6.14468 8.20407 6.20602 8.00674 6.20602ZM8.55874 6.73402V11.166H7.43874V6.73402H8.55874Z" fill="#1F1F1F"/>
</svg>
