<svg width="14" height="15" viewBox="0 0 14 15" fill="none" xmlns="http://www.w3.org/2000/svg">
<g clip-path="url(#clip0_17_12082)">
<path fill-rule="evenodd" clip-rule="evenodd" d="M3.60263 1.91208C3.96821 1.71734 4.1067 1.2631 3.91195 0.897527C3.7172 0.531951 3.26297 0.393466 2.89739 0.588213C1.86539 1.13797 0.944513 1.87468 0.181627 2.76083C-0.0886191 3.07474 -0.0532215 3.54829 0.26069 3.81853C0.574601 4.08878 1.04815 4.05338 1.3184 3.73947C1.96006 2.99413 2.73462 2.37449 3.60263 1.91208ZM7.00001 14.5001C10.3137 14.5001 13 11.8139 13 8.50015C13 5.18644 10.3137 2.50015 7.00001 2.50015C3.6863 2.50015 1.00001 5.18644 1.00001 8.50015C1.00001 11.8139 3.6863 14.5001 7.00001 14.5001ZM10.0881 0.897527C10.2828 0.531951 10.7371 0.393466 11.1026 0.588213C12.1346 1.13797 13.0555 1.87468 13.8184 2.76083C14.0886 3.07474 14.0532 3.54829 13.7393 3.81853C13.4254 4.08878 12.9519 4.05338 12.6816 3.73947C12.04 2.99413 11.2654 2.37449 10.3974 1.91208C10.0318 1.71734 9.89333 1.2631 10.0881 0.897527ZM7.625 5.5C7.625 5.15482 7.34518 4.875 7 4.875C6.65482 4.875 6.375 5.15482 6.375 5.5V8.5C6.375 8.84518 6.65482 9.125 7 9.125H9.5C9.84518 9.125 10.125 8.84518 10.125 8.5C10.125 8.15482 9.84518 7.875 9.5 7.875H7.625V5.5Z" fill="#1F1F1F"/>
</g>
<defs>
<clipPath id="clip0_17_12082">
<rect width="14" height="14" fill="white" transform="translate(0 0.5)"/>
</clipPath>
</defs>
</svg>
