<svg width="22" height="22" viewBox="0 0 22 22" fill="none" xmlns="http://www.w3.org/2000/svg">
<path d="M19.3045 11.1462C19.3045 10.4647 19.248 9.96746 19.1255 9.45178H11.165V12.5275H15.8377C15.7435 13.2918 15.2348 14.4429 14.1043 15.2164L14.0884 15.3194L16.6054 17.2254L16.7798 17.2424C18.3813 15.7966 19.3045 13.6694 19.3045 11.1462Z" fill="#4285F4"/>
<path d="M11.1641 19.2501C13.4533 19.2501 15.3751 18.5134 16.7788 17.2426L14.1033 15.2167C13.3874 15.7047 12.4265 16.0455 11.1641 16.0455C8.92199 16.0455 7.01903 14.5997 6.34067 12.6014L6.24124 12.6097L3.62407 14.5896L3.58984 14.6826C4.98409 17.3899 7.84799 19.2501 11.1641 19.2501Z" fill="#34A853"/>
<path d="M6.34074 12.6014C6.16175 12.0857 6.05816 11.5331 6.05816 10.9622C6.05816 10.3912 6.16175 9.83873 6.33132 9.32305L6.32658 9.21322L3.67661 7.20154L3.58991 7.24185C3.01527 8.36533 2.68555 9.62695 2.68555 10.9622C2.68555 12.2975 3.01527 13.559 3.58991 14.6825L6.34074 12.6014Z" fill="#FBBC05"/>
<path d="M11.1641 5.87887C12.7562 5.87887 13.8301 6.55111 14.4425 7.11288L16.8353 4.8291C15.3658 3.49384 13.4533 2.67426 11.1641 2.67426C7.84799 2.67426 4.98409 4.5344 3.58984 7.24175L6.33126 9.32295C7.01903 7.32466 8.92199 5.87887 11.1641 5.87887Z" fill="#EB4335"/>
</svg>
