<svg width="329" height="170" viewBox="0 0 329 170" fill="none" xmlns="http://www.w3.org/2000/svg">
<path d="M6.56283 39.4005L3.22683 47.0925H1.84683L5.21883 39.5445H0.778828V38.3805H6.56283V39.4005ZM7.73367 42.6045C7.73367 41.2205 7.96567 40.1405 8.42967 39.3645C8.90167 38.5805 9.70967 38.1885 10.8537 38.1885C11.9977 38.1885 12.8017 38.5805 13.2657 39.3645C13.7377 40.1405 13.9737 41.2205 13.9737 42.6045C13.9737 44.0045 13.7377 45.1005 13.2657 45.8925C12.8017 46.6765 11.9977 47.0685 10.8537 47.0685C9.70967 47.0685 8.90167 46.6765 8.42967 45.8925C7.96567 45.1005 7.73367 44.0045 7.73367 42.6045ZM12.6297 42.6045C12.6297 41.9565 12.5857 41.4085 12.4977 40.9605C12.4177 40.5125 12.2497 40.1485 11.9937 39.8685C11.7377 39.5805 11.3577 39.4365 10.8537 39.4365C10.3497 39.4365 9.96967 39.5805 9.71367 39.8685C9.45767 40.1485 9.28567 40.5125 9.19767 40.9605C9.11767 41.4085 9.07767 41.9565 9.07767 42.6045C9.07767 43.2765 9.11767 43.8405 9.19767 44.2965C9.27767 44.7525 9.44567 45.1205 9.70167 45.4005C9.96567 45.6805 10.3497 45.8205 10.8537 45.8205C11.3577 45.8205 11.7377 45.6805 11.9937 45.4005C12.2577 45.1205 12.4297 44.7525 12.5097 44.2965C12.5897 43.8405 12.6297 43.2765 12.6297 42.6045Z" fill="white"/>
<path d="M26 43.0925L21 43.0925" stroke="#1D79ED" stroke-width="2" stroke-linecap="round"/>
<path d="M0.801469 82.4649C0.849469 81.7209 1.13347 81.1409 1.65347 80.7249C2.18147 80.3089 2.85347 80.1009 3.66947 80.1009C4.22947 80.1009 4.71347 80.2009 5.12147 80.4009C5.52947 80.6009 5.83747 80.8729 6.04547 81.2169C6.25347 81.5609 6.35747 81.9489 6.35747 82.3809C6.35747 82.8769 6.22547 83.3009 5.96147 83.6529C5.69747 84.0049 5.38147 84.2409 5.01347 84.3609V84.4089C5.48547 84.5529 5.85347 84.8169 6.11747 85.2009C6.38147 85.5769 6.51347 86.0609 6.51347 86.6529C6.51347 87.1249 6.40547 87.5449 6.18947 87.9129C5.97347 88.2809 5.65347 88.5729 5.22947 88.7889C4.80547 88.9969 4.29747 89.1009 3.70547 89.1009C2.84147 89.1009 2.12947 88.8809 1.56947 88.4409C1.01747 87.9929 0.721469 87.3529 0.681469 86.5209H2.00147C2.03347 86.9449 2.19747 87.2929 2.49347 87.5649C2.78947 87.8289 3.18947 87.9609 3.69347 87.9609C4.18147 87.9609 4.55747 87.8289 4.82147 87.5649C5.08547 87.2929 5.21747 86.9449 5.21747 86.5209C5.21747 85.9609 5.03747 85.5649 4.67747 85.3329C4.32547 85.0929 3.78147 84.9729 3.04547 84.9729H2.73347V83.8449H3.05747C3.70547 83.8369 4.19747 83.7289 4.53347 83.5209C4.87747 83.3129 5.04947 82.9849 5.04947 82.5369C5.04947 82.1529 4.92547 81.8489 4.67747 81.6249C4.42947 81.3929 4.07747 81.2769 3.62147 81.2769C3.17347 81.2769 2.82547 81.3929 2.57747 81.6249C2.32947 81.8489 2.18147 82.1289 2.13347 82.4649H0.801469ZM13.5905 81.4809H9.57047V83.8689C9.73847 83.6449 9.98647 83.4569 10.3145 83.3049C10.6505 83.1529 11.0065 83.0769 11.3825 83.0769C12.0545 83.0769 12.5985 83.2209 13.0145 83.5089C13.4385 83.7969 13.7385 84.1609 13.9145 84.6009C14.0985 85.0409 14.1905 85.5049 14.1905 85.9929C14.1905 86.5849 14.0745 87.1129 13.8425 87.5769C13.6185 88.0329 13.2785 88.3929 12.8225 88.6569C12.3745 88.9209 11.8225 89.0529 11.1665 89.0529C10.2945 89.0529 9.59447 88.8369 9.06647 88.4049C8.53847 87.9729 8.22247 87.4009 8.11847 86.6889H9.45047C9.53847 87.0649 9.73447 87.3649 10.0385 87.5889C10.3425 87.8049 10.7225 87.9129 11.1785 87.9129C11.7465 87.9129 12.1705 87.7409 12.4505 87.3969C12.7385 87.0529 12.8825 86.5969 12.8825 86.0289C12.8825 85.4529 12.7385 85.0129 12.4505 84.7089C12.1625 84.3969 11.7385 84.2409 11.1785 84.2409C10.7865 84.2409 10.4545 84.3409 10.1825 84.5409C9.91847 84.7329 9.72647 84.9969 9.60647 85.3329H8.31047V80.2809H13.5905V81.4809Z" fill="white"/>
<path d="M26 85.0529L21 85.0529" stroke="#1D79ED" stroke-width="2" stroke-linecap="round"/>
<path d="M7.87625 126.525C7.87625 125.141 8.10825 124.061 8.57225 123.285C9.04425 122.501 9.85225 122.109 10.9963 122.109C12.1403 122.109 12.9443 122.501 13.4083 123.285C13.8803 124.061 14.1163 125.141 14.1163 126.525C14.1163 127.925 13.8803 129.021 13.4083 129.813C12.9443 130.597 12.1403 130.989 10.9963 130.989C9.85225 130.989 9.04425 130.597 8.57225 129.813C8.10825 129.021 7.87625 127.925 7.87625 126.525ZM12.7723 126.525C12.7723 125.877 12.7283 125.329 12.6403 124.881C12.5603 124.433 12.3923 124.069 12.1363 123.789C11.8803 123.501 11.5003 123.357 10.9963 123.357C10.4923 123.357 10.1123 123.501 9.85625 123.789C9.60025 124.069 9.42825 124.433 9.34025 124.881C9.26025 125.329 9.22025 125.877 9.22025 126.525C9.22025 127.197 9.26025 127.761 9.34025 128.217C9.42025 128.673 9.58825 129.041 9.84425 129.321C10.1083 129.601 10.4923 129.741 10.9963 129.741C11.5003 129.741 11.8803 129.601 12.1363 129.321C12.4003 129.041 12.5723 128.673 12.6523 128.217C12.7323 127.761 12.7723 127.197 12.7723 126.525Z" fill="white"/>
<path d="M26 127.013L21 127.013" stroke="#1D79ED" stroke-width="2" stroke-linecap="round"/>
<path d="M26 34.0925V143.232" stroke="#1D79ED" stroke-width="2" stroke-linecap="round"/>
<path d="M26.5 143.389H327.5" stroke="#1D79ED" stroke-width="2" stroke-linecap="round"/>
<path d="M56 143.389L56 148.389" stroke="#1D79ED" stroke-width="2" stroke-linecap="round"/>
<path d="M43.4501 156.658V157.774H41.2301V164.998H39.8621V157.774H37.6301V156.658H43.4501ZM47.7035 165.106C47.0795 165.106 46.5155 164.966 46.0115 164.686C45.5075 164.398 45.1115 163.998 44.8235 163.486C44.5355 162.966 44.3915 162.366 44.3915 161.686C44.3915 161.014 44.5395 160.418 44.8355 159.898C45.1315 159.378 45.5355 158.978 46.0475 158.698C46.5595 158.418 47.1315 158.278 47.7635 158.278C48.3955 158.278 48.9675 158.418 49.4795 158.698C49.9915 158.978 50.3955 159.378 50.6915 159.898C50.9875 160.418 51.1355 161.014 51.1355 161.686C51.1355 162.358 50.9835 162.954 50.6795 163.474C50.3755 163.994 49.9595 164.398 49.4315 164.686C48.9115 164.966 48.3355 165.106 47.7035 165.106ZM47.7035 163.918C48.0555 163.918 48.3835 163.834 48.6875 163.666C48.9995 163.498 49.2515 163.246 49.4435 162.91C49.6355 162.574 49.7315 162.166 49.7315 161.686C49.7315 161.206 49.6395 160.802 49.4555 160.474C49.2715 160.138 49.0275 159.886 48.7235 159.718C48.4195 159.55 48.0915 159.466 47.7395 159.466C47.3875 159.466 47.0595 159.55 46.7555 159.718C46.4595 159.886 46.2235 160.138 46.0475 160.474C45.8715 160.802 45.7835 161.206 45.7835 161.686C45.7835 162.398 45.9635 162.95 46.3235 163.342C46.6915 163.726 47.1515 163.918 47.7035 163.918ZM52.0319 161.662C52.0319 160.998 52.1679 160.41 52.4399 159.898C52.7199 159.386 53.0959 158.99 53.5679 158.71C54.0479 158.422 54.5799 158.278 55.1639 158.278C55.5959 158.278 56.0199 158.374 56.4359 158.566C56.8599 158.75 57.1959 158.998 57.4439 159.31V156.118H58.8239V164.998H57.4439V164.002C57.2199 164.322 56.9079 164.586 56.5079 164.794C56.1159 165.002 55.6639 165.106 55.1519 165.106C54.5759 165.106 54.0479 164.962 53.5679 164.674C53.0959 164.378 52.7199 163.97 52.4399 163.45C52.1679 162.922 52.0319 162.326 52.0319 161.662ZM57.4439 161.686C57.4439 161.23 57.3479 160.834 57.1559 160.498C56.9719 160.162 56.7279 159.906 56.4239 159.73C56.1199 159.554 55.7919 159.466 55.4399 159.466C55.0879 159.466 54.7599 159.554 54.4559 159.73C54.1519 159.898 53.9039 160.15 53.7119 160.486C53.5279 160.814 53.4359 161.206 53.4359 161.662C53.4359 162.118 53.5279 162.518 53.7119 162.862C53.9039 163.206 54.1519 163.47 54.4559 163.654C54.7679 163.83 55.0959 163.918 55.4399 163.918C55.7919 163.918 56.1199 163.83 56.4239 163.654C56.7279 163.478 56.9719 163.222 57.1559 162.886C57.3479 162.542 57.4439 162.142 57.4439 161.686ZM60.1647 161.662C60.1647 160.998 60.3007 160.41 60.5727 159.898C60.8527 159.386 61.2287 158.99 61.7007 158.71C62.1807 158.422 62.7087 158.278 63.2847 158.278C63.8047 158.278 64.2567 158.382 64.6407 158.59C65.0327 158.79 65.3447 159.042 65.5767 159.346V158.386H66.9567V164.998H65.5767V164.014C65.3447 164.326 65.0287 164.586 64.6287 164.794C64.2287 165.002 63.7727 165.106 63.2607 165.106C62.6927 165.106 62.1727 164.962 61.7007 164.674C61.2287 164.378 60.8527 163.97 60.5727 163.45C60.3007 162.922 60.1647 162.326 60.1647 161.662ZM65.5767 161.686C65.5767 161.23 65.4807 160.834 65.2887 160.498C65.1047 160.162 64.8607 159.906 64.5567 159.73C64.2527 159.554 63.9247 159.466 63.5727 159.466C63.2207 159.466 62.8927 159.554 62.5887 159.73C62.2847 159.898 62.0367 160.15 61.8447 160.486C61.6607 160.814 61.5687 161.206 61.5687 161.662C61.5687 162.118 61.6607 162.518 61.8447 162.862C62.0367 163.206 62.2847 163.47 62.5887 163.654C62.9007 163.83 63.2287 163.918 63.5727 163.918C63.9247 163.918 64.2527 163.83 64.5567 163.654C64.8607 163.478 65.1047 163.222 65.2887 162.886C65.4807 162.542 65.5767 162.142 65.5767 161.686ZM74.7055 158.386L70.6495 168.106H69.2335L70.5775 164.89L67.9735 158.386H69.4975L71.3575 163.426L73.2895 158.386H74.7055Z" fill="white"/>
<path d="M287.5 143.389V148.389" stroke="#1D79ED" stroke-width="2" stroke-linecap="round"/>
<path d="M265.248 156.658L262.488 161.974V164.998H261.12V161.974L258.348 156.658H259.872L261.804 160.75L263.736 156.658H265.248ZM269.202 165.106C268.578 165.106 268.014 164.966 267.51 164.686C267.006 164.398 266.61 163.998 266.322 163.486C266.034 162.966 265.89 162.366 265.89 161.686C265.89 161.014 266.038 160.418 266.334 159.898C266.63 159.378 267.034 158.978 267.546 158.698C268.058 158.418 268.63 158.278 269.262 158.278C269.894 158.278 270.466 158.418 270.978 158.698C271.49 158.978 271.894 159.378 272.19 159.898C272.486 160.418 272.634 161.014 272.634 161.686C272.634 162.358 272.482 162.954 272.178 163.474C271.874 163.994 271.458 164.398 270.93 164.686C270.41 164.966 269.834 165.106 269.202 165.106ZM269.202 163.918C269.554 163.918 269.882 163.834 270.186 163.666C270.498 163.498 270.75 163.246 270.942 162.91C271.134 162.574 271.23 162.166 271.23 161.686C271.23 161.206 271.138 160.802 270.954 160.474C270.77 160.138 270.526 159.886 270.222 159.718C269.918 159.55 269.59 159.466 269.238 159.466C268.886 159.466 268.558 159.55 268.254 159.718C267.958 159.886 267.722 160.138 267.546 160.474C267.37 160.802 267.282 161.206 267.282 161.686C267.282 162.398 267.462 162.95 267.822 163.342C268.19 163.726 268.65 163.918 269.202 163.918ZM279.974 158.386V164.998H278.606V164.218C278.39 164.49 278.106 164.706 277.754 164.866C277.41 165.018 277.042 165.094 276.65 165.094C276.13 165.094 275.662 164.986 275.246 164.77C274.838 164.554 274.514 164.234 274.274 163.81C274.042 163.386 273.926 162.874 273.926 162.274V158.386H275.282V162.07C275.282 162.662 275.43 163.118 275.726 163.438C276.022 163.75 276.426 163.906 276.938 163.906C277.45 163.906 277.854 163.75 278.15 163.438C278.454 163.118 278.606 162.662 278.606 162.07V158.386H279.974ZM283.147 159.346C283.347 159.01 283.611 158.75 283.939 158.566C284.275 158.374 284.671 158.278 285.127 158.278V159.694H284.779C284.243 159.694 283.835 159.83 283.555 160.102C283.283 160.374 283.147 160.846 283.147 161.518V164.998H281.779V158.386H283.147V159.346ZM295.538 159.058C295.322 158.642 295.022 158.33 294.638 158.122C294.254 157.906 293.81 157.798 293.306 157.798C292.754 157.798 292.262 157.922 291.83 158.17C291.398 158.418 291.058 158.77 290.81 159.226C290.57 159.682 290.45 160.21 290.45 160.81C290.45 161.41 290.57 161.942 290.81 162.406C291.058 162.862 291.398 163.214 291.83 163.462C292.262 163.71 292.754 163.834 293.306 163.834C294.05 163.834 294.654 163.626 295.118 163.21C295.582 162.794 295.866 162.23 295.97 161.518H292.838V160.426H297.434V161.494C297.346 162.142 297.114 162.738 296.738 163.282C296.37 163.826 295.886 164.262 295.286 164.59C294.694 164.91 294.034 165.07 293.306 165.07C292.522 165.07 291.806 164.89 291.158 164.53C290.51 164.162 289.994 163.654 289.61 163.006C289.234 162.358 289.046 161.626 289.046 160.81C289.046 159.994 289.234 159.262 289.61 158.614C289.994 157.966 290.51 157.462 291.158 157.102C291.814 156.734 292.53 156.55 293.306 156.55C294.194 156.55 294.982 156.77 295.67 157.21C296.366 157.642 296.87 158.258 297.182 159.058H295.538ZM301.651 165.106C301.027 165.106 300.463 164.966 299.959 164.686C299.455 164.398 299.059 163.998 298.771 163.486C298.483 162.966 298.339 162.366 298.339 161.686C298.339 161.014 298.487 160.418 298.783 159.898C299.079 159.378 299.483 158.978 299.995 158.698C300.507 158.418 301.079 158.278 301.711 158.278C302.343 158.278 302.915 158.418 303.427 158.698C303.939 158.978 304.343 159.378 304.639 159.898C304.935 160.418 305.083 161.014 305.083 161.686C305.083 162.358 304.931 162.954 304.627 163.474C304.323 163.994 303.907 164.398 303.379 164.686C302.859 164.966 302.283 165.106 301.651 165.106ZM301.651 163.918C302.003 163.918 302.331 163.834 302.635 163.666C302.947 163.498 303.199 163.246 303.391 162.91C303.583 162.574 303.679 162.166 303.679 161.686C303.679 161.206 303.587 160.802 303.403 160.474C303.219 160.138 302.975 159.886 302.671 159.718C302.367 159.55 302.039 159.466 301.687 159.466C301.335 159.466 301.007 159.55 300.703 159.718C300.407 159.886 300.171 160.138 299.995 160.474C299.819 160.802 299.731 161.206 299.731 161.686C299.731 162.398 299.911 162.95 300.271 163.342C300.639 163.726 301.099 163.918 301.651 163.918ZM305.979 161.662C305.979 160.998 306.115 160.41 306.387 159.898C306.667 159.386 307.043 158.99 307.515 158.71C307.995 158.422 308.523 158.278 309.099 158.278C309.619 158.278 310.071 158.382 310.455 158.59C310.847 158.79 311.159 159.042 311.391 159.346V158.386H312.771V164.998H311.391V164.014C311.159 164.326 310.843 164.586 310.443 164.794C310.043 165.002 309.587 165.106 309.075 165.106C308.507 165.106 307.987 164.962 307.515 164.674C307.043 164.378 306.667 163.97 306.387 163.45C306.115 162.922 305.979 162.326 305.979 161.662ZM311.391 161.686C311.391 161.23 311.295 160.834 311.103 160.498C310.919 160.162 310.675 159.906 310.371 159.73C310.067 159.554 309.739 159.466 309.387 159.466C309.035 159.466 308.707 159.554 308.403 159.73C308.099 159.898 307.851 160.15 307.659 160.486C307.475 160.814 307.383 161.206 307.383 161.662C307.383 162.118 307.475 162.518 307.659 162.862C307.851 163.206 308.099 163.47 308.403 163.654C308.715 163.83 309.043 163.918 309.387 163.918C309.739 163.918 310.067 163.83 310.371 163.654C310.675 163.478 310.919 163.222 311.103 162.886C311.295 162.542 311.391 162.142 311.391 161.686ZM315.936 156.118V164.998H314.568V156.118H315.936Z" fill="white"/>
<g filter="url(#filter0_d_108_9469)">
<path d="M56 45.1227C56 45.1227 94.6276 89.7703 132.146 105.709C147.306 112.149 164.203 116.288 186.027 117.374C225.213 119.324 239.463 119.324 288 119.324" stroke="#1D79ED" stroke-width="4" stroke-linecap="round"/>
</g>
<rect x="36" width="40" height="26" rx="13" fill="#1D79ED"/>
<path d="M48.564 15.296V13.976L52.488 8.36H54.444V13.832H55.5V15.296H54.444V17H52.764V15.296H48.564ZM52.872 10.16L50.412 13.832H52.872V10.16ZM60.9856 10.436C60.9056 10.1 60.7656 9.848 60.5656 9.68C60.3736 9.512 60.0936 9.428 59.7256 9.428C59.1736 9.428 58.7656 9.652 58.5016 10.1C58.2456 10.54 58.1136 11.26 58.1056 12.26C58.2976 11.94 58.5776 11.692 58.9456 11.516C59.3136 11.332 59.7136 11.24 60.1456 11.24C60.6656 11.24 61.1256 11.352 61.5256 11.576C61.9256 11.8 62.2376 12.128 62.4616 12.56C62.6856 12.984 62.7976 13.496 62.7976 14.096C62.7976 14.664 62.6816 15.172 62.4496 15.62C62.2256 16.06 61.8936 16.404 61.4536 16.652C61.0136 16.9 60.4896 17.024 59.8816 17.024C59.0496 17.024 58.3936 16.84 57.9136 16.472C57.4416 16.104 57.1096 15.592 56.9176 14.936C56.7336 14.272 56.6416 13.456 56.6416 12.488C56.6416 11.024 56.8936 9.92 57.3976 9.176C57.9016 8.424 58.6976 8.048 59.7856 8.048C60.6256 8.048 61.2776 8.276 61.7416 8.732C62.2056 9.188 62.4736 9.756 62.5456 10.436H60.9856ZM59.7616 12.62C59.3376 12.62 58.9816 12.744 58.6936 12.992C58.4056 13.24 58.2616 13.6 58.2616 14.072C58.2616 14.544 58.3936 14.916 58.6576 15.188C58.9296 15.46 59.3096 15.596 59.7976 15.596C60.2296 15.596 60.5696 15.464 60.8176 15.2C61.0736 14.936 61.2016 14.58 61.2016 14.132C61.2016 13.668 61.0776 13.3 60.8296 13.028C60.5896 12.756 60.2336 12.62 59.7616 12.62Z" fill="white"/>
<path d="M58.4961 28.2558C57.3087 30.037 54.6913 30.037 53.5038 28.2558L52 26L60 26L58.4961 28.2558Z" fill="#1D79ED"/>
<rect x="46" y="34" width="20" height="20" rx="10" fill="#1D79ED"/>
<rect x="46" y="34" width="20" height="20" rx="10" stroke="#1F1F1F" stroke-width="4"/>
<circle cx="56" cy="44" r="2" fill="#1F1F1F"/>
<rect x="265" y="75.2042" width="46" height="26" rx="13" fill="#1D79ED"/>
<path d="M277.636 87.7162C277.636 86.3322 277.884 85.2482 278.38 84.4642C278.884 83.6802 279.716 83.2882 280.876 83.2882C282.036 83.2882 282.864 83.6802 283.36 84.4642C283.864 85.2482 284.116 86.3322 284.116 87.7162C284.116 89.1082 283.864 90.2002 283.36 90.9922C282.864 91.7842 282.036 92.1802 280.876 92.1802C279.716 92.1802 278.884 91.7842 278.38 90.9922C277.884 90.2002 277.636 89.1082 277.636 87.7162ZM282.46 87.7162C282.46 87.1242 282.42 86.6282 282.34 86.2282C282.268 85.8202 282.116 85.4882 281.884 85.2322C281.66 84.9762 281.324 84.8482 280.876 84.8482C280.428 84.8482 280.088 84.9762 279.856 85.2322C279.632 85.4882 279.48 85.8202 279.4 86.2282C279.328 86.6282 279.292 87.1242 279.292 87.7162C279.292 88.3242 279.328 88.8362 279.4 89.2522C279.472 89.6602 279.624 89.9922 279.856 90.2482C280.088 90.4962 280.428 90.6202 280.876 90.6202C281.324 90.6202 281.664 90.4962 281.896 90.2482C282.128 89.9922 282.28 89.6602 282.352 89.2522C282.424 88.8362 282.46 88.3242 282.46 87.7162ZM290.578 87.2122V88.6282H285.49V87.2122H290.578ZM292.678 90.3082C293.446 89.6682 294.058 89.1362 294.514 88.7122C294.97 88.2802 295.35 87.8322 295.654 87.3682C295.958 86.9042 296.11 86.4482 296.11 86.0002C296.11 85.5922 296.014 85.2722 295.822 85.0402C295.63 84.8082 295.334 84.6922 294.934 84.6922C294.534 84.6922 294.226 84.8282 294.01 85.1002C293.794 85.3642 293.682 85.7282 293.674 86.1922H292.042C292.074 85.2322 292.358 84.5042 292.894 84.0082C293.438 83.5122 294.126 83.2642 294.958 83.2642C295.87 83.2642 296.57 83.5082 297.058 83.9962C297.546 84.4762 297.79 85.1122 297.79 85.9042C297.79 86.5282 297.622 87.1242 297.286 87.6922C296.95 88.2602 296.566 88.7562 296.134 89.1802C295.702 89.5962 295.138 90.1002 294.442 90.6922H297.982V92.0842H292.054V90.8362L292.678 90.3082Z" fill="white"/>
<path d="M290.496 103.46C289.309 105.241 286.691 105.241 285.504 103.46L284 101.204L292 101.204L290.496 103.46Z" fill="#1D79ED"/>
<rect x="278" y="109.204" width="20" height="20" rx="10" fill="#1D79ED"/>
<rect x="278" y="109.204" width="20" height="20" rx="10" stroke="#1F1F1F" stroke-width="4"/>
<circle cx="288" cy="119.204" r="2" fill="#1F1F1F"/>
<defs>
<filter id="filter0_d_108_9469" x="29" y="18.1226" width="286" height="128.202" filterUnits="userSpaceOnUse" color-interpolation-filters="sRGB">
<feFlood flood-opacity="0" result="BackgroundImageFix"/>
<feColorMatrix in="SourceAlpha" type="matrix" values="0 0 0 0 0 0 0 0 0 0 0 0 0 0 0 0 0 0 127 0" result="hardAlpha"/>
<feOffset/>
<feGaussianBlur stdDeviation="12.5"/>
<feComposite in2="hardAlpha" operator="out"/>
<feColorMatrix type="matrix" values="0 0 0 0 0 0 0 0 0 0.478431 0 0 0 0 1 0 0 0 0.45 0"/>
<feBlend mode="normal" in2="BackgroundImageFix" result="effect1_dropShadow_108_9469"/>
<feBlend mode="normal" in="SourceGraphic" in2="effect1_dropShadow_108_9469" result="shape"/>
</filter>
</defs>
</svg>
