<svg width="14" height="15" viewBox="0 0 14 15" fill="none" xmlns="http://www.w3.org/2000/svg">
<path d="M9.58875 3.05859C10.9618 3.05859 12.0828 4.17758 12.0829 5.56934C12.0829 6.18193 11.9847 6.74602 11.8153 7.26953L11.8143 7.27441C11.4072 8.56275 10.5665 9.61664 9.63757 10.415C8.70527 11.2163 7.72663 11.7229 7.11902 11.9297L7.11121 11.9326C7.11933 11.9297 7.11223 11.9329 7.08679 11.9365C7.06296 11.9399 7.03225 11.9424 6.9989 11.9424C6.96578 11.9424 6.93571 11.9399 6.91199 11.9365C6.88646 11.9329 6.87943 11.9297 6.88757 11.9326L6.87878 11.9297L6.63464 11.8379C6.02755 11.5916 5.17597 11.1161 4.36023 10.415C3.43144 9.6167 2.59153 8.56253 2.18445 7.27441L2.1825 7.26953L2.12292 7.07129C1.99076 6.60423 1.91589 6.10542 1.91589 5.56934C1.91594 4.17764 3.03605 3.05869 4.40906 3.05859C5.21742 3.05859 5.94403 3.45155 6.39832 4.05859L6.9989 4.86133L7.59949 4.05859C8.05367 3.45152 8.78046 3.05875 9.58875 3.05859Z" stroke="#1F1F1F" stroke-width="1.5"/>
</svg>
