<svg width="40" height="40" viewBox="0 0 40 40" fill="none" xmlns="http://www.w3.org/2000/svg">
<rect width="40" height="40" rx="20" fill="white"/>
<path d="M23.6997 13.5833C25.701 13.5833 27.3334 15.2141 27.3335 17.2415C27.3335 18.1242 27.1928 18.9371 26.9487 19.6917L26.9468 19.6985C26.36 21.5552 25.1499 23.0725 23.8159 24.219C22.4777 25.369 21.0719 26.0963 20.1948 26.3948L20.1841 26.3987C20.1893 26.3969 20.1734 26.4019 20.1343 26.4075C20.0967 26.4128 20.05 26.4163 19.9995 26.4163C19.9489 26.4162 19.9023 26.4128 19.8647 26.4075C19.8251 26.4018 19.8099 26.3966 19.8159 26.3987L19.8052 26.3948C18.9281 26.0963 17.5223 25.3691 16.1841 24.219C14.8501 23.0725 13.64 21.5552 13.0532 19.6985L13.0513 19.6917C12.8072 18.9371 12.6665 18.1242 12.6665 17.2415C12.6666 15.2141 14.299 13.5833 16.3003 13.5833C17.4784 13.5834 18.537 14.156 19.1987 15.0403L19.9995 16.1106L20.8003 15.0403C21.4621 14.1558 22.5213 13.5833 23.6997 13.5833Z" stroke="#1F1F1F" stroke-width="2"/>
</svg>
