<svg width="361" height="84" viewBox="0 0 361 84" fill="none" xmlns="http://www.w3.org/2000/svg">
<rect width="361" height="84" rx="15" fill="#1F1F1F"/>
<mask id="mask0_53_4541" style="mask-type:alpha" maskUnits="userSpaceOnUse" x="0" y="0" width="361" height="84">
<rect width="361" height="84" rx="15" fill="#1F1F1F"/>
</mask>
<g mask="url(#mask0_53_4541)">
<path d="M313.744 -10.3C324.144 -10.3 332.494 -7.45001 338.794 -1.75C345.194 3.85 348.394 11.6 348.394 21.5C348.394 31.3 345.244 38.8 338.944 44C332.644 49.1 324.294 51.65 313.894 51.65L313.294 63.2H294.844L294.094 37.7H300.844C309.544 37.7 316.244 36.55 320.944 34.25C325.644 31.95 327.994 27.75 327.994 21.65C327.994 17.25 326.694 13.75 324.094 11.15C321.594 8.55 318.144 7.25 313.744 7.25C309.144 7.25 305.544 8.5 302.944 11C300.444 13.5 299.194 16.95 299.194 21.35H279.394C279.294 15.25 280.594 9.8 283.294 5C285.994 0.199996 289.944 -3.55001 295.144 -6.25001C300.444 -8.95001 306.644 -10.3 313.744 -10.3ZM303.994 99.05C300.194 99.05 297.044 97.9 294.544 95.6C292.144 93.2 290.944 90.25 290.944 86.75C290.944 83.25 292.144 80.35 294.544 78.05C297.044 75.65 300.194 74.45 303.994 74.45C307.694 74.45 310.744 75.65 313.144 78.05C315.544 80.35 316.744 83.25 316.744 86.75C316.744 90.25 315.544 93.2 313.144 95.6C310.744 97.9 307.694 99.05 303.994 99.05Z" fill="white"/>
</g>
<path d="M20.26 23.4L19.48 25.52H19.94L19.52 27.58H18.18L18.62 25.52L19.56 23.4H20.26ZM22.54 23.4L21.78 25.52H22.24L21.82 27.58H20.48L20.9 25.52L21.86 23.4H22.54ZM24.0523 23.8H25.5523L27.7123 36.38L31.6123 29.96L30.5523 23.9H31.8723L32.6723 28.94L35.6523 23.9H36.9723L33.3323 29.96L34.5123 36.38L41.9923 23.8H43.5323L34.7923 38H33.5923L32.2723 30.98L27.9523 38H26.7323L24.0523 23.8ZM45.3738 23.4H46.7338L45.3338 29.94C45.8938 29.1667 46.5671 28.5533 47.3538 28.1C48.1538 27.6333 48.9604 27.4 49.7738 27.4C50.3338 27.4 50.7871 27.5133 51.1338 27.74C51.4938 27.9533 51.7538 28.26 51.9138 28.66C52.0738 29.0467 52.1538 29.5133 52.1538 30.06C52.1538 30.3267 52.1338 30.62 52.0938 30.94C52.0671 31.2467 52.0138 31.5667 51.9338 31.9L50.6538 38H49.2938L50.5338 32.18C50.5871 31.8867 50.6271 31.6133 50.6538 31.36C50.6938 31.1067 50.7138 30.8733 50.7138 30.66C50.7138 29.9933 50.5671 29.4933 50.2738 29.16C49.9938 28.8133 49.5738 28.64 49.0138 28.64C48.5471 28.64 48.0538 28.7733 47.5338 29.04C47.0138 29.2933 46.5271 29.6467 46.0738 30.1C45.6204 30.54 45.2538 31.0467 44.9738 31.62L43.6338 38H42.2738L45.3738 23.4ZM57.4656 38.2C56.7056 38.2 56.0456 38 55.4856 37.6C54.9256 37.2 54.499 36.6667 54.2056 36C53.9123 35.3333 53.7656 34.6133 53.7656 33.84C53.7656 33.0133 53.919 32.22 54.2256 31.46C54.5456 30.6867 54.9723 30 55.5056 29.4C56.0523 28.7867 56.6723 28.3 57.3656 27.94C58.059 27.58 58.7856 27.4 59.5456 27.4C60.3856 27.4 61.079 27.6333 61.6256 28.1C62.1723 28.5533 62.559 29.1067 62.7856 29.76L63.2656 27.58H64.6256L62.7856 36.22C62.7723 36.26 62.759 36.3067 62.7456 36.36C62.7456 36.4 62.7456 36.44 62.7456 36.48C62.7456 36.6933 62.8723 36.8 63.1256 36.8L62.8656 38C62.759 38.0133 62.659 38.0267 62.5656 38.04C62.4856 38.0533 62.4056 38.06 62.3256 38.06C62.019 38.0467 61.7856 37.9667 61.6256 37.82C61.479 37.66 61.4056 37.4733 61.4056 37.26C61.4056 37.18 61.4123 37.0933 61.4256 37C61.439 36.9067 61.459 36.78 61.4856 36.62C61.5256 36.46 61.5723 36.2467 61.6256 35.98C61.0923 36.66 60.4456 37.2 59.6856 37.6C58.939 38 58.199 38.2 57.4656 38.2ZM58.0256 37C58.359 37 58.7123 36.9333 59.0856 36.8C59.4723 36.6667 59.8456 36.4867 60.2056 36.26C60.5656 36.02 60.8856 35.74 61.1656 35.42C61.459 35.1 61.6723 34.7667 61.8056 34.42L62.4656 31.2C62.4123 30.72 62.2523 30.2867 61.9856 29.9C61.719 29.5133 61.3856 29.2 60.9856 28.96C60.5856 28.72 60.1456 28.6 59.6656 28.6C59.0656 28.6 58.499 28.7467 57.9656 29.04C57.4323 29.3333 56.9523 29.7267 56.5256 30.22C56.1123 30.7133 55.7856 31.26 55.5456 31.86C55.3056 32.4467 55.1856 33.04 55.1856 33.64C55.1856 34.2533 55.3056 34.8133 55.5456 35.32C55.7856 35.8267 56.1123 36.2333 56.5256 36.54C56.9523 36.8467 57.4523 37 58.0256 37ZM66.1202 36.62C66.1202 36.54 66.1268 36.46 66.1402 36.38C66.1535 36.2867 66.1668 36.2 66.1802 36.12L67.7602 28.66H66.3802L66.6202 27.58H67.9802L68.7402 24.06H70.1002L69.3402 27.58H71.6202L71.3802 28.66H69.1202L67.6802 35.44C67.6402 35.5867 67.6135 35.7 67.6002 35.78C67.5868 35.86 67.5802 35.9333 67.5802 36C67.5802 36.2933 67.6735 36.5133 67.8602 36.66C68.0468 36.7933 68.2735 36.86 68.5402 36.86C68.7935 36.86 69.0268 36.8267 69.2402 36.76C69.4535 36.6933 69.6402 36.6267 69.8002 36.56C69.9735 36.4933 70.0868 36.44 70.1402 36.4L70.2602 37.5C70.1402 37.5667 69.9602 37.6533 69.7202 37.76C69.4802 37.8667 69.2002 37.9533 68.8802 38.02C68.5602 38.0867 68.2202 38.12 67.8602 38.12C67.3668 38.12 66.9535 38 66.6202 37.76C66.2868 37.5067 66.1202 37.1267 66.1202 36.62ZM78.9464 27.58H80.3064L78.1064 38H76.7464L78.9464 27.58ZM79.8464 23.4H81.2064L80.7864 25.4H79.4264L79.8464 23.4ZM83.4242 28.66H82.0642L82.2842 27.58H83.6642L83.7042 27.3C83.8776 26.4467 84.1442 25.7133 84.5042 25.1C84.8776 24.4867 85.3242 24.02 85.8442 23.7C86.3642 23.3667 86.9242 23.2 87.5242 23.2C87.9109 23.2 88.2709 23.26 88.6042 23.38C88.9509 23.5 89.2442 23.66 89.4842 23.86L88.8642 24.84C88.7309 24.6933 88.5376 24.58 88.2842 24.5C88.0442 24.42 87.7976 24.38 87.5442 24.38C86.9576 24.38 86.4509 24.6267 86.0242 25.12C85.5976 25.6133 85.2842 26.3267 85.0842 27.26L85.0242 27.58H87.7242L87.5042 28.66H84.7842L81.9042 42.24H80.5442L83.4242 28.66ZM92.6117 27.58L93.3717 25.44H92.9117L93.3317 23.4H94.6717L94.2517 25.44L93.3117 27.58H92.6117ZM90.3117 27.58L91.0717 25.44H90.6117L91.0517 23.4H92.3917L91.9517 25.44L91.0117 27.58H90.3117ZM99.9617 31C99.9617 29.6267 100.268 28.4 100.882 27.32C101.508 26.2267 102.355 25.38 103.422 24.78C104.502 24.1667 105.708 23.86 107.042 23.86C108.602 23.86 109.968 24.26 111.142 25.06C112.315 25.86 113.135 26.9667 113.602 28.38H110.382C110.062 27.7133 109.608 27.2133 109.022 26.88C108.448 26.5467 107.782 26.38 107.022 26.38C106.208 26.38 105.482 26.5733 104.842 26.96C104.215 27.3333 103.722 27.8667 103.362 28.56C103.015 29.2533 102.842 30.0667 102.842 31C102.842 31.92 103.015 32.7333 103.362 33.44C103.722 34.1333 104.215 34.6733 104.842 35.06C105.482 35.4333 106.208 35.62 107.022 35.62C107.782 35.62 108.448 35.4533 109.022 35.12C109.608 34.7733 110.062 34.2667 110.382 33.6H113.602C113.135 35.0267 112.315 36.14 111.142 36.94C109.982 37.7267 108.615 38.12 107.042 38.12C105.708 38.12 104.502 37.82 103.422 37.22C102.355 36.6067 101.508 35.76 100.882 34.68C100.268 33.6 99.9617 32.3733 99.9617 31ZM122.233 26.76C123.073 26.76 123.82 26.9467 124.473 27.32C125.127 27.68 125.633 28.22 125.993 28.94C126.367 29.6467 126.553 30.5 126.553 31.5V38H123.753V31.88C123.753 31 123.533 30.3267 123.093 29.86C122.653 29.38 122.053 29.14 121.293 29.14C120.52 29.14 119.907 29.38 119.453 29.86C119.013 30.3267 118.793 31 118.793 31.88V38H115.993V23.2H118.793V28.3C119.153 27.82 119.633 27.4467 120.233 27.18C120.833 26.9 121.5 26.76 122.233 26.76ZM128.496 32.42C128.496 31.3 128.716 30.3067 129.156 29.44C129.609 28.5733 130.216 27.9067 130.976 27.44C131.749 26.9733 132.609 26.74 133.556 26.74C134.383 26.74 135.103 26.9067 135.716 27.24C136.343 27.5733 136.843 27.9933 137.216 28.5V26.92H140.036V38H137.216V36.38C136.856 36.9 136.356 37.3333 135.716 37.68C135.089 38.0133 134.363 38.18 133.536 38.18C132.603 38.18 131.749 37.94 130.976 37.46C130.216 36.98 129.609 36.3067 129.156 35.44C128.716 34.56 128.496 33.5533 128.496 32.42ZM137.216 32.46C137.216 31.78 137.083 31.2 136.816 30.72C136.549 30.2267 136.189 29.8533 135.736 29.6C135.283 29.3333 134.796 29.2 134.276 29.2C133.756 29.2 133.276 29.3267 132.836 29.58C132.396 29.8333 132.036 30.2067 131.756 30.7C131.489 31.18 131.356 31.7533 131.356 32.42C131.356 33.0867 131.489 33.6733 131.756 34.18C132.036 34.6733 132.396 35.0533 132.836 35.32C133.289 35.5867 133.769 35.72 134.276 35.72C134.796 35.72 135.283 35.5933 135.736 35.34C136.189 35.0733 136.549 34.7 136.816 34.22C137.083 33.7267 137.216 33.14 137.216 32.46ZM145.571 23.2V38H142.771V23.2H145.571ZM151.137 23.2V38H148.337V23.2H151.137ZM164.203 32.22C164.203 32.62 164.177 32.98 164.123 33.3H156.023C156.09 34.1 156.37 34.7267 156.863 35.18C157.357 35.6333 157.963 35.86 158.683 35.86C159.723 35.86 160.463 35.4133 160.903 34.52H163.923C163.603 35.5867 162.99 36.4667 162.083 37.16C161.177 37.84 160.063 38.18 158.743 38.18C157.677 38.18 156.717 37.9467 155.863 37.48C155.023 37 154.363 36.3267 153.883 35.46C153.417 34.5933 153.183 33.5933 153.183 32.46C153.183 31.3133 153.417 30.3067 153.883 29.44C154.35 28.5733 155.003 27.9067 155.843 27.44C156.683 26.9733 157.65 26.74 158.743 26.74C159.797 26.74 160.737 26.9667 161.563 27.42C162.403 27.8733 163.05 28.52 163.503 29.36C163.97 30.1867 164.203 31.14 164.203 32.22ZM161.303 31.42C161.29 30.7 161.03 30.1267 160.523 29.7C160.017 29.26 159.397 29.04 158.663 29.04C157.97 29.04 157.383 29.2533 156.903 29.68C156.437 30.0933 156.15 30.6733 156.043 31.42H161.303ZM172.387 26.76C173.707 26.76 174.774 27.18 175.587 28.02C176.401 28.8467 176.807 30.0067 176.807 31.5V38H174.007V31.88C174.007 31 173.787 30.3267 173.347 29.86C172.907 29.38 172.307 29.14 171.547 29.14C170.774 29.14 170.161 29.38 169.707 29.86C169.267 30.3267 169.047 31 169.047 31.88V38H166.247V26.92H169.047V28.3C169.421 27.82 169.894 27.4467 170.467 27.18C171.054 26.9 171.694 26.76 172.387 26.76ZM183.81 26.74C184.637 26.74 185.363 26.9067 185.99 27.24C186.617 27.56 187.11 27.98 187.47 28.5V26.92H190.29V38.08C190.29 39.1067 190.083 40.02 189.67 40.82C189.257 41.6333 188.637 42.2733 187.81 42.74C186.983 43.22 185.983 43.46 184.81 43.46C183.237 43.46 181.943 43.0933 180.93 42.36C179.93 41.6267 179.363 40.6267 179.23 39.36H182.01C182.157 39.8667 182.47 40.2667 182.95 40.56C183.443 40.8667 184.037 41.02 184.73 41.02C185.543 41.02 186.203 40.7733 186.71 40.28C187.217 39.8 187.47 39.0667 187.47 38.08V36.36C187.11 36.88 186.61 37.3133 185.97 37.66C185.343 38.0067 184.623 38.18 183.81 38.18C182.877 38.18 182.023 37.94 181.25 37.46C180.477 36.98 179.863 36.3067 179.41 35.44C178.97 34.56 178.75 33.5533 178.75 32.42C178.75 31.3 178.97 30.3067 179.41 29.44C179.863 28.5733 180.47 27.9067 181.23 27.44C182.003 26.9733 182.863 26.74 183.81 26.74ZM187.47 32.46C187.47 31.78 187.337 31.2 187.07 30.72C186.803 30.2267 186.443 29.8533 185.99 29.6C185.537 29.3333 185.05 29.2 184.53 29.2C184.01 29.2 183.53 29.3267 183.09 29.58C182.65 29.8333 182.29 30.2067 182.01 30.7C181.743 31.18 181.61 31.7533 181.61 32.42C181.61 33.0867 181.743 33.6733 182.01 34.18C182.29 34.6733 182.65 35.0533 183.09 35.32C183.543 35.5867 184.023 35.72 184.53 35.72C185.05 35.72 185.537 35.5933 185.99 35.34C186.443 35.0733 186.803 34.7 187.07 34.22C187.337 33.7267 187.47 33.14 187.47 32.46ZM203.325 32.22C203.325 32.62 203.298 32.98 203.245 33.3H195.145C195.211 34.1 195.491 34.7267 195.985 35.18C196.478 35.6333 197.085 35.86 197.805 35.86C198.845 35.86 199.585 35.4133 200.025 34.52H203.045C202.725 35.5867 202.111 36.4667 201.205 37.16C200.298 37.84 199.185 38.18 197.865 38.18C196.798 38.18 195.838 37.9467 194.985 37.48C194.145 37 193.485 36.3267 193.005 35.46C192.538 34.5933 192.305 33.5933 192.305 32.46C192.305 31.3133 192.538 30.3067 193.005 29.44C193.471 28.5733 194.125 27.9067 194.965 27.44C195.805 26.9733 196.771 26.74 197.865 26.74C198.918 26.74 199.858 26.9667 200.685 27.42C201.525 27.8733 202.171 28.52 202.625 29.36C203.091 30.1867 203.325 31.14 203.325 32.22ZM200.425 31.42C200.411 30.7 200.151 30.1267 199.645 29.7C199.138 29.26 198.518 29.04 197.785 29.04C197.091 29.04 196.505 29.2533 196.025 29.68C195.558 30.0933 195.271 30.6733 195.165 31.42H200.425Z" fill="white"/>
<path opacity="0.75" d="M18.016 58.112H20.944V59H16.924V50.636H18.016V58.112ZM21.6957 55.688C21.6957 55.016 21.8317 54.428 22.1037 53.924C22.3757 53.412 22.7477 53.016 23.2197 52.736C23.6997 52.456 24.2317 52.316 24.8157 52.316C25.3917 52.316 25.8917 52.44 26.3157 52.688C26.7397 52.936 27.0557 53.248 27.2637 53.624V52.424H28.3677V59H27.2637V57.776C27.0477 58.16 26.7237 58.48 26.2917 58.736C25.8677 58.984 25.3717 59.108 24.8037 59.108C24.2197 59.108 23.6917 58.964 23.2197 58.676C22.7477 58.388 22.3757 57.984 22.1037 57.464C21.8317 56.944 21.6957 56.352 21.6957 55.688ZM27.2637 55.7C27.2637 55.204 27.1637 54.772 26.9637 54.404C26.7637 54.036 26.4917 53.756 26.1477 53.564C25.8117 53.364 25.4397 53.264 25.0317 53.264C24.6237 53.264 24.2517 53.36 23.9157 53.552C23.5797 53.744 23.3117 54.024 23.1117 54.392C22.9117 54.76 22.8117 55.192 22.8117 55.688C22.8117 56.192 22.9117 56.632 23.1117 57.008C23.3117 57.376 23.5797 57.66 23.9157 57.86C24.2517 58.052 24.6237 58.148 25.0317 58.148C25.4397 58.148 25.8117 58.052 26.1477 57.86C26.4917 57.66 26.7637 57.376 26.9637 57.008C27.1637 56.632 27.2637 56.196 27.2637 55.7ZM32.5411 59.108C32.0371 59.108 31.5851 59.024 31.1851 58.856C30.7851 58.68 30.4691 58.44 30.2371 58.136C30.0051 57.824 29.8771 57.468 29.8531 57.068H30.9811C31.0131 57.396 31.1651 57.664 31.4371 57.872C31.7171 58.08 32.0811 58.184 32.5291 58.184C32.9451 58.184 33.2731 58.092 33.5131 57.908C33.7531 57.724 33.8731 57.492 33.8731 57.212C33.8731 56.924 33.7451 56.712 33.4891 56.576C33.2331 56.432 32.8371 56.292 32.3011 56.156C31.8131 56.028 31.4131 55.9 31.1011 55.772C30.7971 55.636 30.5331 55.44 30.3091 55.184C30.0931 54.92 29.9851 54.576 29.9851 54.152C29.9851 53.816 30.0851 53.508 30.2851 53.228C30.4851 52.948 30.7691 52.728 31.1371 52.568C31.5051 52.4 31.9251 52.316 32.3971 52.316C33.1251 52.316 33.7131 52.5 34.1611 52.868C34.6091 53.236 34.8491 53.74 34.8811 54.38H33.7891C33.7651 54.036 33.6251 53.76 33.3691 53.552C33.1211 53.344 32.7851 53.24 32.3611 53.24C31.9691 53.24 31.6571 53.324 31.4251 53.492C31.1931 53.66 31.0771 53.88 31.0771 54.152C31.0771 54.368 31.1451 54.548 31.2811 54.692C31.4251 54.828 31.6011 54.94 31.8091 55.028C32.0251 55.108 32.3211 55.2 32.6971 55.304C33.1691 55.432 33.5531 55.56 33.8491 55.688C34.1451 55.808 34.3971 55.992 34.6051 56.24C34.8211 56.488 34.9331 56.812 34.9411 57.212C34.9411 57.572 34.8411 57.896 34.6411 58.184C34.4411 58.472 34.1571 58.7 33.7891 58.868C33.4291 59.028 33.0131 59.108 32.5411 59.108ZM37.8146 53.324V57.2C37.8146 57.52 37.8826 57.748 38.0186 57.884C38.1546 58.012 38.3906 58.076 38.7266 58.076H39.5306V59H38.5466C37.9386 59 37.4826 58.86 37.1786 58.58C36.8746 58.3 36.7226 57.84 36.7226 57.2V53.324H35.8706V52.424H36.7226V50.768H37.8146V52.424H39.5306V53.324H37.8146ZM46.6569 50.636C47.5689 50.636 48.3569 50.808 49.0209 51.152C49.6929 51.488 50.2049 51.972 50.5569 52.604C50.9169 53.236 51.0969 53.98 51.0969 54.836C51.0969 55.692 50.9169 56.436 50.5569 57.068C50.2049 57.692 49.6929 58.172 49.0209 58.508C48.3569 58.836 47.5689 59 46.6569 59H44.0529V50.636H46.6569ZM46.6569 58.1C47.7369 58.1 48.5609 57.816 49.1289 57.248C49.6969 56.672 49.9809 55.868 49.9809 54.836C49.9809 53.796 49.6929 52.984 49.1169 52.4C48.5489 51.816 47.7289 51.524 46.6569 51.524H45.1449V58.1H46.6569ZM55.4053 59.108C54.7893 59.108 54.2293 58.968 53.7253 58.688C53.2293 58.408 52.8373 58.012 52.5493 57.5C52.2693 56.98 52.1293 56.38 52.1293 55.7C52.1293 55.028 52.2733 54.436 52.5613 53.924C52.8573 53.404 53.2573 53.008 53.7613 52.736C54.2653 52.456 54.8293 52.316 55.4533 52.316C56.0773 52.316 56.6413 52.456 57.1453 52.736C57.6493 53.008 58.0453 53.4 58.3333 53.912C58.6293 54.424 58.7773 55.02 58.7773 55.7C58.7773 56.38 58.6253 56.98 58.3213 57.5C58.0253 58.012 57.6213 58.408 57.1093 58.688C56.5973 58.968 56.0293 59.108 55.4053 59.108ZM55.4053 58.148C55.7973 58.148 56.1653 58.056 56.5093 57.872C56.8533 57.688 57.1293 57.412 57.3373 57.044C57.5533 56.676 57.6613 56.228 57.6613 55.7C57.6613 55.172 57.5573 54.724 57.3493 54.356C57.1413 53.988 56.8693 53.716 56.5333 53.54C56.1973 53.356 55.8333 53.264 55.4413 53.264C55.0413 53.264 54.6733 53.356 54.3373 53.54C54.0093 53.716 53.7453 53.988 53.5453 54.356C53.3453 54.724 53.2453 55.172 53.2453 55.7C53.2453 56.236 53.3413 56.688 53.5333 57.056C53.7333 57.424 53.9973 57.7 54.3253 57.884C54.6533 58.06 55.0133 58.148 55.4053 58.148ZM63.4171 52.304C64.2171 52.304 64.8651 52.548 65.3611 53.036C65.8571 53.516 66.1051 54.212 66.1051 55.124V59H65.0251V55.28C65.0251 54.624 64.8611 54.124 64.5331 53.78C64.2051 53.428 63.7571 53.252 63.1891 53.252C62.6131 53.252 62.1531 53.432 61.8091 53.792C61.4731 54.152 61.3051 54.676 61.3051 55.364V59H60.2131V52.424H61.3051V53.36C61.5211 53.024 61.8131 52.764 62.1811 52.58C62.5571 52.396 62.9691 52.304 63.4171 52.304ZM73.8888 55.46C73.8888 55.668 73.8768 55.888 73.8528 56.12H68.5968C68.6368 56.768 68.8568 57.276 69.2568 57.644C69.6648 58.004 70.1568 58.184 70.7328 58.184C71.2048 58.184 71.5968 58.076 71.9088 57.86C72.2288 57.636 72.4528 57.34 72.5808 56.972H73.7568C73.5808 57.604 73.2288 58.12 72.7008 58.52C72.1728 58.912 71.5168 59.108 70.7328 59.108C70.1088 59.108 69.5488 58.968 69.0528 58.688C68.5648 58.408 68.1808 58.012 67.9008 57.5C67.6208 56.98 67.4808 56.38 67.4808 55.7C67.4808 55.02 67.6168 54.424 67.8888 53.912C68.1608 53.4 68.5408 53.008 69.0288 52.736C69.5248 52.456 70.0928 52.316 70.7328 52.316C71.3568 52.316 71.9088 52.452 72.3888 52.724C72.8688 52.996 73.2368 53.372 73.4928 53.852C73.7568 54.324 73.8888 54.86 73.8888 55.46ZM72.7608 55.232C72.7608 54.816 72.6688 54.46 72.4848 54.164C72.3008 53.86 72.0488 53.632 71.7288 53.48C71.4168 53.32 71.0688 53.24 70.6848 53.24C70.1328 53.24 69.6608 53.416 69.2688 53.768C68.8848 54.12 68.6648 54.608 68.6088 55.232H72.7608ZM81.1335 50.636C82.0455 50.636 82.8335 50.808 83.4975 51.152C84.1695 51.488 84.6815 51.972 85.0335 52.604C85.3935 53.236 85.5735 53.98 85.5735 54.836C85.5735 55.692 85.3935 56.436 85.0335 57.068C84.6815 57.692 84.1695 58.172 83.4975 58.508C82.8335 58.836 82.0455 59 81.1335 59H78.5295V50.636H81.1335ZM81.1335 58.1C82.2135 58.1 83.0375 57.816 83.6055 57.248C84.1735 56.672 84.4575 55.868 84.4575 54.836C84.4575 53.796 84.1695 52.984 83.5935 52.4C83.0255 51.816 82.2055 51.524 81.1335 51.524H79.6215V58.1H81.1335ZM93.0138 55.46C93.0138 55.668 93.0018 55.888 92.9778 56.12H87.7218C87.7618 56.768 87.9818 57.276 88.3818 57.644C88.7898 58.004 89.2818 58.184 89.8578 58.184C90.3298 58.184 90.7218 58.076 91.0338 57.86C91.3538 57.636 91.5778 57.34 91.7058 56.972H92.8818C92.7058 57.604 92.3538 58.12 91.8258 58.52C91.2978 58.912 90.6418 59.108 89.8578 59.108C89.2338 59.108 88.6738 58.968 88.1778 58.688C87.6898 58.408 87.3058 58.012 87.0258 57.5C86.7458 56.98 86.6058 56.38 86.6058 55.7C86.6058 55.02 86.7418 54.424 87.0138 53.912C87.2858 53.4 87.6658 53.008 88.1538 52.736C88.6498 52.456 89.2178 52.316 89.8578 52.316C90.4818 52.316 91.0338 52.452 91.5138 52.724C91.9938 52.996 92.3618 53.372 92.6178 53.852C92.8818 54.324 93.0138 54.86 93.0138 55.46ZM91.8858 55.232C91.8858 54.816 91.7938 54.46 91.6098 54.164C91.4258 53.86 91.1738 53.632 90.8538 53.48C90.5418 53.32 90.1938 53.24 89.8098 53.24C89.2578 53.24 88.7858 53.416 88.3938 53.768C88.0098 54.12 87.7898 54.608 87.7338 55.232H91.8858ZM94.0473 55.7C94.0473 55.02 94.1833 54.428 94.4553 53.924C94.7273 53.412 95.1033 53.016 95.5833 52.736C96.0713 52.456 96.6273 52.316 97.2513 52.316C98.0593 52.316 98.7233 52.512 99.2433 52.904C99.7713 53.296 100.119 53.84 100.287 54.536H99.1113C98.9993 54.136 98.7793 53.82 98.4513 53.588C98.1313 53.356 97.7313 53.24 97.2513 53.24C96.6273 53.24 96.1233 53.456 95.7393 53.888C95.3553 54.312 95.1633 54.916 95.1633 55.7C95.1633 56.492 95.3553 57.104 95.7393 57.536C96.1233 57.968 96.6273 58.184 97.2513 58.184C97.7313 58.184 98.1313 58.072 98.4513 57.848C98.7713 57.624 98.9913 57.304 99.1113 56.888H100.287C100.111 57.56 99.7593 58.1 99.2313 58.508C98.7033 58.908 98.0433 59.108 97.2513 59.108C96.6273 59.108 96.0713 58.968 95.5833 58.688C95.1033 58.408 94.7273 58.012 94.4553 57.5C94.1833 56.988 94.0473 56.388 94.0473 55.7ZM104.476 51.32V50.324H106.732V59H105.628V51.32H104.476ZM110.191 54.488C109.743 54.312 109.399 54.056 109.159 53.72C108.919 53.384 108.799 52.976 108.799 52.496C108.799 52.064 108.907 51.676 109.123 51.332C109.339 50.98 109.659 50.704 110.083 50.504C110.515 50.296 111.035 50.192 111.643 50.192C112.251 50.192 112.767 50.296 113.191 50.504C113.623 50.704 113.947 50.98 114.163 51.332C114.387 51.676 114.499 52.064 114.499 52.496C114.499 52.96 114.375 53.368 114.127 53.72C113.879 54.064 113.539 54.32 113.107 54.488C113.603 54.64 113.995 54.908 114.283 55.292C114.579 55.668 114.727 56.124 114.727 56.66C114.727 57.18 114.599 57.636 114.343 58.028C114.087 58.412 113.723 58.712 113.251 58.928C112.787 59.136 112.251 59.24 111.643 59.24C111.035 59.24 110.499 59.136 110.035 58.928C109.579 58.712 109.223 58.412 108.967 58.028C108.711 57.636 108.583 57.18 108.583 56.66C108.583 56.124 108.727 55.664 109.015 55.28C109.303 54.896 109.695 54.632 110.191 54.488ZM113.443 52.628C113.443 52.14 113.283 51.764 112.963 51.5C112.643 51.236 112.203 51.104 111.643 51.104C111.091 51.104 110.655 51.236 110.335 51.5C110.015 51.764 109.855 52.144 109.855 52.64C109.855 53.088 110.019 53.448 110.347 53.72C110.683 53.992 111.115 54.128 111.643 54.128C112.179 54.128 112.611 53.992 112.939 53.72C113.275 53.44 113.443 53.076 113.443 52.628ZM111.643 54.968C111.051 54.968 110.567 55.108 110.191 55.388C109.815 55.66 109.627 56.072 109.627 56.624C109.627 57.136 109.807 57.548 110.167 57.86C110.535 58.172 111.027 58.328 111.643 58.328C112.259 58.328 112.747 58.172 113.107 57.86C113.467 57.548 113.647 57.136 113.647 56.624C113.647 56.088 113.463 55.68 113.095 55.4C112.727 55.112 112.243 54.968 111.643 54.968Z" fill="white"/>
<path d="M226.807 35.7817C227.146 35.4424 227.704 35.4424 228.043 35.7817L233.477 41.2144C233.948 41.6858 234.217 42.3244 234.217 42.9995C234.217 43.6717 233.958 44.3102 233.476 44.7837L233.477 44.7847L228.037 50.2241C227.871 50.3791 227.654 50.4751 227.425 50.4751C227.204 50.4751 226.981 50.3925 226.807 50.2183C226.468 49.879 226.468 49.3203 226.807 48.981L232.24 43.5483C232.542 43.246 232.542 42.754 232.24 42.4517L226.807 37.0181C226.468 36.6788 226.468 36.121 226.807 35.7817Z" fill="white" stroke="white" stroke-width="0.5"/>
</svg>
