<svg width="18" height="19" viewBox="0 0 18 19" fill="none" xmlns="http://www.w3.org/2000/svg">
<path d="M7.5 3.5C7.5 2.67157 8.17157 2 9 2H9.75C10.5784 2 11.25 2.67157 11.25 3.5V5.41503C11.25 6.39952 11.89 7.26969 12.8299 7.56292L13.4201 7.74708C14.36 8.04031 15 8.91047 15 9.89497V11C15 11.4142 14.6642 11.75 14.25 11.75H4.5C4.08579 11.75 3.75 11.4142 3.75 11V9.89497C3.75 8.91047 4.39005 8.0403 5.32986 7.74708L5.92014 7.56292C6.85996 7.26969 7.5 6.39952 7.5 5.41503V3.5Z" stroke="#1F1F1F" stroke-width="1.5"/>
<path d="M4.50162 11.75C4.61848 12.7311 4.12177 15.1349 3 16.9009C3 16.9009 10.7193 17.7945 11.7638 13.9575V15.4034C11.7638 16.1093 11.7638 16.4623 11.9838 16.6816C12.4066 17.1033 14.3918 17.1149 14.8153 16.664C15.0378 16.4272 15.0155 16.0864 14.9708 15.4048C14.8972 14.281 14.6949 12.8419 14.1392 11.75" stroke="#1F1F1F" stroke-width="1.5" stroke-linecap="round" stroke-linejoin="round"/>
</svg>
