<svg width="26" height="26" viewBox="0 0 26 26" fill="none" xmlns="http://www.w3.org/2000/svg">
<path d="M4.64283 17.2172C4.64221 17.3808 4.68617 17.5415 4.76998 17.6819C4.8538 17.8224 4.9743 17.9373 5.11854 18.0144C5.26033 18.0993 5.42253 18.1442 5.58784 18.1442C5.75313 18.1442 5.91533 18.0993 6.05712 18.0144L12.5885 13.7715C12.716 13.6902 12.8208 13.578 12.8935 13.4455C12.9661 13.3129 13.0042 13.1641 13.0042 13.013C13.0042 12.8618 12.9661 12.7131 12.8935 12.5805C12.8208 12.4479 12.716 12.3357 12.5885 12.2544L6.05712 7.98583C5.91533 7.90084 5.75313 7.85596 5.58784 7.85596C5.42253 7.85596 5.26033 7.90084 5.11854 7.98583C4.9743 8.06293 4.8538 8.17789 4.76998 8.31833C4.68617 8.45878 4.64221 8.61941 4.64283 8.78297V17.2172Z" stroke="black" stroke-linecap="round" stroke-linejoin="round"/>
<path d="M12.9959 17.2172C12.9952 17.3808 13.0392 17.5415 13.123 17.6819C13.2068 17.8224 13.3273 17.9373 13.4716 18.0144C13.6134 18.0993 13.7756 18.1442 13.9409 18.1442C14.1062 18.1442 14.2684 18.0993 14.4101 18.0144L20.9415 13.7715C21.0689 13.6902 21.1739 13.578 21.2465 13.4455C21.3191 13.3129 21.3572 13.1641 21.3572 13.013C21.3572 12.8618 21.3191 12.7131 21.2465 12.5805C21.1739 12.4479 21.0689 12.3357 20.9415 12.2544L14.4101 7.98583C14.2684 7.90084 14.1062 7.85596 13.9409 7.85596C13.7756 7.85596 13.6134 7.90084 13.4716 7.98583C13.3311 8.06084 13.2131 8.17177 13.1295 8.30729C13.0459 8.44281 12.9998 8.59808 12.9959 8.75726V17.2172Z" stroke="black" stroke-linecap="round" stroke-linejoin="round"/>
</svg>
