<svg width="26" height="26" viewBox="0 0 26 26" fill="none" xmlns="http://www.w3.org/2000/svg">
<g clip-path="url(#clip0_10_1508)">
<path d="M21.1993 4.79994C20.7346 4.33525 20.0917 4.08636 19.4329 4.11303L14.5431 4.32389C13.9535 4.34957 13.398 4.59303 12.9797 5.0113L4.79959 13.1916C3.88158 14.1096 3.88158 15.6034 4.79959 16.5214L9.47803 21.2C9.93679 21.6587 10.5397 21.8889 11.1432 21.8889C11.7466 21.8889 12.3491 21.6587 12.8084 21.2L20.9885 13.0197C21.4062 12.6019 21.6502 12.0469 21.6759 11.4563L21.8867 6.56636C21.9149 5.90908 21.6645 5.26562 21.1993 4.79994ZM21.0077 11.4271C20.9899 11.8503 20.8146 12.2479 20.5154 12.5466L12.3353 20.7269C11.678 21.3842 10.6079 21.3842 9.95062 20.7269L5.27218 16.0489C4.6149 15.3916 4.6149 14.3214 5.27218 13.6642L13.4528 5.48389C13.752 5.18463 14.1496 5.00932 14.5723 4.99155L19.4621 4.78068C19.9406 4.75846 20.3895 4.93476 20.7267 5.27303C21.065 5.6113 21.2393 6.06019 21.2191 6.53772L21.0077 11.4276V11.4271ZM17.674 6.26908C17.1066 6.8355 17.1066 7.75896 17.674 8.32637C17.9579 8.61032 18.3302 8.75205 18.7021 8.75205C19.0739 8.75205 19.4473 8.61032 19.7302 8.32637C20.2966 7.75896 20.2966 6.83649 19.7302 6.26908C19.1638 5.70266 18.2404 5.70167 17.673 6.26908H17.674ZM19.2586 7.85377C18.952 8.16044 18.4527 8.16044 18.1465 7.85377C17.8399 7.54711 17.8399 7.04785 18.1465 6.74167C18.2996 6.58859 18.5011 6.51155 18.7031 6.51155C18.905 6.51155 19.1055 6.58859 19.2596 6.74167C19.5663 7.04834 19.5663 7.5476 19.2596 7.85377H19.2586Z" fill="#1F1F1F" stroke="#1F1F1F" stroke-width="0.25"/>
<path d="M9.91168 17.2302L10.5245 16.6173L10.8855 16.9783L9.80452 18.0593L7.88354 16.1383L8.3512 15.6707L9.9107 17.2302H9.91168Z" fill="#1F1F1F"/>
<path d="M11.4154 16.2354C11.1809 16.3021 10.9443 16.3046 10.7053 16.2424C10.4663 16.1801 10.253 16.0552 10.0648 15.8675C9.87717 15.6799 9.75273 15.467 9.6915 15.2285C9.63026 14.9905 9.63323 14.754 9.6994 14.5199C9.76606 14.2853 9.88952 14.0779 10.0703 13.8972C10.251 13.7164 10.4584 13.593 10.6925 13.5263C10.927 13.4596 11.1621 13.4577 11.3987 13.5209C11.6347 13.5841 11.847 13.7095 12.0347 13.8972C12.2228 14.0853 12.3483 14.2982 12.411 14.5362C12.4742 14.7742 12.4722 15.0103 12.407 15.2433C12.3414 15.4769 12.2184 15.6838 12.0377 15.8646C11.8569 16.0453 11.6495 16.1688 11.4149 16.2354H11.4154ZM11.8258 14.9164C11.8159 14.7219 11.727 14.5411 11.5591 14.3732C11.3893 14.2033 11.208 14.1145 11.0145 14.1056C10.8209 14.0962 10.648 14.1683 10.4945 14.3219C10.3394 14.4769 10.2658 14.6508 10.2742 14.8429C10.2826 15.0354 10.3725 15.2172 10.5438 15.389C10.7137 15.5589 10.8949 15.6483 11.0885 15.6572C11.2821 15.6666 11.4559 15.5935 11.611 15.4384C11.7641 15.2853 11.8357 15.1115 11.8258 14.9174V14.9164Z" fill="#1F1F1F"/>
<path d="M13.5294 14.2365C13.3723 14.3022 13.2158 14.3239 13.0602 14.3012C12.9042 14.2785 12.7615 14.2059 12.6321 14.0834L13.1304 13.5851C13.2089 13.6488 13.2874 13.6785 13.3669 13.674C13.4464 13.6696 13.5195 13.6335 13.5872 13.5659C13.6563 13.4967 13.6953 13.4256 13.7037 13.3535C13.7116 13.2814 13.6879 13.2172 13.6311 13.1605C13.5837 13.113 13.5284 13.0898 13.4652 13.0903C13.4025 13.0913 13.3373 13.1051 13.2711 13.1313C13.2044 13.158 13.1156 13.2014 13.0044 13.2612C12.842 13.3471 12.7027 13.4098 12.5857 13.4498C12.4686 13.4898 12.3447 13.5007 12.2133 13.4829C12.082 13.4646 11.9561 13.3955 11.8356 13.275C11.6568 13.0963 11.5817 12.8913 11.6099 12.6607C11.638 12.4301 11.7561 12.2103 11.9644 12.0024C12.1758 11.7911 12.397 11.6711 12.6281 11.6424C12.8588 11.6143 13.0691 11.6859 13.2588 11.8572L12.7526 12.3634C12.6869 12.3051 12.6153 12.2795 12.5378 12.2854C12.4602 12.2918 12.3886 12.3279 12.323 12.3935C12.2662 12.4503 12.2361 12.5106 12.2316 12.5753C12.2272 12.64 12.2533 12.7007 12.3096 12.7575C12.3714 12.8192 12.4494 12.839 12.5422 12.8148C12.6351 12.7911 12.764 12.7372 12.9279 12.6533C13.0938 12.5713 13.2351 12.5106 13.3506 12.4716C13.4662 12.4326 13.5891 12.4207 13.7185 12.437C13.8479 12.4538 13.9704 12.5195 14.0849 12.634C14.1941 12.7432 14.2662 12.8706 14.2997 13.0158C14.3338 13.1609 14.3239 13.3125 14.2711 13.4716C14.2183 13.6301 14.1195 13.7817 13.9753 13.9259C13.8346 14.0666 13.6864 14.1693 13.5294 14.235V14.2365Z" fill="#1F1F1F"/>
<path d="M13.8659 10.9062L14.2545 11.2948L14.8812 10.6682L15.2422 11.0292L14.6155 11.6558L15.0373 12.0776L15.7459 11.3689L16.1207 11.7437L14.9439 12.9205L13.0229 10.9995L14.1997 9.82275L14.5745 10.1976L13.8659 10.9062Z" fill="#1F1F1F"/>
<path d="M17.4039 10.4602L16.2795 10.1348L16.1674 10.2469L16.8923 10.9718L16.4246 11.4395L14.5037 9.5185L15.2888 8.73332C15.4404 8.58171 15.596 8.47949 15.7555 8.42517C15.915 8.37134 16.0676 8.36443 16.2123 8.40344C16.3575 8.44295 16.4864 8.519 16.5995 8.63159C16.7274 8.75949 16.8054 8.90961 16.8335 9.08196C16.8617 9.2543 16.8266 9.43208 16.7283 9.6143L17.9323 9.93183L17.4044 10.4597L17.4039 10.4602ZM15.836 9.91553L16.1259 9.62566C16.2118 9.53973 16.2553 9.4548 16.2558 9.36986C16.2567 9.28492 16.2187 9.20443 16.1422 9.12788C16.0696 9.05529 15.9906 9.01875 15.9056 9.01974C15.8207 9.02072 15.7358 9.06418 15.6498 9.15011L15.36 9.43998L15.836 9.91603V9.91553Z" fill="#1F1F1F"/>
</g>
<defs>
<clipPath id="clip0_10_1508">
<rect width="20" height="20" fill="white" transform="translate(3 3)"/>
</clipPath>
</defs>
</svg>
