<svg width="40" height="40" viewBox="0 0 40 40" fill="none" xmlns="http://www.w3.org/2000/svg">
<rect width="40" height="40" rx="20" fill="white"/>
<path d="M23.6997 13.5835C25.701 13.5835 27.3334 15.2144 27.3335 17.2417C27.3335 18.1244 27.1928 18.9374 26.9487 19.6919L26.9468 19.6987C26.36 21.5555 25.1499 23.0727 23.8159 24.2192C22.4777 25.3693 21.0719 26.0965 20.1948 26.395L20.1841 26.3989C20.1893 26.3971 20.1734 26.4022 20.1343 26.4077C20.0967 26.413 20.05 26.4165 19.9995 26.4165C19.9489 26.4165 19.9023 26.413 19.8647 26.4077C19.8251 26.4021 19.8099 26.3968 19.8159 26.3989L19.8052 26.395C18.9281 26.0966 17.5223 25.3693 16.1841 24.2192C14.8501 23.0727 13.64 21.5555 13.0532 19.6987L13.0513 19.6919C12.8072 18.9373 12.6665 18.1244 12.6665 17.2417C12.6666 15.2144 14.299 13.5835 16.3003 13.5835C17.4784 13.5836 18.537 14.1563 19.1987 15.0405L19.9995 16.1108L20.8003 15.0405C21.4621 14.156 22.5213 13.5835 23.6997 13.5835Z" stroke="#1F1F1F" stroke-width="2"/>
</svg>
