<svg width="40" height="40" viewBox="0 0 40 40" fill="none" xmlns="http://www.w3.org/2000/svg">
<rect width="40" height="40" rx="20" fill="#1F1F1F"/>
<path d="M23.6997 13.584C25.701 13.584 27.3334 15.2149 27.3335 17.2422C27.3335 18.1249 27.1928 18.9378 26.9487 19.6924L26.9468 19.6992C26.36 21.556 25.1499 23.0732 23.8159 24.2197C22.4777 25.3698 21.0719 26.097 20.1948 26.3955L20.1841 26.3994C20.1893 26.3976 20.1734 26.4026 20.1343 26.4082C20.0967 26.4135 20.05 26.417 19.9995 26.417C19.9489 26.417 19.9023 26.4135 19.8647 26.4082C19.8251 26.4026 19.8099 26.3973 19.8159 26.3994L19.8052 26.3955C18.9281 26.0971 17.5223 25.3698 16.1841 24.2197C14.8501 23.0732 13.64 21.556 13.0532 19.6992L13.0513 19.6924C12.8072 18.9378 12.6665 18.1249 12.6665 17.2422C12.6666 15.2149 14.299 13.584 16.3003 13.584C17.4784 13.5841 18.537 14.1568 19.1987 15.041L19.9995 16.1113L20.8003 15.041C21.4621 14.1565 22.5213 13.584 23.6997 13.584Z" stroke="white" stroke-width="2"/>
</svg>
