<svg width="72" height="72" viewBox="0 0 72 72" fill="none" xmlns="http://www.w3.org/2000/svg">
<g filter="url(#filter0_d_108_9347)">
<rect x="21.5" y="21.5" width="29" height="29" rx="14" stroke="#1D79ED" stroke-width="3" shape-rendering="crispEdges"/>
<path d="M33.75 33.75H32.4001C31.5601 33.75 31.1397 33.75 30.8188 33.9135C30.5366 34.0573 30.3073 34.2866 30.1635 34.5688C30 34.8897 30 35.3101 30 36.1501V40.3501C30 41.1902 30 41.61 30.1635 41.9309C30.3073 42.2132 30.5366 42.4429 30.8188 42.5867C31.1394 42.75 31.5593 42.75 32.3977 42.75L39.6023 42.75C40.4408 42.75 40.86 42.75 41.1805 42.5867C41.4628 42.4429 41.6929 42.2132 41.8367 41.9309C42 41.6104 42 41.1911 42 40.3527V36.1477C42 35.3092 42 34.8894 41.8367 34.5688C41.6929 34.2866 41.4628 34.0573 41.1805 33.9135C40.8597 33.75 40.4402 33.75 39.6001 33.75H33.75ZM33.75 33.75V31.5901C33.75 30.2977 34.725 29.25 35.9278 29.25C36.5458 29.25 37.1031 29.5266 37.4995 29.9708" stroke="white" stroke-width="1.5" stroke-linecap="round" stroke-linejoin="round"/>
</g>
<defs>
<filter id="filter0_d_108_9347" x="0" y="0" width="72" height="72" filterUnits="userSpaceOnUse" color-interpolation-filters="sRGB">
<feFlood flood-opacity="0" result="BackgroundImageFix"/>
<feColorMatrix in="SourceAlpha" type="matrix" values="0 0 0 0 0 0 0 0 0 0 0 0 0 0 0 0 0 0 127 0" result="hardAlpha"/>
<feOffset/>
<feGaussianBlur stdDeviation="10"/>
<feComposite in2="hardAlpha" operator="out"/>
<feColorMatrix type="matrix" values="0 0 0 0 0 0 0 0 0 0.478431 0 0 0 0 1 0 0 0 0.55 0"/>
<feBlend mode="normal" in2="BackgroundImageFix" result="effect1_dropShadow_108_9347"/>
<feBlend mode="normal" in="SourceGraphic" in2="effect1_dropShadow_108_9347" result="shape"/>
</filter>
</defs>
</svg>
