<svg width="26" height="26" viewBox="0 0 26 26" fill="none" xmlns="http://www.w3.org/2000/svg">
<path d="M16.712 8.05291C16.627 8.05291 16.5429 8.07603 16.4663 8.12505C16.252 8.26099 16.1882 8.5449 16.324 8.76039L16.3517 8.80478L16.373 8.84177L16.3915 8.87876L16.4081 8.91668L16.4229 8.95552L16.4358 8.99436L16.4469 9.03505L16.4561 9.07575L16.4626 9.11459L16.47 9.17562L16.4718 9.23481L16.47 9.294L16.4644 9.35319L16.4543 9.41237L16.4404 9.46971L16.4219 9.52612L16.3998 9.58161L16.3748 9.63433L16.3443 9.68704L16.312 9.73513L16.276 9.7823L16.2363 9.82669L16.1929 9.8683L16.1836 9.8757L16.0479 9.98483L16.0266 10.0024L15.8908 10.1245L15.8714 10.1439L15.7431 10.2734L15.7246 10.2946L15.6045 10.4315L15.587 10.4537L15.4761 10.598L15.4595 10.6211L15.357 10.7718L15.3422 10.795L15.2498 10.9522L15.236 10.9771L15.1528 11.139L15.1408 11.164L15.0679 11.3313L15.0568 11.3572L14.994 11.5283L14.9857 11.5551L14.933 11.7299C14.8601 11.9731 14.9977 12.2303 15.2406 12.3033C15.2849 12.3172 15.3293 12.3227 15.3736 12.3227C15.5713 12.3227 15.7542 12.1942 15.8142 11.9954L15.8622 11.8335L15.9158 11.6883L15.9777 11.5468L16.0488 11.409L16.1264 11.2768L16.2132 11.1492L16.3074 11.0262V11.0271L16.409 10.9096L16.5171 10.7996L16.6325 10.696L16.6806 10.6572L16.6796 10.6581C16.6963 10.647 16.7129 10.635 16.7277 10.6211L16.7572 10.5971L16.8653 10.5203L16.9817 10.4472L17.1027 10.3807L17.2274 10.3196L17.353 10.2669L17.4832 10.2197L17.6162 10.18V10.1809L17.7483 10.1485L17.885 10.1236L18.0337 10.1041C18.2859 10.0718 18.4641 9.84149 18.4318 9.58902C18.4022 9.35597 18.2046 9.18674 17.9764 9.18674C17.957 9.18674 17.9367 9.18766 17.9173 9.19044L17.7557 9.21078L17.7307 9.21448L17.571 9.24407L17.5469 9.24962L17.3908 9.28661L17.3927 9.24592L17.3918 9.21355L17.3881 9.122L17.3862 9.08963L17.3761 8.999L17.3724 8.97125L17.3613 8.90837L17.3567 8.88617L17.3428 8.82329L17.3373 8.80109L17.3197 8.73913L17.3133 8.71786L17.2929 8.6559L17.2855 8.63555L17.2625 8.57544L17.2541 8.55417L17.2283 8.49498L17.1895 8.4173L17.1784 8.39695L17.147 8.34146L17.1359 8.32204L17.1008 8.26748C17.014 8.12876 16.8653 8.05292 16.7129 8.05292L16.712 8.05291ZM12.5953 8.81032H12.5916C12.3376 8.81772 12.1381 9.0295 12.1455 9.2829L12.1474 9.34763L12.1464 9.3985L12.1418 9.45028L12.1353 9.50115L12.1252 9.55201L12.1123 9.60195L12.0975 9.65189L12.079 9.69998L12.0596 9.74622L12.0301 9.80448L11.9968 9.85905L11.9599 9.91176L11.9201 9.9617L11.8767 10.0089L11.8305 10.0533L11.801 10.0773L11.7964 10.0681L11.7289 9.94321L11.7132 9.91454L11.6366 9.79431L11.619 9.76842L11.5341 9.65374L11.5174 9.63155L11.4537 9.55479L11.4389 9.53814L11.3715 9.46416L11.3558 9.44843L11.2847 9.37815L11.268 9.36243L11.1942 9.29584L11.1766 9.28104L11.099 9.21908L11.0815 9.20521L11.0011 9.14602L10.9817 9.13308L10.8986 9.07851L10.8792 9.06649L10.7933 9.01563L10.7739 9.00453L10.6852 8.95829C10.6178 8.92315 10.5448 8.90557 10.4728 8.90557C10.3075 8.90557 10.1477 8.99528 10.0655 9.1525C9.94815 9.37723 10.034 9.65467 10.2594 9.77305L10.337 9.81374L10.4044 9.85351L10.4682 9.89512L10.531 9.94136L10.591 9.98945L10.6483 10.0412L10.7028 10.0949L10.7554 10.1522L10.8025 10.2096L10.8699 10.3002L10.9281 10.3936L10.9808 10.4898L11.026 10.5906L11.0639 10.6942L11.0944 10.7996L11.1184 10.9069L11.1341 11.016L11.1415 11.126L11.1424 11.2361L11.135 11.3452L11.1193 11.4543L11.0972 11.5625L11.0667 11.668L11.0242 11.7873C10.9374 12.0259 11.0611 12.2894 11.2995 12.3764C11.3512 12.3949 11.4038 12.4032 11.4556 12.4032C11.6431 12.4032 11.8195 12.2876 11.8878 12.1008L11.9358 11.9667L11.946 11.9362L11.9848 11.7993L11.9922 11.7679L12.0217 11.6282L12.0273 11.5968L12.0467 11.4553L12.0504 11.4238L12.0596 11.2814L12.0605 11.249V11.1066L12.0587 11.0743L12.0541 11.004L12.1178 10.9707L12.1446 10.955L12.2259 10.905L12.2517 10.8874L12.3293 10.832L12.3542 10.8125L12.4272 10.7515L12.4512 10.7312L12.5196 10.6655L12.5417 10.6433L12.6064 10.573L12.6267 10.549L12.6868 10.475L12.7052 10.45L12.7597 10.3714L12.7764 10.3455L12.8253 10.2632L12.841 10.2364L12.8835 10.1513L12.8955 10.1254L12.9269 10.0551L12.9361 10.032L12.9629 9.95987L12.9712 9.93583L12.9934 9.86185L13.0008 9.8378L13.0193 9.76382L13.0248 9.73885L13.0387 9.66301L13.0433 9.63804L13.0534 9.56221L13.0562 9.53724L13.0627 9.46048L13.0636 9.43551L13.0655 9.35875V9.33286L13.0636 9.2561C13.0562 9.00732 12.8512 8.80942 12.6036 8.80942L12.5953 8.81032ZM9.56399 10.1152H9.56307C9.39034 10.1152 9.22593 10.2142 9.14835 10.3816L9.11972 10.4435L9.09386 10.4898L9.06522 10.5341L9.03382 10.5776L8.99965 10.6183L8.96362 10.6571L8.92483 10.6932L8.88327 10.7265L8.83986 10.7579L8.7946 10.7857L8.74749 10.8107L8.70408 10.831L8.6579 10.8486L8.61172 10.8634L8.56461 10.8754L8.51751 10.8837V10.8846L8.46855 10.8902V10.8911L8.42053 10.8939V10.8948H8.3725L8.32354 10.892V10.893L8.27552 10.8874L8.26443 10.8856L8.23949 10.8754L8.13143 10.8366L8.10095 10.8264L7.99103 10.7949L7.95871 10.7875L7.84694 10.7644L7.81554 10.7589L7.70193 10.7432L7.6696 10.7404L7.55599 10.7321L7.52367 10.7311L7.40913 10.7321L7.37773 10.733L7.2632 10.7422L7.23087 10.745L7.11819 10.7616L7.08678 10.7681L6.97502 10.7922L6.94362 10.8005L6.8337 10.8319L6.80322 10.8421L6.69608 10.8828L6.66652 10.8948L6.56215 10.942L6.53352 10.9568L6.43284 11.0104L6.40513 11.0271L6.30815 11.089L6.28229 11.1066L6.18992 11.175L6.16498 11.1954L6.07816 11.2694L6.05415 11.2906L5.97287 11.3711C5.79183 11.5496 5.78906 11.8409 5.96732 12.0212C6.05692 12.1128 6.17607 12.159 6.29429 12.159C6.41067 12.159 6.52705 12.1146 6.61665 12.0268L6.68685 11.9583L6.74873 11.9047L6.81523 11.8557L6.88451 11.8122L6.95655 11.7725L7.03137 11.7392L7.10803 11.7105L7.18654 11.6874L7.2669 11.6698L7.34818 11.6578L7.42946 11.6513H7.51166L7.59387 11.6569L7.67515 11.668L7.75551 11.6846L7.83494 11.7068L7.9116 11.7345L7.98642 11.7678L8.05938 11.8067L8.12958 11.8501L8.19609 11.8982L8.25889 11.9509L8.31801 12.0083L8.3725 12.0702L8.4233 12.135L8.46856 12.2034L8.51012 12.2746L8.54522 12.3486L8.58217 12.4402C8.65421 12.6196 8.826 12.7296 9.0089 12.7296C9.06524 12.7296 9.12343 12.7185 9.17885 12.6964C9.41437 12.602 9.52891 12.3348 9.43469 12.0989L9.3922 11.9926L9.37927 11.963L9.32939 11.8594L9.31461 11.8307L9.25735 11.7318L9.24072 11.704L9.18438 11.6199L9.23887 11.5912L9.26474 11.5764L9.33494 11.532L9.35987 11.5163L9.4273 11.4682L9.45132 11.4497L9.51505 11.3979L9.53721 11.3785L9.59817 11.3221L9.61942 11.3008L9.67668 11.2407L9.69608 11.2185L9.74965 11.1547L9.76813 11.1316L9.81615 11.0641L9.83278 11.04L9.87804 10.9698L9.89282 10.9439L9.93253 10.8708L9.94546 10.8449L9.98056 10.7691C10.0877 10.5388 9.98795 10.2651 9.75796 10.1587C9.69516 10.1291 9.62957 10.1152 9.56399 10.1152ZM17.7845 12.0629C17.5314 12.0638 17.3264 12.27 17.3264 12.5243L17.3273 12.627L17.3282 12.6603L17.3365 12.7629L17.3402 12.7953L17.355 12.8979L17.3615 12.9303L17.3837 13.0302L17.392 13.0626L17.4215 13.1615L17.4317 13.193L17.4686 13.2891L17.4816 13.3197L17.525 13.4131L17.5397 13.4427L17.5896 13.5324L17.6072 13.5601L17.6635 13.6461L17.6829 13.6739L17.7448 13.7552L17.766 13.7811L17.8344 13.8579L17.8566 13.8819L17.9305 13.9541L17.9545 13.9763L18.033 14.0429L18.0598 14.0632L18.1429 14.1242L18.1697 14.1427L18.2547 14.1954L18.2824 14.2121L18.371 14.2593L18.4006 14.2731L18.492 14.3147L18.5225 14.3268L18.6167 14.361L18.6472 14.3712L18.7442 14.398L18.7756 14.4063L18.8735 14.4266L18.9058 14.4322L19.0056 14.4461L19.037 14.4488L19.1377 14.4562L19.17 14.4572L19.2707 14.4562L19.303 14.4553L19.4027 14.4479L19.4351 14.4442L19.5348 14.4294L19.5662 14.4239L19.6641 14.4017L19.6955 14.3943L19.7925 14.3656L19.823 14.3554L19.9172 14.3203L19.9468 14.3083L20.0382 14.2667C20.2691 14.1612 20.3707 13.8884 20.2664 13.6572C20.1897 13.488 20.0225 13.3881 19.8479 13.3881C19.7842 13.3881 19.7196 13.4011 19.6586 13.4297L19.581 13.4639L19.5173 13.488L19.4526 13.5074L19.3852 13.5222L19.3187 13.5314L19.2504 13.537H19.182L19.1137 13.5324L19.0471 13.5231L18.9797 13.5093L18.9141 13.4908L18.8504 13.4676L18.7885 13.4399L18.7285 13.4075L18.6703 13.3715L18.614 13.3308L18.5613 13.2854L18.5114 13.2364L18.4653 13.1846L18.4228 13.1292L18.384 13.07L18.3507 13.0089L18.3212 12.946L18.2962 12.8813L18.2759 12.8138L18.2611 12.7463L18.251 12.6769L18.2454 12.6076V12.5206C18.2445 12.2672 18.0385 12.0629 17.7864 12.0629L17.7845 12.0629ZM14.1767 14.5449L14.1444 14.5459L13.9828 14.5533L13.9504 14.556L13.7897 14.5745L13.7574 14.5792L13.5985 14.6097L13.5671 14.6161L13.4101 14.6578L13.3796 14.667L13.2263 14.7188L13.1958 14.7308L13.0471 14.7928L13.0175 14.8067L12.8735 14.8797L12.8448 14.8954L12.7053 14.9777L12.6786 14.9953L12.5456 15.0878C12.3377 15.233 12.286 15.5197 12.4301 15.7278C12.5197 15.8563 12.6629 15.9257 12.8079 15.9257C12.8984 15.9257 12.9898 15.8988 13.0693 15.8434L13.1894 15.7601L13.3011 15.6935L13.4166 15.6353L13.5366 15.5844L13.6595 15.5428L13.7851 15.5104L13.9126 15.4855L14.041 15.4707L14.1712 15.4651L14.3005 15.4679L14.4298 15.4799L14.5582 15.5012L14.6838 15.5308L14.803 15.5687L14.9184 15.6131L15.0311 15.6658L15.141 15.7259L15.2454 15.7934L15.3451 15.8674L15.4394 15.9479L15.529 16.0348L15.6121 16.1282L15.6887 16.2262L15.758 16.3289L15.8291 16.45C15.9141 16.5961 16.0684 16.6775 16.2263 16.6775C16.3048 16.6775 16.3842 16.6572 16.4572 16.6146C16.6761 16.4861 16.75 16.205 16.6216 15.9858L16.5431 15.8517L16.5265 15.8249L16.4397 15.6963L16.4212 15.6714L16.3261 15.5493L16.3057 15.5252L16.2023 15.4096L16.181 15.3874L16.0702 15.2792L16.0471 15.258L15.9289 15.1572L15.9049 15.1377L15.7802 15.0453L15.7543 15.0277L15.6241 14.9445L15.5973 14.9278L15.4615 14.8529L15.4338 14.839L15.2934 14.7734L15.2648 14.7614L15.1198 14.7049L15.0911 14.6948L14.9424 14.6485L14.912 14.6402L14.7549 14.6032L14.7235 14.5967L14.5637 14.5699L14.5314 14.5662L14.3707 14.5505L14.3384 14.5487L14.1767 14.5449ZM12.2842 5.9211L12.431 5.92942V5.93035L12.5779 5.94792L12.7229 5.97474L12.8661 6.0108L13.0055 6.05519L13.1441 6.10883L13.2771 6.17079L13.4027 6.23923L13.3159 6.3798L13.2993 6.41032L13.2263 6.55181L13.2115 6.58326L13.1496 6.72938L13.1367 6.76174L13.0859 6.91341L13.0767 6.94578L13.036 7.10022L13.0296 7.13351L13.0009 7.29073C12.9557 7.54135 13.1219 7.78087 13.3722 7.82526C13.3999 7.83081 13.4267 7.83266 13.4544 7.83266C13.6724 7.83266 13.8664 7.67637 13.9061 7.45348L13.931 7.31291L13.9624 7.19269L14.0031 7.07339L14.0511 6.95779L14.1084 6.84681L14.174 6.74046L14.2469 6.63873L14.3282 6.54255L14.415 6.45284L14.5092 6.36961V6.37054L14.609 6.2947L14.7143 6.22627L14.8242 6.16615L14.9378 6.11437L15.0551 6.07182L15.1752 6.03761V6.03853L15.299 6.01264V6.01356L15.4181 5.99784L15.5391 5.99044V5.99137L15.6601 5.99229V5.99322L15.7802 6.00339L15.8984 6.02281L16.0166 6.05055L16.1321 6.08662L16.2448 6.13101L16.3538 6.18372L16.4581 6.24384L16.5579 6.31042L16.653 6.38533L16.7435 6.46672L16.8377 6.56659C16.9227 6.65445 17.0428 6.70809 17.1693 6.70809C17.1998 6.70809 17.2303 6.70532 17.2608 6.69884L17.4252 6.66555V6.66647L17.573 6.64705L17.7226 6.63966L17.8722 6.64243V6.64335L18.0218 6.65723L18.1696 6.68312L18.3146 6.71919L18.4569 6.76635L18.5954 6.82369L18.7284 6.89028L18.8568 6.96796L18.9806 7.05489L19.0951 7.14922L19.2041 7.25373L19.3048 7.3647L19.3907 7.47568L19.4692 7.59221L19.5394 7.71428L19.6013 7.84098L19.6539 7.97137L19.6973 8.10547L19.7315 8.24142L19.7565 8.38106L19.7712 8.52071L19.7768 8.6622L19.7722 8.80277L19.7565 8.95814C19.7509 9.00623 19.7528 9.05339 19.762 9.09871C19.7943 9.25685 19.9089 9.39372 20.0733 9.4455L20.1684 9.47602V9.47694L20.2488 9.50746L20.3263 9.54353L20.4021 9.58422L20.475 9.63046L20.5443 9.6804L20.6117 9.73497L20.6746 9.79415L20.7337 9.85612L20.7872 9.92085L20.8519 10.0096L20.9082 10.1021L20.9572 10.1983L20.9978 10.2982L21.0311 10.4017L21.056 10.5063L21.0726 10.6145L21.081 10.7217L21.08 10.8299L21.0717 10.9372L21.0542 11.0445L21.0283 11.149L20.9941 11.2516V11.2526L20.9526 11.3515L20.923 11.4089L20.7364 11.1925L20.7124 11.1656L20.4871 10.9428C20.3975 10.854 20.2802 10.8096 20.1638 10.8096C20.0455 10.8096 19.9273 10.8549 19.8368 10.9455C19.6585 11.1268 19.6595 11.4181 19.8405 11.5966L20.052 11.8074L20.2358 12.0202L20.4021 12.2467L20.5499 12.4853L20.6792 12.7341L20.7891 12.994L20.8778 13.2603L20.9452 13.5322L20.9914 13.8097L21.0163 14.0899L21.0191 14.371L20.9997 14.6512L20.959 14.9287L20.8962 15.2034L20.8131 15.4715L20.7087 15.7323L20.584 15.9848L20.4556 16.204L20.3116 16.413L20.1527 16.6118L19.98 16.7986L19.7952 16.9734L19.5985 17.1343L19.3907 17.2814L19.1727 17.4127L18.9464 17.5283V17.5292L18.7118 17.6282V17.6291L18.4513 17.717C18.6176 17.2721 18.8125 16.8162 19.012 16.3464C19.1117 16.1124 19.0037 15.8424 18.77 15.7425C18.7109 15.7175 18.6499 15.7055 18.5899 15.7055C18.4107 15.7055 18.2407 15.81 18.1659 15.9857C17.8445 16.7413 17.5074 17.5311 17.2894 18.2922C17.113 18.9127 17.0169 19.5083 16.9384 20.0798H16.0517C15.8457 19.5425 15.5714 18.9405 15.0449 18.528C14.8057 18.3412 14.5203 18.1988 14.2173 18.086L14.3891 17.9648L14.4187 17.9426L14.5997 17.7919L14.6274 17.7669L14.7965 17.6014C14.9784 17.4238 14.9812 17.1325 14.8039 16.9503C14.7143 16.8578 14.5942 16.8116 14.475 16.8116C14.3596 16.8116 14.2432 16.855 14.1536 16.9429L13.9984 17.0946L13.846 17.2213L13.6835 17.3359L13.5126 17.4358L13.3334 17.5218V17.5228L13.1487 17.594L12.9575 17.6494V17.6504L12.7635 17.6901L12.6776 17.7012H12.6767C12.6481 17.7022 12.6194 17.7059 12.5927 17.7114L12.5908 17.7123L12.5668 17.7142V17.7151L12.3682 17.7234L12.1696 17.7151V17.716L11.9729 17.692L11.7789 17.6522L11.5887 17.5967L11.403 17.5255L11.2238 17.4404L11.052 17.3406L10.8895 17.2268L10.7361 17.101V17.102L10.5939 16.9632L10.4655 16.8162L10.3491 16.6608L10.2457 16.4953L10.1561 16.3233L10.0794 16.1448L10.0185 15.9608L9.97135 15.7712L9.93995 15.5788L9.92332 15.3855L9.9224 15.1904L9.93718 14.9962L9.96673 14.8048L10.012 14.6161L10.072 14.4302L10.1459 14.2508L10.2346 14.0779L10.3362 13.9114L10.4507 13.7551L10.5902 13.5942C10.7555 13.4009 10.7343 13.1105 10.5412 12.945C10.4544 12.8701 10.3482 12.8331 10.242 12.8331C10.1127 12.8331 9.9843 12.8876 9.89284 12.9931L9.74229 13.1678L9.72012 13.1965L9.58342 13.3833L9.5631 13.4138L9.44211 13.6108L9.42363 13.6423L9.31926 13.8485L9.30356 13.8818L9.21489 14.0945L9.20288 14.1296L9.13176 14.3488L9.1216 14.384L9.06803 14.6096L9.06064 14.6447L9.02554 14.8732L9.02092 14.9102L9.00614 15.0905C8.99414 15.1081 8.98398 15.1266 8.97382 15.1469L8.9184 15.2588L8.8639 15.3504L8.80202 15.4364L8.73274 15.5168L8.65793 15.5908L8.57572 15.6593L8.4889 15.7203L8.39746 15.773L8.3014 15.8183L8.20164 15.8553L8.10004 15.884V15.8849L7.99567 15.9043L7.89037 15.9154L7.78415 15.9173L7.67794 15.9108L7.57356 15.8951L7.47011 15.871L7.36944 15.8377L7.27245 15.7961L7.17824 15.7471L7.08772 15.6889L7.01753 15.6361L6.9501 15.5779L6.88729 15.5141L6.8291 15.4466L6.77553 15.3753L6.72751 15.3004L6.68502 15.2218L6.64807 15.1404L6.61667 15.0572L6.5908 14.9721L6.57141 14.8843L6.55848 14.7964L6.55201 14.7067L6.55109 14.6179L6.55201 14.5846C6.55848 14.3756 6.49752 14.1601 6.29801 14.0677L6.17979 14.0122L6.07449 13.9558L5.97289 13.8938L5.87406 13.8263L5.77893 13.7542L5.68933 13.6783L5.60251 13.596L5.5203 13.51L5.44272 13.4194L5.3716 13.3269L5.27923 13.1891L5.19888 13.0485L5.12776 12.9015L5.06864 12.7508L5.01969 12.5954L4.98275 12.4363L4.95688 12.2754L4.94303 12.1136L4.94118 11.9508L4.95134 11.789L4.97258 11.6271L5.00491 11.4681L5.05017 11.3108L5.10005 11.174C5.15547 11.0482 5.15454 10.8993 5.08527 10.7689L5.02985 10.6653L4.99198 10.5756L4.9615 10.4822L4.93933 10.3879L4.92548 10.2917L4.91994 10.1937L4.92271 10.0966L4.93379 9.99948L4.95319 9.9033L4.9809 9.80989L5.016 9.71926L5.05848 9.63233L5.10928 9.54817L5.16655 9.46956L5.23121 9.39558L5.30048 9.32807L5.37622 9.26611L5.45657 9.21154L5.54155 9.16345L5.63022 9.12276V9.12369L5.72258 9.09039L5.8168 9.06635L5.91563 9.04878V9.0497L5.97751 9.04323L6.04309 9.04046L6.10959 9.04138V9.04231L6.17425 9.04693L6.2389 9.05525V9.05618L6.30356 9.0682L6.36729 9.08485L6.4301 9.10427L6.49106 9.12739L6.5631 9.15976C6.62406 9.1875 6.68779 9.20045 6.75153 9.20045C6.77739 9.20045 6.80325 9.19952 6.82819 9.1949H6.83004C7.08034 9.15051 7.24752 8.91283 7.2041 8.66221L7.18286 8.53736L7.17362 8.42916L7.1727 8.32189L7.18101 8.21461L7.19764 8.10733L7.2235 8.00283L7.25675 7.90018L7.29924 7.8003L7.34912 7.70504L7.40731 7.61441L7.47288 7.52748L7.544 7.44795L7.62251 7.37304L7.70564 7.30553L7.79524 7.24449L7.88945 7.19178L7.98735 7.14646L8.08803 7.10947L8.1924 7.0808L8.29862 7.06045L8.40577 7.04936L8.51476 7.04658L8.60527 7.05121L8.69579 7.0623L8.78538 7.07987L8.87498 7.10299L8.96088 7.13351L9.04585 7.16866L9.12713 7.21027L9.20564 7.25744L9.25921 7.29443C9.33033 7.34714 9.46519 7.47754 9.48458 7.49881L9.54092 7.56725L9.60281 7.65603C9.6924 7.78273 9.83464 7.85023 9.97872 7.85023C10.0711 7.85023 10.1635 7.82342 10.2438 7.76608C10.4516 7.61903 10.5006 7.33235 10.3537 7.12427L10.2826 7.02347L10.2632 6.99757L10.2457 6.97723L10.2484 6.9726L10.3491 6.83296L10.4609 6.69979L10.5809 6.57679L10.7093 6.46211L10.8469 6.35669L10.991 6.26236L11.1416 6.1782L11.2986 6.10514L11.4602 6.0441L11.6256 5.99509L11.7937 5.9581L11.9646 5.93313V5.93405L12.1382 5.9211V5.92203L12.2842 5.9211ZM12.2962 5L12.1198 5.00092L12.0884 5.00185L11.8833 5.01665L11.8501 5.01942L11.6459 5.04901L11.6127 5.05549L11.4113 5.09895L11.379 5.1082L11.1813 5.16646L11.1499 5.17756L10.9569 5.25062L10.9264 5.26357L10.7398 5.3505L10.7094 5.36529L10.5292 5.4661L10.5006 5.48274L10.3288 5.5965L10.3011 5.61592L10.1376 5.74076L10.1118 5.76204L9.95751 5.8989L9.93349 5.92202L9.7894 6.06999L9.76724 6.09496L9.63516 6.2531L9.61391 6.27992L9.53725 6.38628L9.44673 6.34004L9.4181 6.32709L9.30357 6.279L9.27401 6.26698L9.15671 6.22721L9.12623 6.21796L9.00708 6.1856L8.97567 6.17912L8.85468 6.15508L8.82327 6.15045L8.70043 6.13566L8.6681 6.13288L8.54526 6.12641L8.51016 6.12548L8.36422 6.12918L8.32727 6.13196L8.18226 6.14675L8.14532 6.1523L8.00215 6.18005L7.96613 6.18837L7.82574 6.22721L7.78971 6.23831L7.65301 6.28825L7.61884 6.30305L7.48676 6.36408L7.45351 6.38073L7.32604 6.45286L7.29464 6.47229L7.17457 6.55459L7.14409 6.57679L7.03048 6.66834L7.00277 6.69239L6.89747 6.79319L6.87069 6.82001L6.7737 6.92914L6.74969 6.95781L6.66194 7.07433L6.6407 7.10485L6.56312 7.22785L6.54372 7.26022L6.47629 7.38969L6.46059 7.42298L6.40332 7.55708L6.39039 7.59222L6.34421 7.73095L6.33405 7.76701L6.29988 7.90851L6.29249 7.9455L6.2694 8.08884L6.26478 8.13139L6.16595 8.12306L6.14008 8.12121L6.04772 8.11936L6.02094 8.12029L5.92949 8.12399L5.90271 8.12584L5.81127 8.13416L5.77802 8.13878L5.64317 8.1619L5.60437 8.17023L5.47229 8.20444L5.43442 8.21554L5.30511 8.26178L5.26817 8.27658L5.14348 8.33299L5.10838 8.35056L4.98922 8.41807L4.95597 8.43934L4.84236 8.5161L4.81096 8.54015L4.70474 8.62615L4.67518 8.65297L4.57635 8.74823L4.54957 8.7769L4.45997 8.88047L4.43504 8.91099L4.35468 9.02197L4.33251 9.05526L4.26139 9.17271L4.24292 9.20693L4.18196 9.33085L4.16626 9.36692L4.11638 9.49454L4.10345 9.53153L4.06558 9.66378L4.05542 9.7017L4.02863 9.83672L4.02217 9.87556L4.00647 10.0115L4.00369 10.0513L4 10.1881L4.00092 10.2279L4.00924 10.3648L4.01293 10.4036L4.03233 10.5396L4.03972 10.5784L4.07112 10.7125L4.08128 10.7504L4.12469 10.8808L4.13854 10.9178L4.17919 11.0149L4.11638 11.2322L4.10807 11.2646L4.06835 11.457L4.06281 11.4893L4.03695 11.6836L4.03417 11.7168L4.02217 11.9129L4.02124 11.9462L4.02401 12.1422L4.02586 12.1755L4.04249 12.3707L4.0471 12.404L4.07759 12.5982L4.08405 12.6305L4.12839 12.8211L4.13762 12.8534L4.19581 13.0412L4.2069 13.0726L4.27894 13.2548L4.29187 13.2853L4.37685 13.4619L4.39255 13.4915L4.48953 13.6617L4.50708 13.6904L4.617 13.8531L4.63362 13.8763L4.72137 13.99L4.73614 14.0094L4.82943 14.1176L4.84606 14.1361L4.94489 14.2397L4.96244 14.2573L5.06681 14.3562L5.08436 14.3719L5.19427 14.4654L5.21367 14.4801L5.32728 14.5671L5.3476 14.5819L5.46582 14.6623L5.48614 14.6753L5.60899 14.7493L5.63393 14.7641L5.64316 14.8824L5.64686 14.9148L5.66441 15.035L5.66995 15.0674L5.69674 15.1867L5.70505 15.2181L5.73922 15.3347L5.74938 15.3652L5.79279 15.4799L5.8048 15.5095L5.8556 15.6204L5.87038 15.6491L5.92857 15.7564L5.94519 15.7841L6.01077 15.8868L6.03017 15.9136L6.10221 16.0107L6.12253 16.0366L6.20289 16.1291L6.22506 16.1522L6.31095 16.2391L6.33405 16.2613L6.42641 16.3409L6.45135 16.3612L6.54833 16.4352L6.57789 16.4555L6.69981 16.5332L6.73306 16.5526L6.86145 16.6201L6.89562 16.6368L7.02955 16.6932L7.06557 16.7071L7.20319 16.7515L7.24014 16.7626L7.38146 16.7959L7.41933 16.8033L7.56249 16.8245L7.60037 16.8282L7.74538 16.8375L7.78417 16.8384L7.92826 16.8356L7.96705 16.8328L8.11114 16.8181L8.14901 16.8125L8.29125 16.7848L8.32912 16.7764L8.46859 16.7367L8.50554 16.7246L8.64039 16.6747L8.67641 16.659L8.80757 16.597L8.84174 16.5794L8.96643 16.5064L8.99968 16.486L9.11791 16.4028L9.14839 16.3797L9.17979 16.3538L9.21304 16.4537L9.22597 16.4879L9.31649 16.7006L9.33219 16.7339L9.43933 16.9392L9.45781 16.9706L9.58065 17.1667L9.60097 17.1963L9.73952 17.3822L9.76261 17.4099L9.91501 17.5838L9.93995 17.6106L10.109 17.7752L10.1376 17.8002L10.3196 17.95L10.3491 17.9722L10.5431 18.1072L10.5745 18.1276L10.7777 18.2459L10.8109 18.2635L11.0243 18.3652L11.0585 18.38L11.2783 18.4633L11.3143 18.4753L11.5406 18.541L11.5766 18.5502L11.8076 18.5974L11.8445 18.6038L12.0791 18.6316L12.1161 18.6344L12.3516 18.6436H12.3885L12.6241 18.6334L12.6785 18.6288C13.4581 18.7962 14.0871 18.947 14.4787 19.254C14.8639 19.5554 15.0588 20.0456 15.3017 20.7004C15.3682 20.8807 15.54 21 15.7321 21H17.3411C17.572 21 17.7669 20.8289 17.7965 20.5996C17.8805 19.9642 17.9609 19.3585 18.1225 18.7342L18.4153 18.6778L18.4477 18.6704L18.7248 18.5964L18.7552 18.5872L19.0268 18.4938L19.0573 18.4818L19.3205 18.3699L19.3501 18.356L19.6059 18.2256L19.6336 18.2089L19.8793 18.061L19.907 18.0434L20.1416 17.8779L20.1675 17.8584L20.3892 17.6763L20.4132 17.655L20.6219 17.458L20.645 17.4349L20.8399 17.224L20.8611 17.1991L21.0394 16.9753L21.0588 16.9494L21.2223 16.7126L21.2389 16.6849L21.3849 16.4379L21.4015 16.4074L21.5409 16.1235L21.5557 16.0902L21.673 15.7961L21.685 15.7628L21.7792 15.4595L21.7894 15.4253L21.8596 15.1164L21.8661 15.0813L21.9123 14.7678L21.9159 14.7317L21.9372 14.4154L21.9381 14.3794L21.9353 14.0631L21.9335 14.027L21.9058 13.7107L21.9012 13.6756L21.8494 13.363L21.8421 13.3279L21.7654 13.0199L21.7552 12.9857L21.6555 12.6851L21.6425 12.6518L21.5188 12.3596L21.504 12.3272L21.4624 12.2459L21.4883 12.2153L21.5114 12.1876L21.5964 12.0711L21.6167 12.0405L21.6933 11.9185L21.7109 11.887L21.7774 11.7585L21.7931 11.7252L21.8485 11.592L21.8615 11.5587L21.9067 11.4209L21.9169 11.3867L21.951 11.2461L21.9584 11.2101L21.9815 11.0677L21.9861 11.0316L21.9982 10.8882L22 10.8513V10.707L21.9991 10.6709L21.988 10.5266L21.9843 10.4906L21.9621 10.3482L21.9547 10.3121L21.9224 10.1715L21.9123 10.1373L21.8679 9.99951L21.8559 9.96529L21.8005 9.83212L21.7857 9.79883L21.7201 9.67028L21.7026 9.63791L21.6278 9.51492L21.6075 9.4844L21.5234 9.36787L21.5031 9.34198L21.4292 9.25412L21.4098 9.23193L21.3313 9.14869L21.31 9.12835L21.226 9.05067L21.2047 9.03124L21.1161 8.95911L21.093 8.94154L20.9997 8.87403L20.9757 8.8583L20.8787 8.79727L20.8538 8.78247L20.7522 8.72791L20.7263 8.71496L20.6958 8.70016L20.6967 8.67519L20.6958 8.64375L20.6903 8.47081L20.6875 8.43844L20.669 8.26643L20.6644 8.23499L20.6348 8.06483L20.6275 8.03338L20.5859 7.86599L20.5767 7.83547L20.5231 7.67086L20.5129 7.64127L20.4473 7.48128L20.4344 7.45168L20.3587 7.29631L20.3439 7.26765L20.258 7.11875L20.2405 7.09101L20.1444 6.94766L20.1259 6.92177L20.0197 6.78582L19.9985 6.76085L19.8747 6.62398L19.8516 6.59901L19.7186 6.47231L19.6927 6.45012L19.5514 6.33267L19.5237 6.31232L19.3741 6.20597L19.3454 6.18747L19.1875 6.09314L19.1579 6.0765L18.9935 5.99327L18.9631 5.97939L18.7931 5.90911L18.7608 5.89708L18.5862 5.83975L18.5539 5.82957L18.3756 5.78518L18.3424 5.77871L18.1613 5.74727L18.1272 5.74264L17.9443 5.72507L17.9101 5.7223L17.7263 5.7186H17.693L17.5092 5.72877L17.4751 5.73154L17.3236 5.75097L17.258 5.69178L17.2331 5.67051L17.1111 5.57525L17.0844 5.55583L16.9569 5.46983L16.9292 5.45226L16.7953 5.3755L16.7657 5.3607L16.6272 5.29411L16.5967 5.28024L16.4535 5.22383L16.423 5.21273L16.2762 5.16649L16.2438 5.15817L16.0942 5.12303L16.0619 5.11655L15.9095 5.09158L15.8772 5.08788L15.7238 5.07401L15.6906 5.07216L15.5373 5.07031H15.504L15.3498 5.07956L15.3174 5.08233L15.1641 5.10175L15.1318 5.1073L14.9748 5.13967L14.9415 5.14707L14.7882 5.19054L14.7559 5.20163L14.6062 5.2562L14.5748 5.26914L14.4289 5.3348L14.3984 5.3496L14.2589 5.42636L14.2294 5.44393L14.0954 5.53086L14.0677 5.55028L14.0539 5.56138L14.0317 5.54566L13.8821 5.45226L13.8571 5.43838L13.702 5.35423L13.677 5.34128L13.5172 5.26729L13.4905 5.2562L13.3261 5.19239L13.2993 5.18314L13.1312 5.1295L13.1044 5.12118L12.9335 5.07863L12.9049 5.07216L12.7321 5.03979L12.7035 5.03517L12.5289 5.0139L12.5003 5.01112L12.3248 5.00095L12.2962 5Z" fill="#1F1F1F"/>
</svg>
