<svg width="26" height="26" viewBox="0 0 26 26" fill="none" xmlns="http://www.w3.org/2000/svg">
<g clip-path="url(#clip0_10_1541)">
<path d="M21.7725 4.22597C21.47 3.92297 20.9795 3.92297 20.6765 4.22547C20.6765 4.22547 20.6765 4.22547 20.676 4.22597L16.6075 8.29447L16.2915 5.46397C16.2435 5.03597 15.8575 4.72797 15.4295 4.77647C15.0015 4.82447 14.6935 5.21047 14.742 5.63847L15.2265 10.0845V10.1195C15.2265 10.131 15.2265 10.16 15.238 10.1795C15.2445 10.2065 15.252 10.233 15.261 10.259C15.261 10.2785 15.2745 10.296 15.2825 10.313C15.295 10.3405 15.3095 10.367 15.325 10.3925C15.325 10.408 15.3405 10.4215 15.35 10.437C15.4025 10.5125 15.468 10.578 15.5435 10.6305L15.586 10.6555C15.6125 10.6715 15.6395 10.6855 15.6675 10.698L15.7215 10.7195L15.801 10.7425L15.861 10.754H15.896L20.3595 11.256H20.4445C20.8725 11.279 21.238 10.9505 21.261 10.5225C21.284 10.0945 20.9555 9.72897 20.5275 9.70597L17.695 9.39797L21.7635 5.32947C22.0705 5.03147 22.078 4.54097 21.7795 4.23347C21.7765 4.23047 21.774 4.22797 21.771 4.22497L21.7725 4.22597Z" fill="#1F1F1F"/>
<path d="M21.2206 15.439C21.1796 15.013 20.8011 14.701 20.3751 14.742C20.3701 14.742 20.3656 14.743 20.3606 14.7435L15.9146 15.228H15.8796L15.8196 15.2395L15.7401 15.2625L15.6861 15.284C15.6581 15.2965 15.6311 15.311 15.6046 15.3265L15.5621 15.3515C15.4866 15.404 15.4211 15.4695 15.3686 15.545C15.3591 15.5585 15.3511 15.574 15.3436 15.5895C15.3281 15.615 15.3136 15.6415 15.3011 15.669C15.3011 15.6865 15.2856 15.706 15.2796 15.723C15.2706 15.749 15.2626 15.7755 15.2566 15.8025C15.2566 15.822 15.2566 15.843 15.2451 15.8625C15.2336 15.882 15.2451 15.8855 15.2451 15.8975L14.7431 20.361C14.6966 20.7865 15.0036 21.1685 15.4291 21.2155H15.5141C15.9116 21.218 16.2461 20.919 16.2891 20.524L16.5971 17.686L20.6656 21.7545C20.9686 22.0575 21.4591 22.0575 21.7621 21.7545C22.0651 21.4515 22.0651 20.961 21.7621 20.658L17.6936 16.5895L20.5356 16.293C20.9606 16.2465 21.2676 15.864 21.2216 15.4385L21.2206 15.439Z" fill="#1F1F1F"/>
<path d="M4.22451 5.32047L8.29301 9.38897L5.46251 9.70647C5.03451 9.72947 4.70601 10.095 4.72901 10.523C4.75201 10.951 5.11751 11.2795 5.54551 11.2565H5.63651L10.0825 10.772H10.1175L10.1775 10.7605L10.257 10.7375L10.311 10.716C10.339 10.7035 10.366 10.689 10.3925 10.6735L10.435 10.6485C10.5105 10.596 10.576 10.5305 10.6285 10.455C10.638 10.4415 10.646 10.426 10.6535 10.4105C10.669 10.385 10.6835 10.3585 10.696 10.331C10.696 10.3135 10.7115 10.294 10.7175 10.277C10.7265 10.251 10.7345 10.2245 10.7405 10.1975C10.7405 10.178 10.7405 10.157 10.752 10.1375C10.7635 10.118 10.752 10.1145 10.752 10.1025L11.254 5.63897C11.3005 5.21097 10.9915 4.82647 10.5635 4.77997C10.1355 4.73347 9.75101 5.04247 9.70451 5.47047L9.39651 8.30297L5.32901 4.23347C5.02601 3.93097 4.53501 3.93097 4.23201 4.23347C3.92901 4.53597 3.92901 5.02697 4.23201 5.32997L4.22451 5.32047Z" fill="#1F1F1F"/>
<path d="M4.22453 21.774C4.52703 22.077 5.01753 22.077 5.32053 21.7745C5.32053 21.7745 5.32053 21.7745 5.32103 21.774L9.38953 17.7055L9.70553 20.536C9.74803 20.931 10.083 21.23 10.4805 21.2275H10.5655C10.991 21.1835 11.301 20.803 11.257 20.3775C11.2565 20.372 11.256 20.367 11.255 20.3615L10.7705 15.9155V15.8805C10.7705 15.869 10.7705 15.84 10.759 15.8205C10.7525 15.7935 10.745 15.767 10.736 15.741C10.736 15.7215 10.7225 15.704 10.7145 15.687C10.702 15.6595 10.6875 15.633 10.672 15.6075C10.672 15.592 10.6565 15.5785 10.647 15.563C10.5945 15.4875 10.529 15.422 10.4535 15.3695L10.411 15.3445C10.3845 15.3285 10.3575 15.3145 10.3295 15.302L10.2755 15.2805L10.196 15.2575L10.136 15.246H10.101L5.63753 14.744C5.20953 14.6975 4.82503 15.0065 4.77853 15.4345C4.73203 15.8625 5.04103 16.247 5.46903 16.2935L8.30703 16.6015L4.23803 20.67C3.92953 20.9665 3.91953 21.457 4.21603 21.7655C4.21903 21.7685 4.22153 21.771 4.22453 21.774Z" fill="#1F1F1F"/>
</g>
<defs>
<clipPath id="clip0_10_1541">
<rect width="18" height="18" fill="white" transform="translate(4 4)"/>
</clipPath>
</defs>
</svg>
