<svg width="24" height="24" viewBox="0 0 24 24" fill="none" xmlns="http://www.w3.org/2000/svg">
<circle cx="12" cy="12" r="12" fill="white"/>
<path d="M17.1429 6.85742H6.85714C6.62981 6.85742 6.4118 6.94773 6.25105 7.10847C6.09031 7.26922 6 7.48724 6 7.71456V15.0003C6 15.2276 6.09031 15.4456 6.25105 15.6064C6.4118 15.7671 6.62981 15.8574 6.85714 15.8574H10.08L9.56571 17.1431H9C8.88634 17.1431 8.77733 17.1883 8.69695 17.2687C8.61658 17.349 8.57143 17.458 8.57143 17.5717C8.57143 17.6854 8.61658 17.7944 8.69695 17.8748C8.77733 17.9551 8.88634 18.0003 9 18.0003H15C15.1137 18.0003 15.2227 17.9551 15.303 17.8748C15.3834 17.7944 15.4286 17.6854 15.4286 17.5717C15.4286 17.458 15.3834 17.349 15.303 17.2687C15.2227 17.1883 15.1137 17.1431 15 17.1431H14.4343L13.92 15.8574H17.1429C17.3702 15.8574 17.5882 15.7671 17.7489 15.6064C17.9097 15.4456 18 15.2276 18 15.0003V7.71456C18 7.48724 17.9097 7.26922 17.7489 7.10847C17.5882 6.94773 17.3702 6.85742 17.1429 6.85742ZM6.85714 7.71456H17.1429V13.7146H6.85714V7.71456Z" fill="#1F1F1F"/>
</svg>
