<svg width="10" height="15" viewBox="0 0 10 15" fill="none" xmlns="http://www.w3.org/2000/svg">
<path d="M9.00638 3.25118C9.00638 3.02683 8.86215 2.83452 8.6378 2.77042L3.63785 1.34415C3.58977 1.32813 3.54169 1.32812 3.49362 1.32812C3.38144 1.32812 3.28528 1.36018 3.18913 1.42428C3.06093 1.52043 2.99683 1.66466 2.99683 1.82492V13.187C2.99683 13.3472 3.07695 13.4915 3.18913 13.5876C3.31734 13.6838 3.47759 13.7158 3.62182 13.6677L8.6378 12.2415C8.84613 12.1774 9.00638 11.9851 9.00638 11.7607V3.25118Z" fill="#1F1F1F"/>
<path d="M0.99358 1.98507V13.0106C0.99358 13.283 0.769223 13.5074 0.49679 13.5074C0.224357 13.5074 0 13.283 0 13.0106V1.98507C0 1.71264 0.224357 1.48828 0.49679 1.48828C0.769223 1.48828 0.99358 1.71264 0.99358 1.98507Z" fill="#1F1F1F"/>
<path d="M9.99989 3.2504V11.7599C9.99989 12.433 9.55118 13.0259 8.91016 13.2022L3.91021 14.6285C3.76598 14.6605 3.63777 14.6926 3.49354 14.6926C3.17303 14.6926 2.85252 14.5964 2.59612 14.3881C2.21151 14.0997 2.00317 13.667 2.00317 13.1862V1.80811C2.00317 1.32734 2.22753 0.894653 2.59612 0.606194C2.98073 0.317735 3.46149 0.237608 3.91021 0.365812L8.91016 1.79208C9.5672 1.98439 9.99989 2.57733 9.99989 3.2504Z" fill="#1F1F1F"/>
<path d="M4.50326 5.99023C4.23083 5.99023 4.00647 6.21459 4.00647 6.48702V8.49021C4.00647 8.76264 4.23083 8.987 4.50326 8.987C4.77569 8.987 5.00005 8.77867 5.00005 8.49021V6.50305C5.00005 6.21459 4.77569 5.99023 4.50326 5.99023Z" fill="#E9ECEF"/>
</svg>
