<svg width="64" height="65" viewBox="0 0 64 65" fill="none" xmlns="http://www.w3.org/2000/svg">
<rect x="0.75" y="0.75" width="62.5" height="63.5" rx="31.25" stroke="#023E8A" stroke-width="1.5"/>
<path d="M39.1113 31.3611C39.7352 31.3613 40.2499 31.876 40.25 32.4998C40.25 33.1237 39.7352 33.6384 39.1113 33.6385H24.8887C24.2648 33.6384 23.75 33.1237 23.75 32.4998C23.7501 31.876 24.2648 31.3613 24.8887 31.3611H39.1113Z" fill="#023E8A" stroke="#023E8A" stroke-width="0.5"/>
<path d="M31.9998 24.25C32.6237 24.25 33.1383 24.7648 33.1384 25.3887V39.6113C33.1383 40.2352 32.6237 40.75 31.9998 40.75C31.3759 40.7499 30.8612 40.2352 30.8611 39.6113V25.3887C30.8612 24.7648 31.3759 24.2501 31.9998 24.25Z" fill="#023E8A" stroke="#023E8A" stroke-width="0.5"/>
</svg>
