<svg width="18" height="19" viewBox="0 0 18 19" fill="none" xmlns="http://www.w3.org/2000/svg">
<rect width="18" height="18" transform="translate(0 0.5)" fill="#1F1F1F"/>
<path d="M11.25 13.2495V13.9995C11.25 15.2422 10.2426 16.2495 9 16.2495C7.75736 16.2495 6.75 15.2422 6.75 13.9995V13.2495M11.25 13.2495H6.75M11.25 13.2495H13.9429C14.2298 13.2495 14.3739 13.2495 14.4901 13.2103C14.712 13.1355 14.8856 12.9612 14.9604 12.7393C14.9998 12.6227 14.9998 12.4781 14.9998 12.189C14.9998 12.0624 14.9996 11.9992 14.9897 11.9388C14.971 11.8248 14.9268 11.7168 14.8594 11.6229C14.8238 11.5733 14.7786 11.5281 14.6894 11.4389L14.3972 11.1467C14.303 11.0525 14.25 10.9246 14.25 10.7913V7.99951C14.25 5.10001 11.8995 2.7495 9 2.74951C6.10051 2.74952 3.75 5.10002 3.75 7.99951V10.7913C3.75 10.9246 3.69693 11.0525 3.60267 11.1467L3.31055 11.4389C3.22108 11.5283 3.17628 11.5733 3.14062 11.6229C3.07324 11.7168 3.02861 11.8248 3.0099 11.9388C3 11.9992 3 12.0624 3 12.189C3 12.4781 3 12.6227 3.03934 12.7393C3.11419 12.9612 3.2886 13.1355 3.5105 13.2103C3.62667 13.2495 3.77026 13.2495 4.05717 13.2495H6.75M13.5139 2.00977C14.5483 2.78925 15.3632 3.82334 15.8793 5.01131M4.48647 2.00977C3.45206 2.78925 2.63715 3.82334 2.12109 5.01131" stroke="white" stroke-width="1.5" stroke-linecap="round" stroke-linejoin="round"/>
</svg>
