<svg width="26" height="26" viewBox="0 0 26 26" fill="none" xmlns="http://www.w3.org/2000/svg">
<g clip-path="url(#clip0_10_1566)">
<path d="M16.7394 10.1911C16.7222 10.1639 16.7016 10.1406 16.6794 10.1195V10.0095C16.6794 8.83502 15.5722 7.87891 14.2116 7.87891C13.1711 7.87891 12.2805 8.43891 11.9183 9.22668C11.4794 9.00113 10.7661 8.76724 9.93998 9.0078C8.92775 9.30335 8.52942 10.2306 8.38498 10.7356C7.95831 10.7578 7.1922 10.8756 6.40387 11.3772C5.48331 11.9628 5.41664 13.1589 5.45609 13.8061C5.14942 13.8439 4.73442 13.9422 4.36387 14.1895C3.56498 14.7211 4.1022 16.2395 4.21887 16.5411L5.23609 19.1078C5.25442 19.1539 5.70331 20.2434 7.06164 20.7317C7.50664 20.8917 8.04442 21.0472 8.58942 21.0472C9.2072 21.0472 9.83331 20.8472 10.3439 20.2295C10.4389 20.2395 10.5366 20.2467 10.64 20.2467C10.6472 20.2467 10.655 20.2456 10.6622 20.2456C10.1316 21.0311 10.1622 21.8872 10.4744 22.4406C10.675 22.7961 10.9828 22.9984 11.2989 22.9984C11.3722 22.9984 11.4461 22.9872 11.5189 22.965C11.9433 22.8345 14.5666 22.6672 16.12 22.5934C16.1528 22.5917 16.1844 22.5861 16.2155 22.5767C16.3539 22.5339 17.6383 22.0522 20.0078 18.3995C20.9205 16.9928 20.4116 15.8261 19.99 15.3717L16.7411 10.19L16.7394 10.1911ZM14.2116 8.65168C15.1466 8.65168 15.9072 9.26113 15.9072 10.0095V11.6561C15.9072 12.4395 15.1278 13.1261 14.2389 13.1261C13.4289 13.1261 12.6861 12.5606 12.5433 11.8884C12.555 11.6011 12.7939 11.1778 13.1911 10.9461C13.6416 10.6834 14.1855 10.7172 14.7639 11.0439C14.9494 11.1489 15.185 11.0834 15.29 10.8978C15.395 10.7122 15.3294 10.4767 15.1439 10.3717C14.0383 9.74668 13.2016 10.0456 12.8016 10.2795C12.7005 10.3384 12.6066 10.4089 12.5166 10.4839V10.0106C12.5166 9.26168 13.2766 8.6528 14.2116 8.6528V8.65168ZM9.7772 19.3039C8.77831 18.8117 8.2272 18.2228 8.10331 18.0806L6.96387 15.5239C6.8772 15.3289 6.64887 15.2422 6.45387 15.3278C6.25887 15.4145 6.17109 15.6434 6.25831 15.8378L7.41998 18.4445C7.43275 18.4739 7.44942 18.5011 7.46942 18.5256C7.49553 18.5589 8.12831 19.3517 9.44442 20.0006C9.44664 20.0017 9.45609 20.0056 9.46331 20.0089C8.97387 20.3661 8.30831 20.3611 7.32276 20.0056C6.30331 19.6384 5.96609 18.8522 5.95331 18.8222L4.93776 16.2595C4.70109 15.6478 4.62887 14.9406 4.79164 14.8322C5.25109 14.5261 5.85442 14.5572 5.85887 14.5572C5.97776 14.5667 6.09387 14.5172 6.17276 14.4278C6.2522 14.3389 6.28553 14.2178 6.26387 14.1006C6.26109 14.085 5.98831 12.5561 6.81776 12.0284C7.74831 11.4361 8.64831 11.505 8.65553 11.5061C8.86276 11.5267 9.04609 11.3795 9.07442 11.1745C9.07609 11.1628 9.24442 10.015 10.1555 9.74946C10.8733 9.54057 11.4811 9.84613 11.7433 10.0139V11.655C11.7433 11.7645 11.7561 11.8711 11.775 11.9772C11.7761 11.9822 11.7766 11.9872 11.7778 11.9922C11.8655 12.4684 12.1322 12.905 12.5122 13.24L13.3111 15.7284C13.3439 15.83 13.4172 15.9139 13.5139 15.9595C14.4644 16.4078 15.3844 16.9939 15.4772 17.1939C15.5211 17.4389 15.2611 17.9667 15.0578 18.2734C15.0305 18.2889 14.9578 18.3228 14.8144 18.3511C14.7366 18.3545 14.5616 18.3645 14.325 18.3928C13.9616 18.3956 13.4383 18.3511 12.6878 18.1984C10.6411 17.7811 10.4383 16.5 10.4311 16.4495C10.4289 16.4284 10.4244 16.4078 10.4189 16.3884L9.3272 12.5872C9.26831 12.3822 9.05442 12.2639 8.84942 12.3228C8.64442 12.3817 8.52609 12.5956 8.58498 12.8006L9.66998 16.5784C9.7122 16.8284 10.0305 18.1678 11.91 18.7867C11.7211 19.0728 11.4844 19.2706 11.2033 19.3772C10.5255 19.6334 9.7772 19.3034 9.7772 19.3034V19.3039ZM13.2528 21.9956C12.6928 22.0384 12.1616 22.0872 11.7811 22.1384C11.7994 21.9834 11.8433 21.8545 11.9183 21.7606C12.1394 21.4822 12.6233 21.4345 13.0116 21.3967L13.1472 21.3784C13.2105 21.4311 13.2611 21.7039 13.2528 21.9961V21.9956ZM19.3583 17.9806C17.3566 21.0661 16.2078 21.7306 16.015 21.8267C15.7311 21.8406 14.9111 21.8822 14.0272 21.9406C14.0294 21.61 13.9783 21.1195 13.6972 20.8356C13.5305 20.6667 13.3005 20.5906 13.0572 20.6156L12.9361 20.6278C12.4589 20.675 11.7383 20.7456 11.3133 21.2795C11.1905 21.4339 11.105 21.6156 11.0533 21.8206C10.9966 21.5756 10.9355 20.9184 11.66 20.2722C12.515 19.5089 13.7239 19.2522 14.3878 19.1661C15.2644 19.15 15.5683 18.8961 15.67 18.7484C15.67 18.7484 15.67 18.7472 15.6711 18.7467C15.7444 18.6406 15.9889 18.2689 16.1366 17.8461C16.4428 17.2061 16.4783 16.3589 16.2161 15.81C16.1244 15.6172 15.8933 15.5361 15.7011 15.6278C15.5083 15.72 15.4272 15.9506 15.5189 16.1428C15.5328 16.1717 15.5422 16.2045 15.5533 16.2367C15.1166 15.9111 14.5361 15.5961 13.995 15.3345L13.4983 13.7884C13.7339 13.8589 13.9828 13.8984 14.2378 13.8984C15.5605 13.8984 16.6789 12.8711 16.6789 11.6561V11.55L19.3544 15.8161C19.3694 15.8406 19.3878 15.8634 19.4083 15.8834C19.4161 15.8917 20.1922 16.6945 19.3578 17.98L19.3583 17.9806Z" fill="#1F1F1F"/>
<path d="M10.7239 7.5172C10.7995 7.59497 10.9 7.63442 11.0006 7.63442C11.1011 7.63442 11.1945 7.59775 11.27 7.52497C11.4234 7.37609 11.4261 7.13164 11.2778 6.97886L9.40059 5.04775C9.2517 4.89497 9.00725 4.89164 8.85448 5.03997C8.70114 5.18886 8.69836 5.43331 8.8467 5.58609L10.7239 7.5172Z" fill="#1F1F1F"/>
<path d="M14.4934 6.66889C14.7067 6.66889 14.8795 6.49611 14.8795 6.28278V3.38611C14.8795 3.17278 14.7067 3 14.4934 3C14.28 3 14.1067 3.17278 14.1067 3.38611V6.28278C14.1067 6.49611 14.28 6.66889 14.4934 6.66889Z" fill="#1F1F1F"/>
<path d="M17.7128 7.63455C17.8111 7.63455 17.9094 7.59733 17.9844 7.52233L20.0294 5.4951C20.1811 5.3451 20.1822 5.1001 20.0316 4.94899C19.8811 4.79788 19.6366 4.79677 19.4855 4.94677L17.4405 6.97399C17.2889 7.12399 17.2883 7.36844 17.4383 7.5201C17.5139 7.59621 17.6133 7.63455 17.7128 7.63455Z" fill="#1F1F1F"/>
<path d="M21.68 9.95435H18.6072C18.3944 9.95435 18.2211 10.1271 18.2211 10.3405C18.2211 10.5538 18.3944 10.7266 18.6072 10.7266H21.68C21.8927 10.7266 22.0661 10.5538 22.0661 10.3405C22.0661 10.1271 21.8927 9.95435 21.68 9.95435Z" fill="#1F1F1F"/>
</g>
<defs>
<clipPath id="clip0_10_1566">
<rect width="20" height="20" fill="white" transform="translate(3 3)"/>
</clipPath>
</defs>
</svg>
