<svg width="26" height="26" viewBox="0 0 26 26" fill="none" xmlns="http://www.w3.org/2000/svg">
<g clip-path="url(#clip0_10_1555)">
<path d="M22.6205 14.2366C21.9677 13.3189 20.6944 13.1044 19.7766 13.7572C18.96 14.3383 18.6866 15.4272 19.1316 16.325L16.34 18.0194C16.0339 17.4283 15.5622 16.9389 14.9816 16.6122L17.3727 9.36108C18.4883 9.55663 19.5511 8.81052 19.7461 7.69497C19.9416 6.57941 19.1955 5.51663 18.08 5.32163C16.9644 5.12608 15.9016 5.87219 15.7066 6.98774C15.5522 7.87052 15.9889 8.75163 16.785 9.16274L14.4116 16.3605C14.0639 16.2416 13.6994 16.1805 13.3316 16.18C13.1316 16.18 12.9316 16.1989 12.735 16.2355L10.5089 6.9383C11.5377 6.49941 12.0161 5.30885 11.5772 4.27997C11.1383 3.25108 9.94774 2.77274 8.91885 3.21163C7.88996 3.65052 7.41163 4.84108 7.85052 5.86997C8.16885 6.61663 8.90274 7.10108 9.71441 7.10108C9.77885 7.10441 9.84385 7.10441 9.9083 7.10108L12.1344 16.4094C11.4183 16.6805 10.815 17.1861 10.4222 17.8433L6.76663 14.9889C7.36552 14.035 7.07774 12.7761 6.12385 12.1772C5.16996 11.5783 3.91107 11.8661 3.31218 12.82C2.7133 13.775 3.00163 15.0333 3.95552 15.6322C4.28052 15.8361 4.65607 15.9444 5.03941 15.9444H5.19552C5.62441 15.9116 6.03163 15.7439 6.35996 15.4655L10.1539 18.4066C9.5133 20.1627 10.4177 22.105 12.1739 22.7455C13.93 23.3861 15.8722 22.4816 16.5127 20.7255C16.6483 20.3533 16.7177 19.9605 16.7177 19.5644C16.7166 19.2389 16.6694 18.915 16.5777 18.6027L19.4722 16.8216C19.7816 17.155 20.1939 17.3744 20.6433 17.445C20.7494 17.4627 20.8566 17.4716 20.9639 17.4716C22.09 17.4711 23.0027 16.5572 23.0016 15.4311C23.0016 15.0005 22.8644 14.5805 22.6111 14.2327L22.6222 14.2372L22.6205 14.2366ZM17.1616 6.27997C17.4466 6.13163 17.7794 6.1033 18.0855 6.20219C18.3905 6.29997 18.6439 6.51552 18.7889 6.80108C19.095 7.39552 18.8611 8.12608 18.2661 8.43219C17.6716 8.7383 16.9411 8.50441 16.635 7.90941C16.3294 7.31608 16.5616 6.58719 17.1544 6.27997H17.1611H17.1616ZM9.16663 6.14163C8.57163 5.83608 8.33663 5.10608 8.64163 4.51108C8.78607 4.22941 9.03552 4.01552 9.33552 3.91497C9.45774 3.87497 9.58552 3.85552 9.71385 3.85719C9.90441 3.85719 10.0916 3.90274 10.2616 3.9883C10.8589 4.29052 11.0972 5.01997 10.795 5.61663C10.4927 6.21385 9.7633 6.45219 9.16663 6.14997V6.14108V6.14163ZM5.12163 15.1161C4.45441 15.1666 3.87274 14.6666 3.82274 13.9994C3.77274 13.3322 4.27218 12.7505 4.93941 12.7005H5.03274C5.70163 12.6905 6.25163 13.225 6.26163 13.8939C6.27107 14.5422 5.76885 15.0827 5.12163 15.1205V15.1161ZM13.3322 22.1139C11.9194 22.1116 10.7761 20.9639 10.7789 19.5511C10.7811 18.1383 11.9289 16.995 13.3416 16.9977C14.7544 17 15.8977 18.1477 15.895 19.5605C15.895 19.5622 15.895 19.5633 15.895 19.565C15.8889 20.9755 14.7427 22.1155 13.3322 22.1144V22.1139ZM22.1689 15.6239C22.0639 16.28 21.4505 16.73 20.7927 16.6322C20.1322 16.5261 19.6816 15.9061 19.7844 15.245C19.88 14.6572 20.3866 14.225 20.9822 14.2233C21.0455 14.2233 21.1089 14.2283 21.1716 14.2389C21.4855 14.29 21.7655 14.4639 21.9511 14.7222C22.1411 14.9816 22.2194 15.3061 22.1694 15.6239H22.1689Z" fill="#1F1F1F"/>
</g>
<defs>
<clipPath id="clip0_10_1555">
<rect width="20" height="20" fill="white" transform="translate(3 3)"/>
</clipPath>
</defs>
</svg>
