<svg width="65" height="65" viewBox="0 0 65 65" fill="none" xmlns="http://www.w3.org/2000/svg">
<rect width="65" height="65" rx="32.5" fill="#E9ECEF"/>
<path d="M37.1247 23.2291C35.2393 23.2291 33.5518 24.1458 32.4997 25.552C31.4476 24.1458 29.7601 23.2291 27.8747 23.2291C24.6768 23.2291 22.083 25.8333 22.083 29.052C22.083 30.2916 22.2809 31.4375 22.6247 32.5C24.2705 37.7083 29.3434 40.8229 31.8538 41.677C32.208 41.802 32.7913 41.802 33.1455 41.677C35.6559 40.8229 40.7288 37.7083 42.3747 32.5C42.7184 31.4375 42.9163 30.2916 42.9163 29.052C42.9163 25.8333 40.3226 23.2291 37.1247 23.2291Z" fill="#1F1F1F"/>
</svg>
