<svg width="29" height="28" viewBox="0 0 29 28" fill="none" xmlns="http://www.w3.org/2000/svg">
<circle opacity="0.25" cx="14.75" cy="14" r="14" fill="#868E9D"/>
<path d="M16.7189 9.65234C15.7536 9.65234 14.8896 10.1217 14.3509 10.8417C13.8122 10.1217 12.9482 9.65234 11.9829 9.65234C10.3456 9.65234 9.01758 10.9857 9.01758 12.6337C9.01758 13.2683 9.11891 13.855 9.29491 14.399C10.1376 17.0657 12.7349 18.6603 14.0202 19.0977C14.2016 19.1617 14.5002 19.1617 14.6816 19.0977C15.9669 18.6603 18.5642 17.0657 19.4069 14.399C19.5829 13.855 19.6842 13.2683 19.6842 12.6337C19.6842 10.9857 18.3562 9.65234 16.7189 9.65234Z" fill="#868E9D"/>
</svg>
