<svg width="65" height="65" viewBox="0 0 65 65" fill="none" xmlns="http://www.w3.org/2000/svg">
<rect width="65" height="65" rx="32.5" fill="#E9ECEF"/>
<g clip-path="url(#clip0_10_661)">
<path d="M28.5039 28.3329C27.9003 28.3243 27.3186 28.1055 26.8591 27.7142C25.8995 26.8342 25.3181 25.6167 25.2372 24.3173C24.9841 21.7194 26.4007 20.1881 27.9309 20.0173C28.2997 19.9762 28.6729 20.0098 29.0283 20.1161C29.3837 20.2224 29.7141 20.3992 29.9997 20.636C30.426 21.0202 30.7721 21.4848 31.0181 22.0033C31.2641 22.5217 31.4051 23.0837 31.433 23.6569C31.6664 26.0767 30.3768 28.3329 28.5039 28.3329ZM22.9716 34.5829C22.4173 34.5702 21.8881 34.3493 21.4893 33.9642C20.6075 33.0461 20.0893 31.8389 20.031 30.5673C19.8018 27.9694 21.0789 26.4381 22.4591 26.2673C22.7955 26.2288 23.1363 26.2643 23.4576 26.3712C23.779 26.478 24.0731 26.6538 24.3195 26.886C25.112 27.6966 25.573 28.774 25.6122 29.9069C25.8216 32.3267 24.5403 34.5829 22.9716 34.5829ZM36.4955 28.3329C34.6101 28.3329 33.3351 26.0767 33.5716 23.6537C33.5995 23.0806 33.7405 22.5186 33.9865 22.0002C34.2325 21.4817 34.5786 21.017 35.0049 20.6329C35.2902 20.3975 35.6198 20.2217 35.9743 20.1159C36.3287 20.0102 36.7008 19.9766 37.0684 20.0173C38.5986 20.1881 40.0153 21.7194 39.7622 24.3173C39.6812 25.617 39.0999 26.8348 38.1403 27.7152C37.6804 28.1059 37.0989 28.3243 36.4955 28.3329ZM41.9299 34.5829C39.9653 34.5829 38.9851 32.3267 39.2059 29.9037C39.2497 28.7636 39.727 27.6831 40.5403 26.8829C40.7983 26.6489 41.1034 26.4726 41.435 26.3659C41.7666 26.2592 42.1171 26.2245 42.4632 26.2642C43.8882 26.435 45.208 27.9662 44.9726 30.5642C44.9064 31.8448 44.3679 33.0554 43.4611 33.9621C43.0441 34.3497 42.4991 34.5706 41.9299 34.5829ZM36.6663 44.9996C35.7761 45.0171 34.8969 44.7997 34.1174 44.3694C33.6186 44.1066 33.0634 43.9693 32.4997 43.9693C31.936 43.9693 31.3807 44.1066 30.882 44.3694C27.7434 46.1267 24.0851 44.1944 24.1664 39.7912C24.1664 34.9621 28.8612 30.4162 32.4997 30.4162C36.1382 30.4162 40.833 34.9621 40.833 39.7912C40.833 42.8579 39.1195 44.9996 36.6663 44.9996Z" fill="#1F1F1F"/>
</g>
<defs>
<clipPath id="clip0_10_661">
<rect width="25" height="25" fill="white" transform="translate(20 20)"/>
</clipPath>
</defs>
</svg>
