<svg width="12" height="13" viewBox="0 0 12 13" fill="none" xmlns="http://www.w3.org/2000/svg">
<g clip-path="url(#clip0_14_5296)">
<path fill-rule="evenodd" clip-rule="evenodd" d="M2.29362 0.516602C2.04011 0.516602 1.79085 0.581219 1.56934 0.704271C1.34379 0.819248 1.15341 0.993039 1.0184 1.20735C0.881434 1.42475 0.806679 1.67553 0.802252 1.93243L0.802187 1.93981V11.077L0.802252 11.0843C0.806679 11.3412 0.881434 11.592 1.0184 11.8094C1.15341 12.0238 1.34379 12.1975 1.56934 12.3125C1.79085 12.4355 2.04011 12.5002 2.29362 12.5002C2.55072 12.5002 2.80346 12.4337 3.0273 12.3072C3.03223 12.3045 3.0371 12.3016 3.04191 12.2986L10.4389 7.72362C10.6632 7.61057 10.8525 7.43834 10.9864 7.22536C11.1245 7.00543 11.1979 6.75097 11.1979 6.49124C11.1979 6.23152 11.1245 5.97706 10.9864 5.75713C10.8524 5.54393 10.6627 5.37156 10.4382 5.25852L3.04069 0.71743C3.03627 0.714722 3.03181 0.712093 3.0273 0.709545C2.80346 0.583066 2.55072 0.516602 2.29362 0.516602Z" fill="#1F1F1F"/>
</g>
<defs>
<clipPath id="clip0_14_5296">
<rect width="12" height="12" fill="white" transform="translate(0 0.5)"/>
</clipPath>
</defs>
</svg>
