<svg width="40" height="41" viewBox="0 0 40 41" fill="none" xmlns="http://www.w3.org/2000/svg">
<g opacity="0.65" clip-path="url(#clip0_10_817)">
<path d="M10.1833 9.76668C12.1666 10 13.5666 10.7333 14.9999 12.1667L16.6666 13.8333L11.2499 19.25C11.7666 19.45 12.1833 19.7 12.5333 19.9C13.1499 20.2833 13.5166 20.5 14.4499 20.5C15.3833 20.5 15.7499 20.2833 16.3666 19.9C17.1333 19.45 18.1666 18.8333 20.0166 18.8333C21.8666 18.8333 22.8999 19.45 23.6499 19.9C24.2666 20.2667 24.6499 20.5 25.5666 20.5C26.4833 20.5 26.8666 20.2833 27.4833 19.9C27.6833 19.7833 27.9166 19.65 28.1666 19.5167L17.4666 8.83335C15.3666 6.73335 13.3999 5.83335 10.4999 5.58335C9.33325 5.48335 8.33325 6.43335 8.33325 7.60001V7.75001C8.33325 8.80001 9.14992 9.63335 10.1833 9.76668ZM35.5833 32.0167C35.2999 31.9167 35.0499 31.7667 34.7499 31.5667C33.9999 31.1167 32.9666 30.5 31.1166 30.5C29.2666 30.5 28.2333 31.1167 27.4833 31.5667C26.8666 31.95 26.4833 32.1667 25.5666 32.1667C24.6499 32.1667 24.2666 31.9333 23.6499 31.5667C22.8999 31.1167 21.8666 30.5 20.0166 30.5C18.1666 30.5 17.1333 31.1167 16.3666 31.5667C15.7499 31.95 15.3833 32.1667 14.4499 32.1667C13.5166 32.1667 13.1499 31.95 12.5333 31.5667C11.7833 31.1167 10.7499 30.5 8.89992 30.5C7.04992 30.5 6.01659 31.1167 5.24992 31.5667C4.94992 31.75 4.69992 31.9 4.41659 32.0167C3.78325 32.2333 3.33325 32.7667 3.33325 33.4333V33.6333C3.33325 34.75 4.43325 35.5167 5.49992 35.15C6.11659 34.9333 6.58325 34.65 6.98325 34.4167C7.59992 34.05 7.98325 33.8333 8.89992 33.8333C9.81659 33.8333 10.1999 34.05 10.8166 34.4333C11.5666 34.8833 12.5999 35.5 14.4499 35.5C16.2999 35.5 17.3333 34.8833 18.0999 34.4333C18.7166 34.05 19.0833 33.8333 20.0166 33.8333C20.9333 33.8333 21.3166 34.0667 21.9333 34.4333C22.6833 34.8833 23.7166 35.5 25.5666 35.5C27.4166 35.5 28.4333 34.8833 29.1999 34.4333C29.8166 34.05 30.1833 33.8333 31.1166 33.8333C32.0333 33.8333 32.4166 34.0667 33.0333 34.4333C33.4166 34.6667 33.8833 34.95 34.4999 35.1667C35.5499 35.5333 36.6666 34.7667 36.6666 33.65V33.45C36.6666 32.7667 36.2166 32.2333 35.5833 32.0167ZM5.18325 27.75C5.96659 27.5333 6.53325 27.2 6.99992 26.9333C7.61658 26.55 7.99992 26.3333 8.91658 26.3333C9.83325 26.3333 10.2166 26.5667 10.8333 26.9333C11.5833 27.3833 12.6166 28 14.4666 28C16.3166 28 17.3499 27.3833 18.0999 26.9333C18.7166 26.55 19.0833 26.3333 20.0166 26.3333C20.9333 26.3333 21.3166 26.5667 21.9333 26.9333C22.6833 27.3833 23.7166 28 25.5666 28C27.4166 28 28.4499 27.3833 29.1999 26.9333C29.8166 26.55 30.1833 26.3333 31.1166 26.3333C32.0333 26.3333 32.4166 26.5667 33.0333 26.9333C33.4166 27.1667 33.8666 27.4333 34.4499 27.65C35.4999 28.0333 36.6333 27.25 36.6333 26.1333V25.9333C36.6333 25.2667 36.1833 24.7333 35.5666 24.5C35.2833 24.4 35.0333 24.25 34.7166 24.0667C33.9666 23.6167 32.9333 23 31.0833 23C29.2333 23 28.1999 23.6167 27.4499 24.0667C26.8333 24.45 26.4499 24.6667 25.5333 24.6667C24.6166 24.6667 24.2333 24.4333 23.6166 24.0667C22.8666 23.6167 21.8333 23 19.9833 23C18.1333 23 17.0999 23.6167 16.3499 24.0667C15.7333 24.45 15.3666 24.6667 14.4333 24.6667C13.5166 24.6667 13.1333 24.4333 12.5166 24.0667C11.7666 23.6167 10.7333 23 8.88325 23C7.03325 23 5.99992 23.6167 5.24992 24.0667C4.94992 24.25 4.69992 24.4 4.41659 24.5167C3.78325 24.7333 3.33325 25.2667 3.33325 25.9333V26.3167C3.33325 27.2833 4.24992 28.0167 5.18325 27.75Z" fill="#1F1F1F"/>
<path d="M27.4999 13.8333C29.8011 13.8333 31.6666 11.9679 31.6666 9.66667C31.6666 7.36548 29.8011 5.5 27.4999 5.5C25.1987 5.5 23.3333 7.36548 23.3333 9.66667C23.3333 11.9679 25.1987 13.8333 27.4999 13.8333Z" fill="#1F1F1F"/>
</g>
<defs>
<clipPath id="clip0_10_817">
<rect width="40" height="40" fill="white" transform="translate(0 0.5)"/>
</clipPath>
</defs>
</svg>
