<svg width="24" height="24" viewBox="0 0 24 24" fill="none" xmlns="http://www.w3.org/2000/svg">
<path d="M8.09 11.6295H3.4C3.48 6.95948 4.4 6.18948 7.27 4.48948C7.6 4.28948 7.71 3.86948 7.51 3.52948C7.32 3.19948 6.89 3.08948 6.56 3.28948C3.18 5.28948 2 6.50948 2 12.3195V17.7095C2 19.4195 3.39 20.7995 5.09 20.7995H8.09C9.85 20.7995 11.18 19.4695 11.18 17.7095V14.7095C11.18 12.9595 9.85 11.6295 8.09 11.6295Z" fill="#1F1F1F"/>
<path d="M18.91 11.6295H14.22C14.3 6.95948 15.22 6.18948 18.09 4.48948C18.42 4.28948 18.53 3.86948 18.33 3.52948C18.13 3.19948 17.71 3.08948 17.37 3.28948C13.99 5.28948 12.81 6.50948 12.81 12.3295V17.7195C12.81 19.4295 14.2 20.8095 15.9 20.8095H18.9C20.66 20.8095 21.99 19.4795 21.99 17.7195V14.7195C22 12.9595 20.67 11.6295 18.91 11.6295Z" fill="#1F1F1F"/>
</svg>
