<svg width="393" height="852" viewBox="0 0 393 852" fill="none" xmlns="http://www.w3.org/2000/svg">
<g clip-path="url(#clip0_113_439)">
<rect width="393" height="852" fill="#1F1F1F"/>
<path opacity="0.35" d="M63.3571 226.5V256.76C63.3571 261.744 63.3571 264.235 64.3303 266.139C65.1863 267.813 66.5512 269.178 68.2312 270.031C70.1393 271 72.6384 271 77.6291 271H93.7281C98.7188 271 101.214 271 103.122 270.031C104.802 269.178 106.172 267.813 107.028 266.138C108 264.236 108 261.748 108 256.774V240.726C108 235.752 108 233.26 107.028 231.358C106.172 229.684 104.803 228.323 103.123 227.47C101.213 226.5 98.7148 226.5 93.7143 226.5H63.3571ZM63.3571 226.5V208.7C63.3571 193.954 75.3495 182 90.1429 182M-17 226.5V256.76C-17 261.744 -17 264.235 -16.0268 266.139C-15.1708 267.813 -13.8059 269.178 -12.1259 270.031C-10.2179 271 -7.71878 271 -2.72809 271H13.3709C18.3616 271 20.8571 271 22.7652 270.031C24.4452 269.178 25.8146 267.813 26.6707 266.138C27.6429 264.236 27.6429 261.748 27.6429 256.774V240.726C27.6429 235.752 27.6429 233.26 26.6707 231.358C25.8146 229.684 24.446 228.323 22.766 227.47C20.8561 226.5 18.3576 226.5 13.3571 226.5H-17ZM-17 226.5V208.7C-17 193.954 -5.00762 182 9.78572 182" stroke="white" stroke-width="12" stroke-linecap="round" stroke-linejoin="round"/>
<path opacity="0.35" d="M329.643 495.5L329.643 465.24C329.643 460.256 329.643 457.765 328.67 455.861C327.814 454.187 326.449 452.822 324.769 451.969C322.861 451 320.362 451 315.371 451L299.272 451C294.281 451 291.786 451 289.878 451.969C288.198 452.822 286.828 454.187 285.972 455.862C285 457.764 285 460.252 285 465.226L285 481.274C285 486.248 285 488.74 285.972 490.641C286.828 492.316 288.197 493.677 289.877 494.53C291.787 495.5 294.285 495.5 299.286 495.5L329.643 495.5ZM329.643 495.5L329.643 513.3C329.643 528.046 317.65 540 302.857 540M410 495.5L410 465.24C410 460.256 410 457.765 409.027 455.861C408.171 454.187 406.806 452.822 405.126 451.969C403.218 451 400.719 451 395.728 451L379.629 451C374.638 451 372.143 451 370.235 451.969C368.555 452.822 367.185 454.187 366.329 455.862C365.357 457.764 365.357 460.252 365.357 465.226L365.357 481.274C365.357 486.248 365.357 488.74 366.329 490.642C367.185 492.316 368.554 493.677 370.234 494.53C372.144 495.5 374.642 495.5 379.643 495.5L410 495.5ZM410 495.5L410 513.3C410 528.046 398.008 540 383.214 540" stroke="white" stroke-width="12" stroke-linecap="round" stroke-linejoin="round"/>
</g>
<defs>
<clipPath id="clip0_113_439">
<rect width="393" height="852" fill="white"/>
</clipPath>
</defs>
</svg>
