<svg width="29" height="28" viewBox="0 0 29 28" fill="none" xmlns="http://www.w3.org/2000/svg">
<circle opacity="0.25" cx="14.75" cy="14" r="14" fill="#023E8A"/>
<path d="M14.5484 8.40039C11.5699 8.40039 9.14844 10.8219 9.14844 13.8004C9.14844 16.7789 11.5699 19.2004 14.5484 19.2004C17.527 19.2004 19.9484 16.7789 19.9484 13.8004C19.9484 10.8219 17.527 8.40039 14.5484 8.40039ZM17.4701 11.7654C17.6748 11.8223 17.7998 12.0383 17.743 12.2429C17.5724 12.8454 17.0154 13.2774 16.3788 13.2774C15.7535 13.2774 15.1964 12.8568 15.0259 12.2429C14.9691 12.0383 15.0828 11.8223 15.2988 11.7654C15.3329 11.7541 15.367 11.7541 15.4011 11.7541C15.5716 11.7541 15.7308 11.8678 15.7762 12.0383C15.8558 12.3111 16.1059 12.5044 16.3901 12.5044C16.6743 12.5044 16.9244 12.3111 17.004 12.0383C17.0495 11.8223 17.2541 11.7086 17.4701 11.7654ZM16.7539 15.3692C16.3446 16.1991 15.4806 16.7334 14.5484 16.7334C13.6162 16.7334 12.7522 16.1991 12.343 15.3579C12.252 15.176 12.3316 14.9486 12.5135 14.8577C12.6954 14.7667 12.9228 14.8463 13.0137 15.0282C13.2979 15.608 13.9004 15.9831 14.5484 15.9831C15.2078 15.9831 15.7876 15.6193 16.0832 15.0282C16.1741 14.8463 16.4015 14.7667 16.5834 14.8577C16.7653 14.9486 16.8449 15.176 16.7539 15.3692ZM11.6268 11.7654C11.6609 11.7541 11.695 11.7541 11.7291 11.7541C11.8996 11.7541 12.0588 11.8678 12.1042 12.0383C12.1838 12.3111 12.4339 12.5044 12.7181 12.5044C13.0023 12.5044 13.2524 12.3111 13.332 12.0383C13.3889 11.8337 13.6049 11.7086 13.8095 11.7654C14.0141 11.8223 14.1392 12.0383 14.0823 12.2429C13.9118 12.8454 13.3548 13.2774 12.7295 13.2774C12.0929 13.2774 11.5358 12.8568 11.3653 12.2429C11.3084 12.0383 11.4221 11.8223 11.6268 11.7654Z" fill="#023E8A"/>
</svg>
