<svg width="65" height="65" viewBox="0 0 65 65" fill="none" xmlns="http://www.w3.org/2000/svg">
<rect width="65" height="65" rx="32.5" fill="#E9ECEF"/>
<path d="M32.5 20C25.6053 20 20 25.6053 20 32.5C20 39.3947 25.6053 45 32.5 45C39.3947 45 45 39.3947 45 32.5C45 25.6053 39.3947 20 32.5 20ZM39.2632 27.7895C39.7368 27.9211 40.0263 28.4211 39.8947 28.8947C39.5 30.2895 38.2105 31.2895 36.7368 31.2895C35.2895 31.2895 34 30.3158 33.6053 28.8947C33.4737 28.4211 33.7368 27.9211 34.2368 27.7895C34.3158 27.7632 34.3947 27.7632 34.4737 27.7632C34.8684 27.7632 35.2368 28.0263 35.3421 28.4211C35.5263 29.0526 36.1053 29.5 36.7632 29.5C37.4211 29.5 38 29.0526 38.1842 28.4211C38.2895 27.9211 38.7632 27.6579 39.2632 27.7895ZM37.6053 36.1316C36.6579 38.0526 34.6579 39.2895 32.5 39.2895C30.3421 39.2895 28.3421 38.0526 27.3947 36.1053C27.1842 35.6842 27.3684 35.1579 27.7895 34.9474C28.2105 34.7368 28.7368 34.9211 28.9474 35.3421C29.6053 36.6842 31 37.5526 32.5 37.5526C34.0263 37.5526 35.3684 36.7105 36.0526 35.3421C36.2632 34.9211 36.7895 34.7368 37.2105 34.9474C37.6316 35.1579 37.8158 35.6842 37.6053 36.1316ZM25.7368 27.7895C25.8158 27.7632 25.8947 27.7632 25.9737 27.7632C26.3684 27.7632 26.7368 28.0263 26.8421 28.4211C27.0263 29.0526 27.6053 29.5 28.2632 29.5C28.9211 29.5 29.5 29.0526 29.6842 28.4211C29.8158 27.9474 30.3158 27.6579 30.7895 27.7895C31.2632 27.9211 31.5526 28.4211 31.4211 28.8947C31.0263 30.2895 29.7368 31.2895 28.2895 31.2895C26.8158 31.2895 25.5263 30.3158 25.1316 28.8947C25 28.4211 25.2632 27.9211 25.7368 27.7895Z" fill="#1F1F1F"/>
</svg>
