<svg width="48" height="49" viewBox="0 0 48 49" fill="none" xmlns="http://www.w3.org/2000/svg">
<path d="M16.1199 8.98666V8.21733C16.1146 8.00129 16.1199 7.60081 16.0514 7.2583C15.9407 6.55747 15.6246 5.89353 15.1872 5.34025C14.7393 4.79223 14.1597 4.3496 13.4957 4.08086C13.1637 3.94386 12.8159 3.85428 12.4629 3.80685C12.289 3.78051 12.0993 3.77524 11.9412 3.7647L11.5565 3.75416C10.529 3.72254 9.50143 3.68039 8.47388 3.61189C6.41877 3.47488 4.36367 3.25357 2.31384 2.89525C1.35479 2.72663 -0.0310855 2.52639 0.000531495 5.16109C0.026879 7.32154 1.33898 7.07914 2.22426 7.08968C4.23194 7.11076 6.24488 7.04753 8.25256 6.97902L11.1982 6.88418C11.0823 7.00537 10.9716 7.12657 10.861 7.22142C9.65951 8.30691 8.49496 9.33444 7.25662 10.5201C6.06045 11.7267 5.00655 13.0704 4.12654 14.5248C2.35599 17.4229 1.27575 20.7321 0.95431 24.1151C0.622332 27.4927 1.04389 30.9442 2.12941 34.1849C3.22546 37.4255 4.96966 40.4818 7.28824 43.1639C7.56226 43.4748 7.88369 43.8015 8.22621 44.0966C8.4001 44.2441 8.574 44.3864 8.75843 44.5076C8.9534 44.6182 9.14837 44.7078 9.34861 44.7763C10.1496 45.0398 10.9453 44.8659 11.6461 43.7488C12.2258 42.8319 12.0993 42.1469 11.7199 41.6147C11.625 41.4777 11.5144 41.3565 11.3879 41.2353C11.272 41.1088 11.1508 40.9824 11.019 40.8612C10.7608 40.6241 10.4868 40.4027 10.2497 40.1972C8.18932 38.2581 6.50836 35.9027 5.38595 33.2785C4.25828 30.6596 3.71552 27.7667 3.92103 24.9002C4.12654 21.9072 5.0329 18.9616 6.55578 16.3743C7.31986 15.0833 8.23148 13.8819 9.27484 12.7964L9.66478 12.3907L10.0863 11.9955L10.9663 11.1735L12.7738 9.47144C12.8686 9.38186 12.974 9.29228 13.0847 9.20271V11.8532L13.0952 18.1554C13.0952 18.8457 12.5788 19.8732 14.518 19.9154C16.6152 19.9628 16.0251 18.8878 16.0514 18.2292C16.1252 16.1741 16.1357 14.119 16.1305 12.064L16.1146 8.98139L16.1199 8.98666Z" fill="white"/>
<path d="M41.9234 15.3521L41.8918 14.7988L41.8338 13.8345C41.8075 13.5026 41.76 13.1074 41.7232 12.7438C41.3279 9.80346 39.9895 6.98434 37.9186 4.86604C35.8635 2.73721 33.1286 1.25651 30.1988 0.755923C29.7667 0.687421 29.2872 0.61365 28.7971 0.534609H28.6601C27.1899 0.466107 25.6617 0.492454 25.5774 1.99423C25.4826 3.66989 27.1477 3.62774 28.639 3.55924C28.9499 3.58031 29.2503 3.60139 29.519 3.63301C32.4857 4.14414 35.1837 5.90938 36.8805 8.38072C37.7183 9.61903 38.3085 11.0207 38.5983 12.4856C38.6879 12.8492 38.7195 13.2233 38.7617 13.5921C38.8144 13.9452 38.8249 14.3931 38.8566 14.7936L38.8934 15.389V15.9528V16.5799C38.8934 16.7432 38.8934 17.1174 38.9514 17.4125C39.0094 17.7233 39.1148 18.0237 39.257 18.303C39.3203 18.4347 39.4204 18.5928 39.4836 18.6876L39.6575 18.9458L40.3478 19.9734L41.7284 22.0337L44.4791 26.1596L44.653 26.4178C44.6899 26.4863 44.7268 26.5285 44.7531 26.5917C44.8163 26.7024 44.8638 26.8236 44.8954 26.95C44.9692 27.1977 44.9902 27.4612 44.9534 27.7141C44.8901 28.2252 44.6056 28.6995 44.1893 28.9946C43.9838 29.1421 43.7466 29.2475 43.499 29.3002C43.3778 29.3265 43.2513 29.3423 43.1248 29.3423H42.5294L40.0527 29.3055C39.3888 29.2949 38.846 29.8219 38.8302 30.4858V30.528L38.7248 35.6867L38.6879 36.9777L38.6774 37.2991C38.6774 37.4098 38.6616 37.4308 38.6616 37.4993C38.6458 37.6153 38.6142 37.7259 38.5773 37.8366C38.4139 38.2687 38.0556 38.6112 37.6446 38.7587C37.4338 38.8325 37.2335 38.8589 37.0017 38.843L35.7107 38.7851L33.1339 38.6586L31.8429 38.5848L31.6795 38.5743C31.611 38.5743 31.611 38.5638 31.4635 38.569C31.2263 38.569 30.9892 38.5954 30.7573 38.6481C30.2936 38.7535 29.8457 38.9537 29.461 39.2435C29.0764 39.5281 28.7497 39.9022 28.5125 40.329C28.2543 40.8454 28.2438 40.9245 28.1331 41.1405L27.5956 42.3103C26.6102 44.4339 25.2244 47.5165 27.7116 48.3806C29.7561 49.092 30.673 45.9883 31.4529 43.9596L31.9219 42.7371L32.0009 42.5263H32.9653L35.5737 42.5L36.8752 42.4842H37.0544L37.3284 42.4684C37.5128 42.4631 37.692 42.4315 37.8764 42.3999C38.24 42.3366 38.5931 42.2313 38.9356 42.0943C40.3004 41.541 41.3701 40.3764 41.8285 38.9853C41.9445 38.6375 42.0182 38.2792 42.0604 37.9209C42.0762 37.7417 42.0815 37.5573 42.0868 37.3782V37.0409L42.0657 35.7394L42.0235 32.4407H42.2132L42.7507 32.4355H43.0195L43.4147 32.4197C43.9996 32.3722 44.574 32.23 45.1062 31.9876C46.1706 31.5081 47.0559 30.6281 47.5407 29.5742C48.036 28.515 48.1361 27.282 47.8147 26.1649C47.6777 25.6643 47.4511 25.1795 47.1665 24.758L46.6343 23.957L45.5646 22.3551L43.4252 19.1461L42.3555 17.5442L42.0868 17.1437L41.9761 16.9804C41.9761 16.9804 41.9603 16.9593 41.955 16.9487C41.9339 16.9066 41.9234 16.8592 41.9234 16.8117V15.9054V15.3627V15.3521ZM31.5688 42.5263H31.5952C31.5952 42.5263 31.5899 42.5263 31.5847 42.5263C31.5847 42.5263 31.5425 42.5263 31.5688 42.5263Z" fill="white"/>
</svg>
