<svg width="40" height="41" viewBox="0 0 40 41" fill="none" xmlns="http://www.w3.org/2000/svg">
<g opacity="0.65" clip-path="url(#clip0_10_811)">
<path d="M8.33338 22.4667V27.15C8.33338 28.3667 9.00005 29.5 10.0667 30.0833L18.4001 34.6333C19.4001 35.1833 20.6 35.1833 21.6 34.6333L29.9334 30.0833C31 29.5 31.6667 28.3667 31.6667 27.15V22.4667L21.6 27.9667C20.6 28.5167 19.4001 28.5167 18.4001 27.9667L8.33338 22.4667ZM18.4001 6.36667L4.35005 14.0333C3.20005 14.6667 3.20005 16.3333 4.35005 16.9667L18.4001 24.6333C19.4001 25.1833 20.6 25.1833 21.6 24.6333L35 17.3167V27.1667C35 28.0833 35.75 28.8333 36.6667 28.8333C37.5834 28.8333 38.3334 28.0833 38.3334 27.1667V16.4833C38.3334 15.8667 38 15.3167 37.4667 15.0167L21.6 6.36667C20.6 5.83334 19.4001 5.83334 18.4001 6.36667Z" fill="#1F1F1F"/>
</g>
<defs>
<clipPath id="clip0_10_811">
<rect width="40" height="40" fill="white" transform="translate(0 0.5)"/>
</clipPath>
</defs>
</svg>
