<svg width="26" height="26" viewBox="0 0 26 26" fill="none" xmlns="http://www.w3.org/2000/svg">
<g clip-path="url(#clip0_10_1440)">
<path d="M13 4C8.0295 4 4 8.0295 4 13C4 17.9705 8.0295 22 13 22C17.9705 22 22 17.9705 22 13C22 8.0295 17.9705 4 13 4ZM13 20.2C9.0235 20.2 5.8 16.9765 5.8 13C5.8 9.0235 9.0235 5.8 13 5.8C16.9765 5.8 20.2 9.0235 20.2 13C20.2 16.9765 16.9765 20.2 13 20.2Z" fill="#1F1F1F"/>
<path d="M12.9999 13.9C11.3124 13.8485 9.77144 14.8545 9.13894 16.42C8.99494 16.8485 9.22544 17.313 9.65444 17.4575C9.74094 17.4865 9.83094 17.501 9.92194 17.5H10.0929C10.4384 17.4755 10.7394 17.255 10.8669 16.933C11.5404 15.755 13.0414 15.346 14.2194 16.0195C14.5999 16.237 14.9154 16.5525 15.1329 16.933C15.2604 17.255 15.5614 17.4755 15.9069 17.5H16.0779C16.5304 17.5035 16.8999 17.14 16.9034 16.6875C16.9039 16.5965 16.8899 16.506 16.8609 16.42C16.2284 14.8545 14.6874 13.8485 12.9999 13.9Z" fill="#1F1F1F"/>
<path d="M17.833 9.89497H17.68C17.386 9.87647 17.107 10.0265 16.96 10.282C16.7435 10.7295 16.205 10.9165 15.7575 10.6995C15.575 10.611 15.428 10.464 15.34 10.282C15.193 10.0265 14.914 9.87647 14.62 9.89497H14.467C14.0145 9.89097 13.645 10.255 13.641 10.707C13.64 10.8375 13.67 10.9665 13.729 11.083C14.389 12.42 16.008 12.969 17.3455 12.3085C17.8775 12.046 18.3085 11.615 18.571 11.083C18.775 10.679 18.6125 10.1865 18.209 9.98297C18.0925 9.92397 17.9635 9.89397 17.833 9.89497Z" fill="#1F1F1F"/>
<path d="M12.271 11.083C12.475 10.679 12.3125 10.1865 11.909 9.98297C11.7925 9.92397 11.6635 9.89397 11.533 9.89497H11.38C11.086 9.87647 10.807 10.0265 10.66 10.282C10.4435 10.7295 9.90497 10.9165 9.45747 10.6995C9.27497 10.611 9.12797 10.464 9.03997 10.282C8.89297 10.0265 8.61397 9.87647 8.31997 9.89497H8.16697C7.71447 9.89097 7.34497 10.255 7.34097 10.707C7.33997 10.8375 7.36997 10.9665 7.42897 11.083C8.08897 12.42 9.70797 12.969 11.0455 12.3085C11.5775 12.046 12.0085 11.615 12.271 11.083Z" fill="#1F1F1F"/>
</g>
<defs>
<clipPath id="clip0_10_1440">
<rect width="18" height="18" fill="white" transform="translate(4 4)"/>
</clipPath>
</defs>
</svg>
