<svg width="65" height="65" viewBox="0 0 65 65" fill="none" xmlns="http://www.w3.org/2000/svg">
<rect width="65" height="65" rx="32.5" fill="#E9ECEF"/>
<g clip-path="url(#clip0_10_670)">
<path d="M36.6667 22.8646C36.6667 25.1177 33.7292 27.9177 32.2656 29.0917C32.0366 29.2753 31.7519 29.3753 31.4583 29.3753C31.1648 29.3753 30.8801 29.2753 30.651 29.0917C29.1875 27.9167 26.25 25.1177 26.25 22.8646C26.2171 22.1398 26.4727 21.4315 26.9607 20.8947C27.4488 20.3579 28.1296 20.0362 28.8542 20C29.5788 20.0362 30.2596 20.3579 30.7476 20.8947C31.2356 21.4315 31.4912 22.1398 31.4583 22.8646C31.4255 22.1398 31.681 21.4315 32.1691 20.8947C32.6571 20.3579 33.3379 20.0362 34.0625 20C34.7871 20.0362 35.4679 20.3579 35.9559 20.8947C36.444 21.4315 36.6995 22.1398 36.6667 22.8646ZM44.3104 32.8646L36.2896 41.624C35.313 42.6888 34.1257 43.5388 32.803 44.12C31.4802 44.7012 30.051 45.0009 28.6063 45H24.1667C23.0616 45 22.0018 44.561 21.2204 43.7796C20.439 42.9982 20 41.9384 20 40.8333V35.625C20 34.5199 20.439 33.4601 21.2204 32.6787C22.0018 31.8973 23.0616 31.4583 24.1667 31.4583H32.2781C32.6225 31.459 32.9623 31.5366 33.2728 31.6855C33.5832 31.8344 33.8565 32.0508 34.0726 32.3189C34.2886 32.587 34.4421 32.9 34.5216 33.235C34.6011 33.57 34.6048 33.9186 34.5323 34.2552C34.4195 34.7261 34.1655 35.1512 33.8043 35.4737C33.4432 35.7961 32.992 36.0005 32.5115 36.0594L28.175 36.6667C27.9017 36.7059 27.6551 36.852 27.4895 37.0729C27.3239 37.2938 27.2527 37.5714 27.2917 37.8448C27.3306 38.1183 27.4766 38.3651 27.6976 38.531C27.9185 38.6968 28.1963 38.7681 28.4698 38.7292L32.899 38.1042C33.9422 37.9505 34.8958 37.4282 35.587 36.6319C36.2782 35.8356 36.6612 34.818 36.6667 33.7635C36.6616 33.5406 36.6389 33.3184 36.599 33.099L40.2885 29.2063C40.7751 28.6794 41.4503 28.3665 42.1668 28.3359C42.8833 28.3052 43.5828 28.5593 44.1125 29.0427C44.6396 29.5257 44.9557 30.1966 44.9927 30.9105C45.0297 31.6245 44.7847 32.3244 44.3104 32.8594V32.8646Z" fill="#1F1F1F"/>
</g>
<defs>
<clipPath id="clip0_10_670">
<rect width="25" height="25" fill="white" transform="translate(20 20)"/>
</clipPath>
</defs>
</svg>
