<svg width="40" height="40" viewBox="0 0 40 40" fill="none" xmlns="http://www.w3.org/2000/svg">
<rect width="40" height="40" rx="20" fill="#023E8A"/>
<path d="M17.75 15.5L20 13.25M20 13.25L22.25 15.5M20 13.25V20.75M16.2502 18.5C15.5513 18.5 15.2018 18.5 14.9261 18.6142C14.5586 18.7664 14.2664 19.0586 14.1142 19.4261C14 19.7018 14 20.0511 14 20.75V24.35C14 25.1901 14 25.6098 14.1635 25.9307C14.3073 26.2129 14.5366 26.4429 14.8188 26.5867C15.1394 26.75 15.5592 26.75 16.3977 26.75H23.6027C24.4411 26.75 24.8604 26.75 25.1809 26.5867C25.4632 26.4429 25.6929 26.2129 25.8367 25.9307C26 25.6101 26 25.1908 26 24.3523V20.75C26 20.0511 25.9999 19.7018 25.8857 19.4261C25.7335 19.0586 25.4416 18.7664 25.074 18.6142C24.7984 18.5 24.4489 18.5 23.75 18.5" stroke="white" stroke-width="2" stroke-linecap="round" stroke-linejoin="round"/>
</svg>
