<svg width="18" height="19" viewBox="0 0 18 19" fill="none" xmlns="http://www.w3.org/2000/svg">
<path d="M7.73082 10.7685L11.3654 7.13391M15.0835 4.91577L12.0155 14.8867C11.7405 15.7803 11.603 16.2273 11.3658 16.3755C11.1601 16.504 10.9055 16.5255 10.6815 16.4325C10.4231 16.3253 10.2135 15.9067 9.79525 15.0703L7.85204 11.1838C7.78567 11.0511 7.75245 10.985 7.70812 10.9275C7.66878 10.8765 7.62338 10.8305 7.57234 10.7911C7.51613 10.7478 7.45115 10.7153 7.32433 10.6519L3.42894 8.70423C2.59246 8.28599 2.17419 8.07667 2.067 7.81836C1.97405 7.59434 1.99525 7.33944 2.12377 7.13375C2.27196 6.89657 2.71892 6.75879 3.61278 6.48375L13.5837 3.41577C14.2864 3.19955 14.6379 3.09153 14.8753 3.17867C15.0821 3.25457 15.245 3.4174 15.3209 3.62415C15.408 3.86139 15.2999 4.21272 15.0839 4.91473L15.0835 4.91577Z" stroke="#1F1F1F" stroke-width="1.5" stroke-linecap="round" stroke-linejoin="round"/>
</svg>
