<svg width="173" height="40" viewBox="0 0 173 40" fill="none" xmlns="http://www.w3.org/2000/svg">
<rect width="173" height="40" rx="20" fill="white"/>
<path d="M57.75 15.5L60 13.25M60 13.25L62.25 15.5M60 13.25V20.75M56.2502 18.5C55.5513 18.5 55.2018 18.5 54.9261 18.6142C54.5586 18.7664 54.2664 19.0586 54.1142 19.4261C54 19.7018 54 20.0511 54 20.75V24.35C54 25.1901 54 25.6098 54.1635 25.9307C54.3073 26.2129 54.5366 26.4429 54.8188 26.5867C55.1394 26.75 55.5592 26.75 56.3977 26.75H63.6027C64.4411 26.75 64.8604 26.75 65.1809 26.5867C65.4632 26.4429 65.6929 26.2129 65.8367 25.9307C66 25.6101 66 25.1908 66 24.3523V20.75C66 20.0511 65.9999 19.7018 65.8857 19.4261C65.7335 19.0586 65.4416 18.7664 65.074 18.6142C64.7984 18.5 64.4489 18.5 63.75 18.5" stroke="#1F1F1F" stroke-width="2" stroke-linecap="round" stroke-linejoin="round"/>
<path d="M79.9109 26.112C79.1642 26.112 78.4922 25.984 77.8949 25.728C77.2975 25.4613 76.8282 25.088 76.4869 24.608C76.1455 24.128 75.9749 23.568 75.9749 22.928H77.9269C77.9695 23.408 78.1562 23.8027 78.4869 24.112C78.8282 24.4213 79.3029 24.576 79.9109 24.576C80.5402 24.576 81.0309 24.4267 81.3829 24.128C81.7349 23.8187 81.9109 23.424 81.9109 22.944C81.9109 22.5707 81.7989 22.2667 81.5749 22.032C81.3615 21.7973 81.0895 21.616 80.7589 21.488C80.4389 21.36 79.9909 21.2213 79.4149 21.072C78.6895 20.88 78.0975 20.688 77.6389 20.496C77.1909 20.2933 76.8069 19.984 76.4869 19.568C76.1669 19.152 76.0069 18.5973 76.0069 17.904C76.0069 17.264 76.1669 16.704 76.4869 16.224C76.8069 15.744 77.2549 15.376 77.8309 15.12C78.4069 14.864 79.0735 14.736 79.8309 14.736C80.9082 14.736 81.7882 15.008 82.4709 15.552C83.1642 16.0853 83.5482 16.8213 83.6229 17.76H81.6069C81.5749 17.3547 81.3829 17.008 81.0309 16.72C80.6789 16.432 80.2149 16.288 79.6389 16.288C79.1162 16.288 78.6895 16.4213 78.3589 16.688C78.0282 16.9547 77.8629 17.3387 77.8629 17.84C77.8629 18.1813 77.9642 18.464 78.1669 18.688C78.3802 18.9013 78.6469 19.072 78.9669 19.2C79.2869 19.328 79.7242 19.4667 80.2789 19.616C81.0149 19.8187 81.6122 20.0213 82.0709 20.224C82.5402 20.4267 82.9349 20.7413 83.2549 21.168C83.5855 21.584 83.7509 22.144 83.7509 22.848C83.7509 23.4133 83.5962 23.9467 83.2869 24.448C82.9882 24.9493 82.5455 25.3547 81.9589 25.664C81.3829 25.9627 80.7002 26.112 79.9109 26.112ZM90.4631 17.04C91.1351 17.04 91.7325 17.184 92.2551 17.472C92.7885 17.76 93.2045 18.1867 93.5031 18.752C93.8125 19.3173 93.9671 20 93.9671 20.8V26H92.1591V21.072C92.1591 20.2827 91.9618 19.68 91.5671 19.264C91.1725 18.8373 90.6338 18.624 89.9511 18.624C89.2685 18.624 88.7245 18.8373 88.3191 19.264C87.9245 19.68 87.7271 20.2827 87.7271 21.072V26H85.9031V14.16H87.7271V18.208C88.0365 17.8347 88.4258 17.5467 88.8951 17.344C89.3751 17.1413 89.8978 17.04 90.4631 17.04ZM95.6858 21.552C95.6858 20.6667 95.8671 19.8827 96.2298 19.2C96.6031 18.5173 97.1044 17.9893 97.7338 17.616C98.3738 17.232 99.0778 17.04 99.8458 17.04C100.539 17.04 101.142 17.1787 101.654 17.456C102.176 17.7227 102.592 18.0587 102.902 18.464V17.184H104.742V26H102.902V24.688C102.592 25.104 102.171 25.4507 101.638 25.728C101.104 26.0053 100.496 26.144 99.8138 26.144C99.0564 26.144 98.3631 25.952 97.7338 25.568C97.1044 25.1733 96.6031 24.6293 96.2298 23.936C95.8671 23.232 95.6858 22.4373 95.6858 21.552ZM102.902 21.584C102.902 20.976 102.774 20.448 102.518 20C102.272 19.552 101.947 19.2107 101.542 18.976C101.136 18.7413 100.699 18.624 100.23 18.624C99.7604 18.624 99.3231 18.7413 98.9178 18.976C98.5124 19.2 98.1818 19.536 97.9258 19.984C97.6804 20.4213 97.5578 20.944 97.5578 21.552C97.5578 22.16 97.6804 22.6933 97.9258 23.152C98.1818 23.6107 98.5124 23.9627 98.9178 24.208C99.3338 24.4427 99.7711 24.56 100.23 24.56C100.699 24.56 101.136 24.4427 101.542 24.208C101.947 23.9733 102.272 23.632 102.518 23.184C102.774 22.7253 102.902 22.192 102.902 21.584ZM108.962 18.464C109.228 18.016 109.58 17.6693 110.018 17.424C110.466 17.168 110.994 17.04 111.602 17.04V18.928H111.138C110.423 18.928 109.879 19.1093 109.506 19.472C109.143 19.8347 108.962 20.464 108.962 21.36V26H107.138V17.184H108.962V18.464ZM121.358 21.376C121.358 21.7067 121.337 22.0053 121.294 22.272H114.558C114.611 22.976 114.873 23.5413 115.342 23.968C115.811 24.3947 116.387 24.608 117.07 24.608C118.051 24.608 118.745 24.1973 119.15 23.376H121.118C120.851 24.1867 120.366 24.8533 119.662 25.376C118.969 25.888 118.105 26.144 117.07 26.144C116.227 26.144 115.47 25.9573 114.798 25.584C114.137 25.2 113.614 24.6667 113.23 23.984C112.857 23.2907 112.67 22.4907 112.67 21.584C112.67 20.6773 112.851 19.8827 113.214 19.2C113.587 18.5067 114.105 17.9733 114.766 17.6C115.438 17.2267 116.206 17.04 117.07 17.04C117.902 17.04 118.643 17.2213 119.294 17.584C119.945 17.9467 120.451 18.4587 120.814 19.12C121.177 19.7707 121.358 20.5227 121.358 21.376ZM119.454 20.8C119.443 20.128 119.203 19.5893 118.734 19.184C118.265 18.7787 117.683 18.576 116.99 18.576C116.361 18.576 115.822 18.7787 115.374 19.184C114.926 19.5787 114.659 20.1173 114.574 20.8H119.454Z" fill="#1F1F1F"/>
</svg>
