<svg width="26" height="26" viewBox="0 0 26 26" fill="none" xmlns="http://www.w3.org/2000/svg">
<g clip-path="url(#clip0_10_1454)">
<path d="M12.4805 15.9871C12.6424 15.7091 12.5502 15.3387 12.2489 15.1768C11.9708 15.0149 11.6005 15.1071 11.4386 15.4084C11.2534 15.7329 10.6973 15.7329 10.5121 15.4084C10.3502 15.1304 9.97922 15.0149 9.70178 15.1768C9.42372 15.3387 9.30822 15.7097 9.47016 15.9871C9.77144 16.52 10.3502 16.8671 10.9521 16.8671C11.6005 16.8439 12.1792 16.52 12.4805 15.9871Z" fill="black"/>
<path d="M16.2779 15.1768C15.9999 15.0149 15.6296 15.1071 15.4676 15.4084C15.2824 15.7329 14.7263 15.7329 14.5412 15.4084C14.3792 15.1304 14.0083 15.0149 13.7308 15.1768C13.4528 15.3387 13.3373 15.7097 13.4992 15.9871C13.8005 16.52 14.3792 16.8671 14.9812 16.8671C15.5831 16.8671 16.1624 16.5426 16.4863 15.9871C16.6483 15.7091 16.556 15.3387 16.2779 15.1768Z" fill="black"/>
<path d="M12.9896 10.36C9.23796 10.36 6.15796 13.4168 6.15796 17.1916C6.15796 20.9664 9.23796 24 12.9896 24C16.7412 24 19.8212 20.9432 19.8212 17.1684C19.8212 13.3935 16.7412 10.36 12.9896 10.36ZM12.9896 22.6568C9.97924 22.6568 7.5244 20.2019 7.5244 17.1916C7.5244 14.1813 9.97924 11.7032 12.9896 11.7032C15.9999 11.7032 18.4547 14.158 18.4547 17.1684C18.4547 20.1787 15.9999 22.6568 12.9896 22.6568Z" fill="black"/>
<path d="M13.8696 18.6045H12.1096C11.7625 18.6045 11.4612 18.8825 11.4612 19.2297C11.4612 19.5768 11.7392 19.8548 12.1096 19.8548H13.8696C14.2167 19.8548 14.518 19.5768 14.518 19.2297C14.518 18.9052 14.2167 18.6045 13.8696 18.6045Z" fill="black"/>
<path d="M12.6425 8.62322C12.7354 8.73872 12.8509 8.78517 12.9896 8.78517C13.1283 8.78517 13.2444 8.7155 13.3367 8.62322L15.0967 6.46967C15.2122 6.33094 15.2354 6.14517 15.1431 5.98322C15.0735 5.82128 14.9115 5.72839 14.7496 5.72839H13.6612V2.67161C13.6612 2.30128 13.3605 2 12.9896 2C12.6186 2 12.318 2.30128 12.318 2.67161V5.75161H11.2296C11.0676 5.75161 10.9051 5.8445 10.836 6.00644C10.767 6.16839 10.7896 6.35356 10.8825 6.49289L12.6425 8.62322Z" fill="black"/>
<path d="M23.7121 6.4465C23.4573 6.19166 23.0173 6.19166 22.7625 6.4465L20.5857 8.62327L19.8212 7.85877C19.7057 7.74327 19.5199 7.69683 19.358 7.74327C19.196 7.81294 19.0799 7.95166 19.0567 8.11361L18.7786 10.8923C18.7554 11.0311 18.8019 11.1704 18.9174 11.2627C19.0102 11.3323 19.1257 11.3782 19.2419 11.3782H19.2883L22.0438 11.1001C22.2057 11.0769 22.3683 10.9614 22.4141 10.7988C22.46 10.6363 22.4374 10.4517 22.2986 10.3356L21.5574 9.57111L23.7341 7.39433C23.989 7.1395 23.989 6.6995 23.7109 6.44466L23.7121 6.4465Z" fill="black"/>
<path d="M6.73733 11.3787C6.85283 11.3787 6.96894 11.3323 7.06183 11.24C7.15472 11.1471 7.20055 11.0084 7.20055 10.8697L6.9225 8.1368C6.89928 7.97486 6.78378 7.8123 6.62122 7.76647C6.45928 7.6968 6.27411 7.74324 6.158 7.88197L5.3935 8.64647L3.21672 6.46969C2.96189 6.21486 2.52189 6.21486 2.26705 6.46969C2.01222 6.72452 2.01222 7.16452 2.26705 7.41936L4.44383 9.59613L3.67933 10.3606C3.56383 10.4761 3.51739 10.6619 3.56383 10.8239C3.6335 10.9858 3.77222 11.1019 3.93416 11.1251L6.68966 11.38H6.73611L6.73733 11.3787Z" fill="black"/>
</g>
<defs>
<clipPath id="clip0_10_1454">
<rect width="22" height="22" fill="white" transform="translate(2 2)"/>
</clipPath>
</defs>
</svg>
