<svg width="11" height="41" viewBox="0 0 11 41" fill="none" xmlns="http://www.w3.org/2000/svg">
<g opacity="0.65" clip-path="url(#clip0_10_818)">
<path d="M11.5167 18.8333C10.9667 15.5833 8.86675 12.8833 5.98341 11.5C4.60008 13.65 3.68341 16.15 3.41675 18.8333H11.5167Z" fill="#1F1F1F"/>
<path d="M14.8834 18.8334H18.3334V3.91669C14.35 4.31669 10.7667 6.11669 8.1167 8.83335C11.75 10.85 14.35 14.5167 14.8834 18.8334Z" fill="#1F1F1F"/>
<path d="M5.98341 29.5C8.85008 28.1167 10.9667 25.4 11.5167 22.1667H3.41675C3.68341 24.85 4.60008 27.35 5.98341 29.5Z" fill="#1F1F1F"/>
<path d="M14.8834 22.1667C14.35 26.4834 11.75 30.15 8.1167 32.1667C10.7834 34.8834 14.35 36.6834 18.3334 37.0834V22.1667H14.8834Z" fill="#1F1F1F"/>
</g>
<defs>
<clipPath id="clip0_10_818">
<rect width="40" height="40" fill="white" transform="translate(0 0.5)"/>
</clipPath>
</defs>
</svg>
