<svg width="172" height="39" viewBox="0 0 172 39" fill="none" xmlns="http://www.w3.org/2000/svg">
<path d="M34.7512 7.75258C34.5163 7.53531 34.6439 7.14254 34.9617 7.10487L39.4644 6.5708C39.5939 6.55544 39.7064 6.47411 39.761 6.35569L41.6602 2.23835C41.7942 1.94777 42.2073 1.94771 42.3413 2.23829L44.2405 6.3556C44.2951 6.47403 44.4069 6.55558 44.5364 6.57093L49.0393 7.10487C49.3571 7.14254 49.4843 7.53543 49.2494 7.7527L45.9208 10.8314C45.8251 10.92 45.7824 11.0518 45.8079 11.1797L46.6913 15.627C46.7536 15.9408 46.4196 16.184 46.1404 16.0277L42.1839 13.8125C42.0701 13.7488 41.9318 13.7491 41.818 13.8128L37.8611 16.0271C37.5818 16.1834 37.2472 15.9408 37.3096 15.627L38.1931 11.18C38.2185 11.0521 38.176 10.92 38.0803 10.8314L34.7512 7.75258Z" fill="white" stroke="white" stroke-width="2" stroke-linecap="round" stroke-linejoin="round"/>
<path d="M56.7512 7.75258C56.5163 7.53531 56.6439 7.14254 56.9617 7.10487L61.4644 6.5708C61.5939 6.55544 61.7064 6.47411 61.761 6.35569L63.6602 2.23835C63.7942 1.94777 64.2073 1.94771 64.3413 2.23829L66.2405 6.3556C66.2951 6.47403 66.4069 6.55558 66.5364 6.57093L71.0393 7.10487C71.3571 7.14254 71.4843 7.53543 71.2494 7.7527L67.9208 10.8314C67.8251 10.92 67.7824 11.0518 67.8079 11.1797L68.6913 15.627C68.7536 15.9408 68.4196 16.184 68.1404 16.0277L64.1839 13.8125C64.0701 13.7488 63.9318 13.7491 63.818 13.8128L59.8611 16.0271C59.5818 16.1834 59.2472 15.9408 59.3096 15.627L60.1931 11.18C60.2185 11.0521 60.176 10.92 60.0803 10.8314L56.7512 7.75258Z" fill="white" stroke="white" stroke-width="2" stroke-linecap="round" stroke-linejoin="round"/>
<path d="M78.7512 7.75258C78.5163 7.53531 78.6439 7.14254 78.9617 7.10487L83.4644 6.5708C83.5939 6.55544 83.7064 6.47411 83.761 6.35569L85.6602 2.23835C85.7942 1.94777 86.2073 1.94771 86.3413 2.23829L88.2405 6.3556C88.2951 6.47403 88.4069 6.55558 88.5364 6.57093L93.0393 7.10487C93.3571 7.14254 93.4843 7.53543 93.2494 7.7527L89.9208 10.8314C89.8251 10.92 89.7824 11.0518 89.8079 11.1797L90.6913 15.627C90.7536 15.9408 90.4196 16.184 90.1404 16.0277L86.1839 13.8125C86.0701 13.7488 85.9318 13.7491 85.818 13.8128L81.8611 16.0271C81.5818 16.1834 81.2472 15.9408 81.3096 15.627L82.1931 11.18C82.2185 11.0521 82.176 10.92 82.0803 10.8314L78.7512 7.75258Z" fill="white" stroke="white" stroke-width="2" stroke-linecap="round" stroke-linejoin="round"/>
<path d="M100.751 7.75258C100.516 7.53531 100.644 7.14254 100.962 7.10487L105.464 6.5708C105.594 6.55544 105.706 6.47411 105.761 6.35569L107.66 2.23835C107.794 1.94777 108.207 1.94771 108.341 2.23829L110.24 6.3556C110.295 6.47403 110.407 6.55558 110.536 6.57093L115.039 7.10487C115.357 7.14254 115.484 7.53543 115.249 7.7527L111.921 10.8314C111.825 10.92 111.782 11.0518 111.808 11.1797L112.691 15.627C112.754 15.9408 112.42 16.184 112.14 16.0277L108.184 13.8125C108.07 13.7488 107.932 13.7491 107.818 13.8128L103.861 16.0271C103.582 16.1834 103.247 15.9408 103.31 15.627L104.193 11.18C104.219 11.0521 104.176 10.92 104.08 10.8314L100.751 7.75258Z" fill="white" stroke="white" stroke-width="2" stroke-linecap="round" stroke-linejoin="round"/>
<path d="M122.751 7.75258C122.516 7.53531 122.644 7.14254 122.962 7.10487L127.464 6.5708C127.594 6.55544 127.706 6.47411 127.761 6.35569L129.66 2.23835C129.794 1.94777 130.207 1.94771 130.341 2.23829L132.24 6.3556C132.295 6.47403 132.407 6.55558 132.536 6.57093L137.039 7.10487C137.357 7.14254 137.484 7.53543 137.249 7.7527L133.921 10.8314C133.825 10.92 133.782 11.0518 133.808 11.1797L134.691 15.627C134.754 15.9408 134.42 16.184 134.14 16.0277L130.184 13.8125C130.07 13.7488 129.932 13.7491 129.818 13.8128L125.861 16.0271C125.582 16.1834 125.247 15.9408 125.31 15.627L126.193 11.18C126.219 11.0521 126.176 10.92 126.08 10.8314L122.751 7.75258Z" fill="white" stroke="white" stroke-width="2" stroke-linecap="round" stroke-linejoin="round"/>
<path d="M1.81275 29.424V35H1.08475V29.424H1.81275ZM5.1895 30.536C5.72283 30.536 6.15483 30.6987 6.4855 31.024C6.81617 31.344 6.9815 31.808 6.9815 32.416V35H6.2615V32.52C6.2615 32.0827 6.15217 31.7493 5.9335 31.52C5.71483 31.2853 5.41617 31.168 5.0375 31.168C4.6535 31.168 4.34683 31.288 4.1175 31.528C3.8935 31.768 3.7815 32.1173 3.7815 32.576V35H3.0535V30.616H3.7815V31.24C3.9255 31.016 4.12017 30.8427 4.3655 30.72C4.61617 30.5973 4.89083 30.536 5.1895 30.536ZM9.05869 31.216V33.8C9.05869 34.0133 9.10402 34.1653 9.19469 34.256C9.28535 34.3413 9.44269 34.384 9.66669 34.384H10.2027V35H9.54669C9.14135 35 8.83735 34.9067 8.63469 34.72C8.43202 34.5333 8.33069 34.2267 8.33069 33.8V31.216H7.76269V30.616H8.33069V29.512H9.05869V30.616H10.2027V31.216H9.05869ZM15.0848 32.64C15.0848 32.7787 15.0768 32.9253 15.0608 33.08H11.5568C11.5834 33.512 11.7301 33.8507 11.9968 34.096C12.2688 34.336 12.5968 34.456 12.9808 34.456C13.2954 34.456 13.5568 34.384 13.7648 34.24C13.9781 34.0907 14.1274 33.8933 14.2128 33.648H14.9968C14.8794 34.0693 14.6448 34.4133 14.2928 34.68C13.9408 34.9413 13.5034 35.072 12.9808 35.072C12.5648 35.072 12.1914 34.9787 11.8608 34.792C11.5354 34.6053 11.2794 34.3413 11.0928 34C10.9061 33.6533 10.8128 33.2533 10.8128 32.8C10.8128 32.3467 10.9034 31.9493 11.0848 31.608C11.2661 31.2667 11.5194 31.0053 11.8448 30.824C12.1754 30.6373 12.5541 30.544 12.9808 30.544C13.3968 30.544 13.7648 30.6347 14.0848 30.816C14.4048 30.9973 14.6501 31.248 14.8208 31.568C14.9968 31.8827 15.0848 32.24 15.0848 32.64ZM14.3328 32.488C14.3328 32.2107 14.2714 31.9733 14.1488 31.776C14.0261 31.5733 13.8581 31.4213 13.6448 31.32C13.4368 31.2133 13.2048 31.16 12.9488 31.16C12.5808 31.16 12.2661 31.2773 12.0048 31.512C11.7488 31.7467 11.6021 32.072 11.5648 32.488H14.3328ZM16.7737 31.328C16.9017 31.0773 17.083 30.8827 17.3177 30.744C17.5577 30.6053 17.8484 30.536 18.1897 30.536V31.288H17.9977C17.1817 31.288 16.7737 31.7307 16.7737 32.616V35H16.0457V30.616H16.7737V31.328ZM21.1661 30.536C21.6994 30.536 22.1314 30.6987 22.4621 31.024C22.7927 31.344 22.9581 31.808 22.9581 32.416V35H22.2381V32.52C22.2381 32.0827 22.1287 31.7493 21.9101 31.52C21.6914 31.2853 21.3927 31.168 21.0141 31.168C20.6301 31.168 20.3234 31.288 20.0941 31.528C19.8701 31.768 19.7581 32.1173 19.7581 32.576V35H19.0301V30.616H19.7581V31.24C19.9021 31.016 20.0967 30.8427 20.3421 30.72C20.5927 30.5973 20.8674 30.536 21.1661 30.536ZM23.8753 32.792C23.8753 32.344 23.9659 31.952 24.1473 31.616C24.3286 31.2747 24.5766 31.0107 24.8913 30.824C25.2113 30.6373 25.5659 30.544 25.9553 30.544C26.3393 30.544 26.6726 30.6267 26.9553 30.792C27.2379 30.9573 27.4486 31.1653 27.5873 31.416V30.616H28.3233V35H27.5873V34.184C27.4433 34.44 27.2273 34.6533 26.9393 34.824C26.6566 34.9893 26.3259 35.072 25.9473 35.072C25.5579 35.072 25.2059 34.976 24.8913 34.784C24.5766 34.592 24.3286 34.3227 24.1473 33.976C23.9659 33.6293 23.8753 33.2347 23.8753 32.792ZM27.5873 32.8C27.5873 32.4693 27.5206 32.1813 27.3873 31.936C27.2539 31.6907 27.0726 31.504 26.8433 31.376C26.6193 31.2427 26.3713 31.176 26.0993 31.176C25.8273 31.176 25.5793 31.24 25.3553 31.368C25.1313 31.496 24.9526 31.6827 24.8193 31.928C24.6859 32.1733 24.6193 32.4613 24.6193 32.792C24.6193 33.128 24.6859 33.4213 24.8193 33.672C24.9526 33.9173 25.1313 34.1067 25.3553 34.24C25.5793 34.368 25.8273 34.432 26.0993 34.432C26.3713 34.432 26.6193 34.368 26.8433 34.24C27.0726 34.1067 27.2539 33.9173 27.3873 33.672C27.5206 33.4213 27.5873 33.1307 27.5873 32.8ZM30.2815 29.08V35H29.5535V29.08H30.2815ZM35.2071 35.072C34.8711 35.072 34.5697 35.016 34.3031 34.904C34.0364 34.7867 33.8257 34.6267 33.6711 34.424C33.5164 34.216 33.4311 33.9787 33.4151 33.712H34.1671C34.1884 33.9307 34.2897 34.1093 34.4711 34.248C34.6577 34.3867 34.9004 34.456 35.1991 34.456C35.4764 34.456 35.6951 34.3947 35.8551 34.272C36.0151 34.1493 36.0951 33.9947 36.0951 33.808C36.0951 33.616 36.0097 33.4747 35.8391 33.384C35.6684 33.288 35.4044 33.1947 35.0471 33.104C34.7217 33.0187 34.4551 32.9333 34.2471 32.848C34.0444 32.7573 33.8684 32.6267 33.7191 32.456C33.5751 32.28 33.5031 32.0507 33.5031 31.768C33.5031 31.544 33.5697 31.3387 33.7031 31.152C33.8364 30.9653 34.0257 30.8187 34.2711 30.712C34.5164 30.6 34.7964 30.544 35.1111 30.544C35.5964 30.544 35.9884 30.6667 36.2871 30.912C36.5857 31.1573 36.7457 31.4933 36.7671 31.92H36.0391C36.0231 31.6907 35.9297 31.5067 35.7591 31.368C35.5937 31.2293 35.3697 31.16 35.0871 31.16C34.8257 31.16 34.6177 31.216 34.4631 31.328C34.3084 31.44 34.2311 31.5867 34.2311 31.768C34.2311 31.912 34.2764 32.032 34.3671 32.128C34.4631 32.2187 34.5804 32.2933 34.7191 32.352C34.8631 32.4053 35.0604 32.4667 35.3111 32.536C35.6257 32.6213 35.8817 32.7067 36.0791 32.792C36.2764 32.872 36.4444 32.9947 36.5831 33.16C36.7271 33.3253 36.8017 33.5413 36.8071 33.808C36.8071 34.048 36.7404 34.264 36.6071 34.456C36.4737 34.648 36.2844 34.8 36.0391 34.912C35.7991 35.0187 35.5217 35.072 35.2071 35.072ZM41.7228 30.616V35H40.9948V34.352C40.8561 34.576 40.6614 34.752 40.4108 34.88C40.1654 35.0027 39.8934 35.064 39.5948 35.064C39.2534 35.064 38.9468 34.9947 38.6748 34.856C38.4028 34.712 38.1868 34.4987 38.0268 34.216C37.8721 33.9333 37.7948 33.5893 37.7948 33.184V30.616H38.5148V33.088C38.5148 33.52 38.6241 33.8533 38.8428 34.088C39.0614 34.3173 39.3601 34.432 39.7388 34.432C40.1281 34.432 40.4348 34.312 40.6588 34.072C40.8828 33.832 40.9948 33.4827 40.9948 33.024V30.616H41.7228ZM43.6799 31.328C43.8079 31.0773 43.9893 30.8827 44.2239 30.744C44.4639 30.6053 44.7546 30.536 45.0959 30.536V31.288H44.9039C44.0879 31.288 43.6799 31.7307 43.6799 32.616V35H42.9519V30.616H43.6799V31.328ZM47.5683 34.328L48.9283 30.616H49.7043L47.9843 35H47.1363L45.4163 30.616H46.2003L47.5683 34.328ZM54.4207 32.64C54.4207 32.7787 54.4127 32.9253 54.3967 33.08H50.8927C50.9194 33.512 51.066 33.8507 51.3327 34.096C51.6047 34.336 51.9327 34.456 52.3167 34.456C52.6314 34.456 52.8927 34.384 53.1007 34.24C53.314 34.0907 53.4634 33.8933 53.5487 33.648H54.3327C54.2154 34.0693 53.9807 34.4133 53.6287 34.68C53.2767 34.9413 52.8394 35.072 52.3167 35.072C51.9007 35.072 51.5274 34.9787 51.1967 34.792C50.8714 34.6053 50.6154 34.3413 50.4287 34C50.242 33.6533 50.1487 33.2533 50.1487 32.8C50.1487 32.3467 50.2394 31.9493 50.4207 31.608C50.602 31.2667 50.8554 31.0053 51.1807 30.824C51.5114 30.6373 51.89 30.544 52.3167 30.544C52.7327 30.544 53.1007 30.6347 53.4207 30.816C53.7407 30.9973 53.986 31.248 54.1567 31.568C54.3327 31.8827 54.4207 32.24 54.4207 32.64ZM53.6687 32.488C53.6687 32.2107 53.6074 31.9733 53.4847 31.776C53.362 31.5733 53.194 31.4213 52.9807 31.32C52.7727 31.2133 52.5407 31.16 52.2847 31.16C51.9167 31.16 51.602 31.2773 51.3407 31.512C51.0847 31.7467 50.938 32.072 50.9007 32.488H53.6687ZM59.1576 30.616L56.5176 37.064H55.7656L56.6296 34.952L54.8616 30.616H55.6696L57.0456 34.168L58.4056 30.616H59.1576ZM62.7503 31.432C62.8996 31.1707 63.1183 30.9573 63.4062 30.792C63.6943 30.6267 64.0223 30.544 64.3903 30.544C64.7849 30.544 65.1396 30.6373 65.4543 30.824C65.7689 31.0107 66.0169 31.2747 66.1983 31.616C66.3796 31.952 66.4703 32.344 66.4703 32.792C66.4703 33.2347 66.3796 33.6293 66.1983 33.976C66.0169 34.3227 65.7662 34.592 65.4462 34.784C65.1316 34.976 64.7796 35.072 64.3903 35.072C64.0116 35.072 63.6783 34.9893 63.3903 34.824C63.1076 34.6587 62.8943 34.448 62.7503 34.192V35H62.0223V29.08H62.7503V31.432ZM65.7263 32.792C65.7263 32.4613 65.6596 32.1733 65.5263 31.928C65.3929 31.6827 65.2116 31.496 64.9823 31.368C64.7583 31.24 64.5103 31.176 64.2383 31.176C63.9716 31.176 63.7236 31.2427 63.4943 31.376C63.2703 31.504 63.0889 31.6933 62.9503 31.944C62.8169 32.1893 62.7503 32.4747 62.7503 32.8C62.7503 33.1307 62.8169 33.4213 62.9503 33.672C63.0889 33.9173 63.2703 34.1067 63.4943 34.24C63.7236 34.368 63.9716 34.432 64.2383 34.432C64.5103 34.432 64.7583 34.368 64.9823 34.24C65.2116 34.1067 65.3929 33.9173 65.5263 33.672C65.6596 33.4213 65.7263 33.128 65.7263 32.792ZM71.2045 30.616L68.5645 37.064H67.8125L68.6765 34.952L66.9085 30.616H67.7165L69.0925 34.168L70.4525 30.616H71.2045ZM78.4531 35H77.7251L74.7971 30.56V35H74.0691V29.416H74.7971L77.7251 33.848V29.416H78.4531V35ZM81.6061 35.072C81.1955 35.072 80.8221 34.9787 80.4861 34.792C80.1555 34.6053 79.8941 34.3413 79.7021 34C79.5155 33.6533 79.4221 33.2533 79.4221 32.8C79.4221 32.352 79.5181 31.9573 79.7101 31.616C79.9075 31.2693 80.1741 31.0053 80.5101 30.824C80.8461 30.6373 81.2221 30.544 81.6381 30.544C82.0541 30.544 82.4301 30.6373 82.7661 30.824C83.1021 31.0053 83.3661 31.2667 83.5581 31.608C83.7555 31.9493 83.8541 32.3467 83.8541 32.8C83.8541 33.2533 83.7528 33.6533 83.5501 34C83.3528 34.3413 83.0835 34.6053 82.7421 34.792C82.4008 34.9787 82.0221 35.072 81.6061 35.072ZM81.6061 34.432C81.8675 34.432 82.1128 34.3707 82.3421 34.248C82.5715 34.1253 82.7555 33.9413 82.8941 33.696C83.0381 33.4507 83.1101 33.152 83.1101 32.8C83.1101 32.448 83.0408 32.1493 82.9021 31.904C82.7635 31.6587 82.5821 31.4773 82.3581 31.36C82.1341 31.2373 81.8915 31.176 81.6301 31.176C81.3635 31.176 81.1181 31.2373 80.8941 31.36C80.6755 31.4773 80.4995 31.6587 80.3661 31.904C80.2328 32.1493 80.1661 32.448 80.1661 32.8C80.1661 33.1573 80.2301 33.4587 80.3581 33.704C80.4915 33.9493 80.6675 34.1333 80.8861 34.256C81.1048 34.3733 81.3448 34.432 81.6061 34.432ZM84.5393 32.8C84.5393 32.3467 84.63 31.952 84.8113 31.616C84.9926 31.2747 85.2433 31.0107 85.5633 30.824C85.8886 30.6373 86.2593 30.544 86.6753 30.544C87.214 30.544 87.6566 30.6747 88.0033 30.936C88.3553 31.1973 88.5873 31.56 88.6993 32.024H87.9153C87.8406 31.7573 87.694 31.5467 87.4753 31.392C87.262 31.2373 86.9953 31.16 86.6753 31.16C86.2593 31.16 85.9233 31.304 85.6673 31.592C85.4113 31.8747 85.2833 32.2773 85.2833 32.8C85.2833 33.328 85.4113 33.736 85.6673 34.024C85.9233 34.312 86.2593 34.456 86.6753 34.456C86.9953 34.456 87.262 34.3813 87.4753 34.232C87.6886 34.0827 87.8353 33.8693 87.9153 33.592H88.6993C88.582 34.04 88.3473 34.4 87.9953 34.672C87.6433 34.9387 87.2033 35.072 86.6753 35.072C86.2593 35.072 85.8886 34.9787 85.5633 34.792C85.2433 34.6053 84.9926 34.3413 84.8113 34C84.63 33.6587 84.5393 33.2587 84.5393 32.8ZM90.3987 31.328C90.5267 31.0773 90.708 30.8827 90.9427 30.744C91.1827 30.6053 91.4734 30.536 91.8147 30.536V31.288H91.6227C90.8067 31.288 90.3987 31.7307 90.3987 32.616V35H89.6707V30.616H90.3987V31.328ZM92.3831 32.792C92.3831 32.344 92.4737 31.952 92.6551 31.616C92.8364 31.2747 93.0844 31.0107 93.3991 30.824C93.7191 30.6373 94.0737 30.544 94.4631 30.544C94.8471 30.544 95.1804 30.6267 95.4631 30.792C95.7457 30.9573 95.9564 31.1653 96.0951 31.416V30.616H96.8311V35H96.0951V34.184C95.9511 34.44 95.7351 34.6533 95.4471 34.824C95.1644 34.9893 94.8337 35.072 94.4551 35.072C94.0657 35.072 93.7137 34.976 93.3991 34.784C93.0844 34.592 92.8364 34.3227 92.6551 33.976C92.4737 33.6293 92.3831 33.2347 92.3831 32.792ZM96.0951 32.8C96.0951 32.4693 96.0284 32.1813 95.8951 31.936C95.7617 31.6907 95.5804 31.504 95.3511 31.376C95.1271 31.2427 94.8791 31.176 94.6071 31.176C94.3351 31.176 94.0871 31.24 93.8631 31.368C93.6391 31.496 93.4604 31.6827 93.3271 31.928C93.1937 32.1733 93.1271 32.4613 93.1271 32.792C93.1271 33.128 93.1937 33.4213 93.3271 33.672C93.4604 33.9173 93.6391 34.1067 93.8631 34.24C94.0871 34.368 94.3351 34.432 94.6071 34.432C94.8791 34.432 95.1271 34.368 95.3511 34.24C95.5804 34.1067 95.7617 33.9173 95.8951 33.672C96.0284 33.4213 96.0951 33.1307 96.0951 32.8ZM99.6133 35.072C99.2773 35.072 98.976 35.016 98.7093 34.904C98.4426 34.7867 98.232 34.6267 98.0773 34.424C97.9226 34.216 97.8373 33.9787 97.8213 33.712H98.5733C98.5946 33.9307 98.696 34.1093 98.8773 34.248C99.064 34.3867 99.3066 34.456 99.6053 34.456C99.8826 34.456 100.101 34.3947 100.261 34.272C100.421 34.1493 100.501 33.9947 100.501 33.808C100.501 33.616 100.416 33.4747 100.245 33.384C100.075 33.288 99.8106 33.1947 99.4533 33.104C99.128 33.0187 98.8613 32.9333 98.6533 32.848C98.4506 32.7573 98.2746 32.6267 98.1253 32.456C97.9813 32.28 97.9093 32.0507 97.9093 31.768C97.9093 31.544 97.976 31.3387 98.1093 31.152C98.2426 30.9653 98.432 30.8187 98.6773 30.712C98.9226 30.6 99.2026 30.544 99.5173 30.544C100.003 30.544 100.395 30.6667 100.693 30.912C100.992 31.1573 101.152 31.4933 101.173 31.92H100.445C100.429 31.6907 100.336 31.5067 100.165 31.368C100 31.2293 99.776 31.16 99.4933 31.16C99.232 31.16 99.024 31.216 98.8693 31.328C98.7146 31.44 98.6373 31.5867 98.6373 31.768C98.6373 31.912 98.6826 32.032 98.7733 32.128C98.8693 32.2187 98.9866 32.2933 99.1253 32.352C99.2693 32.4053 99.4666 32.4667 99.7173 32.536C100.032 32.6213 100.288 32.7067 100.485 32.792C100.683 32.872 100.851 32.9947 100.989 33.16C101.133 33.3253 101.208 33.5413 101.213 33.808C101.213 34.048 101.147 34.264 101.013 34.456C100.88 34.648 100.691 34.8 100.445 34.912C100.205 35.0187 99.928 35.072 99.6133 35.072ZM103.129 31.216V33.8C103.129 34.0133 103.174 34.1653 103.265 34.256C103.356 34.3413 103.513 34.384 103.737 34.384H104.273V35H103.617C103.212 35 102.908 34.9067 102.705 34.72C102.502 34.5333 102.401 34.2267 102.401 33.8V31.216H101.833V30.616H102.401V29.512H103.129V30.616H104.273V31.216H103.129ZM105.531 29.904C105.392 29.904 105.275 29.856 105.179 29.76C105.083 29.664 105.035 29.5467 105.035 29.408C105.035 29.2693 105.083 29.152 105.179 29.056C105.275 28.96 105.392 28.912 105.531 28.912C105.664 28.912 105.776 28.96 105.867 29.056C105.963 29.152 106.011 29.2693 106.011 29.408C106.011 29.5467 105.963 29.664 105.867 29.76C105.776 29.856 105.664 29.904 105.531 29.904ZM105.883 30.616V35H105.155V30.616H105.883ZM109.26 30.536C109.793 30.536 110.225 30.6987 110.556 31.024C110.886 31.344 111.052 31.808 111.052 32.416V35H110.332V32.52C110.332 32.0827 110.222 31.7493 110.004 31.52C109.785 31.2853 109.486 31.168 109.108 31.168C108.724 31.168 108.417 31.288 108.188 31.528C107.964 31.768 107.852 32.1173 107.852 32.576V35H107.124V30.616H107.852V31.24C107.996 31.016 108.19 30.8427 108.436 30.72C108.686 30.5973 108.961 30.536 109.26 30.536ZM111.969 32.792C111.969 32.344 112.06 31.952 112.241 31.616C112.422 31.2747 112.67 31.0107 112.985 30.824C113.305 30.6373 113.66 30.544 114.049 30.544C114.433 30.544 114.766 30.6267 115.049 30.792C115.332 30.9573 115.542 31.1653 115.681 31.416V30.616H116.417V35H115.681V34.184C115.537 34.44 115.321 34.6533 115.033 34.824C114.75 34.9893 114.42 35.072 114.041 35.072C113.652 35.072 113.3 34.976 112.985 34.784C112.67 34.592 112.422 34.3227 112.241 33.976C112.06 33.6293 111.969 33.2347 111.969 32.792ZM115.681 32.8C115.681 32.4693 115.614 32.1813 115.481 31.936C115.348 31.6907 115.166 31.504 114.937 31.376C114.713 31.2427 114.465 31.176 114.193 31.176C113.921 31.176 113.673 31.24 113.449 31.368C113.225 31.496 113.046 31.6827 112.913 31.928C112.78 32.1733 112.713 32.4613 112.713 32.792C112.713 33.128 112.78 33.4213 112.913 33.672C113.046 33.9173 113.225 34.1067 113.449 34.24C113.673 34.368 113.921 34.432 114.193 34.432C114.465 34.432 114.713 34.368 114.937 34.24C115.166 34.1067 115.348 33.9173 115.481 33.672C115.614 33.4213 115.681 33.1307 115.681 32.8ZM118.535 31.216V33.8C118.535 34.0133 118.581 34.1653 118.671 34.256C118.762 34.3413 118.919 34.384 119.143 34.384H119.679V35H119.023C118.618 35 118.314 34.9067 118.111 34.72C117.909 34.5333 117.807 34.2267 117.807 33.8V31.216H117.239V30.616H117.807V29.512H118.535V30.616H119.679V31.216H118.535ZM124.561 32.64C124.561 32.7787 124.553 32.9253 124.537 33.08H121.033C121.06 33.512 121.207 33.8507 121.473 34.096C121.745 34.336 122.073 34.456 122.457 34.456C122.772 34.456 123.033 34.384 123.241 34.24C123.455 34.0907 123.604 33.8933 123.689 33.648H124.473C124.356 34.0693 124.121 34.4133 123.769 34.68C123.417 34.9413 122.98 35.072 122.457 35.072C122.041 35.072 121.668 34.9787 121.337 34.792C121.012 34.6053 120.756 34.3413 120.569 34C120.383 33.6533 120.289 33.2533 120.289 32.8C120.289 32.3467 120.38 31.9493 120.561 31.608C120.743 31.2667 120.996 31.0053 121.321 30.824C121.652 30.6373 122.031 30.544 122.457 30.544C122.873 30.544 123.241 30.6347 123.561 30.816C123.881 30.9973 124.127 31.248 124.297 31.568C124.473 31.8827 124.561 32.24 124.561 32.64ZM123.809 32.488C123.809 32.2107 123.748 31.9733 123.625 31.776C123.503 31.5733 123.335 31.4213 123.121 31.32C122.913 31.2133 122.681 31.16 122.425 31.16C122.057 31.16 121.743 31.2773 121.481 31.512C121.225 31.7467 121.079 32.072 121.041 32.488H123.809ZM128.543 31.216V33.8C128.543 34.0133 128.588 34.1653 128.679 34.256C128.77 34.3413 128.927 34.384 129.151 34.384H129.687V35H129.031C128.626 35 128.322 34.9067 128.119 34.72C127.916 34.5333 127.815 34.2267 127.815 33.8V31.216H127.247V30.616H127.815V29.512H128.543V30.616H129.687V31.216H128.543ZM134.569 32.64C134.569 32.7787 134.561 32.9253 134.545 33.08H131.041C131.068 33.512 131.214 33.8507 131.481 34.096C131.753 34.336 132.081 34.456 132.465 34.456C132.78 34.456 133.041 34.384 133.249 34.24C133.462 34.0907 133.612 33.8933 133.697 33.648H134.481C134.364 34.0693 134.129 34.4133 133.777 34.68C133.425 34.9413 132.988 35.072 132.465 35.072C132.049 35.072 131.676 34.9787 131.345 34.792C131.02 34.6053 130.764 34.3413 130.577 34C130.39 33.6533 130.297 33.2533 130.297 32.8C130.297 32.3467 130.388 31.9493 130.569 31.608C130.75 31.2667 131.004 31.0053 131.329 30.824C131.66 30.6373 132.038 30.544 132.465 30.544C132.881 30.544 133.249 30.6347 133.569 30.816C133.889 30.9973 134.134 31.248 134.305 31.568C134.481 31.8827 134.569 32.24 134.569 32.64ZM133.817 32.488C133.817 32.2107 133.756 31.9733 133.633 31.776C133.51 31.5733 133.342 31.4213 133.129 31.32C132.921 31.2133 132.689 31.16 132.433 31.16C132.065 31.16 131.75 31.2773 131.489 31.512C131.233 31.7467 131.086 32.072 131.049 32.488H133.817ZM135.258 32.792C135.258 32.344 135.349 31.952 135.53 31.616C135.711 31.2747 135.959 31.0107 136.274 30.824C136.594 30.6373 136.949 30.544 137.338 30.544C137.722 30.544 138.055 30.6267 138.338 30.792C138.621 30.9573 138.831 31.1653 138.97 31.416V30.616H139.706V35H138.97V34.184C138.826 34.44 138.61 34.6533 138.322 34.824C138.039 34.9893 137.709 35.072 137.33 35.072C136.941 35.072 136.589 34.976 136.274 34.784C135.959 34.592 135.711 34.3227 135.53 33.976C135.349 33.6293 135.258 33.2347 135.258 32.792ZM138.97 32.8C138.97 32.4693 138.903 32.1813 138.77 31.936C138.637 31.6907 138.455 31.504 138.226 31.376C138.002 31.2427 137.754 31.176 137.482 31.176C137.21 31.176 136.962 31.24 136.738 31.368C136.514 31.496 136.335 31.6827 136.202 31.928C136.069 32.1733 136.002 32.4613 136.002 32.792C136.002 33.128 136.069 33.4213 136.202 33.672C136.335 33.9173 136.514 34.1067 136.738 34.24C136.962 34.368 137.21 34.432 137.482 34.432C137.754 34.432 138.002 34.368 138.226 34.24C138.455 34.1067 138.637 33.9173 138.77 33.672C138.903 33.4213 138.97 33.1307 138.97 32.8ZM146.208 30.536C146.55 30.536 146.854 30.608 147.12 30.752C147.387 30.8907 147.598 31.1013 147.752 31.384C147.907 31.6667 147.984 32.0107 147.984 32.416V35H147.264V32.52C147.264 32.0827 147.155 31.7493 146.936 31.52C146.723 31.2853 146.432 31.168 146.064 31.168C145.686 31.168 145.384 31.2907 145.16 31.536C144.936 31.776 144.824 32.1253 144.824 32.584V35H144.104V32.52C144.104 32.0827 143.995 31.7493 143.776 31.52C143.563 31.2853 143.272 31.168 142.904 31.168C142.526 31.168 142.224 31.2907 142 31.536C141.776 31.776 141.664 32.1253 141.664 32.584V35H140.936V30.616H141.664V31.248C141.808 31.0187 142 30.8427 142.24 30.72C142.486 30.5973 142.755 30.536 143.048 30.536C143.416 30.536 143.742 30.6187 144.024 30.784C144.307 30.9493 144.518 31.192 144.656 31.512C144.779 31.2027 144.982 30.9627 145.264 30.792C145.547 30.6213 145.862 30.536 146.208 30.536ZM149.931 33.992L149.035 36.144H148.546L149.131 33.992H149.931ZM152.689 34.416C153.367 33.872 153.897 33.4267 154.281 33.08C154.665 32.728 154.988 32.3627 155.249 31.984C155.516 31.6 155.649 31.224 155.649 30.856C155.649 30.5093 155.564 30.2373 155.393 30.04C155.228 29.8373 154.959 29.736 154.585 29.736C154.223 29.736 153.94 29.8507 153.737 30.08C153.54 30.304 153.433 30.6053 153.417 30.984H152.713C152.735 30.3867 152.916 29.9253 153.257 29.6C153.599 29.2747 154.039 29.112 154.577 29.112C155.127 29.112 155.561 29.264 155.881 29.568C156.207 29.872 156.369 30.2907 156.369 30.824C156.369 31.2667 156.236 31.6987 155.969 32.12C155.708 32.536 155.409 32.904 155.073 33.224C154.737 33.5387 154.308 33.9067 153.785 34.328H156.537V34.936H152.689V34.416ZM157.379 32.048C157.379 31.1307 157.528 30.416 157.827 29.904C158.125 29.3867 158.648 29.128 159.395 29.128C160.136 29.128 160.656 29.3867 160.955 29.904C161.253 30.416 161.403 31.1307 161.403 32.048C161.403 32.9813 161.253 33.7067 160.955 34.224C160.656 34.7413 160.136 35 159.395 35C158.648 35 158.125 34.7413 157.827 34.224C157.528 33.7067 157.379 32.9813 157.379 32.048ZM160.683 32.048C160.683 31.584 160.651 31.192 160.587 30.872C160.528 30.5467 160.403 30.2853 160.211 30.088C160.024 29.8907 159.752 29.792 159.395 29.792C159.032 29.792 158.755 29.8907 158.563 30.088C158.376 30.2853 158.251 30.5467 158.187 30.872C158.128 31.192 158.099 31.584 158.099 32.048C158.099 32.528 158.128 32.9307 158.187 33.256C158.251 33.5813 158.376 33.8427 158.563 34.04C158.755 34.2373 159.032 34.336 159.395 34.336C159.752 34.336 160.024 34.2373 160.211 34.04C160.403 33.8427 160.528 33.5813 160.587 33.256C160.651 32.9307 160.683 32.528 160.683 32.048ZM162.314 34.416C162.992 33.872 163.522 33.4267 163.906 33.08C164.29 32.728 164.613 32.3627 164.874 31.984C165.141 31.6 165.274 31.224 165.274 30.856C165.274 30.5093 165.189 30.2373 165.018 30.04C164.853 29.8373 164.584 29.736 164.21 29.736C163.848 29.736 163.565 29.8507 163.362 30.08C163.165 30.304 163.058 30.6053 163.042 30.984H162.338C162.36 30.3867 162.541 29.9253 162.882 29.6C163.224 29.2747 163.664 29.112 164.202 29.112C164.752 29.112 165.186 29.264 165.506 29.568C165.832 29.872 165.994 30.2907 165.994 30.824C165.994 31.2667 165.861 31.6987 165.594 32.12C165.333 32.536 165.034 32.904 164.698 33.224C164.362 33.5387 163.933 33.9067 163.41 34.328H166.162V34.936H162.314V34.416ZM170.692 29.848H167.884V31.672C168.006 31.5013 168.188 31.3627 168.428 31.256C168.668 31.144 168.926 31.088 169.204 31.088C169.646 31.088 170.006 31.1813 170.284 31.368C170.561 31.5493 170.758 31.7867 170.876 32.08C170.998 32.368 171.06 32.6747 171.06 33C171.06 33.384 170.988 33.728 170.844 34.032C170.7 34.336 170.478 34.576 170.18 34.752C169.886 34.928 169.521 35.016 169.084 35.016C168.524 35.016 168.07 34.872 167.724 34.584C167.377 34.296 167.166 33.912 167.092 33.432H167.804C167.873 33.736 168.02 33.9733 168.244 34.144C168.468 34.3147 168.75 34.4 169.092 34.4C169.513 34.4 169.83 34.2747 170.044 34.024C170.257 33.768 170.364 33.432 170.364 33.016C170.364 32.6 170.257 32.28 170.044 32.056C169.83 31.8267 169.516 31.712 169.1 31.712C168.817 31.712 168.569 31.7813 168.356 31.92C168.148 32.0533 167.996 32.2373 167.9 32.472H167.212V29.208H170.692V29.848Z" fill="white"/>
</svg>
