<svg width="11" height="41" viewBox="0 0 11 41" fill="none" xmlns="http://www.w3.org/2000/svg">
<g opacity="0.65" clip-path="url(#clip0_10_808)">
<path fill-rule="evenodd" clip-rule="evenodd" d="M-22.3863 15.5C-20.3595 10.0762 -15.1307 6.21429 -9 6.21429C-2.86926 6.21429 2.35943 10.0762 4.38628 15.5H-22.3863ZM-23.2682 19.7857C-23.2798 20.0223 -23.2857 20.2605 -23.2857 20.5C-23.2857 27.6615 -18.0161 33.5923 -11.1429 34.626V26.6225L-17.125 19.7857H-23.2682ZM-6.85714 34.626C0.0160007 33.5923 5.28571 27.6615 5.28571 20.5C5.28571 20.2605 5.27972 20.0223 5.26829 19.7857H-0.875L-6.85714 26.6225V34.626ZM-9 0.5C-20.0457 0.5 -29 9.45432 -29 20.5C-29 31.5457 -20.0457 40.5 -9 40.5C2.04572 40.5 11 31.5457 11 20.5C11 9.45432 2.04572 0.5 -9 0.5Z" fill="#1F1F1F"/>
</g>
<defs>
<clipPath id="clip0_10_808">
<rect width="40" height="40" fill="white" transform="translate(-29 0.5)"/>
</clipPath>
</defs>
</svg>
