<svg width="18" height="19" viewBox="0 0 18 19" fill="none" xmlns="http://www.w3.org/2000/svg">
<path d="M12.75 9.5C12.75 11.5711 11.0711 13.25 9 13.25C6.92893 13.25 5.25 11.5711 5.25 9.5C5.25 7.42893 6.92893 5.75 9 5.75" stroke="#1F1F1F" stroke-width="1.5" stroke-linecap="round"/>
<path d="M10.5 2.15003C10.0153 2.05165 9.5137 2 9 2C4.85786 2 1.5 5.35786 1.5 9.5C1.5 13.6421 4.85786 17 9 17C13.1421 17 16.5 13.6421 16.5 9.5C16.5 8.9863 16.4484 8.48466 16.35 8" stroke="#1F1F1F" stroke-width="1.5" stroke-linecap="round"/>
<path d="M8.46967 8.96967C8.17678 9.26256 8.17678 9.73744 8.46967 10.0303C8.76256 10.3232 9.23744 10.3232 9.53033 10.0303L8.46967 8.96967ZM14.7682 3.73184L14.0425 3.92118C14.111 4.18387 14.3161 4.389 14.5788 4.45754L14.7682 3.73184ZM14.3809 2.24755L13.6552 2.4369V2.4369L14.3809 2.24755ZM13.7235 2.14254L14.2539 2.67287V2.67287L13.7235 2.14254ZM12.8615 3.00458L12.3312 2.47425V2.47425L12.8615 3.00458ZM12.2086 5.11347L11.4829 5.30281L11.4829 5.30281L12.2086 5.11347ZM16.2524 4.11911L16.0631 4.84481L16.2524 4.11911ZM16.3575 4.77647L15.8271 4.24614V4.24614L16.3575 4.77647ZM15.4954 5.63851L16.0257 6.16884V6.16884L15.4954 5.63851ZM13.3865 6.2914L13.1972 7.0171L13.3865 6.2914ZM12.4523 6.04765L11.922 5.51732L8.46967 8.96967L9 9.5L9.53033 10.0303L12.9827 6.57798L12.4523 6.04765ZM14.7682 3.73184L15.4939 3.54249L15.1066 2.05821L14.3809 2.24755L13.6552 2.4369L14.0425 3.92118L14.7682 3.73184ZM13.7235 2.14254L13.1932 1.61221L12.3312 2.47425L12.8615 3.00458L13.3918 3.53491L14.2539 2.67287L13.7235 2.14254ZM12.2086 5.11347L11.4829 5.30281L11.7266 6.237L12.4523 6.04765L13.1781 5.85831L12.9343 4.92412L12.2086 5.11347ZM14.7682 3.73184L14.5788 4.45754L16.0631 4.84481L16.2524 4.11911L16.4418 3.3934L14.9575 3.00613L14.7682 3.73184ZM16.3575 4.77647L15.8271 4.24614L14.9651 5.10818L15.4954 5.63851L16.0257 6.16884L16.8878 5.3068L16.3575 4.77647ZM13.3865 6.2914L13.5759 5.56569L12.6417 5.32195L12.4523 6.04765L12.263 6.77336L13.1972 7.0171L13.3865 6.2914ZM15.4954 5.63851L14.9651 5.10818C14.539 5.53425 13.988 5.67322 13.5759 5.56569L13.3865 6.2914L13.1972 7.0171C14.2004 7.27886 15.2823 6.91233 16.0257 6.16884L15.4954 5.63851ZM16.2524 4.11911L16.0631 4.84481C15.9887 4.82541 15.9118 4.78086 15.8515 4.71121C15.7934 4.64415 15.7647 4.57037 15.7546 4.5072C15.7346 4.38181 15.7826 4.29068 15.8271 4.24614L16.3575 4.77647L16.8878 5.3068C17.1619 5.03272 17.2963 4.64915 17.2358 4.27058C17.1731 3.87778 16.8949 3.51162 16.4418 3.3934L16.2524 4.11911ZM12.8615 3.00458L12.3312 2.47425C11.5877 3.21774 11.2211 4.29958 11.4829 5.30281L12.2086 5.11347L12.9343 4.92412C12.8268 4.51198 12.9658 3.96098 13.3918 3.53491L12.8615 3.00458ZM14.3809 2.24755L15.1066 2.05821C14.9884 1.60511 14.6222 1.32694 14.2294 1.26419C13.8508 1.20372 13.4673 1.33814 13.1932 1.61221L13.7235 2.14254L14.2539 2.67287C14.2093 2.71741 14.1182 2.76544 13.9928 2.74541C13.9296 2.73532 13.8559 2.70664 13.7888 2.64853C13.7191 2.5882 13.6746 2.51128 13.6552 2.4369L14.3809 2.24755Z" fill="#1F1F1F"/>
</svg>
