<svg width="18" height="18" viewBox="0 0 18 18" fill="none" xmlns="http://www.w3.org/2000/svg">
<path d="M1.875 9C1.875 5.64124 1.875 3.96186 2.91843 2.91843C3.96186 1.875 5.64124 1.875 9 1.875C12.3588 1.875 14.0381 1.875 15.0816 2.91843C16.125 3.96186 16.125 5.64124 16.125 9C16.125 12.3588 16.125 14.0381 15.0816 15.0816C14.0381 16.125 12.3588 16.125 9 16.125C5.64124 16.125 3.96186 16.125 2.91843 15.0816C1.875 14.0381 1.875 12.3588 1.875 9Z" stroke="#1F1F1F" stroke-width="1.5" stroke-linejoin="round"/>
<path d="M7.7688 9.01903C8.17884 9.07768 8.55879 8.79282 8.61744 8.38278C8.67609 7.97274 8.39124 7.59279 7.9812 7.53414L7.7688 9.01903ZM13.125 7.875C13.5392 7.875 13.875 7.53921 13.875 7.125C13.875 6.71079 13.5392 6.375 13.125 6.375V7.875ZM10.875 4.5C10.875 4.08579 10.5392 3.75 10.125 3.75C9.71079 3.75 9.375 4.08579 9.375 4.5H10.875ZM10.125 10.875H9.375C9.375 11.9105 8.53553 12.75 7.5 12.75V13.5V14.25C9.36396 14.25 10.875 12.739 10.875 10.875H10.125ZM7.5 13.5V12.75C6.46447 12.75 5.625 11.9105 5.625 10.875H4.875H4.125C4.125 12.739 5.63604 14.25 7.5 14.25V13.5ZM4.875 10.875H5.625C5.625 9.83947 6.46447 9 7.5 9V8.25V7.5C5.63604 7.5 4.125 9.01104 4.125 10.875H4.875ZM7.5 8.25V9C7.59168 9 7.68139 9.00652 7.7688 9.01903L7.875 8.27658L7.9812 7.53414C7.82365 7.51161 7.66296 7.5 7.5 7.5V8.25ZM13.125 7.125V6.375C12.5921 6.375 12.009 6.15374 11.5621 5.78051C11.1159 5.40782 10.875 4.94672 10.875 4.5H10.125H9.375C9.375 5.50302 9.90927 6.35443 10.6006 6.9318C11.2913 7.50864 12.2082 7.875 13.125 7.875V7.125ZM10.125 4.5H9.375V10.875H10.125H10.875V4.5H10.125Z" fill="#1F1F1F"/>
</svg>
