<svg width="361" height="84" viewBox="0 0 361 84" fill="none" xmlns="http://www.w3.org/2000/svg">
<rect width="361" height="84" rx="15" fill="#1F1F1F"/>
<mask id="mask0_155_2609" style="mask-type:alpha" maskUnits="userSpaceOnUse" x="0" y="0" width="361" height="84">
<rect width="361" height="84" rx="15" fill="#1F1F1F"/>
</mask>
<g mask="url(#mask0_155_2609)">
<path d="M56.5 65.4587V49.6253M92.125 37.7503L84.2083 29.8337M48.5833 21.917H64.4167M56.5 97.1253C39.011 97.1253 24.8333 82.9477 24.8333 65.4587C24.8333 47.9696 39.011 33.792 56.5 33.792C73.989 33.792 88.1667 47.9696 88.1667 65.4587C88.1667 82.9477 73.989 97.1253 56.5 97.1253Z" stroke="white" stroke-width="8" stroke-linecap="round"/>
</g>
<path d="M140.131 31.14C139.931 32.3 139.364 33.2667 138.431 34.04C137.497 34.8 136.224 35.18 134.611 35.18H131.931L130.891 41H129.071L131.551 27.06H136.051C137.437 27.06 138.477 27.36 139.171 27.96C139.864 28.5467 140.211 29.3333 140.211 30.32C140.211 30.4933 140.184 30.7667 140.131 31.14ZM134.871 33.74C135.871 33.74 136.651 33.5133 137.211 33.06C137.771 32.5933 138.124 31.9533 138.271 31.14C138.311 30.9 138.331 30.68 138.331 30.48C138.331 29.16 137.484 28.5 135.791 28.5H133.111L132.191 33.74H134.871ZM144.053 32.12C144.493 31.4 145.046 30.84 145.713 30.44C146.379 30.04 147.139 29.84 147.993 29.84L147.653 31.72H147.173C146.226 31.72 145.433 31.9733 144.793 32.48C144.166 32.9867 143.746 33.84 143.533 35.04L142.473 41H140.653L142.593 30.04H144.413L144.053 32.12ZM152.934 41.18C152.014 41.18 151.2 40.9933 150.494 40.62C149.8 40.2333 149.26 39.7 148.874 39.02C148.487 38.3267 148.294 37.5267 148.294 36.62C148.294 35.38 148.58 34.2467 149.154 33.22C149.727 32.18 150.514 31.36 151.514 30.76C152.527 30.16 153.654 29.86 154.894 29.86C155.814 29.86 156.627 30.0533 157.334 30.44C158.054 30.8133 158.607 31.3467 158.994 32.04C159.394 32.72 159.594 33.52 159.594 34.44C159.594 35.68 159.3 36.8133 158.714 37.84C158.127 38.8667 157.327 39.68 156.314 40.28C155.3 40.88 154.174 41.18 152.934 41.18ZM153.154 39.64C154.02 39.64 154.8 39.4067 155.494 38.94C156.187 38.46 156.727 37.8333 157.114 37.06C157.514 36.2733 157.714 35.4333 157.714 34.54C157.714 33.5267 157.42 32.7533 156.834 32.22C156.247 31.6733 155.514 31.4 154.634 31.4C153.767 31.4 152.994 31.64 152.314 32.12C151.634 32.5867 151.107 33.2133 150.734 34C150.36 34.7867 150.174 35.6333 150.174 36.54C150.174 37.5267 150.454 38.2933 151.014 38.84C151.574 39.3733 152.287 39.64 153.154 39.64ZM161.187 35.48C161.387 34.36 161.787 33.38 162.387 32.54C163 31.6867 163.747 31.0267 164.627 30.56C165.507 30.0933 166.44 29.86 167.427 29.86C168.267 29.86 169.02 30.06 169.687 30.46C170.353 30.8467 170.827 31.36 171.107 32L172.127 26.2H173.967L171.347 41H169.507L169.887 38.94C169.42 39.5933 168.793 40.1333 168.007 40.56C167.22 40.9733 166.353 41.18 165.407 41.18C164.553 41.18 163.8 41 163.147 40.64C162.493 40.2667 161.98 39.74 161.607 39.06C161.247 38.38 161.067 37.5933 161.067 36.7C161.067 36.3 161.107 35.8933 161.187 35.48ZM170.487 35.5C170.54 35.22 170.567 34.92 170.567 34.6C170.567 33.6267 170.273 32.86 169.687 32.3C169.113 31.7267 168.38 31.44 167.487 31.44C166.807 31.44 166.153 31.6 165.527 31.92C164.913 32.24 164.387 32.7067 163.947 33.32C163.507 33.9333 163.213 34.6533 163.067 35.48C163.013 35.76 162.987 36.0667 162.987 36.4C162.987 37.3867 163.273 38.1667 163.847 38.74C164.42 39.3 165.153 39.58 166.047 39.58C166.727 39.58 167.373 39.42 167.987 39.1C168.613 38.7667 169.147 38.2933 169.587 37.68C170.04 37.0533 170.34 36.3267 170.487 35.5ZM186.082 30.04L184.142 41H182.322L182.602 39.4C182.162 39.96 181.602 40.3933 180.922 40.7C180.242 41.0067 179.536 41.16 178.802 41.16C177.656 41.16 176.736 40.8533 176.042 40.24C175.362 39.6133 175.022 38.72 175.022 37.56C175.022 37.2667 175.056 36.9 175.122 36.46L176.262 30.04H178.062L176.982 36.22C176.929 36.5 176.902 36.7933 176.902 37.1C176.902 37.9133 177.122 38.5333 177.562 38.96C178.016 39.3733 178.642 39.58 179.442 39.58C180.402 39.58 181.216 39.28 181.882 38.68C182.562 38.08 182.996 37.2067 183.182 36.06V36.12L184.262 30.04H186.082ZM187.495 35.5C187.695 34.3667 188.095 33.38 188.695 32.54C189.309 31.6867 190.062 31.0267 190.955 30.56C191.849 30.0933 192.815 29.86 193.855 29.86C195.202 29.86 196.249 30.1867 196.995 30.84C197.755 31.4933 198.175 32.4 198.255 33.56H196.295C196.229 32.8933 195.955 32.3667 195.475 31.98C195.009 31.5933 194.375 31.4 193.575 31.4C192.535 31.4 191.629 31.76 190.855 32.48C190.095 33.1867 189.602 34.1933 189.375 35.5C189.309 35.94 189.275 36.3067 189.275 36.6C189.275 37.5733 189.535 38.3267 190.055 38.86C190.575 39.38 191.269 39.64 192.135 39.64C192.935 39.64 193.629 39.4533 194.215 39.08C194.815 38.7067 195.275 38.1733 195.595 37.48H197.555C197.075 38.6 196.335 39.5 195.335 40.18C194.335 40.8467 193.175 41.18 191.855 41.18C190.482 41.18 189.389 40.7867 188.575 40C187.775 39.2133 187.375 38.14 187.375 36.78C187.375 36.3667 187.415 35.94 187.495 35.5ZM202.124 38C202.084 38.2 202.064 38.3733 202.064 38.52C202.064 38.8533 202.164 39.0933 202.364 39.24C202.577 39.3867 202.917 39.46 203.384 39.46H204.724L204.444 41H202.804C201.937 41 201.284 40.8333 200.844 40.5C200.417 40.1667 200.204 39.62 200.204 38.86C200.204 38.5667 200.23 38.28 200.284 38L201.424 31.54H200.024L200.284 30.04H201.704L202.184 27.28H204.024L203.544 30.04H206.384L206.124 31.54H203.264L202.124 38ZM209.829 28.26C209.536 28.26 209.289 28.1667 209.089 27.98C208.902 27.78 208.809 27.5333 208.809 27.24C208.809 26.84 208.956 26.5 209.249 26.22C209.542 25.9267 209.882 25.78 210.269 25.78C210.576 25.78 210.822 25.8733 211.009 26.06C211.196 26.2467 211.289 26.4933 211.289 26.8C211.289 27.2 211.142 27.5467 210.849 27.84C210.556 28.12 210.216 28.26 209.829 28.26ZM210.409 30.04L208.469 41H206.649L208.589 30.04H210.409ZM215.951 39.28L220.991 30.04H222.951L216.711 41H214.571L212.211 30.04H214.171L215.951 39.28ZM225.962 28.26C225.668 28.26 225.422 28.1667 225.222 27.98C225.035 27.78 224.942 27.5333 224.942 27.24C224.942 26.84 225.088 26.5 225.382 26.22C225.675 25.9267 226.015 25.78 226.402 25.78C226.708 25.78 226.955 25.8733 227.142 26.06C227.328 26.2467 227.422 26.4933 227.422 26.8C227.422 27.2 227.275 27.5467 226.982 27.84C226.688 28.12 226.348 28.26 225.962 28.26ZM226.542 30.04L224.602 41H222.782L224.722 30.04H226.542ZM230.464 38C230.424 38.2 230.404 38.3733 230.404 38.52C230.404 38.8533 230.504 39.0933 230.704 39.24C230.917 39.3867 231.257 39.46 231.724 39.46H233.064L232.784 41H231.144C230.277 41 229.624 40.8333 229.184 40.5C228.757 40.1667 228.544 39.62 228.544 38.86C228.544 38.5667 228.57 38.28 228.624 38L229.764 31.54H228.364L228.624 30.04H230.044L230.524 27.28H232.364L231.884 30.04H234.724L234.464 31.54H231.604L230.464 38ZM237.649 30.04L239.509 38.88L244.489 30.04H246.369L236.929 46.16H235.029L238.129 40.88L235.629 30.04H237.649ZM261.384 27.04V29.3H257.664V41H254.864V29.3H251.144V27.04H261.384ZM264.847 28.6C264.354 28.6 263.94 28.4467 263.607 28.14C263.287 27.82 263.127 27.4267 263.127 26.96C263.127 26.4933 263.287 26.1067 263.607 25.8C263.94 25.48 264.354 25.32 264.847 25.32C265.34 25.32 265.747 25.48 266.067 25.8C266.4 26.1067 266.567 26.4933 266.567 26.96C266.567 27.4267 266.4 27.82 266.067 28.14C265.747 28.4467 265.34 28.6 264.847 28.6ZM266.227 29.92V41H263.427V29.92H266.227ZM282.753 29.76C284.113 29.76 285.207 30.18 286.033 31.02C286.873 31.8467 287.293 33.0067 287.293 34.5V41H284.493V34.88C284.493 34.0133 284.273 33.3533 283.833 32.9C283.393 32.4333 282.793 32.2 282.033 32.2C281.273 32.2 280.667 32.4333 280.213 32.9C279.773 33.3533 279.553 34.0133 279.553 34.88V41H276.753V34.88C276.753 34.0133 276.533 33.3533 276.093 32.9C275.653 32.4333 275.053 32.2 274.293 32.2C273.52 32.2 272.907 32.4333 272.453 32.9C272.013 33.3533 271.793 34.0133 271.793 34.88V41H268.993V29.92H271.793V31.26C272.153 30.7933 272.613 30.4267 273.173 30.16C273.747 29.8933 274.373 29.76 275.053 29.76C275.92 29.76 276.693 29.9467 277.373 30.32C278.053 30.68 278.58 31.2 278.953 31.88C279.313 31.24 279.833 30.7267 280.513 30.34C281.207 29.9533 281.953 29.76 282.753 29.76ZM300.25 35.22C300.25 35.62 300.224 35.98 300.17 36.3H292.07C292.137 37.1 292.417 37.7267 292.91 38.18C293.404 38.6333 294.01 38.86 294.73 38.86C295.77 38.86 296.51 38.4133 296.95 37.52H299.97C299.65 38.5867 299.037 39.4667 298.13 40.16C297.224 40.84 296.11 41.18 294.79 41.18C293.724 41.18 292.764 40.9467 291.91 40.48C291.07 40 290.41 39.3267 289.93 38.46C289.464 37.5933 289.23 36.5933 289.23 35.46C289.23 34.3133 289.464 33.3067 289.93 32.44C290.397 31.5733 291.05 30.9067 291.89 30.44C292.73 29.9733 293.697 29.74 294.79 29.74C295.844 29.74 296.784 29.9667 297.61 30.42C298.45 30.8733 299.097 31.52 299.55 32.36C300.017 33.1867 300.25 34.14 300.25 35.22ZM297.35 34.42C297.337 33.7 297.077 33.1267 296.57 32.7C296.064 32.26 295.444 32.04 294.71 32.04C294.017 32.04 293.43 32.2533 292.95 32.68C292.484 33.0933 292.197 33.6733 292.09 34.42H297.35ZM305.094 31.64C305.454 31.0533 305.921 30.5933 306.494 30.26C307.081 29.9267 307.747 29.76 308.494 29.76V32.7H307.754C306.874 32.7 306.207 32.9067 305.754 33.32C305.314 33.7333 305.094 34.4533 305.094 35.48V41H302.294V29.92H305.094V31.64Z" fill="white"/>
<path opacity="0.75" d="M203.429 54.05C203.236 53.6433 202.956 53.33 202.589 53.11C202.222 52.8833 201.796 52.77 201.309 52.77C200.822 52.77 200.382 52.8833 199.989 53.11C199.602 53.33 199.296 53.65 199.069 54.07C198.849 54.4833 198.739 54.9633 198.739 55.51C198.739 56.0567 198.849 56.5367 199.069 56.95C199.296 57.3633 199.602 57.6833 199.989 57.91C200.382 58.13 200.822 58.24 201.309 58.24C201.989 58.24 202.549 58.0367 202.989 57.63C203.429 57.2233 203.686 56.6733 203.759 55.98H200.979V55.24H204.729V55.94C204.676 56.5133 204.496 57.04 204.189 57.52C203.882 57.9933 203.479 58.37 202.979 58.65C202.479 58.9233 201.922 59.06 201.309 59.06C200.662 59.06 200.072 58.91 199.539 58.61C199.006 58.3033 198.582 57.88 198.269 57.34C197.962 56.8 197.809 56.19 197.809 55.51C197.809 54.83 197.962 54.22 198.269 53.68C198.582 53.1333 199.006 52.71 199.539 52.41C200.072 52.1033 200.662 51.95 201.309 51.95C202.049 51.95 202.702 52.1333 203.269 52.5C203.842 52.8667 204.259 53.3833 204.519 54.05H203.429ZM210.932 56.05C210.932 56.2233 210.922 56.4067 210.902 56.6H206.522C206.555 57.14 206.739 57.5633 207.072 57.87C207.412 58.17 207.822 58.32 208.302 58.32C208.695 58.32 209.022 58.23 209.282 58.05C209.549 57.8633 209.735 57.6167 209.842 57.31H210.822C210.675 57.8367 210.382 58.2667 209.942 58.6C209.502 58.9267 208.955 59.09 208.302 59.09C207.782 59.09 207.315 58.9733 206.902 58.74C206.495 58.5067 206.175 58.1767 205.942 57.75C205.709 57.3167 205.592 56.8167 205.592 56.25C205.592 55.6833 205.705 55.1867 205.932 54.76C206.159 54.3333 206.475 54.0067 206.882 53.78C207.295 53.5467 207.769 53.43 208.302 53.43C208.822 53.43 209.282 53.5433 209.682 53.77C210.082 53.9967 210.389 54.31 210.602 54.71C210.822 55.1033 210.932 55.55 210.932 56.05ZM209.992 55.86C209.992 55.5133 209.915 55.2167 209.762 54.97C209.609 54.7167 209.399 54.5267 209.132 54.4C208.872 54.2667 208.582 54.2 208.262 54.2C207.802 54.2 207.409 54.3467 207.082 54.64C206.762 54.9333 206.579 55.34 206.532 55.86H209.992ZM213.243 54.27V57.5C213.243 57.7667 213.3 57.9567 213.413 58.07C213.527 58.1767 213.723 58.23 214.003 58.23H214.673V59H213.853C213.347 59 212.967 58.8833 212.713 58.65C212.46 58.4167 212.333 58.0333 212.333 57.5V54.27H211.623V53.52H212.333V52.14H213.243V53.52H214.673V54.27H213.243ZM225.742 53.52L224.032 59H223.092L221.772 54.65L220.452 59H219.512L217.792 53.52H218.722L219.982 58.12L221.342 53.52H222.272L223.602 58.13L224.842 53.52H225.742ZM229.035 59.09C228.522 59.09 228.055 58.9733 227.635 58.74C227.222 58.5067 226.895 58.1767 226.655 57.75C226.422 57.3167 226.305 56.8167 226.305 56.25C226.305 55.69 226.425 55.1967 226.665 54.77C226.912 54.3367 227.245 54.0067 227.665 53.78C228.085 53.5467 228.555 53.43 229.075 53.43C229.595 53.43 230.065 53.5467 230.485 53.78C230.905 54.0067 231.235 54.3333 231.475 54.76C231.722 55.1867 231.845 55.6833 231.845 56.25C231.845 56.8167 231.718 57.3167 231.465 57.75C231.218 58.1767 230.882 58.5067 230.455 58.74C230.028 58.9733 229.555 59.09 229.035 59.09ZM229.035 58.29C229.362 58.29 229.668 58.2133 229.955 58.06C230.242 57.9067 230.472 57.6767 230.645 57.37C230.825 57.0633 230.915 56.69 230.915 56.25C230.915 55.81 230.828 55.4367 230.655 55.13C230.482 54.8233 230.255 54.5967 229.975 54.45C229.695 54.2967 229.392 54.22 229.065 54.22C228.732 54.22 228.425 54.2967 228.145 54.45C227.872 54.5967 227.652 54.8233 227.485 55.13C227.318 55.4367 227.235 55.81 227.235 56.25C227.235 56.6967 227.315 57.0733 227.475 57.38C227.642 57.6867 227.862 57.9167 228.135 58.07C228.408 58.2167 228.708 58.29 229.035 58.29ZM233.951 54.41C234.111 54.0967 234.338 53.8533 234.631 53.68C234.931 53.5067 235.295 53.42 235.721 53.42V54.36H235.481C234.461 54.36 233.951 54.9133 233.951 56.02V59H233.041V53.52H233.951V54.41ZM239.832 59L237.682 56.58V59H236.772V51.6H237.682V55.95L239.792 53.52H241.062L238.482 56.25L241.072 59H239.832ZM244.244 56.24C244.244 55.68 244.358 55.19 244.584 54.77C244.811 54.3433 245.121 54.0133 245.514 53.78C245.914 53.5467 246.361 53.43 246.854 53.43C247.281 53.43 247.678 53.53 248.044 53.73C248.411 53.9233 248.691 54.18 248.884 54.5V51.6H249.804V59H248.884V57.97C248.704 58.2967 248.438 58.5667 248.084 58.78C247.731 58.9867 247.318 59.09 246.844 59.09C246.358 59.09 245.914 58.97 245.514 58.73C245.121 58.49 244.811 58.1533 244.584 57.72C244.358 57.2867 244.244 56.7933 244.244 56.24ZM248.884 56.25C248.884 55.8367 248.801 55.4767 248.634 55.17C248.468 54.8633 248.241 54.63 247.954 54.47C247.674 54.3033 247.364 54.22 247.024 54.22C246.684 54.22 246.374 54.3 246.094 54.46C245.814 54.62 245.591 54.8533 245.424 55.16C245.258 55.4667 245.174 55.8267 245.174 56.24C245.174 56.66 245.258 57.0267 245.424 57.34C245.591 57.6467 245.814 57.8833 246.094 58.05C246.374 58.21 246.684 58.29 247.024 58.29C247.364 58.29 247.674 58.21 247.954 58.05C248.241 57.8833 248.468 57.6467 248.634 57.34C248.801 57.0267 248.884 56.6633 248.884 56.25ZM253.732 59.09C253.219 59.09 252.752 58.9733 252.332 58.74C251.919 58.5067 251.592 58.1767 251.352 57.75C251.119 57.3167 251.002 56.8167 251.002 56.25C251.002 55.69 251.122 55.1967 251.362 54.77C251.609 54.3367 251.942 54.0067 252.362 53.78C252.782 53.5467 253.252 53.43 253.772 53.43C254.292 53.43 254.762 53.5467 255.182 53.78C255.602 54.0067 255.932 54.3333 256.172 54.76C256.419 55.1867 256.542 55.6833 256.542 56.25C256.542 56.8167 256.416 57.3167 256.162 57.75C255.916 58.1767 255.579 58.5067 255.152 58.74C254.726 58.9733 254.252 59.09 253.732 59.09ZM253.732 58.29C254.059 58.29 254.366 58.2133 254.652 58.06C254.939 57.9067 255.169 57.6767 255.342 57.37C255.522 57.0633 255.612 56.69 255.612 56.25C255.612 55.81 255.526 55.4367 255.352 55.13C255.179 54.8233 254.952 54.5967 254.672 54.45C254.392 54.2967 254.089 54.22 253.762 54.22C253.429 54.22 253.122 54.2967 252.842 54.45C252.569 54.5967 252.349 54.8233 252.182 55.13C252.016 55.4367 251.932 55.81 251.932 56.25C251.932 56.6967 252.012 57.0733 252.172 57.38C252.339 57.6867 252.559 57.9167 252.832 58.07C253.106 58.2167 253.406 58.29 253.732 58.29ZM260.409 53.42C261.075 53.42 261.615 53.6233 262.029 54.03C262.442 54.43 262.649 55.01 262.649 55.77V59H261.749V55.9C261.749 55.3533 261.612 54.9367 261.339 54.65C261.065 54.3567 260.692 54.21 260.219 54.21C259.739 54.21 259.355 54.36 259.069 54.66C258.789 54.96 258.649 55.3967 258.649 55.97V59H257.739V53.52H258.649V54.3C258.829 54.02 259.072 53.8033 259.379 53.65C259.692 53.4967 260.035 53.42 260.409 53.42ZM269.135 56.05C269.135 56.2233 269.125 56.4067 269.105 56.6H264.725C264.759 57.14 264.942 57.5633 265.275 57.87C265.615 58.17 266.025 58.32 266.505 58.32C266.899 58.32 267.225 58.23 267.485 58.05C267.752 57.8633 267.939 57.6167 268.045 57.31H269.025C268.879 57.8367 268.585 58.2667 268.145 58.6C267.705 58.9267 267.159 59.09 266.505 59.09C265.985 59.09 265.519 58.9733 265.105 58.74C264.699 58.5067 264.379 58.1767 264.145 57.75C263.912 57.3167 263.795 56.8167 263.795 56.25C263.795 55.6833 263.909 55.1867 264.135 54.76C264.362 54.3333 264.679 54.0067 265.085 53.78C265.499 53.5467 265.972 53.43 266.505 53.43C267.025 53.43 267.485 53.5433 267.885 53.77C268.285 53.9967 268.592 54.31 268.805 54.71C269.025 55.1033 269.135 55.55 269.135 56.05ZM268.195 55.86C268.195 55.5133 268.119 55.2167 267.965 54.97C267.812 54.7167 267.602 54.5267 267.335 54.4C267.075 54.2667 266.785 54.2 266.465 54.2C266.005 54.2 265.612 54.3467 265.285 54.64C264.965 54.9333 264.782 55.34 264.735 55.86H268.195ZM272.662 56.24C272.662 55.68 272.776 55.19 273.002 54.77C273.229 54.3433 273.539 54.0133 273.932 53.78C274.332 53.5467 274.779 53.43 275.272 53.43C275.746 53.43 276.159 53.5367 276.512 53.75C276.872 53.9567 277.136 54.2133 277.302 54.52V53.52H278.222V61.6H277.302V57.99C277.129 58.2967 276.862 58.5567 276.502 58.77C276.142 58.9833 275.722 59.09 275.242 59.09C274.762 59.09 274.326 58.97 273.932 58.73C273.539 58.49 273.229 58.1533 273.002 57.72C272.776 57.2867 272.662 56.7933 272.662 56.24ZM277.302 56.25C277.302 55.8367 277.219 55.4767 277.052 55.17C276.886 54.8633 276.659 54.63 276.372 54.47C276.092 54.3033 275.782 54.22 275.442 54.22C275.102 54.22 274.792 54.3 274.512 54.46C274.232 54.62 274.009 54.8533 273.842 55.16C273.676 55.4667 273.592 55.8267 273.592 56.24C273.592 56.66 273.676 57.0267 273.842 57.34C274.009 57.6467 274.232 57.8833 274.512 58.05C274.792 58.21 275.102 58.29 275.442 58.29C275.782 58.29 276.092 58.21 276.372 58.05C276.659 57.8833 276.886 57.6467 277.052 57.34C277.219 57.0267 277.302 56.6633 277.302 56.25ZM284.62 53.52V59H283.71V58.19C283.537 58.47 283.294 58.69 282.98 58.85C282.674 59.0033 282.334 59.08 281.96 59.08C281.534 59.08 281.15 58.9933 280.81 58.82C280.47 58.64 280.2 58.3733 280 58.02C279.807 57.6667 279.71 57.2367 279.71 56.73V53.52H280.61V56.61C280.61 57.15 280.747 57.5667 281.02 57.86C281.294 58.1467 281.667 58.29 282.14 58.29C282.627 58.29 283.01 58.14 283.29 57.84C283.57 57.54 283.71 57.1033 283.71 56.53V53.52H284.62ZM286.627 52.63C286.453 52.63 286.307 52.57 286.187 52.45C286.067 52.33 286.007 52.1833 286.007 52.01C286.007 51.8367 286.067 51.69 286.187 51.57C286.307 51.45 286.453 51.39 286.627 51.39C286.793 51.39 286.933 51.45 287.047 51.57C287.167 51.69 287.227 51.8367 287.227 52.01C287.227 52.1833 287.167 52.33 287.047 52.45C286.933 52.57 286.793 52.63 286.627 52.63ZM287.067 53.52V59H286.157V53.52H287.067ZM288.278 56.25C288.278 55.6833 288.391 55.19 288.618 54.77C288.844 54.3433 289.158 54.0133 289.558 53.78C289.964 53.5467 290.428 53.43 290.948 53.43C291.621 53.43 292.174 53.5933 292.608 53.92C293.048 54.2467 293.338 54.7 293.478 55.28H292.498C292.404 54.9467 292.221 54.6833 291.948 54.49C291.681 54.2967 291.348 54.2 290.948 54.2C290.428 54.2 290.008 54.38 289.688 54.74C289.368 55.0933 289.208 55.5967 289.208 56.25C289.208 56.91 289.368 57.42 289.688 57.78C290.008 58.14 290.428 58.32 290.948 58.32C291.348 58.32 291.681 58.2267 291.948 58.04C292.214 57.8533 292.398 57.5867 292.498 57.24H293.478C293.331 57.8 293.038 58.25 292.598 58.59C292.158 58.9233 291.608 59.09 290.948 59.09C290.428 59.09 289.964 58.9733 289.558 58.74C289.158 58.5067 288.844 58.1767 288.618 57.75C288.391 57.3233 288.278 56.8233 288.278 56.25ZM297.752 59L295.602 56.58V59H294.692V51.6H295.602V55.95L297.712 53.52H298.982L296.402 56.25L298.992 59H297.752ZM304.838 56.05C304.838 56.2233 304.828 56.4067 304.808 56.6H300.428C300.462 57.14 300.645 57.5633 300.978 57.87C301.318 58.17 301.728 58.32 302.208 58.32C302.602 58.32 302.928 58.23 303.188 58.05C303.455 57.8633 303.642 57.6167 303.748 57.31H304.728C304.582 57.8367 304.288 58.2667 303.848 58.6C303.408 58.9267 302.862 59.09 302.208 59.09C301.688 59.09 301.222 58.9733 300.808 58.74C300.402 58.5067 300.082 58.1767 299.848 57.75C299.615 57.3167 299.498 56.8167 299.498 56.25C299.498 55.6833 299.612 55.1867 299.838 54.76C300.065 54.3333 300.382 54.0067 300.788 53.78C301.202 53.5467 301.675 53.43 302.208 53.43C302.728 53.43 303.188 53.5433 303.588 53.77C303.988 53.9967 304.295 54.31 304.508 54.71C304.728 55.1033 304.838 55.55 304.838 56.05ZM303.898 55.86C303.898 55.5133 303.822 55.2167 303.668 54.97C303.515 54.7167 303.305 54.5267 303.038 54.4C302.778 54.2667 302.488 54.2 302.168 54.2C301.708 54.2 301.315 54.3467 300.988 54.64C300.668 54.9333 300.485 55.34 300.438 55.86H303.898ZM306.95 54.41C307.11 54.0967 307.336 53.8533 307.63 53.68C307.93 53.5067 308.293 53.42 308.72 53.42V54.36H308.48C307.46 54.36 306.95 54.9133 306.95 56.02V59H306.04V53.52H306.95V54.41Z" fill="white"/>
<path d="M331.807 34.7822C332.146 34.4429 332.704 34.4429 333.043 34.7822L338.477 40.2148C338.948 40.6863 339.217 41.3249 339.217 42C339.217 42.6722 338.958 43.3107 338.476 43.7842L338.477 43.7852L333.037 49.2246C332.871 49.3796 332.654 49.4755 332.425 49.4756C332.204 49.4756 331.981 49.3929 331.807 49.2188C331.468 48.8795 331.468 48.3207 331.807 47.9814L337.24 42.5488C337.542 42.2465 337.542 41.7545 337.24 41.4521L331.807 36.0186C331.468 35.6793 331.468 35.1215 331.807 34.7822Z" fill="white" stroke="white" stroke-width="0.5"/>
</svg>
