<svg width="65" height="65" viewBox="0 0 65 65" fill="none" xmlns="http://www.w3.org/2000/svg">
<rect x="0.75" y="0.75" width="63.5" height="63.5" rx="31.75" fill="#1F1F1F" fill-opacity="0.1"/>
<rect x="0.75" y="0.75" width="63.5" height="63.5" rx="31.75" stroke="#1F1F1F" stroke-width="1.5"/>
<path fill-rule="evenodd" clip-rule="evenodd" d="M24.5773 23.9233C24.8911 23.922 25.1961 24.0273 25.4422 24.2222C25.6871 24.4161 25.8592 24.6871 25.9305 24.9911L25.9294 24.9865L25.4968 25.0968L25.9318 24.9966L25.9305 24.9911L26.8006 28.4029L35.9541 26.5722C37.0364 26.36 38.1522 26.3888 39.2222 26.6567C40.2922 26.9246 41.2901 27.425 42.1447 28.1223C42.9992 28.8196 43.6897 29.6967 44.1669 30.6911C44.6442 31.6855 44.8963 32.7729 44.9056 33.8759V33.8796C44.9056 34.5055 44.657 35.1058 44.2144 35.5483C43.7719 35.9909 43.1717 36.2395 42.5458 36.2395H34.3723L32.5903 39.0552L32.5888 39.0575C32.2027 39.6593 31.6717 40.1545 31.0446 40.4981C30.4175 40.8415 29.7134 41.022 28.9984 41.0232H26.8936H26.8901C26.6501 41.0213 26.4147 40.9579 26.2062 40.839C25.9978 40.7202 25.8233 40.5498 25.6994 40.3443C25.5756 40.139 25.5065 39.905 25.4987 39.6652C25.491 39.4263 25.5446 39.1891 25.6542 38.9768L25.6533 38.9784L26.0517 39.1798L25.6553 38.9745L27.0095 36.2969H22.4544C21.8285 36.2969 21.2282 36.0483 20.7857 35.6057C20.3431 35.1632 20.0945 34.5629 20.0945 33.937V25.3265C20.0945 24.9543 20.2423 24.5974 20.5055 24.3343C20.7686 24.0711 21.1255 23.9233 21.4976 23.9233H24.5773Z" fill="#1F1F1F"/>
</svg>
