<svg width="30" height="30" viewBox="0 0 30 30" fill="none" xmlns="http://www.w3.org/2000/svg">
<rect width="30" height="30" rx="15" fill="white"/>
<path d="M13.6629 20.0379C13.3966 20.3042 12.9575 20.3042 12.6912 20.0379L8.13947 15.4862C7.87315 15.2199 7.87315 14.7808 8.13947 14.5145L12.6912 9.96175C12.8284 9.82458 13.0037 9.75961 13.1776 9.75961C13.3513 9.75962 13.5258 9.8247 13.6629 9.96175C13.9292 10.2281 13.9292 10.6671 13.6629 10.9334L9.59747 15.0008L13.6629 19.0662C13.9292 19.3326 13.9292 19.7716 13.6629 20.0379Z" fill="#1F1F1F" stroke="#1F1F1F" stroke-width="0.25"/>
<path d="M8.75293 15.6875C8.37639 15.6875 8.06543 15.3765 8.06543 15C8.06543 14.6235 8.37639 14.3125 8.75293 14.3125L21.375 14.3125C21.7515 14.3125 22.0625 14.6235 22.0625 15C22.0625 15.3765 21.7515 15.6875 21.375 15.6875L8.75293 15.6875Z" fill="#1F1F1F" stroke="#1F1F1F" stroke-width="0.25"/>
</svg>
