<svg width="16" height="15" viewBox="0 0 16 15" fill="none" xmlns="http://www.w3.org/2000/svg">
<path d="M14.8571 0H1.14286C0.839753 0 0.549062 0.121566 0.334735 0.337954C0.120408 0.554342 0 0.847827 0 1.15385V10.9615C0 11.2676 0.120408 11.561 0.334735 11.7774C0.549062 11.9938 0.839753 12.1154 1.14286 12.1154H5.44L4.75429 13.8462H4C3.84845 13.8462 3.7031 13.9069 3.59594 14.0151C3.48878 14.1233 3.42857 14.2701 3.42857 14.4231C3.42857 14.5761 3.48878 14.7228 3.59594 14.831C3.7031 14.9392 3.84845 15 4 15H12C12.1516 15 12.2969 14.9392 12.4041 14.831C12.5112 14.7228 12.5714 14.5761 12.5714 14.4231C12.5714 14.2701 12.5112 14.1233 12.4041 14.0151C12.2969 13.9069 12.1516 13.8462 12 13.8462H11.2457L10.56 12.1154H14.8571C15.1602 12.1154 15.4509 11.9938 15.6653 11.7774C15.8796 11.561 16 11.2676 16 10.9615V1.15385C16 0.847827 15.8796 0.554342 15.6653 0.337954C15.4509 0.121566 15.1602 0 14.8571 0ZM1.14286 1.15385H14.8571V9.23077H1.14286V1.15385Z" fill="#1F1F1F"/>
</svg>
