<svg width="65" height="65" viewBox="0 0 65 65" fill="none" xmlns="http://www.w3.org/2000/svg">
<rect width="65" height="65" rx="32.5" fill="#E9ECEF"/>
<g clip-path="url(#clip0_10_634)">
<path d="M39.7917 24.1667H38.6458C38.4041 22.9911 37.7644 21.9347 36.8346 21.1757C35.9049 20.4168 34.7419 20.0015 33.5417 20H31.4583C30.2581 20.0015 29.0951 20.4168 28.1654 21.1757C27.2356 21.9347 26.5959 22.9911 26.3542 24.1667H25.2083C23.8275 24.1683 22.5037 24.7176 21.5273 25.694C20.5509 26.6704 20.0017 27.9942 20 29.375V32.5H45V29.375C44.9983 27.9942 44.4491 26.6704 43.4727 25.694C42.4963 24.7176 41.1725 24.1683 39.7917 24.1667ZM28.525 24.1667C28.7397 23.5595 29.1367 23.0334 29.6618 22.6605C30.1868 22.2876 30.8143 22.086 31.4583 22.0833H33.5417C34.1857 22.086 34.8132 22.2876 35.3382 22.6605C35.8633 23.0334 36.2603 23.5595 36.475 24.1667H28.525Z" fill="#1F1F1F"/>
<path d="M33.5417 35.6249C33.5417 35.9012 33.4319 36.1661 33.2366 36.3615C33.0412 36.5568 32.7763 36.6666 32.5 36.6666C32.2237 36.6666 31.9588 36.5568 31.7634 36.3615C31.5681 36.1661 31.4583 35.9012 31.4583 35.6249V34.5833H20V39.7916C20.0017 41.1724 20.5509 42.4962 21.5273 43.4726C22.5037 44.449 23.8275 44.9982 25.2083 44.9999H39.7917C41.1725 44.9982 42.4963 44.449 43.4727 43.4726C44.4491 42.4962 44.9983 41.1724 45 39.7916V34.5833H33.5417V35.6249Z" fill="#1F1F1F"/>
</g>
<defs>
<clipPath id="clip0_10_634">
<rect width="25" height="25" fill="white" transform="translate(20 20)"/>
</clipPath>
</defs>
</svg>
