<svg width="51" height="45" viewBox="0 0 51 45" fill="none" xmlns="http://www.w3.org/2000/svg">
<path d="M1.8 4.1H18.6C19.5937 4.1 20.4 3.29375 20.4 2.3C20.4 1.30625 19.5937 0.5 18.6 0.5H1.8C0.80625 0.5 0 1.30625 0 2.3C0 3.29375 0.80625 4.1 1.8 4.1ZM16.2 38.9H1.8C0.80625 38.9 2.86102e-07 39.7063 2.86102e-07 40.7C2.86102e-07 41.6938 0.80625 42.5 1.8 42.5H16.2C17.1937 42.5 18 41.6938 18 40.7C18 39.7063 17.1937 38.9 16.2 38.9ZM1.8 23.3H9C9.99375 23.3 10.8 22.4938 10.8 21.5C10.8 20.5063 9.99375 19.7 9 19.7H1.8C0.80625 19.7 0 20.5063 0 21.5C0 22.4938 0.80625 23.3 1.8 23.3Z" fill="white"/>
<path d="M34.6006 2.3291C34.9022 2.09837 35.433 1.83766 36.0918 1.95117L36.2256 1.97852L36.3564 2.01562C36.9936 2.21914 37.3439 2.69597 37.5049 3.04004C37.6534 3.3575 37.6965 3.66429 37.7148 3.8252C37.7528 4.15789 37.75 4.58627 37.75 4.94238V16.5107H44.7031C45.3815 16.5107 46.091 16.506 46.6553 16.5898C47.2059 16.6716 48.039 16.8937 48.5957 17.6709L48.7031 17.834L48.7979 18.0049C49.2298 18.8575 49.0421 19.6985 48.8604 20.2246C48.6741 20.7637 48.3426 21.3907 48.0293 21.9922L38.4951 40.2969C38.3306 40.6128 38.1357 40.9948 37.9482 41.2725C37.8576 41.4067 37.6776 41.6582 37.3994 41.8711C37.0777 42.1173 36.4951 42.3981 35.7744 42.2217C35.0537 42.0452 34.6668 41.5271 34.4951 41.1602C34.3466 40.8426 34.3035 40.5358 34.2852 40.375C34.2472 40.0422 34.25 39.6139 34.25 39.2578V27.6904H27.2969C26.6186 27.6904 25.909 27.6951 25.3447 27.6113C24.7574 27.5241 23.8488 27.2769 23.2969 26.3672C22.7449 25.4574 22.9457 24.5368 23.1396 23.9756C23.326 23.4365 23.6574 22.8095 23.9707 22.208L33.5049 3.90332C33.6694 3.58746 33.8644 3.20627 34.0518 2.92871C34.1423 2.79454 34.3221 2.54218 34.6006 2.3291Z" stroke="white" stroke-width="3.5"/>
</svg>
