<svg width="361" height="84" viewBox="0 0 361 84" fill="none" xmlns="http://www.w3.org/2000/svg">
<rect width="361" height="84" rx="15" fill="#1F1F1F"/>
<mask id="mask0_921_2952" style="mask-type:alpha" maskUnits="userSpaceOnUse" x="0" y="0" width="361" height="84">
<rect width="361" height="84" rx="15" fill="#1F1F1F"/>
</mask>
<g mask="url(#mask0_921_2952)">
<circle cx="36.5" cy="-19.5" r="50.5" fill="white"/>
<circle opacity="0.4" cx="36.5" cy="-17.5" r="58" stroke="white"/>
<circle opacity="0.25" cx="36.5" cy="-21.5" r="76" stroke="white"/>
<circle opacity="0.12" cx="36.5" cy="-21.5" r="93" stroke="white"/>
</g>
<path d="M135.135 30.6C134.988 31.4267 134.642 32.1133 134.095 32.66C133.562 33.1933 132.908 33.58 132.135 33.82C132.788 33.9267 133.322 34.2467 133.735 34.78C134.148 35.3 134.355 35.92 134.355 36.64C134.355 36.8533 134.335 37.06 134.295 37.26C134.175 37.9667 133.882 38.6067 133.415 39.18C132.962 39.74 132.362 40.1867 131.615 40.52C130.868 40.84 130.028 41 129.095 41H123.895L126.375 27.06H131.375C132.628 27.06 133.575 27.3267 134.215 27.86C134.868 28.3933 135.195 29.0867 135.195 29.94C135.195 30.1533 135.175 30.3733 135.135 30.6ZM133.255 30.82C133.282 30.7 133.295 30.5333 133.295 30.32C133.295 29.7467 133.095 29.3 132.695 28.98C132.295 28.66 131.715 28.5 130.955 28.5H127.935L127.115 33.12H130.175C131.015 33.12 131.708 32.92 132.255 32.52C132.802 32.1067 133.135 31.54 133.255 30.82ZM132.495 37.08C132.535 36.8933 132.555 36.72 132.555 36.56C132.555 35.9467 132.328 35.46 131.875 35.1C131.422 34.74 130.802 34.56 130.015 34.56H126.855L125.975 39.56H129.195C130.088 39.56 130.828 39.34 131.415 38.9C132.002 38.46 132.362 37.8533 132.495 37.08ZM139.561 32.12C140.001 31.4 140.554 30.84 141.221 30.44C141.887 30.04 142.647 29.84 143.501 29.84L143.161 31.72H142.681C141.734 31.72 140.941 31.9733 140.301 32.48C139.674 32.9867 139.254 33.84 139.041 35.04L137.981 41H136.161L138.101 30.04H139.921L139.561 32.12ZM150.322 29.86C151.242 29.86 152.035 30.04 152.702 30.4C153.382 30.7467 153.895 31.24 154.242 31.88C154.602 32.5067 154.782 33.2267 154.782 34.04C154.782 34.32 154.748 34.66 154.682 35.06C154.628 35.4067 154.542 35.7667 154.422 36.14H145.662C145.635 36.4067 145.622 36.6 145.622 36.72C145.622 37.64 145.895 38.36 146.442 38.88C147.002 39.3867 147.728 39.64 148.622 39.64C149.408 39.64 150.095 39.46 150.682 39.1C151.282 38.7267 151.735 38.2333 152.042 37.62H154.002C153.522 38.6733 152.782 39.5333 151.782 40.2C150.795 40.8533 149.648 41.18 148.342 41.18C146.968 41.18 145.862 40.7867 145.022 40C144.195 39.2 143.782 38.1133 143.782 36.74C143.782 36.3533 143.822 35.94 143.902 35.5C144.102 34.3667 144.508 33.3733 145.122 32.52C145.735 31.6667 146.488 31.0133 147.382 30.56C148.288 30.0933 149.268 29.86 150.322 29.86ZM152.842 34.82C152.882 34.5533 152.902 34.3067 152.902 34.08C152.902 33.2267 152.628 32.5667 152.082 32.1C151.548 31.6333 150.848 31.4 149.982 31.4C149.048 31.4 148.202 31.7067 147.442 32.32C146.682 32.92 146.168 33.7533 145.902 34.82H152.842ZM156.304 35.48C156.504 34.36 156.904 33.38 157.504 32.54C158.117 31.6867 158.857 31.0267 159.724 30.56C160.604 30.0933 161.537 29.86 162.524 29.86C163.484 29.86 164.277 30.0667 164.904 30.48C165.531 30.8933 165.964 31.4133 166.204 32.04L166.564 30.04H168.404L166.464 41H164.624L165.004 38.96C164.524 39.6 163.891 40.1333 163.104 40.56C162.317 40.9733 161.451 41.18 160.504 41.18C159.651 41.18 158.897 41 158.244 40.64C157.591 40.2667 157.084 39.74 156.724 39.06C156.364 38.38 156.184 37.5933 156.184 36.7C156.184 36.3 156.224 35.8933 156.304 35.48ZM165.604 35.5C165.657 35.22 165.684 34.92 165.684 34.6C165.684 33.6267 165.391 32.86 164.804 32.3C164.231 31.7267 163.497 31.44 162.604 31.44C161.924 31.44 161.271 31.6 160.644 31.92C160.031 32.24 159.504 32.7067 159.064 33.32C158.624 33.9333 158.331 34.6533 158.184 35.48C158.131 35.76 158.104 36.0667 158.104 36.4C158.104 37.3867 158.391 38.1667 158.964 38.74C159.537 39.3 160.271 39.58 161.164 39.58C161.844 39.58 162.491 39.42 163.104 39.1C163.731 38.7667 164.264 38.2933 164.704 37.68C165.157 37.0533 165.457 36.3267 165.604 35.5ZM172.3 38C172.26 38.2 172.24 38.3733 172.24 38.52C172.24 38.8533 172.34 39.0933 172.54 39.24C172.753 39.3867 173.093 39.46 173.56 39.46H174.9L174.62 41H172.98C172.113 41 171.46 40.8333 171.02 40.5C170.593 40.1667 170.38 39.62 170.38 38.86C170.38 38.5667 170.406 38.28 170.46 38L171.6 31.54H170.2L170.46 30.04H171.88L172.36 27.28H174.2L173.72 30.04H176.56L176.3 31.54H173.44L172.3 38ZM184.245 29.84C185.338 29.84 186.218 30.1467 186.885 30.76C187.551 31.36 187.885 32.2333 187.885 33.38C187.885 33.8067 187.851 34.1933 187.785 34.54L186.645 41H184.845L185.945 34.8C185.998 34.52 186.025 34.2267 186.025 33.92C186.025 33.1067 185.798 32.4867 185.345 32.06C184.905 31.6333 184.285 31.42 183.485 31.42C182.525 31.42 181.705 31.72 181.025 32.32C180.358 32.92 179.925 33.7933 179.725 34.94V34.9L178.645 41H176.825L179.445 26.2H181.265L180.305 31.62C180.758 31.06 181.331 30.6267 182.025 30.32C182.731 30 183.471 29.84 184.245 29.84ZM192.798 28.26C192.504 28.26 192.258 28.1667 192.058 27.98C191.871 27.78 191.778 27.5333 191.778 27.24C191.778 26.84 191.924 26.5 192.218 26.22C192.511 25.9267 192.851 25.78 193.238 25.78C193.544 25.78 193.791 25.8733 193.978 26.06C194.164 26.2467 194.258 26.4933 194.258 26.8C194.258 27.2 194.111 27.5467 193.818 27.84C193.524 28.12 193.184 28.26 192.798 28.26ZM193.378 30.04L191.438 41H189.618L191.558 30.04H193.378ZM201.86 29.84C202.993 29.84 203.9 30.1467 204.58 30.76C205.26 31.36 205.6 32.24 205.6 33.4C205.6 33.8267 205.566 34.2067 205.5 34.54L204.36 41H202.56L203.66 34.8C203.713 34.52 203.74 34.2267 203.74 33.92C203.74 33.1067 203.513 32.4867 203.06 32.06C202.62 31.6333 202 31.42 201.2 31.42C200.24 31.42 199.42 31.72 198.74 32.32C198.073 32.92 197.64 33.7933 197.44 34.94V34.9L196.36 41H194.54L196.48 30.04H198.3L198.02 31.62C198.473 31.0467 199.04 30.6067 199.72 30.3C200.4 29.9933 201.113 29.84 201.86 29.84ZM213.833 29.86C214.779 29.86 215.573 30.0667 216.213 30.48C216.853 30.8933 217.286 31.4133 217.513 32.04L217.873 30.04H219.713L217.733 41.24C217.559 42.24 217.186 43.1267 216.613 43.9C216.053 44.6867 215.339 45.3 214.473 45.74C213.606 46.18 212.646 46.4 211.593 46.4C210.153 46.4 209.013 46.0533 208.173 45.36C207.333 44.68 206.926 43.76 206.953 42.6H208.773C208.853 43.2667 209.166 43.8 209.713 44.2C210.273 44.6133 210.993 44.82 211.873 44.82C212.873 44.82 213.746 44.5067 214.493 43.88C215.239 43.2533 215.713 42.3733 215.913 41.24L216.313 38.94C215.833 39.58 215.199 40.1133 214.413 40.54C213.639 40.9667 212.779 41.18 211.833 41.18C210.979 41.18 210.226 41 209.573 40.64C208.919 40.2667 208.406 39.74 208.033 39.06C207.673 38.38 207.493 37.5933 207.493 36.7C207.493 36.3 207.533 35.8933 207.613 35.48C207.813 34.36 208.213 33.38 208.813 32.54C209.426 31.6867 210.166 31.0267 211.033 30.56C211.913 30.0933 212.846 29.86 213.833 29.86ZM216.912 35.5C216.966 35.22 216.993 34.92 216.993 34.6C216.993 33.6267 216.699 32.86 216.113 32.3C215.539 31.7267 214.806 31.44 213.913 31.44C213.233 31.44 212.579 31.6 211.952 31.92C211.339 32.24 210.813 32.7067 210.373 33.32C209.933 33.9333 209.639 34.6533 209.493 35.48C209.439 35.76 209.413 36.0667 209.413 36.4C209.413 37.3867 209.699 38.1667 210.273 38.74C210.846 39.3 211.579 39.58 212.473 39.58C213.153 39.58 213.799 39.42 214.413 39.1C215.039 38.7667 215.573 38.2933 216.013 37.68C216.466 37.0533 216.766 36.3267 216.912 35.5ZM230.465 29.3V32.8H235.165V35.02H230.465V38.72H235.765V41H227.665V27.02H235.765V29.3H230.465ZM244.43 41L242.15 37.56L240.13 41H237.13L240.75 35.44L237.09 29.92H240.25L242.51 33.34L244.55 29.92H247.55L243.91 35.44L247.59 41H244.43ZM259.41 35.22C259.41 35.62 259.384 35.98 259.33 36.3H251.23C251.297 37.1 251.577 37.7267 252.07 38.18C252.564 38.6333 253.17 38.86 253.89 38.86C254.93 38.86 255.67 38.4133 256.11 37.52H259.13C258.81 38.5867 258.197 39.4667 257.29 40.16C256.384 40.84 255.27 41.18 253.95 41.18C252.884 41.18 251.924 40.9467 251.07 40.48C250.23 40 249.57 39.3267 249.09 38.46C248.624 37.5933 248.39 36.5933 248.39 35.46C248.39 34.3133 248.624 33.3067 249.09 32.44C249.557 31.5733 250.21 30.9067 251.05 30.44C251.89 29.9733 252.857 29.74 253.95 29.74C255.004 29.74 255.944 29.9667 256.77 30.42C257.61 30.8733 258.257 31.52 258.71 32.36C259.177 33.1867 259.41 34.14 259.41 35.22ZM256.51 34.42C256.497 33.7 256.237 33.1267 255.73 32.7C255.224 32.26 254.604 32.04 253.87 32.04C253.177 32.04 252.59 32.2533 252.11 32.68C251.644 33.0933 251.357 33.6733 251.25 34.42H256.51ZM264.254 31.64C264.614 31.0533 265.081 30.5933 265.654 30.26C266.241 29.9267 266.908 29.76 267.654 29.76V32.7H266.914C266.034 32.7 265.368 32.9067 264.914 33.32C264.474 33.7333 264.254 34.4533 264.254 35.48V41H261.454V29.92H264.254V31.64ZM268.82 35.46C268.82 34.3133 269.053 33.3133 269.52 32.46C269.987 31.5933 270.633 30.9267 271.46 30.46C272.287 29.98 273.233 29.74 274.3 29.74C275.673 29.74 276.807 30.0867 277.7 30.78C278.607 31.46 279.213 32.42 279.52 33.66H276.5C276.34 33.18 276.067 32.8067 275.68 32.54C275.307 32.26 274.84 32.12 274.28 32.12C273.48 32.12 272.847 32.4133 272.38 33C271.913 33.5733 271.68 34.3933 271.68 35.46C271.68 36.5133 271.913 37.3333 272.38 37.92C272.847 38.4933 273.48 38.78 274.28 38.78C275.413 38.78 276.153 38.2733 276.5 37.26H279.52C279.213 38.46 278.607 39.4133 277.7 40.12C276.793 40.8267 275.66 41.18 274.3 41.18C273.233 41.18 272.287 40.9467 271.46 40.48C270.633 40 269.987 39.3333 269.52 38.48C269.053 37.6133 268.82 36.6067 268.82 35.46ZM282.991 28.6C282.498 28.6 282.085 28.4467 281.751 28.14C281.431 27.82 281.271 27.4267 281.271 26.96C281.271 26.4933 281.431 26.1067 281.751 25.8C282.085 25.48 282.498 25.32 282.991 25.32C283.485 25.32 283.891 25.48 284.211 25.8C284.545 26.1067 284.711 26.4933 284.711 26.96C284.711 27.4267 284.545 27.82 284.211 28.14C283.891 28.4467 283.485 28.6 282.991 28.6ZM284.371 29.92V41H281.571V29.92H284.371ZM291.378 41.18C290.471 41.18 289.658 41.02 288.938 40.7C288.218 40.3667 287.644 39.92 287.218 39.36C286.804 38.8 286.578 38.18 286.538 37.5H289.358C289.411 37.9267 289.618 38.28 289.978 38.56C290.351 38.84 290.811 38.98 291.358 38.98C291.891 38.98 292.304 38.8733 292.598 38.66C292.904 38.4467 293.058 38.1733 293.058 37.84C293.058 37.48 292.871 37.2133 292.498 37.04C292.138 36.8533 291.558 36.6533 290.758 36.44C289.931 36.24 289.251 36.0333 288.718 35.82C288.198 35.6067 287.744 35.28 287.358 34.84C286.984 34.4 286.798 33.8067 286.798 33.06C286.798 32.4467 286.971 31.8867 287.318 31.38C287.678 30.8733 288.184 30.4733 288.838 30.18C289.504 29.8867 290.284 29.74 291.178 29.74C292.498 29.74 293.551 30.0733 294.338 30.74C295.124 31.3933 295.558 32.28 295.638 33.4H292.958C292.918 32.96 292.731 32.6133 292.398 32.36C292.078 32.0933 291.644 31.96 291.098 31.96C290.591 31.96 290.198 32.0533 289.918 32.24C289.651 32.4267 289.518 32.6867 289.518 33.02C289.518 33.3933 289.704 33.68 290.078 33.88C290.451 34.0667 291.031 34.26 291.818 34.46C292.618 34.66 293.278 34.8667 293.798 35.08C294.318 35.2933 294.764 35.6267 295.138 36.08C295.524 36.52 295.724 37.1067 295.738 37.84C295.738 38.48 295.558 39.0533 295.198 39.56C294.851 40.0667 294.344 40.4667 293.678 40.76C293.024 41.04 292.258 41.18 291.378 41.18ZM308.336 35.22C308.336 35.62 308.31 35.98 308.256 36.3H300.156C300.223 37.1 300.503 37.7267 300.996 38.18C301.49 38.6333 302.096 38.86 302.816 38.86C303.856 38.86 304.596 38.4133 305.036 37.52H308.056C307.736 38.5867 307.123 39.4667 306.216 40.16C305.31 40.84 304.196 41.18 302.876 41.18C301.81 41.18 300.85 40.9467 299.996 40.48C299.156 40 298.496 39.3267 298.016 38.46C297.55 37.5933 297.316 36.5933 297.316 35.46C297.316 34.3133 297.55 33.3067 298.016 32.44C298.483 31.5733 299.136 30.9067 299.976 30.44C300.816 29.9733 301.783 29.74 302.876 29.74C303.93 29.74 304.87 29.9667 305.696 30.42C306.536 30.8733 307.183 31.52 307.636 32.36C308.103 33.1867 308.336 34.14 308.336 35.22ZM305.436 34.42C305.423 33.7 305.163 33.1267 304.656 32.7C304.15 32.26 303.53 32.04 302.796 32.04C302.103 32.04 301.516 32.2533 301.036 32.68C300.57 33.0933 300.283 33.6733 300.176 34.42H305.436Z" fill="white"/>
<path opacity="0.75" d="M209.762 55.51C209.762 54.83 209.915 54.22 210.222 53.68C210.529 53.1333 210.945 52.7067 211.472 52.4C212.005 52.0933 212.595 51.94 213.242 51.94C214.002 51.94 214.665 52.1233 215.232 52.49C215.799 52.8567 216.212 53.3767 216.472 54.05H215.382C215.189 53.63 214.909 53.3067 214.542 53.08C214.182 52.8533 213.749 52.74 213.242 52.74C212.755 52.74 212.319 52.8533 211.932 53.08C211.545 53.3067 211.242 53.63 211.022 54.05C210.802 54.4633 210.692 54.95 210.692 55.51C210.692 56.0633 210.802 56.55 211.022 56.97C211.242 57.3833 211.545 57.7033 211.932 57.93C212.319 58.1567 212.755 58.27 213.242 58.27C213.749 58.27 214.182 58.16 214.542 57.94C214.909 57.7133 215.189 57.39 215.382 56.97H216.472C216.212 57.6367 215.799 58.1533 215.232 58.52C214.665 58.88 214.002 59.06 213.242 59.06C212.595 59.06 212.005 58.91 211.472 58.61C210.945 58.3033 210.529 57.88 210.222 57.34C209.915 56.8 209.762 56.19 209.762 55.51ZM217.487 56.24C217.487 55.68 217.6 55.19 217.827 54.77C218.053 54.3433 218.363 54.0133 218.757 53.78C219.157 53.5467 219.6 53.43 220.087 53.43C220.567 53.43 220.983 53.5333 221.337 53.74C221.69 53.9467 221.953 54.2067 222.127 54.52V53.52H223.047V59H222.127V57.98C221.947 58.3 221.677 58.5667 221.317 58.78C220.963 58.9867 220.55 59.09 220.077 59.09C219.59 59.09 219.15 58.97 218.757 58.73C218.363 58.49 218.053 58.1533 217.827 57.72C217.6 57.2867 217.487 56.7933 217.487 56.24ZM222.127 56.25C222.127 55.8367 222.043 55.4767 221.877 55.17C221.71 54.8633 221.483 54.63 221.197 54.47C220.917 54.3033 220.607 54.22 220.267 54.22C219.927 54.22 219.617 54.3 219.337 54.46C219.057 54.62 218.833 54.8533 218.667 55.16C218.5 55.4667 218.417 55.8267 218.417 56.24C218.417 56.66 218.5 57.0267 218.667 57.34C218.833 57.6467 219.057 57.8833 219.337 58.05C219.617 58.21 219.927 58.29 220.267 58.29C220.607 58.29 220.917 58.21 221.197 58.05C221.483 57.8833 221.71 57.6467 221.877 57.34C222.043 57.0267 222.127 56.6633 222.127 56.25ZM225.494 51.6V59H224.584V51.6H225.494ZM233.635 53.42C234.062 53.42 234.442 53.51 234.775 53.69C235.109 53.8633 235.372 54.1267 235.565 54.48C235.759 54.8333 235.855 55.2633 235.855 55.77V59H234.955V55.9C234.955 55.3533 234.819 54.9367 234.545 54.65C234.279 54.3567 233.915 54.21 233.455 54.21C232.982 54.21 232.605 54.3633 232.325 54.67C232.045 54.97 231.905 55.4067 231.905 55.98V59H231.005V55.9C231.005 55.3533 230.869 54.9367 230.595 54.65C230.329 54.3567 229.965 54.21 229.505 54.21C229.032 54.21 228.655 54.3633 228.375 54.67C228.095 54.97 227.955 55.4067 227.955 55.98V59H227.045V53.52H227.955V54.31C228.135 54.0233 228.375 53.8033 228.675 53.65C228.982 53.4967 229.319 53.42 229.685 53.42C230.145 53.42 230.552 53.5233 230.905 53.73C231.259 53.9367 231.522 54.24 231.695 54.64C231.849 54.2533 232.102 53.9533 232.455 53.74C232.809 53.5267 233.202 53.42 233.635 53.42ZM244.734 53.52L241.434 61.58H240.494L241.574 58.94L239.364 53.52H240.374L242.094 57.96L243.794 53.52H244.734ZM248.039 59.09C247.526 59.09 247.059 58.9733 246.639 58.74C246.226 58.5067 245.899 58.1767 245.659 57.75C245.426 57.3167 245.309 56.8167 245.309 56.25C245.309 55.69 245.429 55.1967 245.669 54.77C245.916 54.3367 246.249 54.0067 246.669 53.78C247.089 53.5467 247.559 53.43 248.079 53.43C248.599 53.43 249.069 53.5467 249.489 53.78C249.909 54.0067 250.239 54.3333 250.479 54.76C250.726 55.1867 250.849 55.6833 250.849 56.25C250.849 56.8167 250.722 57.3167 250.469 57.75C250.222 58.1767 249.886 58.5067 249.459 58.74C249.032 58.9733 248.559 59.09 248.039 59.09ZM248.039 58.29C248.366 58.29 248.672 58.2133 248.959 58.06C249.246 57.9067 249.476 57.6767 249.649 57.37C249.829 57.0633 249.919 56.69 249.919 56.25C249.919 55.81 249.832 55.4367 249.659 55.13C249.486 54.8233 249.259 54.5967 248.979 54.45C248.699 54.2967 248.396 54.22 248.069 54.22C247.736 54.22 247.429 54.2967 247.149 54.45C246.876 54.5967 246.656 54.8233 246.489 55.13C246.322 55.4367 246.239 55.81 246.239 56.25C246.239 56.6967 246.319 57.0733 246.479 57.38C246.646 57.6867 246.866 57.9167 247.139 58.07C247.412 58.2167 247.712 58.29 248.039 58.29ZM256.905 53.52V59H255.995V58.19C255.822 58.47 255.579 58.69 255.265 58.85C254.959 59.0033 254.619 59.08 254.245 59.08C253.819 59.08 253.435 58.9933 253.095 58.82C252.755 58.64 252.485 58.3733 252.285 58.02C252.092 57.6667 251.995 57.2367 251.995 56.73V53.52H252.895V56.61C252.895 57.15 253.032 57.5667 253.305 57.86C253.579 58.1467 253.952 58.29 254.425 58.29C254.912 58.29 255.295 58.14 255.575 57.84C255.855 57.54 255.995 57.1033 255.995 56.53V53.52H256.905ZM259.352 54.41C259.512 54.0967 259.739 53.8533 260.032 53.68C260.332 53.5067 260.695 53.42 261.122 53.42V54.36H260.882C259.862 54.36 259.352 54.9133 259.352 56.02V59H258.442V53.52H259.352V54.41ZM264.112 59.09C263.692 59.09 263.316 59.02 262.982 58.88C262.649 58.7333 262.386 58.5333 262.192 58.28C261.999 58.02 261.892 57.7233 261.872 57.39H262.812C262.839 57.6633 262.966 57.8867 263.192 58.06C263.426 58.2333 263.729 58.32 264.102 58.32C264.449 58.32 264.722 58.2433 264.922 58.09C265.122 57.9367 265.222 57.7433 265.222 57.51C265.222 57.27 265.116 57.0933 264.902 56.98C264.689 56.86 264.359 56.7433 263.912 56.63C263.506 56.5233 263.172 56.4167 262.912 56.31C262.659 56.1967 262.439 56.0333 262.252 55.82C262.072 55.6 261.982 55.3133 261.982 54.96C261.982 54.68 262.066 54.4233 262.232 54.19C262.399 53.9567 262.636 53.7733 262.942 53.64C263.249 53.5 263.599 53.43 263.992 53.43C264.599 53.43 265.089 53.5833 265.462 53.89C265.836 54.1967 266.036 54.6167 266.062 55.15H265.152C265.132 54.8633 265.016 54.6333 264.802 54.46C264.596 54.2867 264.316 54.2 263.962 54.2C263.636 54.2 263.376 54.27 263.182 54.41C262.989 54.55 262.892 54.7333 262.892 54.96C262.892 55.14 262.949 55.29 263.062 55.41C263.182 55.5233 263.329 55.6167 263.502 55.69C263.682 55.7567 263.929 55.8333 264.242 55.92C264.636 56.0267 264.956 56.1333 265.202 56.24C265.449 56.34 265.659 56.4933 265.832 56.7C266.012 56.9067 266.106 57.1767 266.112 57.51C266.112 57.81 266.029 58.08 265.862 58.32C265.696 58.56 265.459 58.75 265.152 58.89C264.852 59.0233 264.506 59.09 264.112 59.09ZM272.397 56.05C272.397 56.2233 272.387 56.4067 272.367 56.6H267.987C268.02 57.14 268.204 57.5633 268.537 57.87C268.877 58.17 269.287 58.32 269.767 58.32C270.16 58.32 270.487 58.23 270.747 58.05C271.014 57.8633 271.2 57.6167 271.307 57.31H272.287C272.14 57.8367 271.847 58.2667 271.407 58.6C270.967 58.9267 270.42 59.09 269.767 59.09C269.247 59.09 268.78 58.9733 268.367 58.74C267.96 58.5067 267.64 58.1767 267.407 57.75C267.174 57.3167 267.057 56.8167 267.057 56.25C267.057 55.6833 267.17 55.1867 267.397 54.76C267.624 54.3333 267.94 54.0067 268.347 53.78C268.76 53.5467 269.234 53.43 269.767 53.43C270.287 53.43 270.747 53.5433 271.147 53.77C271.547 53.9967 271.854 54.31 272.067 54.71C272.287 55.1033 272.397 55.55 272.397 56.05ZM271.457 55.86C271.457 55.5133 271.38 55.2167 271.227 54.97C271.074 54.7167 270.864 54.5267 270.597 54.4C270.337 54.2667 270.047 54.2 269.727 54.2C269.267 54.2 268.874 54.3467 268.547 54.64C268.227 54.9333 268.044 55.34 267.997 55.86H271.457ZM274.508 51.6V59H273.598V51.6H274.508ZM278.289 54.27H277.139V59H276.229V54.27H275.519V53.52H276.229V53.13C276.229 52.5167 276.386 52.07 276.699 51.79C277.019 51.5033 277.529 51.36 278.229 51.36V52.12C277.829 52.12 277.546 52.2 277.379 52.36C277.219 52.5133 277.139 52.77 277.139 53.13V53.52H278.289V54.27ZM281.676 56.24C281.676 55.68 281.789 55.19 282.016 54.77C282.243 54.3433 282.553 54.0133 282.946 53.78C283.346 53.5467 283.793 53.43 284.286 53.43C284.713 53.43 285.109 53.53 285.476 53.73C285.843 53.9233 286.123 54.18 286.316 54.5V51.6H287.236V59H286.316V57.97C286.136 58.2967 285.869 58.5667 285.516 58.78C285.163 58.9867 284.749 59.09 284.276 59.09C283.789 59.09 283.346 58.97 282.946 58.73C282.553 58.49 282.243 58.1533 282.016 57.72C281.789 57.2867 281.676 56.7933 281.676 56.24ZM286.316 56.25C286.316 55.8367 286.233 55.4767 286.066 55.17C285.899 54.8633 285.673 54.63 285.386 54.47C285.106 54.3033 284.796 54.22 284.456 54.22C284.116 54.22 283.806 54.3 283.526 54.46C283.246 54.62 283.023 54.8533 282.856 55.16C282.689 55.4667 282.606 55.8267 282.606 56.24C282.606 56.66 282.689 57.0267 282.856 57.34C283.023 57.6467 283.246 57.8833 283.526 58.05C283.806 58.21 284.116 58.29 284.456 58.29C284.796 58.29 285.106 58.21 285.386 58.05C285.673 57.8833 285.899 57.6467 286.066 57.34C286.233 57.0267 286.316 56.6633 286.316 56.25ZM291.164 59.09C290.651 59.09 290.184 58.9733 289.764 58.74C289.351 58.5067 289.024 58.1767 288.784 57.75C288.551 57.3167 288.434 56.8167 288.434 56.25C288.434 55.69 288.554 55.1967 288.794 54.77C289.041 54.3367 289.374 54.0067 289.794 53.78C290.214 53.5467 290.684 53.43 291.204 53.43C291.724 53.43 292.194 53.5467 292.614 53.78C293.034 54.0067 293.364 54.3333 293.604 54.76C293.851 55.1867 293.974 55.6833 293.974 56.25C293.974 56.8167 293.847 57.3167 293.594 57.75C293.347 58.1767 293.011 58.5067 292.584 58.74C292.157 58.9733 291.684 59.09 291.164 59.09ZM291.164 58.29C291.491 58.29 291.797 58.2133 292.084 58.06C292.371 57.9067 292.601 57.6767 292.774 57.37C292.954 57.0633 293.044 56.69 293.044 56.25C293.044 55.81 292.957 55.4367 292.784 55.13C292.611 54.8233 292.384 54.5967 292.104 54.45C291.824 54.2967 291.521 54.22 291.194 54.22C290.861 54.22 290.554 54.2967 290.274 54.45C290.001 54.5967 289.781 54.8233 289.614 55.13C289.447 55.4367 289.364 55.81 289.364 56.25C289.364 56.6967 289.444 57.0733 289.604 57.38C289.771 57.6867 289.991 57.9167 290.264 58.07C290.537 58.2167 290.837 58.29 291.164 58.29ZM302.47 53.52L300.76 59H299.82L298.5 54.65L297.18 59H296.24L294.52 53.52H295.45L296.71 58.12L298.07 53.52H299L300.33 58.13L301.57 53.52H302.47ZM306.044 53.42C306.71 53.42 307.25 53.6233 307.664 54.03C308.077 54.43 308.284 55.01 308.284 55.77V59H307.384V55.9C307.384 55.3533 307.247 54.9367 306.974 54.65C306.7 54.3567 306.327 54.21 305.854 54.21C305.374 54.21 304.99 54.36 304.704 54.66C304.424 54.96 304.284 55.3967 304.284 55.97V59H303.374V53.52H304.284V54.3C304.464 54.02 304.707 53.8033 305.014 53.65C305.327 53.4967 305.67 53.42 306.044 53.42Z" fill="white"/>
<path d="M331.807 34.7822C332.146 34.4429 332.704 34.4429 333.043 34.7822L338.477 40.2148C338.948 40.6863 339.217 41.3249 339.217 42C339.217 42.6722 338.958 43.3107 338.476 43.7842L338.477 43.7852L333.037 49.2246C332.871 49.3796 332.653 49.4755 332.425 49.4756C332.204 49.4756 331.981 49.3929 331.807 49.2188C331.468 48.8795 331.468 48.3207 331.807 47.9814L337.24 42.5488C337.542 42.2465 337.542 41.7545 337.24 41.4521L331.807 36.0186C331.468 35.6793 331.468 35.1215 331.807 34.7822Z" fill="white" stroke="white" stroke-width="0.5"/>
</svg>
