<svg width="106" height="18" viewBox="0 0 106 18" fill="none" xmlns="http://www.w3.org/2000/svg">
<path d="M1.75122 7.75258C1.51628 7.53531 1.6439 7.14254 1.96167 7.10487L6.46436 6.5708C6.59387 6.55544 6.70636 6.47411 6.76099 6.35569L8.66016 2.23835C8.79419 1.94777 9.20728 1.94771 9.34131 2.23829L11.2405 6.3556C11.2951 6.47403 11.4069 6.55558 11.5364 6.57093L16.0393 7.10487C16.3571 7.14254 16.4843 7.53543 16.2494 7.7527L12.9208 10.8314C12.8251 10.92 12.7824 11.0518 12.8079 11.1797L13.6913 15.627C13.7536 15.9408 13.4196 16.184 13.1404 16.0277L9.18386 13.8125C9.07006 13.7488 8.9318 13.7491 8.818 13.8128L4.86108 16.0271C4.58185 16.1834 4.24721 15.9408 4.30957 15.627L5.19311 11.18C5.21852 11.0521 5.176 10.92 5.08025 10.8314L1.75122 7.75258Z" fill="white" stroke="white" stroke-width="2" stroke-linecap="round" stroke-linejoin="round"/>
<path d="M23.7512 7.75258C23.5163 7.53531 23.6439 7.14254 23.9617 7.10487L28.4644 6.5708C28.5939 6.55544 28.7064 6.47411 28.761 6.35569L30.6602 2.23835C30.7942 1.94777 31.2073 1.94771 31.3413 2.23829L33.2405 6.3556C33.2951 6.47403 33.4069 6.55558 33.5364 6.57093L38.0393 7.10487C38.3571 7.14254 38.4843 7.53543 38.2494 7.7527L34.9208 10.8314C34.8251 10.92 34.7824 11.0518 34.8079 11.1797L35.6913 15.627C35.7536 15.9408 35.4196 16.184 35.1404 16.0277L31.1839 13.8125C31.0701 13.7488 30.9318 13.7491 30.818 13.8128L26.8611 16.0271C26.5818 16.1834 26.2472 15.9408 26.3096 15.627L27.1931 11.18C27.2185 11.0521 27.176 10.92 27.0803 10.8314L23.7512 7.75258Z" fill="white" stroke="white" stroke-width="2" stroke-linecap="round" stroke-linejoin="round"/>
<path d="M45.7512 7.75258C45.5163 7.53531 45.6439 7.14254 45.9617 7.10487L50.4644 6.5708C50.5939 6.55544 50.7064 6.47411 50.761 6.35569L52.6602 2.23835C52.7942 1.94777 53.2073 1.94771 53.3413 2.23829L55.2405 6.3556C55.2951 6.47403 55.4069 6.55558 55.5364 6.57093L60.0393 7.10487C60.3571 7.14254 60.4843 7.53543 60.2494 7.7527L56.9208 10.8314C56.8251 10.92 56.7824 11.0518 56.8079 11.1797L57.6913 15.627C57.7536 15.9408 57.4196 16.184 57.1404 16.0277L53.1839 13.8125C53.0701 13.7488 52.9318 13.7491 52.818 13.8128L48.8611 16.0271C48.5818 16.1834 48.2472 15.9408 48.3096 15.627L49.1931 11.18C49.2185 11.0521 49.176 10.92 49.0803 10.8314L45.7512 7.75258Z" fill="white" stroke="white" stroke-width="2" stroke-linecap="round" stroke-linejoin="round"/>
<path d="M67.7512 7.75258C67.5163 7.53531 67.6439 7.14254 67.9617 7.10487L72.4644 6.5708C72.5939 6.55544 72.7064 6.47411 72.761 6.35569L74.6602 2.23835C74.7942 1.94777 75.2073 1.94771 75.3413 2.23829L77.2405 6.3556C77.2951 6.47403 77.4069 6.55558 77.5364 6.57093L82.0393 7.10487C82.3571 7.14254 82.4843 7.53543 82.2494 7.7527L78.9208 10.8314C78.8251 10.92 78.7824 11.0518 78.8079 11.1797L79.6913 15.627C79.7536 15.9408 79.4196 16.184 79.1404 16.0277L75.1839 13.8125C75.0701 13.7488 74.9318 13.7491 74.818 13.8128L70.8611 16.0271C70.5818 16.1834 70.2472 15.9408 70.3096 15.627L71.1931 11.18C71.2185 11.0521 71.176 10.92 71.0803 10.8314L67.7512 7.75258Z" fill="white" stroke="white" stroke-width="2" stroke-linecap="round" stroke-linejoin="round"/>
<path d="M89.7512 7.75258C89.5163 7.53531 89.6439 7.14254 89.9617 7.10487L94.4644 6.5708C94.5939 6.55544 94.7064 6.47411 94.761 6.35569L96.6602 2.23835C96.7942 1.94777 97.2073 1.94771 97.3413 2.23829L99.2405 6.3556C99.2951 6.47403 99.4069 6.55558 99.5364 6.57093L104.039 7.10487C104.357 7.14254 104.484 7.53543 104.249 7.7527L100.921 10.8314C100.825 10.92 100.782 11.0518 100.808 11.1797L101.691 15.627C101.754 15.9408 101.42 16.184 101.14 16.0277L97.1839 13.8125C97.0701 13.7488 96.9318 13.7491 96.818 13.8128L92.8611 16.0271C92.5818 16.1834 92.2472 15.9408 92.3096 15.627L93.1931 11.18C93.2185 11.0521 93.176 10.92 93.0803 10.8314L89.7512 7.75258Z" fill="white" stroke="white" stroke-width="2" stroke-linecap="round" stroke-linejoin="round"/>
</svg>
